%TF.GenerationSoftware,KiCad,Pcbnew,(6.99.0-4502-gf1556ed801-dirty)*%
%TF.CreationDate,2022-12-17T20:16:55-05:00*%
%TF.ProjectId,siox,73696f78-2e6b-4696-9361-645f70636258,rev?*%
%TF.SameCoordinates,Original*%
%TF.FileFunction,Copper,L2,Bot*%
%TF.FilePolarity,Positive*%
%FSLAX46Y46*%
G04 Gerber Fmt 4.6, Leading zero omitted, Abs format (unit mm)*
G04 Created by KiCad (PCBNEW (6.99.0-4502-gf1556ed801-dirty)) date 2022-12-17 20:16:55*
%MOMM*%
%LPD*%
G01*
G04 APERTURE LIST*
%TA.AperFunction,ViaPad*%
%ADD10C,0.800000*%
%TD*%
%TA.AperFunction,ViaPad*%
%ADD11C,1.660000*%
%TD*%
%TA.AperFunction,Conductor*%
%ADD12C,0.250000*%
%TD*%
G04 APERTURE END LIST*
D10*
%TO.N,GND1*%
X98600000Y-59300000D03*
X114600000Y-58700000D03*
X112350000Y-58825000D03*
X109550000Y-58925000D03*
X101975000Y-58775000D03*
X106375000Y-69750000D03*
X114600000Y-63175000D03*
X122125000Y-59975000D03*
X124150000Y-61300000D03*
X119475000Y-62625000D03*
X123025000Y-63600000D03*
X117125000Y-65150000D03*
X119375000Y-66275000D03*
X110400000Y-63625000D03*
X104750000Y-63100000D03*
X106400000Y-72225000D03*
X101625000Y-68900000D03*
X103125000Y-72175000D03*
X99900000Y-72225000D03*
X96625000Y-72200000D03*
X89500000Y-58875000D03*
X90100000Y-63550000D03*
X98250000Y-68900000D03*
X95925000Y-65350000D03*
X130825000Y-59625000D03*
X129250000Y-60500000D03*
X117825000Y-59325000D03*
X115825000Y-69975000D03*
X110400000Y-69300000D03*
X105500000Y-67275000D03*
X108825000Y-67300000D03*
D11*
%TO.N,PI*%
X128560000Y-57480000D03*
%TO.N,*%
X113320000Y-57480000D03*
X127290000Y-55570000D03*
X99350000Y-55570000D03*
X105700000Y-57480000D03*
X120940000Y-57480000D03*
X112050000Y-55570000D03*
X114590000Y-55570000D03*
X109510000Y-55570000D03*
X118400000Y-57480000D03*
X129830000Y-55570000D03*
X108240000Y-57480000D03*
%TO.N,P12*%
X95540000Y-57480000D03*
%TO.N,*%
X98080000Y-57480000D03*
X103160000Y-57480000D03*
X117130000Y-55570000D03*
%TO.N,MP1*%
X110780000Y-57480000D03*
%TO.N,*%
X101890000Y-55570000D03*
X106970000Y-55570000D03*
X104430000Y-55570000D03*
X122210000Y-55570000D03*
X131100000Y-57480000D03*
X93000000Y-57480000D03*
X91730000Y-55570000D03*
X115860000Y-57480000D03*
X119670000Y-55570000D03*
X96810000Y-55570000D03*
X126020000Y-57480000D03*
X124750000Y-55570000D03*
X94270000Y-55570000D03*
X123480000Y-57480000D03*
X100620000Y-57480000D03*
%TO.N,CE*%
X128560000Y-53660000D03*
%TO.N,*%
X100620000Y-53660000D03*
X113320000Y-53660000D03*
X115860000Y-53660000D03*
%TO.N,MP1*%
X110780000Y-53660000D03*
%TO.N,*%
X131100000Y-53660000D03*
X118400000Y-53660000D03*
X103160000Y-53660000D03*
X108240000Y-53660000D03*
X105700000Y-53660000D03*
X123480000Y-53660000D03*
X93000000Y-53660000D03*
X120940000Y-53660000D03*
X98080000Y-53660000D03*
X126020000Y-53660000D03*
X95540000Y-53660000D03*
X119670000Y-51750000D03*
X129830000Y-51750000D03*
X122210000Y-51750000D03*
X127290000Y-51750000D03*
X124750000Y-51750000D03*
X112050000Y-51750000D03*
X117130000Y-51750000D03*
X114590000Y-51750000D03*
X109510000Y-51750000D03*
X101890000Y-51750000D03*
X106970000Y-51750000D03*
X104430000Y-51750000D03*
X96810000Y-51750000D03*
X99350000Y-51750000D03*
X94270000Y-51750000D03*
X91730000Y-51750000D03*
D10*
%TO.N,PI*%
X114500000Y-67274500D03*
%TO.N,P12*%
X105800000Y-66000000D03*
X110475500Y-65324500D03*
%TO.N,GND1*%
X96000000Y-62800000D03*
X95800000Y-61225500D03*
%TO.N,P12*%
X98050000Y-60800000D03*
X101200000Y-63950000D03*
%TO.N,XE*%
X106000000Y-61150000D03*
X105950000Y-59625500D03*
%TO.N,CI*%
X114900000Y-65974500D03*
X114950000Y-64725500D03*
%TO.N,GND1*%
X115900000Y-59300000D03*
D11*
X132370000Y-51750000D03*
X132370000Y-55570000D03*
X90460000Y-57480000D03*
X90460000Y-53660000D03*
D10*
%TO.N,CE*%
X112250000Y-61750000D03*
X114750000Y-60250000D03*
%TD*%
D12*
%TO.N,PI*%
X128550500Y-58600000D02*
X128550500Y-57489500D01*
X128550500Y-58600000D02*
X128150000Y-59000500D01*
X121615616Y-59000500D02*
X128150000Y-59000500D01*
X118358058Y-62258058D02*
X121615616Y-59000500D01*
X118358058Y-65391942D02*
X118358058Y-62258058D01*
X116475500Y-67274500D02*
X118358058Y-65391942D01*
X114500000Y-67274500D02*
X116475500Y-67274500D01*
%TO.N,P12*%
X98050000Y-60800000D02*
X101200000Y-63950000D01*
X105800000Y-66000000D02*
X109800000Y-66000000D01*
X109800000Y-66000000D02*
X110475500Y-65324500D01*
%TO.N,GND1*%
X95800000Y-62600000D02*
X96000000Y-62800000D01*
X95800000Y-61225500D02*
X95800000Y-62600000D01*
%TO.N,XE*%
X105950000Y-61100000D02*
X106000000Y-61150000D01*
X105950000Y-59625500D02*
X105950000Y-61100000D01*
%TO.N,CI*%
X114950000Y-65924500D02*
X114900000Y-65974500D01*
X114950000Y-64725500D02*
X114950000Y-65924500D01*
%TO.N,CE*%
X112250000Y-61750000D02*
X113250000Y-61750000D01*
X113250000Y-61750000D02*
X114750000Y-60250000D01*
%TD*%
%TA.AperFunction,Conductor*%
%TO.N,GND1*%
G36*
X132715723Y-50020502D02*
G01*
X132736697Y-50037405D01*
X133862595Y-51163302D01*
X133896620Y-51225614D01*
X133899500Y-51252397D01*
X133899500Y-58146998D01*
X133879498Y-58215119D01*
X133861868Y-58236815D01*
X130836571Y-61213317D01*
X130773984Y-61246834D01*
X130748203Y-61249500D01*
X125250099Y-61249500D01*
X125250000Y-61249459D01*
X125249901Y-61249500D01*
X125249617Y-61249617D01*
X125249576Y-61249717D01*
X123749716Y-62749576D01*
X123749617Y-62749617D01*
X123749576Y-62749716D01*
X123749458Y-62750000D01*
X123749500Y-62750101D01*
X123749500Y-69447603D01*
X123729498Y-69515724D01*
X123712595Y-69536698D01*
X121536697Y-71712595D01*
X121474385Y-71746621D01*
X121447602Y-71749500D01*
X115803363Y-71749500D01*
X115735242Y-71729498D01*
X115713118Y-71711431D01*
X113858981Y-69808500D01*
X113850426Y-69799720D01*
X113850383Y-69799617D01*
X113850205Y-69799544D01*
X113850007Y-69799458D01*
X113849903Y-69799500D01*
X111750097Y-69799500D01*
X111749991Y-69799458D01*
X111749788Y-69799547D01*
X111749617Y-69799617D01*
X111749574Y-69799721D01*
X111733603Y-69816263D01*
X111733602Y-69816263D01*
X108986942Y-72661019D01*
X108925236Y-72696132D01*
X108896297Y-72699500D01*
X90738843Y-72699500D01*
X90670722Y-72679498D01*
X90651029Y-72663859D01*
X88951186Y-71011899D01*
X88916275Y-70950079D01*
X88913000Y-70921540D01*
X88913000Y-66000000D01*
X104886496Y-66000000D01*
X104906458Y-66189928D01*
X104965473Y-66371556D01*
X105060960Y-66536944D01*
X105065378Y-66541851D01*
X105065379Y-66541852D01*
X105147452Y-66633003D01*
X105188747Y-66678866D01*
X105343248Y-66791118D01*
X105349276Y-66793802D01*
X105349278Y-66793803D01*
X105511681Y-66866109D01*
X105517712Y-66868794D01*
X105611113Y-66888647D01*
X105698056Y-66907128D01*
X105698061Y-66907128D01*
X105704513Y-66908500D01*
X105895487Y-66908500D01*
X105901939Y-66907128D01*
X105901944Y-66907128D01*
X105988887Y-66888647D01*
X106082288Y-66868794D01*
X106088319Y-66866109D01*
X106250722Y-66793803D01*
X106250724Y-66793802D01*
X106256752Y-66791118D01*
X106330474Y-66737556D01*
X106389671Y-66694546D01*
X106411253Y-66678866D01*
X106415668Y-66673963D01*
X106420580Y-66669540D01*
X106421705Y-66670789D01*
X106475014Y-66637949D01*
X106508200Y-66633500D01*
X109721233Y-66633500D01*
X109732416Y-66634027D01*
X109739909Y-66635702D01*
X109747835Y-66635453D01*
X109747836Y-66635453D01*
X109807986Y-66633562D01*
X109811945Y-66633500D01*
X109839856Y-66633500D01*
X109843791Y-66633003D01*
X109843856Y-66632995D01*
X109855693Y-66632062D01*
X109887951Y-66631048D01*
X109891970Y-66630922D01*
X109899889Y-66630673D01*
X109919343Y-66625021D01*
X109938700Y-66621013D01*
X109950930Y-66619468D01*
X109950931Y-66619468D01*
X109958797Y-66618474D01*
X109966168Y-66615555D01*
X109966170Y-66615555D01*
X109999912Y-66602196D01*
X110011142Y-66598351D01*
X110045983Y-66588229D01*
X110045984Y-66588229D01*
X110053593Y-66586018D01*
X110060412Y-66581985D01*
X110060417Y-66581983D01*
X110071028Y-66575707D01*
X110088776Y-66567012D01*
X110107617Y-66559552D01*
X110143387Y-66533564D01*
X110153307Y-66527048D01*
X110184535Y-66508580D01*
X110184538Y-66508578D01*
X110191362Y-66504542D01*
X110205683Y-66490221D01*
X110220717Y-66477380D01*
X110230694Y-66470131D01*
X110237107Y-66465472D01*
X110265298Y-66431395D01*
X110273288Y-66422616D01*
X110425999Y-66269905D01*
X110488311Y-66235879D01*
X110515094Y-66233000D01*
X110570987Y-66233000D01*
X110577439Y-66231628D01*
X110577444Y-66231628D01*
X110664388Y-66213147D01*
X110757788Y-66193294D01*
X110763819Y-66190609D01*
X110926222Y-66118303D01*
X110926224Y-66118302D01*
X110932252Y-66115618D01*
X111086753Y-66003366D01*
X111194283Y-65883942D01*
X111210121Y-65866352D01*
X111210122Y-65866351D01*
X111214540Y-65861444D01*
X111310027Y-65696056D01*
X111369042Y-65514428D01*
X111373841Y-65468774D01*
X111388314Y-65331065D01*
X111389004Y-65324500D01*
X111382482Y-65262444D01*
X111369732Y-65141135D01*
X111369732Y-65141133D01*
X111369042Y-65134572D01*
X111310027Y-64952944D01*
X111214540Y-64787556D01*
X111152754Y-64718935D01*
X111091175Y-64650545D01*
X111091174Y-64650544D01*
X111086753Y-64645634D01*
X110987657Y-64573636D01*
X110937594Y-64537263D01*
X110937593Y-64537262D01*
X110932252Y-64533382D01*
X110926224Y-64530698D01*
X110926222Y-64530697D01*
X110763819Y-64458391D01*
X110763818Y-64458391D01*
X110757788Y-64455706D01*
X110664388Y-64435853D01*
X110577444Y-64417372D01*
X110577439Y-64417372D01*
X110570987Y-64416000D01*
X110380013Y-64416000D01*
X110373561Y-64417372D01*
X110373556Y-64417372D01*
X110286612Y-64435853D01*
X110193212Y-64455706D01*
X110187182Y-64458391D01*
X110187181Y-64458391D01*
X110024778Y-64530697D01*
X110024776Y-64530698D01*
X110018748Y-64533382D01*
X110013407Y-64537262D01*
X110013406Y-64537263D01*
X109963343Y-64573636D01*
X109864247Y-64645634D01*
X109859826Y-64650544D01*
X109859825Y-64650545D01*
X109798247Y-64718935D01*
X109736460Y-64787556D01*
X109640973Y-64952944D01*
X109581958Y-65134572D01*
X109581268Y-65141133D01*
X109581268Y-65141135D01*
X109569440Y-65253671D01*
X109542427Y-65319328D01*
X109484205Y-65359957D01*
X109444130Y-65366500D01*
X106508200Y-65366500D01*
X106440079Y-65346498D01*
X106420853Y-65330157D01*
X106420580Y-65330460D01*
X106415668Y-65326037D01*
X106411253Y-65321134D01*
X106337229Y-65267352D01*
X106262094Y-65212763D01*
X106262093Y-65212762D01*
X106256752Y-65208882D01*
X106250724Y-65206198D01*
X106250722Y-65206197D01*
X106088319Y-65133891D01*
X106088318Y-65133891D01*
X106082288Y-65131206D01*
X105988888Y-65111353D01*
X105901944Y-65092872D01*
X105901939Y-65092872D01*
X105895487Y-65091500D01*
X105704513Y-65091500D01*
X105698061Y-65092872D01*
X105698056Y-65092872D01*
X105611112Y-65111353D01*
X105517712Y-65131206D01*
X105511682Y-65133891D01*
X105511681Y-65133891D01*
X105349278Y-65206197D01*
X105349276Y-65206198D01*
X105343248Y-65208882D01*
X105188747Y-65321134D01*
X105184326Y-65326044D01*
X105184325Y-65326045D01*
X105088917Y-65432007D01*
X105060960Y-65463056D01*
X104965473Y-65628444D01*
X104906458Y-65810072D01*
X104905768Y-65816633D01*
X104905768Y-65816635D01*
X104900543Y-65866352D01*
X104886496Y-66000000D01*
X88913000Y-66000000D01*
X88913000Y-60800000D01*
X97136496Y-60800000D01*
X97156458Y-60989928D01*
X97215473Y-61171556D01*
X97310960Y-61336944D01*
X97315378Y-61341851D01*
X97315379Y-61341852D01*
X97343174Y-61372721D01*
X97438747Y-61478866D01*
X97593248Y-61591118D01*
X97599276Y-61593802D01*
X97599278Y-61593803D01*
X97761681Y-61666109D01*
X97767712Y-61668794D01*
X97853101Y-61686944D01*
X97948056Y-61707128D01*
X97948061Y-61707128D01*
X97954513Y-61708500D01*
X98010406Y-61708500D01*
X98078527Y-61728502D01*
X98099501Y-61745405D01*
X100252878Y-63898783D01*
X100286904Y-63961095D01*
X100289093Y-63974708D01*
X100296653Y-64046634D01*
X100306458Y-64139928D01*
X100365473Y-64321556D01*
X100460960Y-64486944D01*
X100588747Y-64628866D01*
X100687843Y-64700864D01*
X100730788Y-64732065D01*
X100743248Y-64741118D01*
X100749276Y-64743802D01*
X100749278Y-64743803D01*
X100911681Y-64816109D01*
X100917712Y-64818794D01*
X101011113Y-64838647D01*
X101098056Y-64857128D01*
X101098061Y-64857128D01*
X101104513Y-64858500D01*
X101295487Y-64858500D01*
X101301939Y-64857128D01*
X101301944Y-64857128D01*
X101388887Y-64838647D01*
X101482288Y-64818794D01*
X101488319Y-64816109D01*
X101650722Y-64743803D01*
X101650724Y-64743802D01*
X101656752Y-64741118D01*
X101669213Y-64732065D01*
X101712157Y-64700864D01*
X101811253Y-64628866D01*
X101939040Y-64486944D01*
X102034527Y-64321556D01*
X102093542Y-64139928D01*
X102103348Y-64046634D01*
X102112814Y-63956565D01*
X102113504Y-63950000D01*
X102093542Y-63760072D01*
X102034527Y-63578444D01*
X101939040Y-63413056D01*
X101811253Y-63271134D01*
X101656752Y-63158882D01*
X101650724Y-63156198D01*
X101650722Y-63156197D01*
X101488319Y-63083891D01*
X101488318Y-63083891D01*
X101482288Y-63081206D01*
X101388887Y-63061353D01*
X101301944Y-63042872D01*
X101301939Y-63042872D01*
X101295487Y-63041500D01*
X101239594Y-63041500D01*
X101171473Y-63021498D01*
X101150499Y-63004595D01*
X98997122Y-60851217D01*
X98963096Y-60788905D01*
X98960907Y-60775292D01*
X98944232Y-60616635D01*
X98944232Y-60616633D01*
X98943542Y-60610072D01*
X98884527Y-60428444D01*
X98789040Y-60263056D01*
X98783196Y-60256565D01*
X98665675Y-60126045D01*
X98665674Y-60126044D01*
X98661253Y-60121134D01*
X98506752Y-60008882D01*
X98500724Y-60006198D01*
X98500722Y-60006197D01*
X98338319Y-59933891D01*
X98338318Y-59933891D01*
X98332288Y-59931206D01*
X98238888Y-59911353D01*
X98151944Y-59892872D01*
X98151939Y-59892872D01*
X98145487Y-59891500D01*
X97954513Y-59891500D01*
X97948061Y-59892872D01*
X97948056Y-59892872D01*
X97861112Y-59911353D01*
X97767712Y-59931206D01*
X97761682Y-59933891D01*
X97761681Y-59933891D01*
X97599278Y-60006197D01*
X97599276Y-60006198D01*
X97593248Y-60008882D01*
X97438747Y-60121134D01*
X97434326Y-60126044D01*
X97434325Y-60126045D01*
X97316805Y-60256565D01*
X97310960Y-60263056D01*
X97215473Y-60428444D01*
X97156458Y-60610072D01*
X97136496Y-60800000D01*
X88913000Y-60800000D01*
X88913000Y-55570000D01*
X90386387Y-55570000D01*
X90406800Y-55803316D01*
X90408224Y-55808629D01*
X90408224Y-55808631D01*
X90456356Y-55988261D01*
X90467417Y-56029543D01*
X90469740Y-56034524D01*
X90469740Y-56034525D01*
X90564071Y-56236820D01*
X90564074Y-56236825D01*
X90566397Y-56241807D01*
X90700733Y-56433658D01*
X90866342Y-56599267D01*
X90870850Y-56602424D01*
X90870853Y-56602426D01*
X90897170Y-56620853D01*
X91058193Y-56733603D01*
X91063175Y-56735926D01*
X91063180Y-56735929D01*
X91218154Y-56808194D01*
X91270457Y-56832583D01*
X91275765Y-56834005D01*
X91275767Y-56834006D01*
X91491369Y-56891776D01*
X91491371Y-56891776D01*
X91496684Y-56893200D01*
X91502170Y-56893680D01*
X91502176Y-56893681D01*
X91615631Y-56903608D01*
X91681749Y-56929471D01*
X91723389Y-56986975D01*
X91726356Y-57061738D01*
X91676800Y-57246684D01*
X91656387Y-57480000D01*
X91676800Y-57713316D01*
X91737417Y-57939543D01*
X91739740Y-57944524D01*
X91739740Y-57944525D01*
X91834071Y-58146820D01*
X91834074Y-58146825D01*
X91836397Y-58151807D01*
X91970733Y-58343658D01*
X92136342Y-58509267D01*
X92140850Y-58512424D01*
X92140853Y-58512426D01*
X92220848Y-58568439D01*
X92328193Y-58643603D01*
X92333175Y-58645926D01*
X92333180Y-58645929D01*
X92523071Y-58734476D01*
X92540457Y-58742583D01*
X92545765Y-58744005D01*
X92545767Y-58744006D01*
X92761369Y-58801776D01*
X92761371Y-58801776D01*
X92766684Y-58803200D01*
X93000000Y-58823613D01*
X93233316Y-58803200D01*
X93238629Y-58801776D01*
X93238631Y-58801776D01*
X93454233Y-58744006D01*
X93454235Y-58744005D01*
X93459543Y-58742583D01*
X93476929Y-58734476D01*
X93666820Y-58645929D01*
X93666825Y-58645926D01*
X93671807Y-58643603D01*
X93779152Y-58568439D01*
X93859147Y-58512426D01*
X93859150Y-58512424D01*
X93863658Y-58509267D01*
X94029267Y-58343658D01*
X94163603Y-58151807D01*
X94164305Y-58152298D01*
X94212262Y-58106570D01*
X94281976Y-58093133D01*
X94347887Y-58119519D01*
X94376066Y-58152039D01*
X94376397Y-58151807D01*
X94510733Y-58343658D01*
X94676342Y-58509267D01*
X94680850Y-58512424D01*
X94680853Y-58512426D01*
X94760848Y-58568439D01*
X94868193Y-58643603D01*
X94873175Y-58645926D01*
X94873180Y-58645929D01*
X95063071Y-58734476D01*
X95080457Y-58742583D01*
X95085765Y-58744005D01*
X95085767Y-58744006D01*
X95301369Y-58801776D01*
X95301371Y-58801776D01*
X95306684Y-58803200D01*
X95540000Y-58823613D01*
X95773316Y-58803200D01*
X95778629Y-58801776D01*
X95778631Y-58801776D01*
X95994233Y-58744006D01*
X95994235Y-58744005D01*
X95999543Y-58742583D01*
X96016929Y-58734476D01*
X96206820Y-58645929D01*
X96206825Y-58645926D01*
X96211807Y-58643603D01*
X96319152Y-58568439D01*
X96399147Y-58512426D01*
X96399150Y-58512424D01*
X96403658Y-58509267D01*
X96569267Y-58343658D01*
X96703603Y-58151807D01*
X96704305Y-58152298D01*
X96752262Y-58106570D01*
X96821976Y-58093133D01*
X96887887Y-58119519D01*
X96916066Y-58152039D01*
X96916397Y-58151807D01*
X97050733Y-58343658D01*
X97216342Y-58509267D01*
X97220850Y-58512424D01*
X97220853Y-58512426D01*
X97300848Y-58568439D01*
X97408193Y-58643603D01*
X97413175Y-58645926D01*
X97413180Y-58645929D01*
X97603071Y-58734476D01*
X97620457Y-58742583D01*
X97625765Y-58744005D01*
X97625767Y-58744006D01*
X97841369Y-58801776D01*
X97841371Y-58801776D01*
X97846684Y-58803200D01*
X98080000Y-58823613D01*
X98313316Y-58803200D01*
X98318629Y-58801776D01*
X98318631Y-58801776D01*
X98534233Y-58744006D01*
X98534235Y-58744005D01*
X98539543Y-58742583D01*
X98556929Y-58734476D01*
X98746820Y-58645929D01*
X98746825Y-58645926D01*
X98751807Y-58643603D01*
X98859152Y-58568439D01*
X98939147Y-58512426D01*
X98939150Y-58512424D01*
X98943658Y-58509267D01*
X99109267Y-58343658D01*
X99243603Y-58151807D01*
X99244305Y-58152298D01*
X99292262Y-58106570D01*
X99361976Y-58093133D01*
X99427887Y-58119519D01*
X99456066Y-58152039D01*
X99456397Y-58151807D01*
X99590733Y-58343658D01*
X99756342Y-58509267D01*
X99760850Y-58512424D01*
X99760853Y-58512426D01*
X99840848Y-58568439D01*
X99948193Y-58643603D01*
X99953175Y-58645926D01*
X99953180Y-58645929D01*
X100143071Y-58734476D01*
X100160457Y-58742583D01*
X100165765Y-58744005D01*
X100165767Y-58744006D01*
X100381369Y-58801776D01*
X100381371Y-58801776D01*
X100386684Y-58803200D01*
X100620000Y-58823613D01*
X100853316Y-58803200D01*
X100858629Y-58801776D01*
X100858631Y-58801776D01*
X101074233Y-58744006D01*
X101074235Y-58744005D01*
X101079543Y-58742583D01*
X101096929Y-58734476D01*
X101286820Y-58645929D01*
X101286825Y-58645926D01*
X101291807Y-58643603D01*
X101399152Y-58568439D01*
X101479147Y-58512426D01*
X101479150Y-58512424D01*
X101483658Y-58509267D01*
X101649267Y-58343658D01*
X101783603Y-58151807D01*
X101784305Y-58152298D01*
X101832262Y-58106570D01*
X101901976Y-58093133D01*
X101967887Y-58119519D01*
X101996066Y-58152039D01*
X101996397Y-58151807D01*
X102130733Y-58343658D01*
X102296342Y-58509267D01*
X102300850Y-58512424D01*
X102300853Y-58512426D01*
X102380848Y-58568439D01*
X102488193Y-58643603D01*
X102493175Y-58645926D01*
X102493180Y-58645929D01*
X102683071Y-58734476D01*
X102700457Y-58742583D01*
X102705765Y-58744005D01*
X102705767Y-58744006D01*
X102921369Y-58801776D01*
X102921371Y-58801776D01*
X102926684Y-58803200D01*
X103160000Y-58823613D01*
X103393316Y-58803200D01*
X103398629Y-58801776D01*
X103398631Y-58801776D01*
X103614233Y-58744006D01*
X103614235Y-58744005D01*
X103619543Y-58742583D01*
X103636929Y-58734476D01*
X103826820Y-58645929D01*
X103826825Y-58645926D01*
X103831807Y-58643603D01*
X103939152Y-58568439D01*
X104019147Y-58512426D01*
X104019150Y-58512424D01*
X104023658Y-58509267D01*
X104189267Y-58343658D01*
X104323603Y-58151807D01*
X104324305Y-58152298D01*
X104372262Y-58106570D01*
X104441976Y-58093133D01*
X104507887Y-58119519D01*
X104536066Y-58152039D01*
X104536397Y-58151807D01*
X104670733Y-58343658D01*
X104836342Y-58509267D01*
X104840850Y-58512424D01*
X104840853Y-58512426D01*
X104920848Y-58568439D01*
X105028193Y-58643603D01*
X105033175Y-58645926D01*
X105033180Y-58645929D01*
X105223071Y-58734476D01*
X105240457Y-58742583D01*
X105245762Y-58744004D01*
X105245769Y-58744007D01*
X105269052Y-58750245D01*
X105329675Y-58787196D01*
X105360697Y-58851056D01*
X105352269Y-58921551D01*
X105330078Y-58956262D01*
X105210960Y-59088556D01*
X105115473Y-59253944D01*
X105056458Y-59435572D01*
X105055768Y-59442133D01*
X105055768Y-59442135D01*
X105053600Y-59462763D01*
X105036496Y-59625500D01*
X105037186Y-59632065D01*
X105045183Y-59708148D01*
X105056458Y-59815428D01*
X105115473Y-59997056D01*
X105118776Y-60002778D01*
X105118777Y-60002779D01*
X105122301Y-60008882D01*
X105210960Y-60162444D01*
X105284137Y-60243715D01*
X105314853Y-60307721D01*
X105316500Y-60328024D01*
X105316500Y-60503006D01*
X105296498Y-60571127D01*
X105284135Y-60587317D01*
X105265383Y-60608143D01*
X105265380Y-60608147D01*
X105260960Y-60613056D01*
X105165473Y-60778444D01*
X105106458Y-60960072D01*
X105086496Y-61150000D01*
X105087186Y-61156565D01*
X105098635Y-61265492D01*
X105106458Y-61339928D01*
X105165473Y-61521556D01*
X105260960Y-61686944D01*
X105388747Y-61828866D01*
X105543248Y-61941118D01*
X105549276Y-61943802D01*
X105549278Y-61943803D01*
X105711681Y-62016109D01*
X105717712Y-62018794D01*
X105811112Y-62038647D01*
X105898056Y-62057128D01*
X105898061Y-62057128D01*
X105904513Y-62058500D01*
X106095487Y-62058500D01*
X106101939Y-62057128D01*
X106101944Y-62057128D01*
X106188888Y-62038647D01*
X106282288Y-62018794D01*
X106288319Y-62016109D01*
X106450722Y-61943803D01*
X106450724Y-61943802D01*
X106456752Y-61941118D01*
X106611253Y-61828866D01*
X106682264Y-61750000D01*
X111336496Y-61750000D01*
X111337186Y-61756565D01*
X111355732Y-61933017D01*
X111356458Y-61939928D01*
X111415473Y-62121556D01*
X111418776Y-62127278D01*
X111418777Y-62127279D01*
X111443643Y-62170347D01*
X111510960Y-62286944D01*
X111515378Y-62291851D01*
X111515379Y-62291852D01*
X111597452Y-62383003D01*
X111638747Y-62428866D01*
X111737843Y-62500864D01*
X111764818Y-62520462D01*
X111793248Y-62541118D01*
X111799276Y-62543802D01*
X111799278Y-62543803D01*
X111961681Y-62616109D01*
X111967712Y-62618794D01*
X112061113Y-62638647D01*
X112148056Y-62657128D01*
X112148061Y-62657128D01*
X112154513Y-62658500D01*
X112345487Y-62658500D01*
X112351939Y-62657128D01*
X112351944Y-62657128D01*
X112438887Y-62638647D01*
X112532288Y-62618794D01*
X112538319Y-62616109D01*
X112700722Y-62543803D01*
X112700724Y-62543802D01*
X112706752Y-62541118D01*
X112735183Y-62520462D01*
X112839671Y-62444546D01*
X112861253Y-62428866D01*
X112865668Y-62423963D01*
X112870580Y-62419540D01*
X112871705Y-62420789D01*
X112925014Y-62387949D01*
X112958200Y-62383500D01*
X113171233Y-62383500D01*
X113182416Y-62384027D01*
X113189909Y-62385702D01*
X113197835Y-62385453D01*
X113197836Y-62385453D01*
X113257986Y-62383562D01*
X113261945Y-62383500D01*
X113289856Y-62383500D01*
X113293791Y-62383003D01*
X113293856Y-62382995D01*
X113305693Y-62382062D01*
X113337951Y-62381048D01*
X113341970Y-62380922D01*
X113349889Y-62380673D01*
X113369343Y-62375021D01*
X113388700Y-62371013D01*
X113400930Y-62369468D01*
X113400931Y-62369468D01*
X113408797Y-62368474D01*
X113416168Y-62365555D01*
X113416170Y-62365555D01*
X113449912Y-62352196D01*
X113461142Y-62348351D01*
X113495983Y-62338229D01*
X113495984Y-62338229D01*
X113503593Y-62336018D01*
X113510412Y-62331985D01*
X113510417Y-62331983D01*
X113521028Y-62325707D01*
X113538776Y-62317012D01*
X113557617Y-62309552D01*
X113587374Y-62287933D01*
X113593387Y-62283564D01*
X113603307Y-62277048D01*
X113634535Y-62258580D01*
X113634538Y-62258578D01*
X113641362Y-62254542D01*
X113655683Y-62240221D01*
X113670717Y-62227380D01*
X113680694Y-62220131D01*
X113687107Y-62215472D01*
X113715298Y-62181395D01*
X113723288Y-62172616D01*
X114700499Y-61195405D01*
X114762811Y-61161379D01*
X114789594Y-61158500D01*
X114845487Y-61158500D01*
X114851939Y-61157128D01*
X114851944Y-61157128D01*
X114938888Y-61138647D01*
X115032288Y-61118794D01*
X115038319Y-61116109D01*
X115200722Y-61043803D01*
X115200724Y-61043802D01*
X115206752Y-61041118D01*
X115361253Y-60928866D01*
X115405402Y-60879834D01*
X115484621Y-60791852D01*
X115484622Y-60791851D01*
X115489040Y-60786944D01*
X115584527Y-60621556D01*
X115643542Y-60439928D01*
X115655304Y-60328024D01*
X115662814Y-60256565D01*
X115663504Y-60250000D01*
X115643542Y-60060072D01*
X115584527Y-59878444D01*
X115489040Y-59713056D01*
X115419841Y-59636202D01*
X115365675Y-59576045D01*
X115365674Y-59576044D01*
X115361253Y-59571134D01*
X115262157Y-59499136D01*
X115212094Y-59462763D01*
X115212093Y-59462762D01*
X115206752Y-59458882D01*
X115200724Y-59456198D01*
X115200722Y-59456197D01*
X115038319Y-59383891D01*
X115038318Y-59383891D01*
X115032288Y-59381206D01*
X114938888Y-59361353D01*
X114851944Y-59342872D01*
X114851939Y-59342872D01*
X114845487Y-59341500D01*
X114654513Y-59341500D01*
X114648061Y-59342872D01*
X114648056Y-59342872D01*
X114561112Y-59361353D01*
X114467712Y-59381206D01*
X114461682Y-59383891D01*
X114461681Y-59383891D01*
X114299278Y-59456197D01*
X114299276Y-59456198D01*
X114293248Y-59458882D01*
X114287907Y-59462762D01*
X114287906Y-59462763D01*
X114237843Y-59499136D01*
X114138747Y-59571134D01*
X114134326Y-59576044D01*
X114134325Y-59576045D01*
X114080160Y-59636202D01*
X114010960Y-59713056D01*
X113915473Y-59878444D01*
X113856458Y-60060072D01*
X113855768Y-60066633D01*
X113855768Y-60066635D01*
X113839093Y-60225292D01*
X113812080Y-60290949D01*
X113802878Y-60301217D01*
X113035666Y-61068429D01*
X112973354Y-61102455D01*
X112902539Y-61097390D01*
X112863683Y-61073833D01*
X112861253Y-61071134D01*
X112706752Y-60958882D01*
X112700724Y-60956198D01*
X112700722Y-60956197D01*
X112538319Y-60883891D01*
X112538318Y-60883891D01*
X112532288Y-60881206D01*
X112438888Y-60861353D01*
X112351944Y-60842872D01*
X112351939Y-60842872D01*
X112345487Y-60841500D01*
X112154513Y-60841500D01*
X112148061Y-60842872D01*
X112148056Y-60842872D01*
X112061112Y-60861353D01*
X111967712Y-60881206D01*
X111961682Y-60883891D01*
X111961681Y-60883891D01*
X111799278Y-60956197D01*
X111799276Y-60956198D01*
X111793248Y-60958882D01*
X111638747Y-61071134D01*
X111510960Y-61213056D01*
X111415473Y-61378444D01*
X111356458Y-61560072D01*
X111355768Y-61566633D01*
X111355768Y-61566635D01*
X111337186Y-61743435D01*
X111336496Y-61750000D01*
X106682264Y-61750000D01*
X106739040Y-61686944D01*
X106834527Y-61521556D01*
X106893542Y-61339928D01*
X106901366Y-61265492D01*
X106912814Y-61156565D01*
X106913504Y-61150000D01*
X106893542Y-60960072D01*
X106834527Y-60778444D01*
X106739040Y-60613056D01*
X106730701Y-60603794D01*
X106615864Y-60476255D01*
X106585146Y-60412248D01*
X106583500Y-60391945D01*
X106583500Y-60328024D01*
X106603502Y-60259903D01*
X106615858Y-60243721D01*
X106689040Y-60162444D01*
X106777699Y-60008882D01*
X106781223Y-60002779D01*
X106781224Y-60002778D01*
X106784527Y-59997056D01*
X106843542Y-59815428D01*
X106854818Y-59708148D01*
X106862814Y-59632065D01*
X106863504Y-59625500D01*
X106846400Y-59462763D01*
X106844232Y-59442135D01*
X106844232Y-59442133D01*
X106843542Y-59435572D01*
X106784527Y-59253944D01*
X106689040Y-59088556D01*
X106616107Y-59007555D01*
X106565675Y-58951545D01*
X106565674Y-58951544D01*
X106561253Y-58946634D01*
X106475699Y-58884475D01*
X106412097Y-58838265D01*
X106412094Y-58838264D01*
X106406752Y-58834382D01*
X106406846Y-58834252D01*
X106359935Y-58785056D01*
X106346497Y-58715342D01*
X106372882Y-58649431D01*
X106399656Y-58624103D01*
X106559147Y-58512426D01*
X106559150Y-58512424D01*
X106563658Y-58509267D01*
X106729267Y-58343658D01*
X106863603Y-58151807D01*
X106864305Y-58152298D01*
X106912262Y-58106570D01*
X106981976Y-58093133D01*
X107047887Y-58119519D01*
X107076066Y-58152039D01*
X107076397Y-58151807D01*
X107210733Y-58343658D01*
X107376342Y-58509267D01*
X107380850Y-58512424D01*
X107380853Y-58512426D01*
X107460848Y-58568439D01*
X107568193Y-58643603D01*
X107573175Y-58645926D01*
X107573180Y-58645929D01*
X107763071Y-58734476D01*
X107780457Y-58742583D01*
X107785765Y-58744005D01*
X107785767Y-58744006D01*
X108001369Y-58801776D01*
X108001371Y-58801776D01*
X108006684Y-58803200D01*
X108240000Y-58823613D01*
X108473316Y-58803200D01*
X108478629Y-58801776D01*
X108478631Y-58801776D01*
X108694233Y-58744006D01*
X108694235Y-58744005D01*
X108699543Y-58742583D01*
X108716929Y-58734476D01*
X108906820Y-58645929D01*
X108906825Y-58645926D01*
X108911807Y-58643603D01*
X109019152Y-58568439D01*
X109099147Y-58512426D01*
X109099150Y-58512424D01*
X109103658Y-58509267D01*
X109269267Y-58343658D01*
X109403603Y-58151807D01*
X109404305Y-58152298D01*
X109452262Y-58106570D01*
X109521976Y-58093133D01*
X109587887Y-58119519D01*
X109616066Y-58152039D01*
X109616397Y-58151807D01*
X109750733Y-58343658D01*
X109916342Y-58509267D01*
X109920850Y-58512424D01*
X109920853Y-58512426D01*
X110000848Y-58568439D01*
X110108193Y-58643603D01*
X110113175Y-58645926D01*
X110113180Y-58645929D01*
X110303071Y-58734476D01*
X110320457Y-58742583D01*
X110325765Y-58744005D01*
X110325767Y-58744006D01*
X110541369Y-58801776D01*
X110541371Y-58801776D01*
X110546684Y-58803200D01*
X110780000Y-58823613D01*
X111013316Y-58803200D01*
X111018629Y-58801776D01*
X111018631Y-58801776D01*
X111234233Y-58744006D01*
X111234235Y-58744005D01*
X111239543Y-58742583D01*
X111256929Y-58734476D01*
X111446820Y-58645929D01*
X111446825Y-58645926D01*
X111451807Y-58643603D01*
X111559152Y-58568439D01*
X111639147Y-58512426D01*
X111639150Y-58512424D01*
X111643658Y-58509267D01*
X111809267Y-58343658D01*
X111943603Y-58151807D01*
X111944305Y-58152298D01*
X111992262Y-58106570D01*
X112061976Y-58093133D01*
X112127887Y-58119519D01*
X112156066Y-58152039D01*
X112156397Y-58151807D01*
X112290733Y-58343658D01*
X112456342Y-58509267D01*
X112460850Y-58512424D01*
X112460853Y-58512426D01*
X112540848Y-58568439D01*
X112648193Y-58643603D01*
X112653175Y-58645926D01*
X112653180Y-58645929D01*
X112843071Y-58734476D01*
X112860457Y-58742583D01*
X112865765Y-58744005D01*
X112865767Y-58744006D01*
X113081369Y-58801776D01*
X113081371Y-58801776D01*
X113086684Y-58803200D01*
X113320000Y-58823613D01*
X113553316Y-58803200D01*
X113558629Y-58801776D01*
X113558631Y-58801776D01*
X113774233Y-58744006D01*
X113774235Y-58744005D01*
X113779543Y-58742583D01*
X113796929Y-58734476D01*
X113986820Y-58645929D01*
X113986825Y-58645926D01*
X113991807Y-58643603D01*
X114099152Y-58568439D01*
X114179147Y-58512426D01*
X114179150Y-58512424D01*
X114183658Y-58509267D01*
X114349267Y-58343658D01*
X114483603Y-58151807D01*
X114484305Y-58152298D01*
X114532262Y-58106570D01*
X114601976Y-58093133D01*
X114667887Y-58119519D01*
X114696066Y-58152039D01*
X114696397Y-58151807D01*
X114830733Y-58343658D01*
X114996342Y-58509267D01*
X115000850Y-58512424D01*
X115000853Y-58512426D01*
X115080848Y-58568439D01*
X115188193Y-58643603D01*
X115193175Y-58645926D01*
X115193180Y-58645929D01*
X115383071Y-58734476D01*
X115400457Y-58742583D01*
X115405765Y-58744005D01*
X115405767Y-58744006D01*
X115621369Y-58801776D01*
X115621371Y-58801776D01*
X115626684Y-58803200D01*
X115860000Y-58823613D01*
X116093316Y-58803200D01*
X116098629Y-58801776D01*
X116098631Y-58801776D01*
X116314233Y-58744006D01*
X116314235Y-58744005D01*
X116319543Y-58742583D01*
X116336929Y-58734476D01*
X116526820Y-58645929D01*
X116526825Y-58645926D01*
X116531807Y-58643603D01*
X116639152Y-58568439D01*
X116719147Y-58512426D01*
X116719150Y-58512424D01*
X116723658Y-58509267D01*
X116889267Y-58343658D01*
X117023603Y-58151807D01*
X117024305Y-58152298D01*
X117072262Y-58106570D01*
X117141976Y-58093133D01*
X117207887Y-58119519D01*
X117236066Y-58152039D01*
X117236397Y-58151807D01*
X117370733Y-58343658D01*
X117536342Y-58509267D01*
X117540850Y-58512424D01*
X117540853Y-58512426D01*
X117620848Y-58568439D01*
X117728193Y-58643603D01*
X117733175Y-58645926D01*
X117733180Y-58645929D01*
X117923071Y-58734476D01*
X117940457Y-58742583D01*
X117945765Y-58744005D01*
X117945767Y-58744006D01*
X118161369Y-58801776D01*
X118161371Y-58801776D01*
X118166684Y-58803200D01*
X118400000Y-58823613D01*
X118633316Y-58803200D01*
X118638629Y-58801776D01*
X118638631Y-58801776D01*
X118854233Y-58744006D01*
X118854235Y-58744005D01*
X118859543Y-58742583D01*
X118876929Y-58734476D01*
X119066820Y-58645929D01*
X119066825Y-58645926D01*
X119071807Y-58643603D01*
X119179152Y-58568439D01*
X119259147Y-58512426D01*
X119259150Y-58512424D01*
X119263658Y-58509267D01*
X119429267Y-58343658D01*
X119563603Y-58151807D01*
X119564305Y-58152298D01*
X119612262Y-58106570D01*
X119681976Y-58093133D01*
X119747887Y-58119519D01*
X119776066Y-58152039D01*
X119776397Y-58151807D01*
X119910733Y-58343658D01*
X120076342Y-58509267D01*
X120080850Y-58512424D01*
X120080853Y-58512426D01*
X120160848Y-58568439D01*
X120268193Y-58643603D01*
X120273175Y-58645926D01*
X120273180Y-58645929D01*
X120463071Y-58734476D01*
X120480457Y-58742583D01*
X120485765Y-58744005D01*
X120485767Y-58744006D01*
X120485771Y-58744007D01*
X120661765Y-58791164D01*
X120722386Y-58828114D01*
X120753407Y-58891975D01*
X120744979Y-58962469D01*
X120718247Y-59001965D01*
X119328266Y-60391945D01*
X117965805Y-61754406D01*
X117957519Y-61761946D01*
X117951040Y-61766058D01*
X117945615Y-61771835D01*
X117904415Y-61815709D01*
X117901660Y-61818551D01*
X117881923Y-61838288D01*
X117879443Y-61841485D01*
X117871740Y-61850505D01*
X117841472Y-61882737D01*
X117837653Y-61889683D01*
X117837651Y-61889686D01*
X117831710Y-61900492D01*
X117820859Y-61917011D01*
X117808444Y-61933017D01*
X117805299Y-61940286D01*
X117805296Y-61940290D01*
X117790884Y-61973595D01*
X117785667Y-61984245D01*
X117764363Y-62022998D01*
X117762392Y-62030673D01*
X117762392Y-62030674D01*
X117759325Y-62042620D01*
X117752921Y-62061324D01*
X117744877Y-62079913D01*
X117743638Y-62087736D01*
X117743635Y-62087746D01*
X117737959Y-62123582D01*
X117735553Y-62135202D01*
X117724558Y-62178028D01*
X117724558Y-62198282D01*
X117723007Y-62217992D01*
X117719838Y-62238001D01*
X117720584Y-62245893D01*
X117723999Y-62282019D01*
X117724558Y-62293877D01*
X117724558Y-65077348D01*
X117704556Y-65145469D01*
X117687653Y-65166443D01*
X116250000Y-66604095D01*
X116187688Y-66638121D01*
X116160905Y-66641000D01*
X115782479Y-66641000D01*
X115714358Y-66620998D01*
X115667865Y-66567342D01*
X115657761Y-66497068D01*
X115673360Y-66452000D01*
X115731223Y-66351779D01*
X115731224Y-66351778D01*
X115734527Y-66346056D01*
X115793542Y-66164428D01*
X115813504Y-65974500D01*
X115802137Y-65866352D01*
X115794232Y-65791135D01*
X115794232Y-65791133D01*
X115793542Y-65784572D01*
X115734527Y-65602944D01*
X115731223Y-65597221D01*
X115642746Y-65443974D01*
X115626008Y-65374978D01*
X115649229Y-65307887D01*
X115658229Y-65296663D01*
X115684621Y-65267352D01*
X115684622Y-65267351D01*
X115689040Y-65262444D01*
X115763260Y-65133891D01*
X115781223Y-65102779D01*
X115781224Y-65102778D01*
X115784527Y-65097056D01*
X115843542Y-64915428D01*
X115863504Y-64725500D01*
X115853756Y-64632749D01*
X115844232Y-64542135D01*
X115844232Y-64542133D01*
X115843542Y-64535572D01*
X115784527Y-64353944D01*
X115689040Y-64188556D01*
X115561253Y-64046634D01*
X115428248Y-63950000D01*
X115412094Y-63938263D01*
X115412093Y-63938262D01*
X115406752Y-63934382D01*
X115400724Y-63931698D01*
X115400722Y-63931697D01*
X115238319Y-63859391D01*
X115238318Y-63859391D01*
X115232288Y-63856706D01*
X115138888Y-63836853D01*
X115051944Y-63818372D01*
X115051939Y-63818372D01*
X115045487Y-63817000D01*
X114854513Y-63817000D01*
X114848061Y-63818372D01*
X114848056Y-63818372D01*
X114761112Y-63836853D01*
X114667712Y-63856706D01*
X114661682Y-63859391D01*
X114661681Y-63859391D01*
X114499278Y-63931697D01*
X114499276Y-63931698D01*
X114493248Y-63934382D01*
X114487907Y-63938262D01*
X114487906Y-63938263D01*
X114471752Y-63950000D01*
X114338747Y-64046634D01*
X114210960Y-64188556D01*
X114115473Y-64353944D01*
X114056458Y-64535572D01*
X114055768Y-64542133D01*
X114055768Y-64542135D01*
X114046244Y-64632749D01*
X114036496Y-64725500D01*
X114056458Y-64915428D01*
X114115473Y-65097056D01*
X114118776Y-65102778D01*
X114118777Y-65102779D01*
X114207254Y-65256026D01*
X114223992Y-65325022D01*
X114200771Y-65392113D01*
X114191771Y-65403337D01*
X114160960Y-65437556D01*
X114157657Y-65443277D01*
X114073711Y-65588676D01*
X114065473Y-65602944D01*
X114006458Y-65784572D01*
X114005768Y-65791133D01*
X114005768Y-65791135D01*
X113997863Y-65866352D01*
X113986496Y-65974500D01*
X114006458Y-66164428D01*
X114065473Y-66346056D01*
X114065621Y-66346312D01*
X114074743Y-66414360D01*
X114044635Y-66478656D01*
X114024263Y-66497175D01*
X113962771Y-66541852D01*
X113888747Y-66595634D01*
X113884326Y-66600544D01*
X113884325Y-66600545D01*
X113813805Y-66678866D01*
X113760960Y-66737556D01*
X113757659Y-66743274D01*
X113685190Y-66868794D01*
X113665473Y-66902944D01*
X113606458Y-67084572D01*
X113586496Y-67274500D01*
X113606458Y-67464428D01*
X113665473Y-67646056D01*
X113760960Y-67811444D01*
X113765378Y-67816351D01*
X113765379Y-67816352D01*
X113847452Y-67907503D01*
X113888747Y-67953366D01*
X114043248Y-68065618D01*
X114049276Y-68068302D01*
X114049278Y-68068303D01*
X114211681Y-68140609D01*
X114217712Y-68143294D01*
X114311113Y-68163147D01*
X114398056Y-68181628D01*
X114398061Y-68181628D01*
X114404513Y-68183000D01*
X114595487Y-68183000D01*
X114601939Y-68181628D01*
X114601944Y-68181628D01*
X114688887Y-68163147D01*
X114782288Y-68143294D01*
X114788319Y-68140609D01*
X114950722Y-68068303D01*
X114950724Y-68068302D01*
X114956752Y-68065618D01*
X115111253Y-67953366D01*
X115115668Y-67948463D01*
X115120580Y-67944040D01*
X115121705Y-67945289D01*
X115175014Y-67912449D01*
X115208200Y-67908000D01*
X116396733Y-67908000D01*
X116407916Y-67908527D01*
X116415409Y-67910202D01*
X116423335Y-67909953D01*
X116423336Y-67909953D01*
X116483486Y-67908062D01*
X116487445Y-67908000D01*
X116515356Y-67908000D01*
X116519291Y-67907503D01*
X116519356Y-67907495D01*
X116531193Y-67906562D01*
X116563451Y-67905548D01*
X116567470Y-67905422D01*
X116575389Y-67905173D01*
X116594843Y-67899521D01*
X116614200Y-67895513D01*
X116626430Y-67893968D01*
X116626431Y-67893968D01*
X116634297Y-67892974D01*
X116641668Y-67890055D01*
X116641670Y-67890055D01*
X116675412Y-67876696D01*
X116686642Y-67872851D01*
X116721483Y-67862729D01*
X116721484Y-67862729D01*
X116729093Y-67860518D01*
X116735912Y-67856485D01*
X116735917Y-67856483D01*
X116746528Y-67850207D01*
X116764276Y-67841512D01*
X116783117Y-67834052D01*
X116818887Y-67808064D01*
X116828807Y-67801548D01*
X116860035Y-67783080D01*
X116860038Y-67783078D01*
X116866862Y-67779042D01*
X116881183Y-67764721D01*
X116896217Y-67751880D01*
X116906194Y-67744631D01*
X116912607Y-67739972D01*
X116940798Y-67705895D01*
X116948788Y-67697116D01*
X118750311Y-65895594D01*
X118758597Y-65888054D01*
X118765076Y-65883942D01*
X118811702Y-65834290D01*
X118814456Y-65831449D01*
X118834193Y-65811712D01*
X118836673Y-65808515D01*
X118844378Y-65799493D01*
X118869217Y-65773042D01*
X118874644Y-65767263D01*
X118878463Y-65760317D01*
X118878465Y-65760314D01*
X118884406Y-65749508D01*
X118895257Y-65732989D01*
X118902816Y-65723243D01*
X118907672Y-65716983D01*
X118910817Y-65709714D01*
X118910820Y-65709710D01*
X118925232Y-65676405D01*
X118930449Y-65665755D01*
X118951753Y-65627002D01*
X118956791Y-65607379D01*
X118963195Y-65588676D01*
X118968091Y-65577362D01*
X118968091Y-65577361D01*
X118971239Y-65570087D01*
X118972478Y-65562264D01*
X118972481Y-65562254D01*
X118978157Y-65526418D01*
X118980563Y-65514798D01*
X118989586Y-65479653D01*
X118989586Y-65479652D01*
X118991558Y-65471972D01*
X118991558Y-65451718D01*
X118993109Y-65432007D01*
X118995038Y-65419828D01*
X118996278Y-65411999D01*
X118992117Y-65367980D01*
X118991558Y-65356123D01*
X118991558Y-62572652D01*
X119011560Y-62504531D01*
X119028463Y-62483557D01*
X121841115Y-59670905D01*
X121903427Y-59636879D01*
X121930210Y-59634000D01*
X128071233Y-59634000D01*
X128082416Y-59634527D01*
X128089909Y-59636202D01*
X128097835Y-59635953D01*
X128097836Y-59635953D01*
X128157986Y-59634062D01*
X128161945Y-59634000D01*
X128189856Y-59634000D01*
X128193791Y-59633503D01*
X128193856Y-59633495D01*
X128205693Y-59632562D01*
X128237951Y-59631548D01*
X128241970Y-59631422D01*
X128249889Y-59631173D01*
X128269343Y-59625521D01*
X128288700Y-59621513D01*
X128300930Y-59619968D01*
X128300931Y-59619968D01*
X128308797Y-59618974D01*
X128316168Y-59616055D01*
X128316170Y-59616055D01*
X128349912Y-59602696D01*
X128361142Y-59598851D01*
X128395983Y-59588729D01*
X128395984Y-59588729D01*
X128403593Y-59586518D01*
X128410412Y-59582485D01*
X128410417Y-59582483D01*
X128421028Y-59576207D01*
X128438776Y-59567512D01*
X128457617Y-59560052D01*
X128493387Y-59534064D01*
X128503307Y-59527548D01*
X128534535Y-59509080D01*
X128534538Y-59509078D01*
X128541362Y-59505042D01*
X128555683Y-59490721D01*
X128570717Y-59477880D01*
X128580694Y-59470631D01*
X128587107Y-59465972D01*
X128615298Y-59431895D01*
X128623288Y-59423116D01*
X128942747Y-59103657D01*
X128951037Y-59096113D01*
X128957518Y-59092000D01*
X129004159Y-59042332D01*
X129006913Y-59039491D01*
X129026635Y-59019769D01*
X129029112Y-59016576D01*
X129036817Y-59007555D01*
X129061659Y-58981100D01*
X129067086Y-58975321D01*
X129070907Y-58968371D01*
X129076846Y-58957568D01*
X129087702Y-58941041D01*
X129095257Y-58931302D01*
X129095258Y-58931300D01*
X129100114Y-58925040D01*
X129117674Y-58884460D01*
X129122891Y-58873812D01*
X129140375Y-58842009D01*
X129140376Y-58842007D01*
X129144195Y-58835060D01*
X129149233Y-58815437D01*
X129155637Y-58796734D01*
X129160533Y-58785420D01*
X129160533Y-58785419D01*
X129163681Y-58778145D01*
X129164920Y-58770322D01*
X129164923Y-58770312D01*
X129170599Y-58734476D01*
X129173010Y-58722837D01*
X129173661Y-58720303D01*
X129209984Y-58659302D01*
X129230295Y-58644308D01*
X129231807Y-58643603D01*
X129259656Y-58624103D01*
X129419147Y-58512426D01*
X129419150Y-58512424D01*
X129423658Y-58509267D01*
X129589267Y-58343658D01*
X129723603Y-58151807D01*
X129724305Y-58152298D01*
X129772262Y-58106570D01*
X129841976Y-58093133D01*
X129907887Y-58119519D01*
X129936066Y-58152039D01*
X129936397Y-58151807D01*
X130070733Y-58343658D01*
X130236342Y-58509267D01*
X130240850Y-58512424D01*
X130240853Y-58512426D01*
X130320848Y-58568439D01*
X130428193Y-58643603D01*
X130433175Y-58645926D01*
X130433180Y-58645929D01*
X130623071Y-58734476D01*
X130640457Y-58742583D01*
X130645765Y-58744005D01*
X130645767Y-58744006D01*
X130861369Y-58801776D01*
X130861371Y-58801776D01*
X130866684Y-58803200D01*
X131100000Y-58823613D01*
X131333316Y-58803200D01*
X131338629Y-58801776D01*
X131338631Y-58801776D01*
X131554233Y-58744006D01*
X131554235Y-58744005D01*
X131559543Y-58742583D01*
X131576929Y-58734476D01*
X131766820Y-58645929D01*
X131766825Y-58645926D01*
X131771807Y-58643603D01*
X131879152Y-58568439D01*
X131959147Y-58512426D01*
X131959150Y-58512424D01*
X131963658Y-58509267D01*
X132129267Y-58343658D01*
X132263603Y-58151807D01*
X132265926Y-58146825D01*
X132265929Y-58146820D01*
X132360260Y-57944525D01*
X132360260Y-57944524D01*
X132362583Y-57939543D01*
X132423200Y-57713316D01*
X132443613Y-57480000D01*
X132423200Y-57246684D01*
X132421776Y-57241369D01*
X132364006Y-57025767D01*
X132364005Y-57025765D01*
X132362583Y-57020457D01*
X132346970Y-56986975D01*
X132265929Y-56813181D01*
X132265926Y-56813176D01*
X132263603Y-56808194D01*
X132211374Y-56733603D01*
X132132426Y-56620853D01*
X132132424Y-56620850D01*
X132129267Y-56616342D01*
X131963658Y-56450733D01*
X131959150Y-56447576D01*
X131959147Y-56447574D01*
X131879152Y-56391561D01*
X131771807Y-56316397D01*
X131766825Y-56314074D01*
X131766820Y-56314071D01*
X131564525Y-56219740D01*
X131564524Y-56219740D01*
X131559543Y-56217417D01*
X131554235Y-56215995D01*
X131554233Y-56215994D01*
X131338631Y-56158224D01*
X131338629Y-56158224D01*
X131333316Y-56156800D01*
X131327830Y-56156320D01*
X131327824Y-56156319D01*
X131214369Y-56146392D01*
X131148251Y-56120529D01*
X131106611Y-56063025D01*
X131103644Y-55988261D01*
X131151776Y-55808631D01*
X131151776Y-55808629D01*
X131153200Y-55803316D01*
X131173613Y-55570000D01*
X131153200Y-55336684D01*
X131103644Y-55151738D01*
X131105334Y-55080763D01*
X131145128Y-55021967D01*
X131214369Y-54993608D01*
X131327824Y-54983681D01*
X131327830Y-54983680D01*
X131333316Y-54983200D01*
X131338629Y-54981776D01*
X131338631Y-54981776D01*
X131554233Y-54924006D01*
X131554235Y-54924005D01*
X131559543Y-54922583D01*
X131611846Y-54898194D01*
X131766820Y-54825929D01*
X131766825Y-54825926D01*
X131771807Y-54823603D01*
X131932830Y-54710853D01*
X131959147Y-54692426D01*
X131959150Y-54692424D01*
X131963658Y-54689267D01*
X132129267Y-54523658D01*
X132263603Y-54331807D01*
X132265926Y-54326825D01*
X132265929Y-54326820D01*
X132360260Y-54124525D01*
X132360260Y-54124524D01*
X132362583Y-54119543D01*
X132373645Y-54078261D01*
X132421776Y-53898631D01*
X132421776Y-53898629D01*
X132423200Y-53893316D01*
X132443613Y-53660000D01*
X132423200Y-53426684D01*
X132421776Y-53421369D01*
X132364006Y-53205767D01*
X132364005Y-53205765D01*
X132362583Y-53200457D01*
X132346970Y-53166975D01*
X132265929Y-52993181D01*
X132265926Y-52993176D01*
X132263603Y-52988194D01*
X132211374Y-52913603D01*
X132132426Y-52800853D01*
X132132424Y-52800850D01*
X132129267Y-52796342D01*
X131963658Y-52630733D01*
X131959150Y-52627576D01*
X131959147Y-52627574D01*
X131879152Y-52571561D01*
X131771807Y-52496397D01*
X131766825Y-52494074D01*
X131766820Y-52494071D01*
X131564525Y-52399740D01*
X131564524Y-52399740D01*
X131559543Y-52397417D01*
X131554235Y-52395995D01*
X131554233Y-52395994D01*
X131338631Y-52338224D01*
X131338629Y-52338224D01*
X131333316Y-52336800D01*
X131327830Y-52336320D01*
X131327824Y-52336319D01*
X131214369Y-52326392D01*
X131148251Y-52300529D01*
X131106611Y-52243025D01*
X131103644Y-52168261D01*
X131151776Y-51988631D01*
X131151776Y-51988629D01*
X131153200Y-51983316D01*
X131173613Y-51750000D01*
X131153200Y-51516684D01*
X131092583Y-51290457D01*
X131090260Y-51285475D01*
X130995929Y-51083181D01*
X130995926Y-51083176D01*
X130993603Y-51078194D01*
X130990447Y-51073687D01*
X130990446Y-51073685D01*
X130862426Y-50890853D01*
X130862424Y-50890850D01*
X130859267Y-50886342D01*
X130693658Y-50720733D01*
X130689150Y-50717576D01*
X130689147Y-50717574D01*
X130609152Y-50661561D01*
X130501807Y-50586397D01*
X130496825Y-50584074D01*
X130496820Y-50584071D01*
X130294525Y-50489740D01*
X130294524Y-50489740D01*
X130289543Y-50487417D01*
X130284235Y-50485995D01*
X130284233Y-50485994D01*
X130068631Y-50428224D01*
X130068629Y-50428224D01*
X130063316Y-50426800D01*
X129830000Y-50406387D01*
X129596684Y-50426800D01*
X129591371Y-50428224D01*
X129591369Y-50428224D01*
X129375767Y-50485994D01*
X129375765Y-50485995D01*
X129370457Y-50487417D01*
X129365476Y-50489739D01*
X129365475Y-50489740D01*
X129163181Y-50584071D01*
X129163176Y-50584074D01*
X129158194Y-50586397D01*
X129153687Y-50589553D01*
X129153685Y-50589554D01*
X128970853Y-50717574D01*
X128970850Y-50717576D01*
X128966342Y-50720733D01*
X128800733Y-50886342D01*
X128666397Y-51078194D01*
X128665695Y-51077703D01*
X128617738Y-51123431D01*
X128548024Y-51136868D01*
X128482113Y-51110482D01*
X128453934Y-51077962D01*
X128453603Y-51078194D01*
X128451361Y-51074992D01*
X128319267Y-50886342D01*
X128153658Y-50720733D01*
X128149150Y-50717576D01*
X128149147Y-50717574D01*
X128069152Y-50661561D01*
X127961807Y-50586397D01*
X127956825Y-50584074D01*
X127956820Y-50584071D01*
X127754525Y-50489740D01*
X127754524Y-50489740D01*
X127749543Y-50487417D01*
X127744235Y-50485995D01*
X127744233Y-50485994D01*
X127528631Y-50428224D01*
X127528629Y-50428224D01*
X127523316Y-50426800D01*
X127290000Y-50406387D01*
X127056684Y-50426800D01*
X127051371Y-50428224D01*
X127051369Y-50428224D01*
X126835767Y-50485994D01*
X126835765Y-50485995D01*
X126830457Y-50487417D01*
X126825476Y-50489739D01*
X126825475Y-50489740D01*
X126623181Y-50584071D01*
X126623176Y-50584074D01*
X126618194Y-50586397D01*
X126613687Y-50589553D01*
X126613685Y-50589554D01*
X126430853Y-50717574D01*
X126430850Y-50717576D01*
X126426342Y-50720733D01*
X126260733Y-50886342D01*
X126126397Y-51078194D01*
X126125695Y-51077703D01*
X126077738Y-51123431D01*
X126008024Y-51136868D01*
X125942113Y-51110482D01*
X125913934Y-51077962D01*
X125913603Y-51078194D01*
X125911361Y-51074992D01*
X125779267Y-50886342D01*
X125613658Y-50720733D01*
X125609150Y-50717576D01*
X125609147Y-50717574D01*
X125529152Y-50661561D01*
X125421807Y-50586397D01*
X125416825Y-50584074D01*
X125416820Y-50584071D01*
X125214525Y-50489740D01*
X125214524Y-50489740D01*
X125209543Y-50487417D01*
X125204235Y-50485995D01*
X125204233Y-50485994D01*
X124988631Y-50428224D01*
X124988629Y-50428224D01*
X124983316Y-50426800D01*
X124750000Y-50406387D01*
X124516684Y-50426800D01*
X124511371Y-50428224D01*
X124511369Y-50428224D01*
X124295767Y-50485994D01*
X124295765Y-50485995D01*
X124290457Y-50487417D01*
X124285476Y-50489739D01*
X124285475Y-50489740D01*
X124083181Y-50584071D01*
X124083176Y-50584074D01*
X124078194Y-50586397D01*
X124073687Y-50589553D01*
X124073685Y-50589554D01*
X123890853Y-50717574D01*
X123890850Y-50717576D01*
X123886342Y-50720733D01*
X123720733Y-50886342D01*
X123586397Y-51078194D01*
X123585695Y-51077703D01*
X123537738Y-51123431D01*
X123468024Y-51136868D01*
X123402113Y-51110482D01*
X123373934Y-51077962D01*
X123373603Y-51078194D01*
X123371361Y-51074992D01*
X123239267Y-50886342D01*
X123073658Y-50720733D01*
X123069150Y-50717576D01*
X123069147Y-50717574D01*
X122989152Y-50661561D01*
X122881807Y-50586397D01*
X122876825Y-50584074D01*
X122876820Y-50584071D01*
X122674525Y-50489740D01*
X122674524Y-50489740D01*
X122669543Y-50487417D01*
X122664235Y-50485995D01*
X122664233Y-50485994D01*
X122448631Y-50428224D01*
X122448629Y-50428224D01*
X122443316Y-50426800D01*
X122210000Y-50406387D01*
X121976684Y-50426800D01*
X121971371Y-50428224D01*
X121971369Y-50428224D01*
X121755767Y-50485994D01*
X121755765Y-50485995D01*
X121750457Y-50487417D01*
X121745476Y-50489739D01*
X121745475Y-50489740D01*
X121543181Y-50584071D01*
X121543176Y-50584074D01*
X121538194Y-50586397D01*
X121533687Y-50589553D01*
X121533685Y-50589554D01*
X121350853Y-50717574D01*
X121350850Y-50717576D01*
X121346342Y-50720733D01*
X121180733Y-50886342D01*
X121046397Y-51078194D01*
X121045695Y-51077703D01*
X120997738Y-51123431D01*
X120928024Y-51136868D01*
X120862113Y-51110482D01*
X120833934Y-51077962D01*
X120833603Y-51078194D01*
X120831361Y-51074992D01*
X120699267Y-50886342D01*
X120533658Y-50720733D01*
X120529150Y-50717576D01*
X120529147Y-50717574D01*
X120449152Y-50661561D01*
X120341807Y-50586397D01*
X120336825Y-50584074D01*
X120336820Y-50584071D01*
X120134525Y-50489740D01*
X120134524Y-50489740D01*
X120129543Y-50487417D01*
X120124235Y-50485995D01*
X120124233Y-50485994D01*
X119908631Y-50428224D01*
X119908629Y-50428224D01*
X119903316Y-50426800D01*
X119670000Y-50406387D01*
X119436684Y-50426800D01*
X119431371Y-50428224D01*
X119431369Y-50428224D01*
X119215767Y-50485994D01*
X119215765Y-50485995D01*
X119210457Y-50487417D01*
X119205476Y-50489739D01*
X119205475Y-50489740D01*
X119003181Y-50584071D01*
X119003176Y-50584074D01*
X118998194Y-50586397D01*
X118993687Y-50589553D01*
X118993685Y-50589554D01*
X118810853Y-50717574D01*
X118810850Y-50717576D01*
X118806342Y-50720733D01*
X118640733Y-50886342D01*
X118506397Y-51078194D01*
X118505695Y-51077703D01*
X118457738Y-51123431D01*
X118388024Y-51136868D01*
X118322113Y-51110482D01*
X118293934Y-51077962D01*
X118293603Y-51078194D01*
X118291361Y-51074992D01*
X118159267Y-50886342D01*
X117993658Y-50720733D01*
X117989150Y-50717576D01*
X117989147Y-50717574D01*
X117909152Y-50661561D01*
X117801807Y-50586397D01*
X117796825Y-50584074D01*
X117796820Y-50584071D01*
X117594525Y-50489740D01*
X117594524Y-50489740D01*
X117589543Y-50487417D01*
X117584235Y-50485995D01*
X117584233Y-50485994D01*
X117368631Y-50428224D01*
X117368629Y-50428224D01*
X117363316Y-50426800D01*
X117130000Y-50406387D01*
X116896684Y-50426800D01*
X116891371Y-50428224D01*
X116891369Y-50428224D01*
X116675767Y-50485994D01*
X116675765Y-50485995D01*
X116670457Y-50487417D01*
X116665476Y-50489739D01*
X116665475Y-50489740D01*
X116463181Y-50584071D01*
X116463176Y-50584074D01*
X116458194Y-50586397D01*
X116453687Y-50589553D01*
X116453685Y-50589554D01*
X116270853Y-50717574D01*
X116270850Y-50717576D01*
X116266342Y-50720733D01*
X116100733Y-50886342D01*
X115966397Y-51078194D01*
X115965695Y-51077703D01*
X115917738Y-51123431D01*
X115848024Y-51136868D01*
X115782113Y-51110482D01*
X115753934Y-51077962D01*
X115753603Y-51078194D01*
X115751361Y-51074992D01*
X115619267Y-50886342D01*
X115453658Y-50720733D01*
X115449150Y-50717576D01*
X115449147Y-50717574D01*
X115369152Y-50661561D01*
X115261807Y-50586397D01*
X115256825Y-50584074D01*
X115256820Y-50584071D01*
X115054525Y-50489740D01*
X115054524Y-50489740D01*
X115049543Y-50487417D01*
X115044235Y-50485995D01*
X115044233Y-50485994D01*
X114828631Y-50428224D01*
X114828629Y-50428224D01*
X114823316Y-50426800D01*
X114590000Y-50406387D01*
X114356684Y-50426800D01*
X114351371Y-50428224D01*
X114351369Y-50428224D01*
X114135767Y-50485994D01*
X114135765Y-50485995D01*
X114130457Y-50487417D01*
X114125476Y-50489739D01*
X114125475Y-50489740D01*
X113923181Y-50584071D01*
X113923176Y-50584074D01*
X113918194Y-50586397D01*
X113913687Y-50589553D01*
X113913685Y-50589554D01*
X113730853Y-50717574D01*
X113730850Y-50717576D01*
X113726342Y-50720733D01*
X113560733Y-50886342D01*
X113426397Y-51078194D01*
X113425695Y-51077703D01*
X113377738Y-51123431D01*
X113308024Y-51136868D01*
X113242113Y-51110482D01*
X113213934Y-51077962D01*
X113213603Y-51078194D01*
X113211361Y-51074992D01*
X113079267Y-50886342D01*
X112913658Y-50720733D01*
X112909150Y-50717576D01*
X112909147Y-50717574D01*
X112829152Y-50661561D01*
X112721807Y-50586397D01*
X112716825Y-50584074D01*
X112716820Y-50584071D01*
X112514525Y-50489740D01*
X112514524Y-50489740D01*
X112509543Y-50487417D01*
X112504235Y-50485995D01*
X112504233Y-50485994D01*
X112288631Y-50428224D01*
X112288629Y-50428224D01*
X112283316Y-50426800D01*
X112050000Y-50406387D01*
X111816684Y-50426800D01*
X111811371Y-50428224D01*
X111811369Y-50428224D01*
X111595767Y-50485994D01*
X111595765Y-50485995D01*
X111590457Y-50487417D01*
X111585476Y-50489739D01*
X111585475Y-50489740D01*
X111383181Y-50584071D01*
X111383176Y-50584074D01*
X111378194Y-50586397D01*
X111373687Y-50589553D01*
X111373685Y-50589554D01*
X111190853Y-50717574D01*
X111190850Y-50717576D01*
X111186342Y-50720733D01*
X111020733Y-50886342D01*
X110886397Y-51078194D01*
X110885695Y-51077703D01*
X110837738Y-51123431D01*
X110768024Y-51136868D01*
X110702113Y-51110482D01*
X110673934Y-51077962D01*
X110673603Y-51078194D01*
X110671361Y-51074992D01*
X110539267Y-50886342D01*
X110373658Y-50720733D01*
X110369150Y-50717576D01*
X110369147Y-50717574D01*
X110289152Y-50661561D01*
X110181807Y-50586397D01*
X110176825Y-50584074D01*
X110176820Y-50584071D01*
X109974525Y-50489740D01*
X109974524Y-50489740D01*
X109969543Y-50487417D01*
X109964235Y-50485995D01*
X109964233Y-50485994D01*
X109748631Y-50428224D01*
X109748629Y-50428224D01*
X109743316Y-50426800D01*
X109510000Y-50406387D01*
X109276684Y-50426800D01*
X109271371Y-50428224D01*
X109271369Y-50428224D01*
X109055767Y-50485994D01*
X109055765Y-50485995D01*
X109050457Y-50487417D01*
X109045476Y-50489739D01*
X109045475Y-50489740D01*
X108843181Y-50584071D01*
X108843176Y-50584074D01*
X108838194Y-50586397D01*
X108833687Y-50589553D01*
X108833685Y-50589554D01*
X108650853Y-50717574D01*
X108650850Y-50717576D01*
X108646342Y-50720733D01*
X108480733Y-50886342D01*
X108346397Y-51078194D01*
X108345695Y-51077703D01*
X108297738Y-51123431D01*
X108228024Y-51136868D01*
X108162113Y-51110482D01*
X108133934Y-51077962D01*
X108133603Y-51078194D01*
X108131361Y-51074992D01*
X107999267Y-50886342D01*
X107833658Y-50720733D01*
X107829150Y-50717576D01*
X107829147Y-50717574D01*
X107749152Y-50661561D01*
X107641807Y-50586397D01*
X107636825Y-50584074D01*
X107636820Y-50584071D01*
X107434525Y-50489740D01*
X107434524Y-50489740D01*
X107429543Y-50487417D01*
X107424235Y-50485995D01*
X107424233Y-50485994D01*
X107208631Y-50428224D01*
X107208629Y-50428224D01*
X107203316Y-50426800D01*
X106970000Y-50406387D01*
X106736684Y-50426800D01*
X106731371Y-50428224D01*
X106731369Y-50428224D01*
X106515767Y-50485994D01*
X106515765Y-50485995D01*
X106510457Y-50487417D01*
X106505476Y-50489739D01*
X106505475Y-50489740D01*
X106303181Y-50584071D01*
X106303176Y-50584074D01*
X106298194Y-50586397D01*
X106293687Y-50589553D01*
X106293685Y-50589554D01*
X106110853Y-50717574D01*
X106110850Y-50717576D01*
X106106342Y-50720733D01*
X105940733Y-50886342D01*
X105806397Y-51078194D01*
X105805695Y-51077703D01*
X105757738Y-51123431D01*
X105688024Y-51136868D01*
X105622113Y-51110482D01*
X105593934Y-51077962D01*
X105593603Y-51078194D01*
X105591361Y-51074992D01*
X105459267Y-50886342D01*
X105293658Y-50720733D01*
X105289150Y-50717576D01*
X105289147Y-50717574D01*
X105209152Y-50661561D01*
X105101807Y-50586397D01*
X105096825Y-50584074D01*
X105096820Y-50584071D01*
X104894525Y-50489740D01*
X104894524Y-50489740D01*
X104889543Y-50487417D01*
X104884235Y-50485995D01*
X104884233Y-50485994D01*
X104668631Y-50428224D01*
X104668629Y-50428224D01*
X104663316Y-50426800D01*
X104430000Y-50406387D01*
X104196684Y-50426800D01*
X104191371Y-50428224D01*
X104191369Y-50428224D01*
X103975767Y-50485994D01*
X103975765Y-50485995D01*
X103970457Y-50487417D01*
X103965476Y-50489739D01*
X103965475Y-50489740D01*
X103763181Y-50584071D01*
X103763176Y-50584074D01*
X103758194Y-50586397D01*
X103753687Y-50589553D01*
X103753685Y-50589554D01*
X103570853Y-50717574D01*
X103570850Y-50717576D01*
X103566342Y-50720733D01*
X103400733Y-50886342D01*
X103266397Y-51078194D01*
X103265695Y-51077703D01*
X103217738Y-51123431D01*
X103148024Y-51136868D01*
X103082113Y-51110482D01*
X103053934Y-51077962D01*
X103053603Y-51078194D01*
X103051361Y-51074992D01*
X102919267Y-50886342D01*
X102753658Y-50720733D01*
X102749150Y-50717576D01*
X102749147Y-50717574D01*
X102669152Y-50661561D01*
X102561807Y-50586397D01*
X102556825Y-50584074D01*
X102556820Y-50584071D01*
X102354525Y-50489740D01*
X102354524Y-50489740D01*
X102349543Y-50487417D01*
X102344235Y-50485995D01*
X102344233Y-50485994D01*
X102128631Y-50428224D01*
X102128629Y-50428224D01*
X102123316Y-50426800D01*
X101890000Y-50406387D01*
X101656684Y-50426800D01*
X101651371Y-50428224D01*
X101651369Y-50428224D01*
X101435767Y-50485994D01*
X101435765Y-50485995D01*
X101430457Y-50487417D01*
X101425476Y-50489739D01*
X101425475Y-50489740D01*
X101223181Y-50584071D01*
X101223176Y-50584074D01*
X101218194Y-50586397D01*
X101213687Y-50589553D01*
X101213685Y-50589554D01*
X101030853Y-50717574D01*
X101030850Y-50717576D01*
X101026342Y-50720733D01*
X100860733Y-50886342D01*
X100726397Y-51078194D01*
X100725695Y-51077703D01*
X100677738Y-51123431D01*
X100608024Y-51136868D01*
X100542113Y-51110482D01*
X100513934Y-51077962D01*
X100513603Y-51078194D01*
X100511361Y-51074992D01*
X100379267Y-50886342D01*
X100213658Y-50720733D01*
X100209150Y-50717576D01*
X100209147Y-50717574D01*
X100129152Y-50661561D01*
X100021807Y-50586397D01*
X100016825Y-50584074D01*
X100016820Y-50584071D01*
X99814525Y-50489740D01*
X99814524Y-50489740D01*
X99809543Y-50487417D01*
X99804235Y-50485995D01*
X99804233Y-50485994D01*
X99588631Y-50428224D01*
X99588629Y-50428224D01*
X99583316Y-50426800D01*
X99350000Y-50406387D01*
X99116684Y-50426800D01*
X99111371Y-50428224D01*
X99111369Y-50428224D01*
X98895767Y-50485994D01*
X98895765Y-50485995D01*
X98890457Y-50487417D01*
X98885476Y-50489739D01*
X98885475Y-50489740D01*
X98683181Y-50584071D01*
X98683176Y-50584074D01*
X98678194Y-50586397D01*
X98673687Y-50589553D01*
X98673685Y-50589554D01*
X98490853Y-50717574D01*
X98490850Y-50717576D01*
X98486342Y-50720733D01*
X98320733Y-50886342D01*
X98186397Y-51078194D01*
X98185695Y-51077703D01*
X98137738Y-51123431D01*
X98068024Y-51136868D01*
X98002113Y-51110482D01*
X97973934Y-51077962D01*
X97973603Y-51078194D01*
X97971361Y-51074992D01*
X97839267Y-50886342D01*
X97673658Y-50720733D01*
X97669150Y-50717576D01*
X97669147Y-50717574D01*
X97589152Y-50661561D01*
X97481807Y-50586397D01*
X97476825Y-50584074D01*
X97476820Y-50584071D01*
X97274525Y-50489740D01*
X97274524Y-50489740D01*
X97269543Y-50487417D01*
X97264235Y-50485995D01*
X97264233Y-50485994D01*
X97048631Y-50428224D01*
X97048629Y-50428224D01*
X97043316Y-50426800D01*
X96810000Y-50406387D01*
X96576684Y-50426800D01*
X96571371Y-50428224D01*
X96571369Y-50428224D01*
X96355767Y-50485994D01*
X96355765Y-50485995D01*
X96350457Y-50487417D01*
X96345476Y-50489739D01*
X96345475Y-50489740D01*
X96143181Y-50584071D01*
X96143176Y-50584074D01*
X96138194Y-50586397D01*
X96133687Y-50589553D01*
X96133685Y-50589554D01*
X95950853Y-50717574D01*
X95950850Y-50717576D01*
X95946342Y-50720733D01*
X95780733Y-50886342D01*
X95646397Y-51078194D01*
X95645695Y-51077703D01*
X95597738Y-51123431D01*
X95528024Y-51136868D01*
X95462113Y-51110482D01*
X95433934Y-51077962D01*
X95433603Y-51078194D01*
X95431361Y-51074992D01*
X95299267Y-50886342D01*
X95133658Y-50720733D01*
X95129150Y-50717576D01*
X95129147Y-50717574D01*
X95049152Y-50661561D01*
X94941807Y-50586397D01*
X94936825Y-50584074D01*
X94936820Y-50584071D01*
X94734525Y-50489740D01*
X94734524Y-50489740D01*
X94729543Y-50487417D01*
X94724235Y-50485995D01*
X94724233Y-50485994D01*
X94508631Y-50428224D01*
X94508629Y-50428224D01*
X94503316Y-50426800D01*
X94270000Y-50406387D01*
X94036684Y-50426800D01*
X94031371Y-50428224D01*
X94031369Y-50428224D01*
X93815767Y-50485994D01*
X93815765Y-50485995D01*
X93810457Y-50487417D01*
X93805476Y-50489739D01*
X93805475Y-50489740D01*
X93603181Y-50584071D01*
X93603176Y-50584074D01*
X93598194Y-50586397D01*
X93593687Y-50589553D01*
X93593685Y-50589554D01*
X93410853Y-50717574D01*
X93410850Y-50717576D01*
X93406342Y-50720733D01*
X93240733Y-50886342D01*
X93106397Y-51078194D01*
X93105695Y-51077703D01*
X93057738Y-51123431D01*
X92988024Y-51136868D01*
X92922113Y-51110482D01*
X92893934Y-51077962D01*
X92893603Y-51078194D01*
X92891361Y-51074992D01*
X92759267Y-50886342D01*
X92593658Y-50720733D01*
X92589150Y-50717576D01*
X92589147Y-50717574D01*
X92509152Y-50661561D01*
X92401807Y-50586397D01*
X92396825Y-50584074D01*
X92396820Y-50584071D01*
X92194525Y-50489740D01*
X92194524Y-50489740D01*
X92189543Y-50487417D01*
X92184235Y-50485995D01*
X92184233Y-50485994D01*
X91968631Y-50428224D01*
X91968629Y-50428224D01*
X91963316Y-50426800D01*
X91730000Y-50406387D01*
X91496684Y-50426800D01*
X91491371Y-50428224D01*
X91491369Y-50428224D01*
X91275767Y-50485994D01*
X91275765Y-50485995D01*
X91270457Y-50487417D01*
X91265476Y-50489739D01*
X91265475Y-50489740D01*
X91063181Y-50584071D01*
X91063176Y-50584074D01*
X91058194Y-50586397D01*
X91053687Y-50589553D01*
X91053685Y-50589554D01*
X90870853Y-50717574D01*
X90870850Y-50717576D01*
X90866342Y-50720733D01*
X90700733Y-50886342D01*
X90697576Y-50890850D01*
X90697574Y-50890853D01*
X90569554Y-51073685D01*
X90569553Y-51073687D01*
X90566397Y-51078194D01*
X90564074Y-51083176D01*
X90564071Y-51083181D01*
X90469740Y-51285475D01*
X90467417Y-51290457D01*
X90406800Y-51516684D01*
X90386387Y-51750000D01*
X90406800Y-51983316D01*
X90408224Y-51988629D01*
X90408224Y-51988631D01*
X90456356Y-52168261D01*
X90467417Y-52209543D01*
X90469740Y-52214524D01*
X90469740Y-52214525D01*
X90564071Y-52416820D01*
X90564074Y-52416825D01*
X90566397Y-52421807D01*
X90700733Y-52613658D01*
X90866342Y-52779267D01*
X90870850Y-52782424D01*
X90870853Y-52782426D01*
X90897170Y-52800853D01*
X91058193Y-52913603D01*
X91063175Y-52915926D01*
X91063180Y-52915929D01*
X91218154Y-52988194D01*
X91270457Y-53012583D01*
X91275765Y-53014005D01*
X91275767Y-53014006D01*
X91491369Y-53071776D01*
X91491371Y-53071776D01*
X91496684Y-53073200D01*
X91502170Y-53073680D01*
X91502176Y-53073681D01*
X91615631Y-53083608D01*
X91681749Y-53109471D01*
X91723389Y-53166975D01*
X91726356Y-53241738D01*
X91676800Y-53426684D01*
X91656387Y-53660000D01*
X91676800Y-53893316D01*
X91678224Y-53898629D01*
X91678224Y-53898631D01*
X91726356Y-54078261D01*
X91724666Y-54149237D01*
X91684872Y-54208033D01*
X91615631Y-54236392D01*
X91502176Y-54246319D01*
X91502170Y-54246320D01*
X91496684Y-54246800D01*
X91491371Y-54248224D01*
X91491369Y-54248224D01*
X91275767Y-54305994D01*
X91275765Y-54305995D01*
X91270457Y-54307417D01*
X91265476Y-54309739D01*
X91265475Y-54309740D01*
X91063181Y-54404071D01*
X91063176Y-54404074D01*
X91058194Y-54406397D01*
X91053687Y-54409553D01*
X91053685Y-54409554D01*
X90870853Y-54537574D01*
X90870850Y-54537576D01*
X90866342Y-54540733D01*
X90700733Y-54706342D01*
X90697576Y-54710850D01*
X90697574Y-54710853D01*
X90618626Y-54823603D01*
X90566397Y-54898194D01*
X90564074Y-54903176D01*
X90564071Y-54903181D01*
X90469740Y-55105475D01*
X90467417Y-55110457D01*
X90465995Y-55115765D01*
X90465994Y-55115767D01*
X90408224Y-55331369D01*
X90406800Y-55336684D01*
X90386387Y-55570000D01*
X88913000Y-55570000D01*
X88913000Y-51852140D01*
X88933002Y-51784019D01*
X88949595Y-51763356D01*
X90663252Y-50037716D01*
X90725445Y-50003474D01*
X90752657Y-50000500D01*
X132647602Y-50000500D01*
X132715723Y-50020502D01*
G37*
%TD.AperFunction*%
%TD*%
M02*
