%TF.GenerationSoftware,KiCad,Pcbnew,(6.99.0-4502-gf1556ed801-dirty)*%
%TF.CreationDate,2022-12-17T20:16:55-05:00*%
%TF.ProjectId,siox,73696f78-2e6b-4696-9361-645f70636258,rev?*%
%TF.SameCoordinates,Original*%
%TF.FileFunction,Copper,L1,Top*%
%TF.FilePolarity,Positive*%
%FSLAX46Y46*%
G04 Gerber Fmt 4.6, Leading zero omitted, Abs format (unit mm)*
G04 Created by KiCad (PCBNEW (6.99.0-4502-gf1556ed801-dirty)) date 2022-12-17 20:16:55*
%MOMM*%
%LPD*%
G01*
G04 APERTURE LIST*
G04 Aperture macros list*
%AMRoundRect*
0 Rectangle with rounded corners*
0 $1 Rounding radius*
0 $2 $3 $4 $5 $6 $7 $8 $9 X,Y pos of 4 corners*
0 Add a 4 corners polygon primitive as box body*
4,1,4,$2,$3,$4,$5,$6,$7,$8,$9,$2,$3,0*
0 Add four circle primitives for the rounded corners*
1,1,$1+$1,$2,$3*
1,1,$1+$1,$4,$5*
1,1,$1+$1,$6,$7*
1,1,$1+$1,$8,$9*
0 Add four rect primitives between the rounded corners*
20,1,$1+$1,$2,$3,$4,$5,0*
20,1,$1+$1,$4,$5,$6,$7,0*
20,1,$1+$1,$6,$7,$8,$9,0*
20,1,$1+$1,$8,$9,$2,$3,0*%
G04 Aperture macros list end*
%TA.AperFunction,SMDPad,CuDef*%
%ADD10C,2.000000*%
%TD*%
%TA.AperFunction,SMDPad,CuDef*%
%ADD11RoundRect,0.150000X-0.650000X-0.150000X0.650000X-0.150000X0.650000X0.150000X-0.650000X0.150000X0*%
%TD*%
%TA.AperFunction,SMDPad,CuDef*%
%ADD12RoundRect,0.250000X0.450000X-0.262500X0.450000X0.262500X-0.450000X0.262500X-0.450000X-0.262500X0*%
%TD*%
%TA.AperFunction,SMDPad,CuDef*%
%ADD13RoundRect,0.250000X-0.450000X0.262500X-0.450000X-0.262500X0.450000X-0.262500X0.450000X0.262500X0*%
%TD*%
%TA.AperFunction,SMDPad,CuDef*%
%ADD14RoundRect,0.250000X0.262500X0.450000X-0.262500X0.450000X-0.262500X-0.450000X0.262500X-0.450000X0*%
%TD*%
%TA.AperFunction,SMDPad,CuDef*%
%ADD15RoundRect,0.250000X0.250000X0.475000X-0.250000X0.475000X-0.250000X-0.475000X0.250000X-0.475000X0*%
%TD*%
%TA.AperFunction,SMDPad,CuDef*%
%ADD16RoundRect,0.100000X-0.637500X-0.100000X0.637500X-0.100000X0.637500X0.100000X-0.637500X0.100000X0*%
%TD*%
%TA.AperFunction,ViaPad*%
%ADD17C,0.800000*%
%TD*%
%TA.AperFunction,ViaPad*%
%ADD18C,1.660000*%
%TD*%
%TA.AperFunction,Conductor*%
%ADD19C,0.250000*%
%TD*%
G04 APERTURE END LIST*
D10*
%TO.P,J10,1,Pin_1*%
%TO.N,MP7*%
X108000000Y-71000000D03*
%TD*%
%TO.P,J9,1,Pin_1*%
%TO.N,MP6*%
X104750000Y-71000000D03*
%TD*%
%TO.P,J8,1,Pin_1*%
%TO.N,MP5*%
X101500000Y-71000000D03*
%TD*%
%TO.P,J7,1,Pin_1*%
%TO.N,MP4*%
X98250000Y-71000000D03*
%TD*%
%TO.P,J6,1,Pin_1*%
%TO.N,MP3*%
X95000000Y-71000000D03*
%TD*%
%TO.P,J5,1,Pin_1*%
%TO.N,MP2*%
X91750000Y-71000000D03*
%TD*%
D11*
%TO.P,U2,8,VSS*%
%TO.N,GND1*%
X99400000Y-63545000D03*
%TO.P,U2,7,RA0*%
%TO.N,MP7*%
X99400000Y-64815000D03*
%TO.P,U2,6,RA1*%
%TO.N,MP6*%
X99400000Y-66085000D03*
%TO.P,U2,5,RA2*%
%TO.N,MP5*%
X99400000Y-67355000D03*
%TO.P,U2,4,RA3*%
%TO.N,MP4*%
X92200000Y-67355000D03*
%TO.P,U2,3,RA4*%
%TO.N,MP3*%
X92200000Y-66085000D03*
%TO.P,U2,2,RA5*%
%TO.N,MP2*%
X92200000Y-64815000D03*
%TO.P,U2,1,VDD*%
%TO.N,MP1*%
X92200000Y-63545000D03*
%TD*%
D10*
%TO.P,J4,1,Pin_1*%
%TO.N,XI*%
X121650000Y-68450000D03*
%TD*%
%TO.P,J3,1,Pin_1*%
%TO.N,XE*%
X118400000Y-70050000D03*
%TD*%
%TO.P,J2,1,Pin_1*%
%TO.N,CI*%
X121650000Y-65200000D03*
%TD*%
%TO.P,J1,1,Pin_1*%
%TO.N,CE*%
X121650000Y-61950000D03*
%TD*%
D12*
%TO.P,R4,1*%
%TO.N,CI*%
X116350000Y-63762500D03*
%TO.P,R4,2*%
%TO.N,MP1*%
X116350000Y-61937500D03*
%TD*%
D13*
%TO.P,R3,1*%
%TO.N,XE*%
X104050000Y-59737500D03*
%TO.P,R3,2*%
%TO.N,MP1*%
X104050000Y-61562500D03*
%TD*%
%TO.P,R2,1*%
%TO.N,MP1*%
X100400000Y-59687500D03*
%TO.P,R2,2*%
%TO.N,P3*%
X100400000Y-61512500D03*
%TD*%
D14*
%TO.P,R1,1*%
%TO.N,P12*%
X96862500Y-60250000D03*
%TO.P,R1,2*%
%TO.N,GND1*%
X95037500Y-60250000D03*
%TD*%
D15*
%TO.P,C2,1*%
%TO.N,MP1*%
X92550000Y-60500000D03*
%TO.P,C2,2*%
%TO.N,GND1*%
X90650000Y-60500000D03*
%TD*%
%TO.P,C1,1*%
%TO.N,GND1*%
X113250000Y-60250000D03*
%TO.P,C1,2*%
%TO.N,MP1*%
X111350000Y-60250000D03*
%TD*%
D16*
%TO.P,U1,1,DVCC*%
%TO.N,CE*%
X107137500Y-63400000D03*
%TO.P,U1,2,ACLK/TACLK/A0/P1.0*%
%TO.N,XE*%
X107137500Y-64050000D03*
%TO.P,U1,3,TA0.0/A1/P1.1*%
%TO.N,P3*%
X107137500Y-64700000D03*
%TO.P,U1,4,TA0.1/A2/P1.2*%
%TO.N,GND1*%
X107137500Y-65350000D03*
%TO.P,U1,5,ADC10CLK/VREF-/VeREF-/A3/P1.3*%
%TO.N,P12*%
X107137500Y-66000000D03*
%TO.P,U1,6,TCK/SMCLK/VREF+/VeREF+/A4/P1.4*%
X107137500Y-66650000D03*
%TO.P,U1,7,TMS/SCLK/TA0.0/A5/P1.5*%
%TO.N,GND1*%
X107137500Y-67300000D03*
%TO.P,U1,8,TDI/SDO/SCL/TCLK/TA0.1/P1.6*%
%TO.N,PI*%
X112862500Y-67300000D03*
%TO.P,U1,9,TDI/TDO/SDI/SDA/P1.7*%
%TO.N,CI*%
X112862500Y-66650000D03*
%TO.P,U1,10,~{RST}/NMI/SBWTDIO*%
X112862500Y-66000000D03*
%TO.P,U1,11,SBWTCK/TEST*%
%TO.N,XI*%
X112862500Y-65350000D03*
%TO.P,U1,12,P2.7/XOUT*%
%TO.N,P12*%
X112862500Y-64700000D03*
%TO.P,U1,13,P2.6/XIN/TA0.1*%
X112862500Y-64050000D03*
%TO.P,U1,14,DVSS*%
%TO.N,MP1*%
X112862500Y-63400000D03*
%TD*%
D17*
%TO.N,GND1*%
X98600000Y-59300000D03*
X114600000Y-58700000D03*
X112350000Y-58825000D03*
X109550000Y-58925000D03*
X101975000Y-58775000D03*
X106375000Y-69750000D03*
X114600000Y-63175000D03*
X122125000Y-59975000D03*
X124150000Y-61300000D03*
X119475000Y-62625000D03*
X123025000Y-63600000D03*
X117125000Y-65150000D03*
X119375000Y-66275000D03*
X110400000Y-63625000D03*
X104750000Y-63100000D03*
X106400000Y-72225000D03*
X101625000Y-68900000D03*
X103125000Y-72175000D03*
X99900000Y-72225000D03*
X96625000Y-72200000D03*
X89500000Y-58875000D03*
X90100000Y-63550000D03*
X98250000Y-68900000D03*
X95925000Y-65350000D03*
X130825000Y-59625000D03*
X129250000Y-60500000D03*
X117825000Y-59325000D03*
X115825000Y-69975000D03*
X110400000Y-69300000D03*
X105500000Y-67275000D03*
X108825000Y-67300000D03*
D18*
%TO.N,PI*%
X128560000Y-57480000D03*
%TO.N,*%
X113320000Y-57480000D03*
X127290000Y-55570000D03*
X99350000Y-55570000D03*
X105700000Y-57480000D03*
X120940000Y-57480000D03*
X112050000Y-55570000D03*
X114590000Y-55570000D03*
X109510000Y-55570000D03*
X118400000Y-57480000D03*
X129830000Y-55570000D03*
X108240000Y-57480000D03*
%TO.N,P12*%
X95540000Y-57480000D03*
%TO.N,*%
X98080000Y-57480000D03*
X103160000Y-57480000D03*
X117130000Y-55570000D03*
%TO.N,MP1*%
X110780000Y-57480000D03*
%TO.N,*%
X101890000Y-55570000D03*
X106970000Y-55570000D03*
X104430000Y-55570000D03*
X122210000Y-55570000D03*
X131100000Y-57480000D03*
X93000000Y-57480000D03*
X91730000Y-55570000D03*
X115860000Y-57480000D03*
X119670000Y-55570000D03*
X96810000Y-55570000D03*
X126020000Y-57480000D03*
X124750000Y-55570000D03*
X94270000Y-55570000D03*
X123480000Y-57480000D03*
X100620000Y-57480000D03*
%TO.N,CE*%
X128560000Y-53660000D03*
%TO.N,*%
X100620000Y-53660000D03*
X113320000Y-53660000D03*
X115860000Y-53660000D03*
%TO.N,MP1*%
X110780000Y-53660000D03*
%TO.N,*%
X131100000Y-53660000D03*
X118400000Y-53660000D03*
X103160000Y-53660000D03*
X108240000Y-53660000D03*
X105700000Y-53660000D03*
X123480000Y-53660000D03*
X93000000Y-53660000D03*
X120940000Y-53660000D03*
X98080000Y-53660000D03*
X126020000Y-53660000D03*
X95540000Y-53660000D03*
X119670000Y-51750000D03*
X129830000Y-51750000D03*
X122210000Y-51750000D03*
X127290000Y-51750000D03*
X124750000Y-51750000D03*
X112050000Y-51750000D03*
X117130000Y-51750000D03*
X114590000Y-51750000D03*
X109510000Y-51750000D03*
X101890000Y-51750000D03*
X106970000Y-51750000D03*
X104430000Y-51750000D03*
X96810000Y-51750000D03*
X99350000Y-51750000D03*
X94270000Y-51750000D03*
X91730000Y-51750000D03*
D17*
%TO.N,PI*%
X114500000Y-67274500D03*
%TO.N,P12*%
X105800000Y-66000000D03*
X110475500Y-65324500D03*
%TO.N,GND1*%
X96000000Y-62800000D03*
X95800000Y-61225500D03*
%TO.N,P12*%
X98050000Y-60800000D03*
X101200000Y-63950000D03*
%TO.N,XE*%
X106000000Y-61150000D03*
X105950000Y-59625500D03*
%TO.N,CI*%
X114900000Y-65974500D03*
X114950000Y-64725500D03*
%TO.N,GND1*%
X115900000Y-59300000D03*
D18*
X132370000Y-51750000D03*
X132370000Y-55570000D03*
X90460000Y-57480000D03*
X90460000Y-53660000D03*
D17*
%TO.N,CE*%
X112250000Y-61750000D03*
X114750000Y-60250000D03*
%TD*%
D19*
%TO.N,CI*%
X121650000Y-65200000D02*
X120012500Y-65200000D01*
X120012500Y-65200000D02*
X118575000Y-63762500D01*
X118575000Y-63762500D02*
X116350000Y-63762500D01*
%TO.N,MP7*%
X99400000Y-64815000D02*
X101165000Y-64815000D01*
X106975000Y-68600000D02*
X108000000Y-69625000D01*
X101165000Y-64815000D02*
X103300000Y-66950000D01*
X103300000Y-66950000D02*
X103950000Y-66950000D01*
X103950000Y-66950000D02*
X105600000Y-68600000D01*
X105600000Y-68600000D02*
X106975000Y-68600000D01*
X108000000Y-69625000D02*
X108000000Y-71000000D01*
%TO.N,MP6*%
X100635000Y-66085000D02*
X103700000Y-69150000D01*
X99400000Y-66085000D02*
X100635000Y-66085000D01*
X103700000Y-69150000D02*
X103700000Y-69950000D01*
X103700000Y-69950000D02*
X104750000Y-71000000D01*
%TO.N,MP5*%
X99400000Y-67355000D02*
X99400000Y-68900000D01*
X99400000Y-68900000D02*
X101500000Y-71000000D01*
%TO.N,MP2*%
X89800000Y-66650000D02*
X89800000Y-69050000D01*
X92200000Y-64815000D02*
X91635000Y-64815000D01*
X91635000Y-64815000D02*
X89800000Y-66650000D01*
%TO.N,P3*%
X103587500Y-64700000D02*
X107137500Y-64700000D01*
%TO.N,GND1*%
X105525000Y-67300000D02*
X105500000Y-67275000D01*
X107137500Y-67300000D02*
X105525000Y-67300000D01*
X107137500Y-67300000D02*
X108825000Y-67300000D01*
%TO.N,XE*%
X106537500Y-64050000D02*
X107137500Y-64050000D01*
%TO.N,GND1*%
X95037500Y-60250000D02*
X95037500Y-60463000D01*
%TO.N,CI*%
X112888000Y-65974500D02*
X112862500Y-66000000D01*
%TO.N,MP1*%
X111633884Y-60250000D02*
X111350000Y-60250000D01*
%TO.N,XE*%
X106590381Y-64050000D02*
X107137500Y-64050000D01*
%TO.N,P12*%
X96862500Y-58802500D02*
X95540000Y-57480000D01*
%TO.N,CE*%
X128560000Y-53660000D02*
X128560000Y-55791996D01*
X128560000Y-55791996D02*
X127200000Y-57151996D01*
%TO.N,MP1*%
X110780000Y-53660000D02*
X110780000Y-57480000D01*
%TO.N,CE*%
X127200000Y-57151996D02*
X127200000Y-59000000D01*
X126550000Y-59650000D02*
X127200000Y-59000000D01*
%TO.N,P12*%
X96862500Y-60250000D02*
X96862500Y-58802500D01*
%TO.N,MP1*%
X111350000Y-58050000D02*
X110780000Y-57480000D01*
%TO.N,CE*%
X123950000Y-59650000D02*
X126550000Y-59650000D01*
X121650000Y-61950000D02*
X123950000Y-59650000D01*
%TO.N,MP1*%
X111350000Y-60250000D02*
X111350000Y-58050000D01*
%TO.N,PI*%
X112862500Y-67300000D02*
X114474500Y-67300000D01*
%TO.N,P12*%
X98050000Y-60800000D02*
X97500000Y-60250000D01*
X97500000Y-60250000D02*
X96862500Y-60250000D01*
%TO.N,XE*%
X107137500Y-64050000D02*
X107800000Y-64050000D01*
X107800000Y-64050000D02*
X111950000Y-68200000D01*
X111950000Y-68200000D02*
X116550000Y-68200000D01*
X116550000Y-68200000D02*
X118400000Y-70050000D01*
%TO.N,XI*%
X115764212Y-65350000D02*
X117807106Y-67392894D01*
X117807106Y-67392894D02*
X120592894Y-67392894D01*
X120592894Y-67392894D02*
X121650000Y-68450000D01*
%TO.N,CI*%
X114950000Y-64725500D02*
X115387000Y-64725500D01*
X115387000Y-64725500D02*
X116350000Y-63762500D01*
%TO.N,CE*%
X114750000Y-60250000D02*
X119950000Y-60250000D01*
X119950000Y-60250000D02*
X121650000Y-61950000D01*
%TO.N,GND1*%
X107137500Y-65350000D02*
X108000000Y-65350000D01*
X108000000Y-65350000D02*
X108800000Y-66150000D01*
%TO.N,P12*%
X105800000Y-66000000D02*
X105750000Y-66000000D01*
X112862500Y-64700000D02*
X111100000Y-64700000D01*
X111100000Y-64700000D02*
X110475500Y-65324500D01*
X112862500Y-64050000D02*
X112862500Y-64700000D01*
%TO.N,CI*%
X112862500Y-66650000D02*
X112862500Y-66000000D01*
%TO.N,GND1*%
X96745000Y-63545000D02*
X99400000Y-63545000D01*
X95037500Y-60463000D02*
X95800000Y-61225500D01*
X96000000Y-62800000D02*
X96745000Y-63545000D01*
%TO.N,P12*%
X105750000Y-66000000D02*
X103250000Y-66000000D01*
X107137500Y-66000000D02*
X105800000Y-66000000D01*
X103250000Y-66000000D02*
X101200000Y-63950000D01*
X107137500Y-66000000D02*
X107137500Y-66650000D01*
%TO.N,XE*%
X104050000Y-59737500D02*
X105838000Y-59737500D01*
X105838000Y-59737500D02*
X105950000Y-59625500D01*
X106000000Y-61150000D02*
X106000000Y-63459619D01*
X106000000Y-63459619D02*
X106590381Y-64050000D01*
%TO.N,MP1*%
X104050000Y-61562500D02*
X105362500Y-60250000D01*
X105362500Y-60250000D02*
X111350000Y-60250000D01*
X100400000Y-59687500D02*
X102175000Y-59687500D01*
X102175000Y-59687500D02*
X104050000Y-61562500D01*
X99300000Y-60650000D02*
X99437500Y-60650000D01*
X99437500Y-60650000D02*
X100400000Y-59687500D01*
%TO.N,MP3*%
X90550000Y-66900000D02*
X90550000Y-68350000D01*
X91150000Y-69000000D02*
X94100000Y-69000000D01*
X90550000Y-68350000D02*
X91150000Y-68950000D01*
X91150000Y-68950000D02*
X91150000Y-69000000D01*
X92200000Y-66085000D02*
X91365000Y-66085000D01*
X91365000Y-66085000D02*
X90550000Y-66900000D01*
X94100000Y-69000000D02*
X95000000Y-69900000D01*
X95000000Y-69900000D02*
X95000000Y-71000000D01*
%TO.N,MP2*%
X89800000Y-69050000D02*
X91750000Y-71000000D01*
%TO.N,MP4*%
X92200000Y-67355000D02*
X94605000Y-67355000D01*
X94605000Y-67355000D02*
X98250000Y-71000000D01*
%TO.N,MP1*%
X93900000Y-61850000D02*
X94050000Y-61850000D01*
X94050000Y-61850000D02*
X98100000Y-61850000D01*
X92200000Y-63545000D02*
X93895000Y-61850000D01*
X93895000Y-61850000D02*
X94050000Y-61850000D01*
X92550000Y-60500000D02*
X93900000Y-61850000D01*
X98100000Y-61850000D02*
X99300000Y-60650000D01*
%TO.N,P3*%
X100400000Y-61512500D02*
X103587500Y-64700000D01*
%TO.N,CI*%
X114900000Y-65974500D02*
X112888000Y-65974500D01*
%TO.N,MP1*%
X112862500Y-63400000D02*
X112862500Y-62396384D01*
X112862500Y-62396384D02*
X113321384Y-61937500D01*
X116350000Y-61937500D02*
X113321384Y-61937500D01*
X113321384Y-61937500D02*
X111633884Y-60250000D01*
%TO.N,CE*%
X109750000Y-61750000D02*
X112250000Y-61750000D01*
X107137500Y-63400000D02*
X108100000Y-63400000D01*
X108100000Y-63400000D02*
X109750000Y-61750000D01*
%TO.N,XI*%
X112862500Y-65350000D02*
X115764212Y-65350000D01*
%TO.N,GND1*%
X115900000Y-59300000D02*
X114200000Y-59300000D01*
X114200000Y-59300000D02*
X113497487Y-60002513D01*
%TD*%
%TA.AperFunction,Conductor*%
%TO.N,GND1*%
G36*
X132715723Y-50020502D02*
G01*
X132736697Y-50037405D01*
X133862595Y-51163302D01*
X133896620Y-51225614D01*
X133899500Y-51252397D01*
X133899500Y-58146998D01*
X133879498Y-58215119D01*
X133861868Y-58236815D01*
X130836571Y-61213317D01*
X130773984Y-61246834D01*
X130748203Y-61249500D01*
X125250099Y-61249500D01*
X125250000Y-61249459D01*
X125249901Y-61249500D01*
X125249617Y-61249617D01*
X125249576Y-61249717D01*
X123749716Y-62749576D01*
X123749617Y-62749617D01*
X123749576Y-62749716D01*
X123749458Y-62750000D01*
X123749500Y-62750101D01*
X123749500Y-69447603D01*
X123729498Y-69515724D01*
X123712595Y-69536698D01*
X121536697Y-71712595D01*
X121474385Y-71746621D01*
X121447602Y-71749500D01*
X118847541Y-71749500D01*
X118779420Y-71729498D01*
X118732927Y-71675842D01*
X118722823Y-71605568D01*
X118752317Y-71540988D01*
X118818127Y-71500981D01*
X118824952Y-71499342D01*
X118867594Y-71489105D01*
X118872167Y-71487211D01*
X119082389Y-71400135D01*
X119082393Y-71400133D01*
X119086963Y-71398240D01*
X119091183Y-71395654D01*
X119285202Y-71276759D01*
X119285208Y-71276755D01*
X119289416Y-71274176D01*
X119469969Y-71119969D01*
X119624176Y-70939416D01*
X119626755Y-70935208D01*
X119626759Y-70935202D01*
X119745654Y-70741183D01*
X119748240Y-70736963D01*
X119834865Y-70527832D01*
X119837211Y-70522167D01*
X119837212Y-70522165D01*
X119839105Y-70517594D01*
X119858360Y-70437391D01*
X119893380Y-70291524D01*
X119893381Y-70291518D01*
X119894535Y-70286711D01*
X119913165Y-70050000D01*
X119894535Y-69813289D01*
X119891812Y-69801943D01*
X119855300Y-69649865D01*
X119839105Y-69582406D01*
X119836140Y-69575247D01*
X119750135Y-69367611D01*
X119750133Y-69367607D01*
X119748240Y-69363037D01*
X119737455Y-69345437D01*
X119626759Y-69164798D01*
X119626755Y-69164792D01*
X119624176Y-69160584D01*
X119485739Y-68998495D01*
X119473177Y-68983787D01*
X119469969Y-68980031D01*
X119289416Y-68825824D01*
X119285208Y-68823245D01*
X119285202Y-68823241D01*
X119091183Y-68704346D01*
X119086963Y-68701760D01*
X119082393Y-68699867D01*
X119082389Y-68699865D01*
X118872167Y-68612789D01*
X118872165Y-68612788D01*
X118867594Y-68610895D01*
X118774241Y-68588483D01*
X118641524Y-68556620D01*
X118641518Y-68556619D01*
X118636711Y-68555465D01*
X118400000Y-68536835D01*
X118163289Y-68555465D01*
X118158482Y-68556619D01*
X118158476Y-68556620D01*
X118007019Y-68592982D01*
X117940049Y-68609060D01*
X117869142Y-68605513D01*
X117821541Y-68575636D01*
X117438397Y-68192492D01*
X117404371Y-68130180D01*
X117409436Y-68059365D01*
X117451983Y-68002529D01*
X117518503Y-67977718D01*
X117570465Y-67985720D01*
X117572046Y-67986589D01*
X117579718Y-67988559D01*
X117579721Y-67988560D01*
X117591664Y-67991626D01*
X117610372Y-67998031D01*
X117628961Y-68006075D01*
X117636786Y-68007314D01*
X117636788Y-68007315D01*
X117672625Y-68012991D01*
X117684246Y-68015398D01*
X117717144Y-68023844D01*
X117727076Y-68026394D01*
X117747337Y-68026394D01*
X117767046Y-68027945D01*
X117787049Y-68031113D01*
X117794941Y-68030367D01*
X117800168Y-68029873D01*
X117831060Y-68026953D01*
X117842917Y-68026394D01*
X120040504Y-68026394D01*
X120108625Y-68046396D01*
X120155118Y-68100052D01*
X120165222Y-68170326D01*
X120163023Y-68181808D01*
X120158295Y-68201502D01*
X120155465Y-68213289D01*
X120136835Y-68450000D01*
X120155465Y-68686711D01*
X120156619Y-68691518D01*
X120156620Y-68691524D01*
X120190232Y-68831528D01*
X120210895Y-68917594D01*
X120212788Y-68922165D01*
X120212789Y-68922167D01*
X120293320Y-69116586D01*
X120301760Y-69136963D01*
X120304346Y-69141183D01*
X120423241Y-69335202D01*
X120423245Y-69335208D01*
X120425824Y-69339416D01*
X120580031Y-69519969D01*
X120583787Y-69523177D01*
X120586666Y-69525636D01*
X120760584Y-69674176D01*
X120764792Y-69676755D01*
X120764798Y-69676759D01*
X120931697Y-69779035D01*
X120963037Y-69798240D01*
X120967607Y-69800133D01*
X120967611Y-69800135D01*
X121177833Y-69887211D01*
X121182406Y-69889105D01*
X121262609Y-69908360D01*
X121408476Y-69943380D01*
X121408482Y-69943381D01*
X121413289Y-69944535D01*
X121650000Y-69963165D01*
X121886711Y-69944535D01*
X121891518Y-69943381D01*
X121891524Y-69943380D01*
X122037391Y-69908360D01*
X122117594Y-69889105D01*
X122122167Y-69887211D01*
X122332389Y-69800135D01*
X122332393Y-69800133D01*
X122336963Y-69798240D01*
X122368303Y-69779035D01*
X122535202Y-69676759D01*
X122535208Y-69676755D01*
X122539416Y-69674176D01*
X122713334Y-69525636D01*
X122716213Y-69523177D01*
X122719969Y-69519969D01*
X122874176Y-69339416D01*
X122876755Y-69335208D01*
X122876759Y-69335202D01*
X122995654Y-69141183D01*
X122998240Y-69136963D01*
X123006681Y-69116586D01*
X123087211Y-68922167D01*
X123087212Y-68922165D01*
X123089105Y-68917594D01*
X123109768Y-68831528D01*
X123143380Y-68691524D01*
X123143381Y-68691518D01*
X123144535Y-68686711D01*
X123163165Y-68450000D01*
X123144535Y-68213289D01*
X123141706Y-68201502D01*
X123106123Y-68053291D01*
X123089105Y-67982406D01*
X123080828Y-67962424D01*
X123000135Y-67767611D01*
X123000133Y-67767607D01*
X122998240Y-67763037D01*
X122910835Y-67620405D01*
X122876759Y-67564798D01*
X122876755Y-67564792D01*
X122874176Y-67560584D01*
X122719969Y-67380031D01*
X122539416Y-67225824D01*
X122535208Y-67223245D01*
X122535202Y-67223241D01*
X122341183Y-67104346D01*
X122336963Y-67101760D01*
X122332393Y-67099867D01*
X122332389Y-67099865D01*
X122122167Y-67012789D01*
X122122165Y-67012788D01*
X122117594Y-67010895D01*
X122037391Y-66991640D01*
X121891524Y-66956620D01*
X121891518Y-66956619D01*
X121886711Y-66955465D01*
X121825049Y-66950612D01*
X121758708Y-66925326D01*
X121716568Y-66868188D01*
X121712009Y-66797338D01*
X121746478Y-66735271D01*
X121809032Y-66701691D01*
X121825049Y-66699388D01*
X121886711Y-66694535D01*
X121891518Y-66693381D01*
X121891524Y-66693380D01*
X122057626Y-66653502D01*
X122117594Y-66639105D01*
X122131126Y-66633500D01*
X122332389Y-66550135D01*
X122332393Y-66550133D01*
X122336963Y-66548240D01*
X122364507Y-66531361D01*
X122535202Y-66426759D01*
X122535208Y-66426755D01*
X122539416Y-66424176D01*
X122719969Y-66269969D01*
X122874176Y-66089416D01*
X122876755Y-66085208D01*
X122876759Y-66085202D01*
X122995654Y-65891183D01*
X122998240Y-65886963D01*
X123004866Y-65870968D01*
X123087211Y-65672167D01*
X123087212Y-65672165D01*
X123089105Y-65667594D01*
X123124370Y-65520706D01*
X123143380Y-65441524D01*
X123143381Y-65441518D01*
X123144535Y-65436711D01*
X123163165Y-65200000D01*
X123144535Y-64963289D01*
X123142052Y-64952944D01*
X123101449Y-64783821D01*
X123089105Y-64732406D01*
X123083727Y-64719422D01*
X123000135Y-64517611D01*
X123000133Y-64517607D01*
X122998240Y-64513037D01*
X122985593Y-64492399D01*
X122876759Y-64314798D01*
X122876755Y-64314792D01*
X122874176Y-64310584D01*
X122719969Y-64130031D01*
X122539416Y-63975824D01*
X122535208Y-63973245D01*
X122535202Y-63973241D01*
X122341183Y-63854346D01*
X122336963Y-63851760D01*
X122332393Y-63849867D01*
X122332389Y-63849865D01*
X122122167Y-63762789D01*
X122122165Y-63762788D01*
X122117594Y-63760895D01*
X121991602Y-63730647D01*
X121891524Y-63706620D01*
X121891518Y-63706619D01*
X121886711Y-63705465D01*
X121825049Y-63700612D01*
X121758708Y-63675326D01*
X121716568Y-63618188D01*
X121712009Y-63547338D01*
X121746478Y-63485271D01*
X121809032Y-63451691D01*
X121825049Y-63449388D01*
X121886711Y-63444535D01*
X121891518Y-63443381D01*
X121891524Y-63443380D01*
X122041161Y-63407455D01*
X122117594Y-63389105D01*
X122163122Y-63370247D01*
X122332389Y-63300135D01*
X122332393Y-63300133D01*
X122336963Y-63298240D01*
X122348778Y-63291000D01*
X122535202Y-63176759D01*
X122535208Y-63176755D01*
X122539416Y-63174176D01*
X122719969Y-63019969D01*
X122874176Y-62839416D01*
X122876755Y-62835208D01*
X122876759Y-62835202D01*
X122995654Y-62641183D01*
X122998240Y-62636963D01*
X123010452Y-62607482D01*
X123087211Y-62422167D01*
X123087212Y-62422165D01*
X123089105Y-62417594D01*
X123108360Y-62337391D01*
X123143380Y-62191524D01*
X123143381Y-62191518D01*
X123144535Y-62186711D01*
X123163165Y-61950000D01*
X123144535Y-61713289D01*
X123139388Y-61691847D01*
X123090940Y-61490049D01*
X123094487Y-61419141D01*
X123124364Y-61371540D01*
X124175499Y-60320405D01*
X124237811Y-60286379D01*
X124264594Y-60283500D01*
X126471233Y-60283500D01*
X126482416Y-60284027D01*
X126489909Y-60285702D01*
X126497835Y-60285453D01*
X126497836Y-60285453D01*
X126557986Y-60283562D01*
X126561945Y-60283500D01*
X126589856Y-60283500D01*
X126593791Y-60283003D01*
X126593856Y-60282995D01*
X126605693Y-60282062D01*
X126637951Y-60281048D01*
X126641970Y-60280922D01*
X126649889Y-60280673D01*
X126669343Y-60275021D01*
X126688700Y-60271013D01*
X126700930Y-60269468D01*
X126700931Y-60269468D01*
X126708797Y-60268474D01*
X126716168Y-60265555D01*
X126716170Y-60265555D01*
X126749912Y-60252196D01*
X126761142Y-60248351D01*
X126795983Y-60238229D01*
X126795984Y-60238229D01*
X126803593Y-60236018D01*
X126810412Y-60231985D01*
X126810417Y-60231983D01*
X126821028Y-60225707D01*
X126838776Y-60217012D01*
X126857617Y-60209552D01*
X126893387Y-60183564D01*
X126903307Y-60177048D01*
X126934535Y-60158580D01*
X126934538Y-60158578D01*
X126941362Y-60154542D01*
X126955683Y-60140221D01*
X126970717Y-60127380D01*
X126980693Y-60120132D01*
X126987107Y-60115472D01*
X127015288Y-60081407D01*
X127023278Y-60072626D01*
X127592258Y-59503647D01*
X127600537Y-59496113D01*
X127607018Y-59492000D01*
X127653644Y-59442348D01*
X127656398Y-59439507D01*
X127676135Y-59419770D01*
X127678615Y-59416573D01*
X127686320Y-59407551D01*
X127708538Y-59383891D01*
X127716586Y-59375321D01*
X127720405Y-59368375D01*
X127720407Y-59368372D01*
X127726348Y-59357566D01*
X127737199Y-59341047D01*
X127743512Y-59332908D01*
X127749614Y-59325041D01*
X127752759Y-59317772D01*
X127752762Y-59317768D01*
X127767174Y-59284463D01*
X127772391Y-59273813D01*
X127793695Y-59235060D01*
X127798733Y-59215437D01*
X127805137Y-59196734D01*
X127810033Y-59185420D01*
X127810033Y-59185419D01*
X127813181Y-59178145D01*
X127814420Y-59170322D01*
X127814423Y-59170312D01*
X127820099Y-59134476D01*
X127822505Y-59122856D01*
X127831528Y-59087711D01*
X127831528Y-59087710D01*
X127833500Y-59080030D01*
X127833500Y-59059776D01*
X127835051Y-59040065D01*
X127836980Y-59027886D01*
X127838220Y-59020057D01*
X127834059Y-58976038D01*
X127833500Y-58964181D01*
X127833500Y-58815880D01*
X127853502Y-58747759D01*
X127907158Y-58701266D01*
X127977432Y-58691162D01*
X128012749Y-58701685D01*
X128095470Y-58740258D01*
X128095475Y-58740260D01*
X128100457Y-58742583D01*
X128105765Y-58744005D01*
X128105767Y-58744006D01*
X128321369Y-58801776D01*
X128321371Y-58801776D01*
X128326684Y-58803200D01*
X128560000Y-58823613D01*
X128793316Y-58803200D01*
X128798629Y-58801776D01*
X128798631Y-58801776D01*
X129014233Y-58744006D01*
X129014235Y-58744005D01*
X129019543Y-58742583D01*
X129032082Y-58736736D01*
X129226820Y-58645929D01*
X129226825Y-58645926D01*
X129231807Y-58643603D01*
X129419144Y-58512428D01*
X129419150Y-58512424D01*
X129423658Y-58509267D01*
X129589267Y-58343658D01*
X129616683Y-58304505D01*
X129648439Y-58259152D01*
X129723603Y-58151807D01*
X129724305Y-58152298D01*
X129772262Y-58106570D01*
X129841976Y-58093133D01*
X129907887Y-58119519D01*
X129936066Y-58152039D01*
X129936397Y-58151807D01*
X130011561Y-58259152D01*
X130043318Y-58304505D01*
X130070733Y-58343658D01*
X130236342Y-58509267D01*
X130240850Y-58512424D01*
X130240856Y-58512428D01*
X130428193Y-58643603D01*
X130433175Y-58645926D01*
X130433180Y-58645929D01*
X130627918Y-58736736D01*
X130640457Y-58742583D01*
X130645765Y-58744005D01*
X130645767Y-58744006D01*
X130861369Y-58801776D01*
X130861371Y-58801776D01*
X130866684Y-58803200D01*
X131100000Y-58823613D01*
X131333316Y-58803200D01*
X131338629Y-58801776D01*
X131338631Y-58801776D01*
X131554233Y-58744006D01*
X131554235Y-58744005D01*
X131559543Y-58742583D01*
X131572082Y-58736736D01*
X131766820Y-58645929D01*
X131766825Y-58645926D01*
X131771807Y-58643603D01*
X131959144Y-58512428D01*
X131959150Y-58512424D01*
X131963658Y-58509267D01*
X132129267Y-58343658D01*
X132156683Y-58304505D01*
X132188439Y-58259152D01*
X132263603Y-58151807D01*
X132265926Y-58146825D01*
X132265929Y-58146820D01*
X132360260Y-57944525D01*
X132360260Y-57944524D01*
X132362583Y-57939543D01*
X132423200Y-57713316D01*
X132443613Y-57480000D01*
X132423200Y-57246684D01*
X132421776Y-57241369D01*
X132364006Y-57025767D01*
X132364005Y-57025765D01*
X132362583Y-57020457D01*
X132346970Y-56986975D01*
X132265929Y-56813181D01*
X132265926Y-56813176D01*
X132263603Y-56808194D01*
X132211374Y-56733603D01*
X132132426Y-56620853D01*
X132132424Y-56620850D01*
X132129267Y-56616342D01*
X131963658Y-56450733D01*
X131959150Y-56447576D01*
X131959147Y-56447574D01*
X131879152Y-56391561D01*
X131771807Y-56316397D01*
X131766825Y-56314074D01*
X131766820Y-56314071D01*
X131564525Y-56219740D01*
X131564524Y-56219740D01*
X131559543Y-56217417D01*
X131554235Y-56215995D01*
X131554233Y-56215994D01*
X131338631Y-56158224D01*
X131338629Y-56158224D01*
X131333316Y-56156800D01*
X131327830Y-56156320D01*
X131327824Y-56156319D01*
X131214369Y-56146392D01*
X131148251Y-56120529D01*
X131106611Y-56063025D01*
X131103644Y-55988261D01*
X131151776Y-55808631D01*
X131151776Y-55808629D01*
X131153200Y-55803316D01*
X131173613Y-55570000D01*
X131153200Y-55336684D01*
X131103644Y-55151738D01*
X131105334Y-55080763D01*
X131145128Y-55021967D01*
X131214369Y-54993608D01*
X131327824Y-54983681D01*
X131327830Y-54983680D01*
X131333316Y-54983200D01*
X131338629Y-54981776D01*
X131338631Y-54981776D01*
X131554233Y-54924006D01*
X131554235Y-54924005D01*
X131559543Y-54922583D01*
X131611846Y-54898194D01*
X131766820Y-54825929D01*
X131766825Y-54825926D01*
X131771807Y-54823603D01*
X131932830Y-54710853D01*
X131959147Y-54692426D01*
X131959150Y-54692424D01*
X131963658Y-54689267D01*
X132129267Y-54523658D01*
X132263603Y-54331807D01*
X132265926Y-54326825D01*
X132265929Y-54326820D01*
X132360260Y-54124525D01*
X132360260Y-54124524D01*
X132362583Y-54119543D01*
X132373645Y-54078261D01*
X132421776Y-53898631D01*
X132421776Y-53898629D01*
X132423200Y-53893316D01*
X132443613Y-53660000D01*
X132423200Y-53426684D01*
X132421776Y-53421369D01*
X132364006Y-53205767D01*
X132364005Y-53205765D01*
X132362583Y-53200457D01*
X132346970Y-53166975D01*
X132265929Y-52993181D01*
X132265926Y-52993176D01*
X132263603Y-52988194D01*
X132211374Y-52913603D01*
X132132426Y-52800853D01*
X132132424Y-52800850D01*
X132129267Y-52796342D01*
X131963658Y-52630733D01*
X131959150Y-52627576D01*
X131959147Y-52627574D01*
X131879152Y-52571561D01*
X131771807Y-52496397D01*
X131766825Y-52494074D01*
X131766820Y-52494071D01*
X131564525Y-52399740D01*
X131564524Y-52399740D01*
X131559543Y-52397417D01*
X131554235Y-52395995D01*
X131554233Y-52395994D01*
X131338631Y-52338224D01*
X131338629Y-52338224D01*
X131333316Y-52336800D01*
X131327830Y-52336320D01*
X131327824Y-52336319D01*
X131214369Y-52326392D01*
X131148251Y-52300529D01*
X131106611Y-52243025D01*
X131103644Y-52168261D01*
X131151776Y-51988631D01*
X131151776Y-51988629D01*
X131153200Y-51983316D01*
X131173613Y-51750000D01*
X131153200Y-51516684D01*
X131092583Y-51290457D01*
X131090260Y-51285475D01*
X130995929Y-51083181D01*
X130995926Y-51083176D01*
X130993603Y-51078194D01*
X130990447Y-51073687D01*
X130990446Y-51073685D01*
X130862426Y-50890853D01*
X130862424Y-50890850D01*
X130859267Y-50886342D01*
X130693658Y-50720733D01*
X130689150Y-50717576D01*
X130689147Y-50717574D01*
X130609152Y-50661561D01*
X130501807Y-50586397D01*
X130496825Y-50584074D01*
X130496820Y-50584071D01*
X130294525Y-50489740D01*
X130294524Y-50489740D01*
X130289543Y-50487417D01*
X130284235Y-50485995D01*
X130284233Y-50485994D01*
X130068631Y-50428224D01*
X130068629Y-50428224D01*
X130063316Y-50426800D01*
X129830000Y-50406387D01*
X129596684Y-50426800D01*
X129591371Y-50428224D01*
X129591369Y-50428224D01*
X129375767Y-50485994D01*
X129375765Y-50485995D01*
X129370457Y-50487417D01*
X129365476Y-50489739D01*
X129365475Y-50489740D01*
X129163181Y-50584071D01*
X129163176Y-50584074D01*
X129158194Y-50586397D01*
X129153687Y-50589553D01*
X129153685Y-50589554D01*
X128970853Y-50717574D01*
X128970850Y-50717576D01*
X128966342Y-50720733D01*
X128800733Y-50886342D01*
X128666397Y-51078194D01*
X128665695Y-51077703D01*
X128617738Y-51123431D01*
X128548024Y-51136868D01*
X128482113Y-51110482D01*
X128453934Y-51077962D01*
X128453603Y-51078194D01*
X128451361Y-51074992D01*
X128319267Y-50886342D01*
X128153658Y-50720733D01*
X128149150Y-50717576D01*
X128149147Y-50717574D01*
X128069152Y-50661561D01*
X127961807Y-50586397D01*
X127956825Y-50584074D01*
X127956820Y-50584071D01*
X127754525Y-50489740D01*
X127754524Y-50489740D01*
X127749543Y-50487417D01*
X127744235Y-50485995D01*
X127744233Y-50485994D01*
X127528631Y-50428224D01*
X127528629Y-50428224D01*
X127523316Y-50426800D01*
X127290000Y-50406387D01*
X127056684Y-50426800D01*
X127051371Y-50428224D01*
X127051369Y-50428224D01*
X126835767Y-50485994D01*
X126835765Y-50485995D01*
X126830457Y-50487417D01*
X126825476Y-50489739D01*
X126825475Y-50489740D01*
X126623181Y-50584071D01*
X126623176Y-50584074D01*
X126618194Y-50586397D01*
X126613687Y-50589553D01*
X126613685Y-50589554D01*
X126430853Y-50717574D01*
X126430850Y-50717576D01*
X126426342Y-50720733D01*
X126260733Y-50886342D01*
X126126397Y-51078194D01*
X126125695Y-51077703D01*
X126077738Y-51123431D01*
X126008024Y-51136868D01*
X125942113Y-51110482D01*
X125913934Y-51077962D01*
X125913603Y-51078194D01*
X125911361Y-51074992D01*
X125779267Y-50886342D01*
X125613658Y-50720733D01*
X125609150Y-50717576D01*
X125609147Y-50717574D01*
X125529152Y-50661561D01*
X125421807Y-50586397D01*
X125416825Y-50584074D01*
X125416820Y-50584071D01*
X125214525Y-50489740D01*
X125214524Y-50489740D01*
X125209543Y-50487417D01*
X125204235Y-50485995D01*
X125204233Y-50485994D01*
X124988631Y-50428224D01*
X124988629Y-50428224D01*
X124983316Y-50426800D01*
X124750000Y-50406387D01*
X124516684Y-50426800D01*
X124511371Y-50428224D01*
X124511369Y-50428224D01*
X124295767Y-50485994D01*
X124295765Y-50485995D01*
X124290457Y-50487417D01*
X124285476Y-50489739D01*
X124285475Y-50489740D01*
X124083181Y-50584071D01*
X124083176Y-50584074D01*
X124078194Y-50586397D01*
X124073687Y-50589553D01*
X124073685Y-50589554D01*
X123890853Y-50717574D01*
X123890850Y-50717576D01*
X123886342Y-50720733D01*
X123720733Y-50886342D01*
X123586397Y-51078194D01*
X123585695Y-51077703D01*
X123537738Y-51123431D01*
X123468024Y-51136868D01*
X123402113Y-51110482D01*
X123373934Y-51077962D01*
X123373603Y-51078194D01*
X123371361Y-51074992D01*
X123239267Y-50886342D01*
X123073658Y-50720733D01*
X123069150Y-50717576D01*
X123069147Y-50717574D01*
X122989152Y-50661561D01*
X122881807Y-50586397D01*
X122876825Y-50584074D01*
X122876820Y-50584071D01*
X122674525Y-50489740D01*
X122674524Y-50489740D01*
X122669543Y-50487417D01*
X122664235Y-50485995D01*
X122664233Y-50485994D01*
X122448631Y-50428224D01*
X122448629Y-50428224D01*
X122443316Y-50426800D01*
X122210000Y-50406387D01*
X121976684Y-50426800D01*
X121971371Y-50428224D01*
X121971369Y-50428224D01*
X121755767Y-50485994D01*
X121755765Y-50485995D01*
X121750457Y-50487417D01*
X121745476Y-50489739D01*
X121745475Y-50489740D01*
X121543181Y-50584071D01*
X121543176Y-50584074D01*
X121538194Y-50586397D01*
X121533687Y-50589553D01*
X121533685Y-50589554D01*
X121350853Y-50717574D01*
X121350850Y-50717576D01*
X121346342Y-50720733D01*
X121180733Y-50886342D01*
X121046397Y-51078194D01*
X121045695Y-51077703D01*
X120997738Y-51123431D01*
X120928024Y-51136868D01*
X120862113Y-51110482D01*
X120833934Y-51077962D01*
X120833603Y-51078194D01*
X120831361Y-51074992D01*
X120699267Y-50886342D01*
X120533658Y-50720733D01*
X120529150Y-50717576D01*
X120529147Y-50717574D01*
X120449152Y-50661561D01*
X120341807Y-50586397D01*
X120336825Y-50584074D01*
X120336820Y-50584071D01*
X120134525Y-50489740D01*
X120134524Y-50489740D01*
X120129543Y-50487417D01*
X120124235Y-50485995D01*
X120124233Y-50485994D01*
X119908631Y-50428224D01*
X119908629Y-50428224D01*
X119903316Y-50426800D01*
X119670000Y-50406387D01*
X119436684Y-50426800D01*
X119431371Y-50428224D01*
X119431369Y-50428224D01*
X119215767Y-50485994D01*
X119215765Y-50485995D01*
X119210457Y-50487417D01*
X119205476Y-50489739D01*
X119205475Y-50489740D01*
X119003181Y-50584071D01*
X119003176Y-50584074D01*
X118998194Y-50586397D01*
X118993687Y-50589553D01*
X118993685Y-50589554D01*
X118810853Y-50717574D01*
X118810850Y-50717576D01*
X118806342Y-50720733D01*
X118640733Y-50886342D01*
X118506397Y-51078194D01*
X118505695Y-51077703D01*
X118457738Y-51123431D01*
X118388024Y-51136868D01*
X118322113Y-51110482D01*
X118293934Y-51077962D01*
X118293603Y-51078194D01*
X118291361Y-51074992D01*
X118159267Y-50886342D01*
X117993658Y-50720733D01*
X117989150Y-50717576D01*
X117989147Y-50717574D01*
X117909152Y-50661561D01*
X117801807Y-50586397D01*
X117796825Y-50584074D01*
X117796820Y-50584071D01*
X117594525Y-50489740D01*
X117594524Y-50489740D01*
X117589543Y-50487417D01*
X117584235Y-50485995D01*
X117584233Y-50485994D01*
X117368631Y-50428224D01*
X117368629Y-50428224D01*
X117363316Y-50426800D01*
X117130000Y-50406387D01*
X116896684Y-50426800D01*
X116891371Y-50428224D01*
X116891369Y-50428224D01*
X116675767Y-50485994D01*
X116675765Y-50485995D01*
X116670457Y-50487417D01*
X116665476Y-50489739D01*
X116665475Y-50489740D01*
X116463181Y-50584071D01*
X116463176Y-50584074D01*
X116458194Y-50586397D01*
X116453687Y-50589553D01*
X116453685Y-50589554D01*
X116270853Y-50717574D01*
X116270850Y-50717576D01*
X116266342Y-50720733D01*
X116100733Y-50886342D01*
X115966397Y-51078194D01*
X115965695Y-51077703D01*
X115917738Y-51123431D01*
X115848024Y-51136868D01*
X115782113Y-51110482D01*
X115753934Y-51077962D01*
X115753603Y-51078194D01*
X115751361Y-51074992D01*
X115619267Y-50886342D01*
X115453658Y-50720733D01*
X115449150Y-50717576D01*
X115449147Y-50717574D01*
X115369152Y-50661561D01*
X115261807Y-50586397D01*
X115256825Y-50584074D01*
X115256820Y-50584071D01*
X115054525Y-50489740D01*
X115054524Y-50489740D01*
X115049543Y-50487417D01*
X115044235Y-50485995D01*
X115044233Y-50485994D01*
X114828631Y-50428224D01*
X114828629Y-50428224D01*
X114823316Y-50426800D01*
X114590000Y-50406387D01*
X114356684Y-50426800D01*
X114351371Y-50428224D01*
X114351369Y-50428224D01*
X114135767Y-50485994D01*
X114135765Y-50485995D01*
X114130457Y-50487417D01*
X114125476Y-50489739D01*
X114125475Y-50489740D01*
X113923181Y-50584071D01*
X113923176Y-50584074D01*
X113918194Y-50586397D01*
X113913687Y-50589553D01*
X113913685Y-50589554D01*
X113730853Y-50717574D01*
X113730850Y-50717576D01*
X113726342Y-50720733D01*
X113560733Y-50886342D01*
X113426397Y-51078194D01*
X113425695Y-51077703D01*
X113377738Y-51123431D01*
X113308024Y-51136868D01*
X113242113Y-51110482D01*
X113213934Y-51077962D01*
X113213603Y-51078194D01*
X113211361Y-51074992D01*
X113079267Y-50886342D01*
X112913658Y-50720733D01*
X112909150Y-50717576D01*
X112909147Y-50717574D01*
X112829152Y-50661561D01*
X112721807Y-50586397D01*
X112716825Y-50584074D01*
X112716820Y-50584071D01*
X112514525Y-50489740D01*
X112514524Y-50489740D01*
X112509543Y-50487417D01*
X112504235Y-50485995D01*
X112504233Y-50485994D01*
X112288631Y-50428224D01*
X112288629Y-50428224D01*
X112283316Y-50426800D01*
X112050000Y-50406387D01*
X111816684Y-50426800D01*
X111811371Y-50428224D01*
X111811369Y-50428224D01*
X111595767Y-50485994D01*
X111595765Y-50485995D01*
X111590457Y-50487417D01*
X111585476Y-50489739D01*
X111585475Y-50489740D01*
X111383181Y-50584071D01*
X111383176Y-50584074D01*
X111378194Y-50586397D01*
X111373687Y-50589553D01*
X111373685Y-50589554D01*
X111190853Y-50717574D01*
X111190850Y-50717576D01*
X111186342Y-50720733D01*
X111020733Y-50886342D01*
X110886397Y-51078194D01*
X110885695Y-51077703D01*
X110837738Y-51123431D01*
X110768024Y-51136868D01*
X110702113Y-51110482D01*
X110673934Y-51077962D01*
X110673603Y-51078194D01*
X110671361Y-51074992D01*
X110539267Y-50886342D01*
X110373658Y-50720733D01*
X110369150Y-50717576D01*
X110369147Y-50717574D01*
X110289152Y-50661561D01*
X110181807Y-50586397D01*
X110176825Y-50584074D01*
X110176820Y-50584071D01*
X109974525Y-50489740D01*
X109974524Y-50489740D01*
X109969543Y-50487417D01*
X109964235Y-50485995D01*
X109964233Y-50485994D01*
X109748631Y-50428224D01*
X109748629Y-50428224D01*
X109743316Y-50426800D01*
X109510000Y-50406387D01*
X109276684Y-50426800D01*
X109271371Y-50428224D01*
X109271369Y-50428224D01*
X109055767Y-50485994D01*
X109055765Y-50485995D01*
X109050457Y-50487417D01*
X109045476Y-50489739D01*
X109045475Y-50489740D01*
X108843181Y-50584071D01*
X108843176Y-50584074D01*
X108838194Y-50586397D01*
X108833687Y-50589553D01*
X108833685Y-50589554D01*
X108650853Y-50717574D01*
X108650850Y-50717576D01*
X108646342Y-50720733D01*
X108480733Y-50886342D01*
X108346397Y-51078194D01*
X108345695Y-51077703D01*
X108297738Y-51123431D01*
X108228024Y-51136868D01*
X108162113Y-51110482D01*
X108133934Y-51077962D01*
X108133603Y-51078194D01*
X108131361Y-51074992D01*
X107999267Y-50886342D01*
X107833658Y-50720733D01*
X107829150Y-50717576D01*
X107829147Y-50717574D01*
X107749152Y-50661561D01*
X107641807Y-50586397D01*
X107636825Y-50584074D01*
X107636820Y-50584071D01*
X107434525Y-50489740D01*
X107434524Y-50489740D01*
X107429543Y-50487417D01*
X107424235Y-50485995D01*
X107424233Y-50485994D01*
X107208631Y-50428224D01*
X107208629Y-50428224D01*
X107203316Y-50426800D01*
X106970000Y-50406387D01*
X106736684Y-50426800D01*
X106731371Y-50428224D01*
X106731369Y-50428224D01*
X106515767Y-50485994D01*
X106515765Y-50485995D01*
X106510457Y-50487417D01*
X106505476Y-50489739D01*
X106505475Y-50489740D01*
X106303181Y-50584071D01*
X106303176Y-50584074D01*
X106298194Y-50586397D01*
X106293687Y-50589553D01*
X106293685Y-50589554D01*
X106110853Y-50717574D01*
X106110850Y-50717576D01*
X106106342Y-50720733D01*
X105940733Y-50886342D01*
X105806397Y-51078194D01*
X105805695Y-51077703D01*
X105757738Y-51123431D01*
X105688024Y-51136868D01*
X105622113Y-51110482D01*
X105593934Y-51077962D01*
X105593603Y-51078194D01*
X105591361Y-51074992D01*
X105459267Y-50886342D01*
X105293658Y-50720733D01*
X105289150Y-50717576D01*
X105289147Y-50717574D01*
X105209152Y-50661561D01*
X105101807Y-50586397D01*
X105096825Y-50584074D01*
X105096820Y-50584071D01*
X104894525Y-50489740D01*
X104894524Y-50489740D01*
X104889543Y-50487417D01*
X104884235Y-50485995D01*
X104884233Y-50485994D01*
X104668631Y-50428224D01*
X104668629Y-50428224D01*
X104663316Y-50426800D01*
X104430000Y-50406387D01*
X104196684Y-50426800D01*
X104191371Y-50428224D01*
X104191369Y-50428224D01*
X103975767Y-50485994D01*
X103975765Y-50485995D01*
X103970457Y-50487417D01*
X103965476Y-50489739D01*
X103965475Y-50489740D01*
X103763181Y-50584071D01*
X103763176Y-50584074D01*
X103758194Y-50586397D01*
X103753687Y-50589553D01*
X103753685Y-50589554D01*
X103570853Y-50717574D01*
X103570850Y-50717576D01*
X103566342Y-50720733D01*
X103400733Y-50886342D01*
X103266397Y-51078194D01*
X103265695Y-51077703D01*
X103217738Y-51123431D01*
X103148024Y-51136868D01*
X103082113Y-51110482D01*
X103053934Y-51077962D01*
X103053603Y-51078194D01*
X103051361Y-51074992D01*
X102919267Y-50886342D01*
X102753658Y-50720733D01*
X102749150Y-50717576D01*
X102749147Y-50717574D01*
X102669152Y-50661561D01*
X102561807Y-50586397D01*
X102556825Y-50584074D01*
X102556820Y-50584071D01*
X102354525Y-50489740D01*
X102354524Y-50489740D01*
X102349543Y-50487417D01*
X102344235Y-50485995D01*
X102344233Y-50485994D01*
X102128631Y-50428224D01*
X102128629Y-50428224D01*
X102123316Y-50426800D01*
X101890000Y-50406387D01*
X101656684Y-50426800D01*
X101651371Y-50428224D01*
X101651369Y-50428224D01*
X101435767Y-50485994D01*
X101435765Y-50485995D01*
X101430457Y-50487417D01*
X101425476Y-50489739D01*
X101425475Y-50489740D01*
X101223181Y-50584071D01*
X101223176Y-50584074D01*
X101218194Y-50586397D01*
X101213687Y-50589553D01*
X101213685Y-50589554D01*
X101030853Y-50717574D01*
X101030850Y-50717576D01*
X101026342Y-50720733D01*
X100860733Y-50886342D01*
X100726397Y-51078194D01*
X100725695Y-51077703D01*
X100677738Y-51123431D01*
X100608024Y-51136868D01*
X100542113Y-51110482D01*
X100513934Y-51077962D01*
X100513603Y-51078194D01*
X100511361Y-51074992D01*
X100379267Y-50886342D01*
X100213658Y-50720733D01*
X100209150Y-50717576D01*
X100209147Y-50717574D01*
X100129152Y-50661561D01*
X100021807Y-50586397D01*
X100016825Y-50584074D01*
X100016820Y-50584071D01*
X99814525Y-50489740D01*
X99814524Y-50489740D01*
X99809543Y-50487417D01*
X99804235Y-50485995D01*
X99804233Y-50485994D01*
X99588631Y-50428224D01*
X99588629Y-50428224D01*
X99583316Y-50426800D01*
X99350000Y-50406387D01*
X99116684Y-50426800D01*
X99111371Y-50428224D01*
X99111369Y-50428224D01*
X98895767Y-50485994D01*
X98895765Y-50485995D01*
X98890457Y-50487417D01*
X98885476Y-50489739D01*
X98885475Y-50489740D01*
X98683181Y-50584071D01*
X98683176Y-50584074D01*
X98678194Y-50586397D01*
X98673687Y-50589553D01*
X98673685Y-50589554D01*
X98490853Y-50717574D01*
X98490850Y-50717576D01*
X98486342Y-50720733D01*
X98320733Y-50886342D01*
X98186397Y-51078194D01*
X98185695Y-51077703D01*
X98137738Y-51123431D01*
X98068024Y-51136868D01*
X98002113Y-51110482D01*
X97973934Y-51077962D01*
X97973603Y-51078194D01*
X97971361Y-51074992D01*
X97839267Y-50886342D01*
X97673658Y-50720733D01*
X97669150Y-50717576D01*
X97669147Y-50717574D01*
X97589152Y-50661561D01*
X97481807Y-50586397D01*
X97476825Y-50584074D01*
X97476820Y-50584071D01*
X97274525Y-50489740D01*
X97274524Y-50489740D01*
X97269543Y-50487417D01*
X97264235Y-50485995D01*
X97264233Y-50485994D01*
X97048631Y-50428224D01*
X97048629Y-50428224D01*
X97043316Y-50426800D01*
X96810000Y-50406387D01*
X96576684Y-50426800D01*
X96571371Y-50428224D01*
X96571369Y-50428224D01*
X96355767Y-50485994D01*
X96355765Y-50485995D01*
X96350457Y-50487417D01*
X96345476Y-50489739D01*
X96345475Y-50489740D01*
X96143181Y-50584071D01*
X96143176Y-50584074D01*
X96138194Y-50586397D01*
X96133687Y-50589553D01*
X96133685Y-50589554D01*
X95950853Y-50717574D01*
X95950850Y-50717576D01*
X95946342Y-50720733D01*
X95780733Y-50886342D01*
X95646397Y-51078194D01*
X95645695Y-51077703D01*
X95597738Y-51123431D01*
X95528024Y-51136868D01*
X95462113Y-51110482D01*
X95433934Y-51077962D01*
X95433603Y-51078194D01*
X95431361Y-51074992D01*
X95299267Y-50886342D01*
X95133658Y-50720733D01*
X95129150Y-50717576D01*
X95129147Y-50717574D01*
X95049152Y-50661561D01*
X94941807Y-50586397D01*
X94936825Y-50584074D01*
X94936820Y-50584071D01*
X94734525Y-50489740D01*
X94734524Y-50489740D01*
X94729543Y-50487417D01*
X94724235Y-50485995D01*
X94724233Y-50485994D01*
X94508631Y-50428224D01*
X94508629Y-50428224D01*
X94503316Y-50426800D01*
X94270000Y-50406387D01*
X94036684Y-50426800D01*
X94031371Y-50428224D01*
X94031369Y-50428224D01*
X93815767Y-50485994D01*
X93815765Y-50485995D01*
X93810457Y-50487417D01*
X93805476Y-50489739D01*
X93805475Y-50489740D01*
X93603181Y-50584071D01*
X93603176Y-50584074D01*
X93598194Y-50586397D01*
X93593687Y-50589553D01*
X93593685Y-50589554D01*
X93410853Y-50717574D01*
X93410850Y-50717576D01*
X93406342Y-50720733D01*
X93240733Y-50886342D01*
X93106397Y-51078194D01*
X93105695Y-51077703D01*
X93057738Y-51123431D01*
X92988024Y-51136868D01*
X92922113Y-51110482D01*
X92893934Y-51077962D01*
X92893603Y-51078194D01*
X92891361Y-51074992D01*
X92759267Y-50886342D01*
X92593658Y-50720733D01*
X92589150Y-50717576D01*
X92589147Y-50717574D01*
X92509152Y-50661561D01*
X92401807Y-50586397D01*
X92396825Y-50584074D01*
X92396820Y-50584071D01*
X92194525Y-50489740D01*
X92194524Y-50489740D01*
X92189543Y-50487417D01*
X92184235Y-50485995D01*
X92184233Y-50485994D01*
X91968631Y-50428224D01*
X91968629Y-50428224D01*
X91963316Y-50426800D01*
X91730000Y-50406387D01*
X91496684Y-50426800D01*
X91491371Y-50428224D01*
X91491369Y-50428224D01*
X91275767Y-50485994D01*
X91275765Y-50485995D01*
X91270457Y-50487417D01*
X91265476Y-50489739D01*
X91265475Y-50489740D01*
X91063181Y-50584071D01*
X91063176Y-50584074D01*
X91058194Y-50586397D01*
X91053687Y-50589553D01*
X91053685Y-50589554D01*
X90870853Y-50717574D01*
X90870850Y-50717576D01*
X90866342Y-50720733D01*
X90700733Y-50886342D01*
X90697576Y-50890850D01*
X90697574Y-50890853D01*
X90569554Y-51073685D01*
X90569553Y-51073687D01*
X90566397Y-51078194D01*
X90564074Y-51083176D01*
X90564071Y-51083181D01*
X90469740Y-51285475D01*
X90467417Y-51290457D01*
X90406800Y-51516684D01*
X90386387Y-51750000D01*
X90406800Y-51983316D01*
X90408224Y-51988629D01*
X90408224Y-51988631D01*
X90456356Y-52168261D01*
X90467417Y-52209543D01*
X90469740Y-52214524D01*
X90469740Y-52214525D01*
X90564071Y-52416820D01*
X90564074Y-52416825D01*
X90566397Y-52421807D01*
X90700733Y-52613658D01*
X90866342Y-52779267D01*
X90870850Y-52782424D01*
X90870853Y-52782426D01*
X90897170Y-52800853D01*
X91058193Y-52913603D01*
X91063175Y-52915926D01*
X91063180Y-52915929D01*
X91218154Y-52988194D01*
X91270457Y-53012583D01*
X91275765Y-53014005D01*
X91275767Y-53014006D01*
X91491369Y-53071776D01*
X91491371Y-53071776D01*
X91496684Y-53073200D01*
X91502170Y-53073680D01*
X91502176Y-53073681D01*
X91615631Y-53083608D01*
X91681749Y-53109471D01*
X91723389Y-53166975D01*
X91726356Y-53241738D01*
X91676800Y-53426684D01*
X91656387Y-53660000D01*
X91676800Y-53893316D01*
X91678224Y-53898629D01*
X91678224Y-53898631D01*
X91726356Y-54078261D01*
X91724666Y-54149237D01*
X91684872Y-54208033D01*
X91615631Y-54236392D01*
X91502176Y-54246319D01*
X91502170Y-54246320D01*
X91496684Y-54246800D01*
X91491371Y-54248224D01*
X91491369Y-54248224D01*
X91275767Y-54305994D01*
X91275765Y-54305995D01*
X91270457Y-54307417D01*
X91265476Y-54309739D01*
X91265475Y-54309740D01*
X91063181Y-54404071D01*
X91063176Y-54404074D01*
X91058194Y-54406397D01*
X91053687Y-54409553D01*
X91053685Y-54409554D01*
X90870853Y-54537574D01*
X90870850Y-54537576D01*
X90866342Y-54540733D01*
X90700733Y-54706342D01*
X90697576Y-54710850D01*
X90697574Y-54710853D01*
X90618626Y-54823603D01*
X90566397Y-54898194D01*
X90564074Y-54903176D01*
X90564071Y-54903181D01*
X90469740Y-55105475D01*
X90467417Y-55110457D01*
X90465995Y-55115765D01*
X90465994Y-55115767D01*
X90408224Y-55331369D01*
X90406800Y-55336684D01*
X90386387Y-55570000D01*
X90406800Y-55803316D01*
X90408224Y-55808629D01*
X90408224Y-55808631D01*
X90456356Y-55988261D01*
X90467417Y-56029543D01*
X90469740Y-56034524D01*
X90469740Y-56034525D01*
X90564071Y-56236820D01*
X90564074Y-56236825D01*
X90566397Y-56241807D01*
X90700733Y-56433658D01*
X90866342Y-56599267D01*
X90870850Y-56602424D01*
X90870853Y-56602426D01*
X90897170Y-56620853D01*
X91058193Y-56733603D01*
X91063175Y-56735926D01*
X91063180Y-56735929D01*
X91218154Y-56808194D01*
X91270457Y-56832583D01*
X91275765Y-56834005D01*
X91275767Y-56834006D01*
X91491369Y-56891776D01*
X91491371Y-56891776D01*
X91496684Y-56893200D01*
X91502170Y-56893680D01*
X91502176Y-56893681D01*
X91615631Y-56903608D01*
X91681749Y-56929471D01*
X91723389Y-56986975D01*
X91726356Y-57061738D01*
X91676800Y-57246684D01*
X91656387Y-57480000D01*
X91676800Y-57713316D01*
X91737417Y-57939543D01*
X91739740Y-57944524D01*
X91739740Y-57944525D01*
X91834071Y-58146820D01*
X91834074Y-58146825D01*
X91836397Y-58151807D01*
X91911561Y-58259152D01*
X91943318Y-58304505D01*
X91970733Y-58343658D01*
X92136342Y-58509267D01*
X92140850Y-58512424D01*
X92140856Y-58512428D01*
X92328193Y-58643603D01*
X92333175Y-58645926D01*
X92333180Y-58645929D01*
X92527918Y-58736736D01*
X92540457Y-58742583D01*
X92545765Y-58744005D01*
X92545767Y-58744006D01*
X92761369Y-58801776D01*
X92761371Y-58801776D01*
X92766684Y-58803200D01*
X93000000Y-58823613D01*
X93233316Y-58803200D01*
X93238629Y-58801776D01*
X93238631Y-58801776D01*
X93454233Y-58744006D01*
X93454235Y-58744005D01*
X93459543Y-58742583D01*
X93472082Y-58736736D01*
X93666820Y-58645929D01*
X93666825Y-58645926D01*
X93671807Y-58643603D01*
X93859144Y-58512428D01*
X93859150Y-58512424D01*
X93863658Y-58509267D01*
X94029267Y-58343658D01*
X94056683Y-58304505D01*
X94088439Y-58259152D01*
X94163603Y-58151807D01*
X94164305Y-58152298D01*
X94212262Y-58106570D01*
X94281976Y-58093133D01*
X94347887Y-58119519D01*
X94376066Y-58152039D01*
X94376397Y-58151807D01*
X94451561Y-58259152D01*
X94483318Y-58304505D01*
X94510733Y-58343658D01*
X94676342Y-58509267D01*
X94680850Y-58512424D01*
X94680856Y-58512428D01*
X94868193Y-58643603D01*
X94873175Y-58645926D01*
X94873180Y-58645929D01*
X95067918Y-58736736D01*
X95080457Y-58742583D01*
X95085765Y-58744005D01*
X95085767Y-58744006D01*
X95299935Y-58801392D01*
X95360558Y-58838344D01*
X95391579Y-58902204D01*
X95383151Y-58972699D01*
X95337948Y-59027446D01*
X95302821Y-59043995D01*
X95294376Y-59046475D01*
X95293171Y-59047865D01*
X95291500Y-59055548D01*
X95291500Y-60378000D01*
X95271498Y-60446121D01*
X95217842Y-60492614D01*
X95165500Y-60504000D01*
X94035115Y-60504000D01*
X94019876Y-60508475D01*
X94018671Y-60509865D01*
X94017000Y-60517548D01*
X94017000Y-60747303D01*
X94017326Y-60753700D01*
X94017482Y-60755229D01*
X94017420Y-60755560D01*
X94017489Y-60756907D01*
X94017167Y-60756923D01*
X94004510Y-60825031D01*
X93955859Y-60876738D01*
X93886976Y-60893934D01*
X93819732Y-60871160D01*
X93803040Y-60857135D01*
X93595405Y-60649500D01*
X93561379Y-60587188D01*
X93558500Y-60560405D01*
X93558499Y-59977885D01*
X94017000Y-59977885D01*
X94021475Y-59993124D01*
X94022865Y-59994329D01*
X94030548Y-59996000D01*
X94765385Y-59996000D01*
X94780624Y-59991525D01*
X94781829Y-59990135D01*
X94783500Y-59982452D01*
X94783500Y-59060115D01*
X94779025Y-59044876D01*
X94777635Y-59043671D01*
X94769952Y-59042000D01*
X94727698Y-59042000D01*
X94721307Y-59042325D01*
X94627512Y-59051908D01*
X94614154Y-59054767D01*
X94459435Y-59106036D01*
X94446233Y-59112192D01*
X94307908Y-59197512D01*
X94296468Y-59206558D01*
X94181558Y-59321468D01*
X94172512Y-59332908D01*
X94087192Y-59471233D01*
X94081036Y-59484435D01*
X94029767Y-59639154D01*
X94026908Y-59652512D01*
X94017325Y-59746307D01*
X94017000Y-59752698D01*
X94017000Y-59977885D01*
X93558499Y-59977885D01*
X93558499Y-59977662D01*
X93558499Y-59974456D01*
X93547887Y-59870574D01*
X93492115Y-59702262D01*
X93399030Y-59551348D01*
X93273652Y-59425970D01*
X93263601Y-59419770D01*
X93201078Y-59381206D01*
X93122738Y-59332885D01*
X93047364Y-59307909D01*
X92960952Y-59279275D01*
X92960948Y-59279274D01*
X92954426Y-59277113D01*
X92947592Y-59276415D01*
X92947588Y-59276414D01*
X92853729Y-59266825D01*
X92853723Y-59266825D01*
X92850545Y-59266500D01*
X92550047Y-59266500D01*
X92249456Y-59266501D01*
X92246279Y-59266826D01*
X92246270Y-59266826D01*
X92200765Y-59271475D01*
X92145574Y-59277113D01*
X91977262Y-59332885D01*
X91898922Y-59381206D01*
X91836400Y-59419770D01*
X91826348Y-59425970D01*
X91700970Y-59551348D01*
X91697968Y-59556214D01*
X91640573Y-59596856D01*
X91569648Y-59600046D01*
X91508258Y-59564384D01*
X91500845Y-59555830D01*
X91493442Y-59546468D01*
X91378532Y-59431558D01*
X91367092Y-59422512D01*
X91228767Y-59337192D01*
X91215565Y-59331036D01*
X91060846Y-59279767D01*
X91047488Y-59276908D01*
X90953693Y-59267325D01*
X90947302Y-59267000D01*
X90922115Y-59267000D01*
X90906876Y-59271475D01*
X90905671Y-59272865D01*
X90904000Y-59280548D01*
X90904000Y-61714885D01*
X90908475Y-61730124D01*
X90909865Y-61731329D01*
X90917548Y-61733000D01*
X90947303Y-61733000D01*
X90953693Y-61732675D01*
X91047488Y-61723092D01*
X91060846Y-61720233D01*
X91215565Y-61668964D01*
X91228767Y-61662808D01*
X91367092Y-61577488D01*
X91378532Y-61568442D01*
X91493442Y-61453532D01*
X91500845Y-61444170D01*
X91558787Y-61403143D01*
X91629712Y-61399955D01*
X91691102Y-61435617D01*
X91697447Y-61442941D01*
X91700970Y-61448652D01*
X91826348Y-61574030D01*
X91977262Y-61667115D01*
X92019847Y-61681226D01*
X92139048Y-61720725D01*
X92139052Y-61720726D01*
X92145574Y-61722887D01*
X92152408Y-61723585D01*
X92152412Y-61723586D01*
X92246271Y-61733175D01*
X92246277Y-61733175D01*
X92249455Y-61733500D01*
X92294952Y-61733500D01*
X92811406Y-61733499D01*
X92879527Y-61753501D01*
X92926020Y-61807157D01*
X92936124Y-61877430D01*
X92906631Y-61942011D01*
X92900503Y-61948593D01*
X92521715Y-62327380D01*
X92149499Y-62699596D01*
X92087187Y-62733621D01*
X92060404Y-62736500D01*
X91483498Y-62736500D01*
X91481050Y-62736693D01*
X91481042Y-62736693D01*
X91452579Y-62738933D01*
X91452574Y-62738934D01*
X91446169Y-62739438D01*
X91346231Y-62768472D01*
X91294012Y-62783643D01*
X91294010Y-62783644D01*
X91286399Y-62785855D01*
X91279572Y-62789892D01*
X91279573Y-62789892D01*
X91150020Y-62866509D01*
X91150017Y-62866511D01*
X91143193Y-62870547D01*
X91025547Y-62988193D01*
X91021511Y-62995017D01*
X91021509Y-62995020D01*
X90977671Y-63069147D01*
X90940855Y-63131399D01*
X90938644Y-63139010D01*
X90938643Y-63139012D01*
X90932168Y-63161301D01*
X90894438Y-63291169D01*
X90893934Y-63297574D01*
X90893933Y-63297579D01*
X90891693Y-63326042D01*
X90891500Y-63328498D01*
X90891500Y-63761502D01*
X90891693Y-63763950D01*
X90891693Y-63763958D01*
X90893421Y-63785905D01*
X90894438Y-63798831D01*
X90913799Y-63865472D01*
X90938586Y-63950790D01*
X90940855Y-63958601D01*
X91025547Y-64101807D01*
X91028229Y-64104489D01*
X91053502Y-64168861D01*
X91039600Y-64238484D01*
X91029428Y-64254312D01*
X91025547Y-64258193D01*
X90940855Y-64401399D01*
X90938644Y-64409010D01*
X90938643Y-64409012D01*
X90925035Y-64455853D01*
X90894438Y-64561169D01*
X90891500Y-64598498D01*
X90891500Y-64610406D01*
X90871498Y-64678527D01*
X90854595Y-64699501D01*
X90122318Y-65431777D01*
X89407747Y-66146348D01*
X89399461Y-66153888D01*
X89392982Y-66158000D01*
X89387557Y-66163777D01*
X89346357Y-66207651D01*
X89343602Y-66210493D01*
X89323865Y-66230230D01*
X89321385Y-66233427D01*
X89313682Y-66242447D01*
X89283414Y-66274679D01*
X89279595Y-66281625D01*
X89279593Y-66281628D01*
X89273652Y-66292434D01*
X89262801Y-66308953D01*
X89250386Y-66324959D01*
X89247241Y-66332228D01*
X89247238Y-66332232D01*
X89232826Y-66365537D01*
X89227609Y-66376187D01*
X89206305Y-66414940D01*
X89204334Y-66422615D01*
X89204334Y-66422616D01*
X89201267Y-66434562D01*
X89194863Y-66453266D01*
X89186819Y-66471855D01*
X89185580Y-66479678D01*
X89185577Y-66479688D01*
X89179901Y-66515524D01*
X89177495Y-66527144D01*
X89168472Y-66562289D01*
X89166500Y-66569970D01*
X89166500Y-66590224D01*
X89164949Y-66609933D01*
X89163449Y-66619406D01*
X89157836Y-66631247D01*
X89159896Y-66634453D01*
X89164441Y-66658093D01*
X89165941Y-66673961D01*
X89166500Y-66685819D01*
X89166500Y-68971233D01*
X89165973Y-68982416D01*
X89164298Y-68989909D01*
X89164547Y-68997835D01*
X89164441Y-68998958D01*
X89163505Y-69001303D01*
X89164938Y-69010268D01*
X89166438Y-69057986D01*
X89166500Y-69061945D01*
X89166500Y-69089856D01*
X89166997Y-69093790D01*
X89166997Y-69093791D01*
X89167005Y-69093856D01*
X89167938Y-69105693D01*
X89169327Y-69149889D01*
X89174347Y-69167168D01*
X89174978Y-69169339D01*
X89178987Y-69188700D01*
X89181526Y-69208797D01*
X89184445Y-69216168D01*
X89184445Y-69216170D01*
X89197804Y-69249912D01*
X89201649Y-69261142D01*
X89213982Y-69303593D01*
X89218015Y-69310412D01*
X89218017Y-69310417D01*
X89224293Y-69321028D01*
X89232988Y-69338776D01*
X89240448Y-69357617D01*
X89245110Y-69364033D01*
X89245110Y-69364034D01*
X89266436Y-69393387D01*
X89272952Y-69403307D01*
X89288348Y-69429339D01*
X89295458Y-69441362D01*
X89309779Y-69455683D01*
X89322619Y-69470716D01*
X89334528Y-69487107D01*
X89358115Y-69506620D01*
X89368605Y-69515298D01*
X89377384Y-69523288D01*
X90275636Y-70421540D01*
X90309662Y-70483852D01*
X90309060Y-70540049D01*
X90309000Y-70540301D01*
X90255465Y-70763289D01*
X90236835Y-71000000D01*
X90255465Y-71236711D01*
X90256619Y-71241518D01*
X90256620Y-71241524D01*
X90291640Y-71387391D01*
X90310895Y-71467594D01*
X90312788Y-71472165D01*
X90312789Y-71472167D01*
X90397154Y-71675842D01*
X90401760Y-71686963D01*
X90404346Y-71691183D01*
X90523241Y-71885202D01*
X90523245Y-71885208D01*
X90525824Y-71889416D01*
X90680031Y-72069969D01*
X90860584Y-72224176D01*
X90864792Y-72226755D01*
X90864798Y-72226759D01*
X91058817Y-72345654D01*
X91063037Y-72348240D01*
X91067607Y-72350133D01*
X91067611Y-72350135D01*
X91277833Y-72437211D01*
X91282406Y-72439105D01*
X91325048Y-72449342D01*
X91331873Y-72450981D01*
X91393442Y-72486333D01*
X91426125Y-72549360D01*
X91419544Y-72620051D01*
X91375790Y-72675962D01*
X91302459Y-72699500D01*
X90738843Y-72699500D01*
X90670722Y-72679498D01*
X90651029Y-72663859D01*
X88951186Y-71011899D01*
X88916275Y-70950079D01*
X88913000Y-70921540D01*
X88913000Y-69014227D01*
X88914962Y-69007546D01*
X88913000Y-68987099D01*
X88913000Y-66669951D01*
X88922941Y-66636095D01*
X88914039Y-66615842D01*
X88913000Y-66599694D01*
X88913000Y-61022303D01*
X89642000Y-61022303D01*
X89642325Y-61028693D01*
X89651908Y-61122488D01*
X89654767Y-61135846D01*
X89706036Y-61290565D01*
X89712192Y-61303767D01*
X89797512Y-61442092D01*
X89806558Y-61453532D01*
X89921468Y-61568442D01*
X89932908Y-61577488D01*
X90071233Y-61662808D01*
X90084435Y-61668964D01*
X90239154Y-61720233D01*
X90252512Y-61723092D01*
X90346307Y-61732675D01*
X90352697Y-61733000D01*
X90377885Y-61733000D01*
X90393124Y-61728525D01*
X90394329Y-61727135D01*
X90396000Y-61719452D01*
X90396000Y-60772115D01*
X90391525Y-60756876D01*
X90390135Y-60755671D01*
X90382452Y-60754000D01*
X89660115Y-60754000D01*
X89644876Y-60758475D01*
X89643671Y-60759865D01*
X89642000Y-60767548D01*
X89642000Y-61022303D01*
X88913000Y-61022303D01*
X88913000Y-60227885D01*
X89642000Y-60227885D01*
X89646475Y-60243124D01*
X89647865Y-60244329D01*
X89655548Y-60246000D01*
X90377885Y-60246000D01*
X90393124Y-60241525D01*
X90394329Y-60240135D01*
X90396000Y-60232452D01*
X90396000Y-59285115D01*
X90391525Y-59269876D01*
X90390135Y-59268671D01*
X90382452Y-59267000D01*
X90352698Y-59267000D01*
X90346307Y-59267325D01*
X90252512Y-59276908D01*
X90239154Y-59279767D01*
X90084435Y-59331036D01*
X90071233Y-59337192D01*
X89932908Y-59422512D01*
X89921468Y-59431558D01*
X89806558Y-59546468D01*
X89797512Y-59557908D01*
X89712192Y-59696233D01*
X89706036Y-59709435D01*
X89654767Y-59864154D01*
X89651908Y-59877512D01*
X89642325Y-59971307D01*
X89642000Y-59977698D01*
X89642000Y-60227885D01*
X88913000Y-60227885D01*
X88913000Y-51852140D01*
X88933002Y-51784019D01*
X88949595Y-51763356D01*
X90663252Y-50037716D01*
X90725445Y-50003474D01*
X90752657Y-50000500D01*
X132647602Y-50000500D01*
X132715723Y-50020502D01*
G37*
%TD.AperFunction*%
%TA.AperFunction,Conductor*%
G36*
X96714729Y-71096478D02*
G01*
X96748309Y-71159032D01*
X96750612Y-71175049D01*
X96755465Y-71236711D01*
X96756619Y-71241518D01*
X96756620Y-71241524D01*
X96791640Y-71387391D01*
X96810895Y-71467594D01*
X96812788Y-71472165D01*
X96812789Y-71472167D01*
X96897154Y-71675842D01*
X96901760Y-71686963D01*
X96904346Y-71691183D01*
X97023241Y-71885202D01*
X97023245Y-71885208D01*
X97025824Y-71889416D01*
X97180031Y-72069969D01*
X97360584Y-72224176D01*
X97364792Y-72226755D01*
X97364798Y-72226759D01*
X97558817Y-72345654D01*
X97563037Y-72348240D01*
X97567607Y-72350133D01*
X97567611Y-72350135D01*
X97777833Y-72437211D01*
X97782406Y-72439105D01*
X97825048Y-72449342D01*
X97831873Y-72450981D01*
X97893442Y-72486333D01*
X97926125Y-72549360D01*
X97919544Y-72620051D01*
X97875790Y-72675962D01*
X97802459Y-72699500D01*
X95447541Y-72699500D01*
X95379420Y-72679498D01*
X95332927Y-72625842D01*
X95322823Y-72555568D01*
X95352317Y-72490988D01*
X95418127Y-72450981D01*
X95424952Y-72449342D01*
X95467594Y-72439105D01*
X95472167Y-72437211D01*
X95682389Y-72350135D01*
X95682393Y-72350133D01*
X95686963Y-72348240D01*
X95691183Y-72345654D01*
X95885202Y-72226759D01*
X95885208Y-72226755D01*
X95889416Y-72224176D01*
X96069969Y-72069969D01*
X96224176Y-71889416D01*
X96226755Y-71885208D01*
X96226759Y-71885202D01*
X96345654Y-71691183D01*
X96348240Y-71686963D01*
X96352847Y-71675842D01*
X96437211Y-71472167D01*
X96437212Y-71472165D01*
X96439105Y-71467594D01*
X96458360Y-71387391D01*
X96493380Y-71241524D01*
X96493381Y-71241518D01*
X96494535Y-71236711D01*
X96499388Y-71175049D01*
X96524674Y-71108708D01*
X96581812Y-71066568D01*
X96652662Y-71062009D01*
X96714729Y-71096478D01*
G37*
%TD.AperFunction*%
%TA.AperFunction,Conductor*%
G36*
X99964729Y-71096478D02*
G01*
X99998309Y-71159032D01*
X100000612Y-71175049D01*
X100005465Y-71236711D01*
X100006619Y-71241518D01*
X100006620Y-71241524D01*
X100041640Y-71387391D01*
X100060895Y-71467594D01*
X100062788Y-71472165D01*
X100062789Y-71472167D01*
X100147154Y-71675842D01*
X100151760Y-71686963D01*
X100154346Y-71691183D01*
X100273241Y-71885202D01*
X100273245Y-71885208D01*
X100275824Y-71889416D01*
X100430031Y-72069969D01*
X100610584Y-72224176D01*
X100614792Y-72226755D01*
X100614798Y-72226759D01*
X100808817Y-72345654D01*
X100813037Y-72348240D01*
X100817607Y-72350133D01*
X100817611Y-72350135D01*
X101027833Y-72437211D01*
X101032406Y-72439105D01*
X101075048Y-72449342D01*
X101081873Y-72450981D01*
X101143442Y-72486333D01*
X101176125Y-72549360D01*
X101169544Y-72620051D01*
X101125790Y-72675962D01*
X101052459Y-72699500D01*
X98697541Y-72699500D01*
X98629420Y-72679498D01*
X98582927Y-72625842D01*
X98572823Y-72555568D01*
X98602317Y-72490988D01*
X98668127Y-72450981D01*
X98674952Y-72449342D01*
X98717594Y-72439105D01*
X98722167Y-72437211D01*
X98932389Y-72350135D01*
X98932393Y-72350133D01*
X98936963Y-72348240D01*
X98941183Y-72345654D01*
X99135202Y-72226759D01*
X99135208Y-72226755D01*
X99139416Y-72224176D01*
X99319969Y-72069969D01*
X99474176Y-71889416D01*
X99476755Y-71885208D01*
X99476759Y-71885202D01*
X99595654Y-71691183D01*
X99598240Y-71686963D01*
X99602847Y-71675842D01*
X99687211Y-71472167D01*
X99687212Y-71472165D01*
X99689105Y-71467594D01*
X99708360Y-71387391D01*
X99743380Y-71241524D01*
X99743381Y-71241518D01*
X99744535Y-71236711D01*
X99749388Y-71175049D01*
X99774674Y-71108708D01*
X99831812Y-71066568D01*
X99902662Y-71062009D01*
X99964729Y-71096478D01*
G37*
%TD.AperFunction*%
%TA.AperFunction,Conductor*%
G36*
X103214729Y-71096478D02*
G01*
X103248309Y-71159032D01*
X103250612Y-71175049D01*
X103255465Y-71236711D01*
X103256619Y-71241518D01*
X103256620Y-71241524D01*
X103291640Y-71387391D01*
X103310895Y-71467594D01*
X103312788Y-71472165D01*
X103312789Y-71472167D01*
X103397154Y-71675842D01*
X103401760Y-71686963D01*
X103404346Y-71691183D01*
X103523241Y-71885202D01*
X103523245Y-71885208D01*
X103525824Y-71889416D01*
X103680031Y-72069969D01*
X103860584Y-72224176D01*
X103864792Y-72226755D01*
X103864798Y-72226759D01*
X104058817Y-72345654D01*
X104063037Y-72348240D01*
X104067607Y-72350133D01*
X104067611Y-72350135D01*
X104277833Y-72437211D01*
X104282406Y-72439105D01*
X104325048Y-72449342D01*
X104331873Y-72450981D01*
X104393442Y-72486333D01*
X104426125Y-72549360D01*
X104419544Y-72620051D01*
X104375790Y-72675962D01*
X104302459Y-72699500D01*
X101947541Y-72699500D01*
X101879420Y-72679498D01*
X101832927Y-72625842D01*
X101822823Y-72555568D01*
X101852317Y-72490988D01*
X101918127Y-72450981D01*
X101924952Y-72449342D01*
X101967594Y-72439105D01*
X101972167Y-72437211D01*
X102182389Y-72350135D01*
X102182393Y-72350133D01*
X102186963Y-72348240D01*
X102191183Y-72345654D01*
X102385202Y-72226759D01*
X102385208Y-72226755D01*
X102389416Y-72224176D01*
X102569969Y-72069969D01*
X102724176Y-71889416D01*
X102726755Y-71885208D01*
X102726759Y-71885202D01*
X102845654Y-71691183D01*
X102848240Y-71686963D01*
X102852847Y-71675842D01*
X102937211Y-71472167D01*
X102937212Y-71472165D01*
X102939105Y-71467594D01*
X102958360Y-71387391D01*
X102993380Y-71241524D01*
X102993381Y-71241518D01*
X102994535Y-71236711D01*
X102999388Y-71175049D01*
X103024674Y-71108708D01*
X103081812Y-71066568D01*
X103152662Y-71062009D01*
X103214729Y-71096478D01*
G37*
%TD.AperFunction*%
%TA.AperFunction,Conductor*%
G36*
X106464729Y-71096478D02*
G01*
X106498309Y-71159032D01*
X106500612Y-71175049D01*
X106505465Y-71236711D01*
X106506619Y-71241518D01*
X106506620Y-71241524D01*
X106541640Y-71387391D01*
X106560895Y-71467594D01*
X106562788Y-71472165D01*
X106562789Y-71472167D01*
X106647154Y-71675842D01*
X106651760Y-71686963D01*
X106654346Y-71691183D01*
X106773241Y-71885202D01*
X106773245Y-71885208D01*
X106775824Y-71889416D01*
X106930031Y-72069969D01*
X107110584Y-72224176D01*
X107114792Y-72226755D01*
X107114798Y-72226759D01*
X107308817Y-72345654D01*
X107313037Y-72348240D01*
X107317607Y-72350133D01*
X107317611Y-72350135D01*
X107527833Y-72437211D01*
X107532406Y-72439105D01*
X107575048Y-72449342D01*
X107581873Y-72450981D01*
X107643442Y-72486333D01*
X107676125Y-72549360D01*
X107669544Y-72620051D01*
X107625790Y-72675962D01*
X107552459Y-72699500D01*
X105197541Y-72699500D01*
X105129420Y-72679498D01*
X105082927Y-72625842D01*
X105072823Y-72555568D01*
X105102317Y-72490988D01*
X105168127Y-72450981D01*
X105174952Y-72449342D01*
X105217594Y-72439105D01*
X105222167Y-72437211D01*
X105432389Y-72350135D01*
X105432393Y-72350133D01*
X105436963Y-72348240D01*
X105441183Y-72345654D01*
X105635202Y-72226759D01*
X105635208Y-72226755D01*
X105639416Y-72224176D01*
X105819969Y-72069969D01*
X105974176Y-71889416D01*
X105976755Y-71885208D01*
X105976759Y-71885202D01*
X106095654Y-71691183D01*
X106098240Y-71686963D01*
X106102847Y-71675842D01*
X106187211Y-71472167D01*
X106187212Y-71472165D01*
X106189105Y-71467594D01*
X106208360Y-71387391D01*
X106243380Y-71241524D01*
X106243381Y-71241518D01*
X106244535Y-71236711D01*
X106249388Y-71175049D01*
X106274674Y-71108708D01*
X106331812Y-71066568D01*
X106402662Y-71062009D01*
X106464729Y-71096478D01*
G37*
%TD.AperFunction*%
%TA.AperFunction,Conductor*%
G36*
X108576110Y-65725646D02*
G01*
X108595825Y-65741729D01*
X111446343Y-68592247D01*
X111453887Y-68600537D01*
X111458000Y-68607018D01*
X111463777Y-68612443D01*
X111507667Y-68653658D01*
X111510509Y-68656413D01*
X111530230Y-68676134D01*
X111533425Y-68678612D01*
X111542447Y-68686318D01*
X111574679Y-68716586D01*
X111581628Y-68720406D01*
X111592432Y-68726346D01*
X111608956Y-68737199D01*
X111624959Y-68749613D01*
X111665543Y-68767176D01*
X111676173Y-68772383D01*
X111714940Y-68793695D01*
X111722617Y-68795666D01*
X111722622Y-68795668D01*
X111734558Y-68798732D01*
X111753266Y-68805137D01*
X111771855Y-68813181D01*
X111779683Y-68814421D01*
X111779690Y-68814423D01*
X111815524Y-68820099D01*
X111827144Y-68822505D01*
X111862289Y-68831528D01*
X111869970Y-68833500D01*
X111890224Y-68833500D01*
X111909934Y-68835051D01*
X111929943Y-68838220D01*
X111937835Y-68837474D01*
X111973961Y-68834059D01*
X111985819Y-68833500D01*
X116235406Y-68833500D01*
X116303527Y-68853502D01*
X116324501Y-68870405D01*
X116925636Y-69471540D01*
X116959662Y-69533852D01*
X116959060Y-69590049D01*
X116908189Y-69801943D01*
X116905465Y-69813289D01*
X116886835Y-70050000D01*
X116905465Y-70286711D01*
X116906619Y-70291518D01*
X116906620Y-70291524D01*
X116941640Y-70437391D01*
X116960895Y-70517594D01*
X116962788Y-70522165D01*
X116962789Y-70522167D01*
X116965136Y-70527832D01*
X117051760Y-70736963D01*
X117054346Y-70741183D01*
X117173241Y-70935202D01*
X117173245Y-70935208D01*
X117175824Y-70939416D01*
X117330031Y-71119969D01*
X117510584Y-71274176D01*
X117514792Y-71276755D01*
X117514798Y-71276759D01*
X117708817Y-71395654D01*
X117713037Y-71398240D01*
X117717607Y-71400133D01*
X117717611Y-71400135D01*
X117927833Y-71487211D01*
X117932406Y-71489105D01*
X117975048Y-71499342D01*
X117981873Y-71500981D01*
X118043442Y-71536333D01*
X118076125Y-71599360D01*
X118069544Y-71670051D01*
X118025790Y-71725962D01*
X117952459Y-71749500D01*
X115803363Y-71749500D01*
X115735242Y-71729498D01*
X115713118Y-71711431D01*
X115689278Y-71686963D01*
X114559868Y-70527832D01*
X113858981Y-69808500D01*
X113850426Y-69799720D01*
X113850383Y-69799617D01*
X113850205Y-69799544D01*
X113850007Y-69799458D01*
X113849903Y-69799500D01*
X111750097Y-69799500D01*
X111749991Y-69799458D01*
X111749788Y-69799547D01*
X111749617Y-69799617D01*
X111749574Y-69799721D01*
X111733603Y-69816263D01*
X111733602Y-69816263D01*
X108986942Y-72661019D01*
X108925236Y-72696132D01*
X108896297Y-72699500D01*
X108447541Y-72699500D01*
X108379420Y-72679498D01*
X108332927Y-72625842D01*
X108322823Y-72555568D01*
X108352317Y-72490988D01*
X108418127Y-72450981D01*
X108424952Y-72449342D01*
X108467594Y-72439105D01*
X108472167Y-72437211D01*
X108682389Y-72350135D01*
X108682393Y-72350133D01*
X108686963Y-72348240D01*
X108691183Y-72345654D01*
X108885202Y-72226759D01*
X108885208Y-72226755D01*
X108889416Y-72224176D01*
X109069969Y-72069969D01*
X109224176Y-71889416D01*
X109226755Y-71885208D01*
X109226759Y-71885202D01*
X109345654Y-71691183D01*
X109348240Y-71686963D01*
X109352847Y-71675842D01*
X109437211Y-71472167D01*
X109437212Y-71472165D01*
X109439105Y-71467594D01*
X109458360Y-71387391D01*
X109493380Y-71241524D01*
X109493381Y-71241518D01*
X109494535Y-71236711D01*
X109513165Y-71000000D01*
X109494535Y-70763289D01*
X109439105Y-70532406D01*
X109437211Y-70527833D01*
X109350135Y-70317611D01*
X109350133Y-70317607D01*
X109348240Y-70313037D01*
X109318211Y-70264034D01*
X109226759Y-70114798D01*
X109226755Y-70114792D01*
X109224176Y-70110584D01*
X109069969Y-69930031D01*
X108889416Y-69775824D01*
X108885201Y-69773241D01*
X108885193Y-69773235D01*
X108691595Y-69654597D01*
X108643964Y-69601950D01*
X108631492Y-69551125D01*
X108630923Y-69533036D01*
X108630674Y-69525111D01*
X108628462Y-69517497D01*
X108628461Y-69517492D01*
X108625023Y-69505659D01*
X108621012Y-69486295D01*
X108620305Y-69480694D01*
X108618474Y-69466203D01*
X108615557Y-69458836D01*
X108615556Y-69458831D01*
X108602198Y-69425092D01*
X108598354Y-69413865D01*
X108592404Y-69393387D01*
X108586018Y-69371407D01*
X108578572Y-69358817D01*
X108575707Y-69353972D01*
X108567012Y-69336224D01*
X108559552Y-69317383D01*
X108544724Y-69296973D01*
X108533564Y-69281613D01*
X108527048Y-69271693D01*
X108508580Y-69240465D01*
X108508578Y-69240462D01*
X108504542Y-69233638D01*
X108490221Y-69219317D01*
X108477380Y-69204283D01*
X108470131Y-69194306D01*
X108465472Y-69187893D01*
X108459368Y-69182843D01*
X108459363Y-69182838D01*
X108431402Y-69159707D01*
X108422621Y-69151717D01*
X107493999Y-68223094D01*
X107459974Y-68160782D01*
X107465039Y-68089966D01*
X107507586Y-68033131D01*
X107574106Y-68008320D01*
X107583095Y-68007999D01*
X107810723Y-68007999D01*
X107818935Y-68007461D01*
X107925533Y-67993428D01*
X107941348Y-67989190D01*
X108073993Y-67934247D01*
X108088176Y-67926059D01*
X108202080Y-67838656D01*
X108213656Y-67827080D01*
X108301059Y-67713176D01*
X108309247Y-67698993D01*
X108364189Y-67566351D01*
X108368428Y-67550531D01*
X108372716Y-67517960D01*
X108370505Y-67503778D01*
X108357348Y-67500000D01*
X108168337Y-67500000D01*
X108100216Y-67479998D01*
X108053723Y-67426342D01*
X108043619Y-67356068D01*
X108073113Y-67291488D01*
X108091632Y-67274038D01*
X108202436Y-67189014D01*
X108202437Y-67189013D01*
X108208987Y-67183987D01*
X108235608Y-67149294D01*
X108292946Y-67107428D01*
X108335569Y-67100000D01*
X108356965Y-67100000D01*
X108370736Y-67095956D01*
X108372765Y-67082417D01*
X108368428Y-67049467D01*
X108364190Y-67033652D01*
X108360140Y-67023874D01*
X108352550Y-66953285D01*
X108360140Y-66927434D01*
X108363401Y-66919563D01*
X108367838Y-66908850D01*
X108372931Y-66870166D01*
X108382962Y-66793972D01*
X108382962Y-66793971D01*
X108383500Y-66789885D01*
X108383499Y-66510116D01*
X108379494Y-66479688D01*
X108368916Y-66399337D01*
X108368916Y-66399335D01*
X108367838Y-66391150D01*
X108360411Y-66373219D01*
X108352821Y-66302630D01*
X108360411Y-66276780D01*
X108364678Y-66266480D01*
X108364679Y-66266477D01*
X108367838Y-66258850D01*
X108374204Y-66210493D01*
X108382962Y-66143972D01*
X108382962Y-66143971D01*
X108383500Y-66139885D01*
X108383499Y-65860116D01*
X108382921Y-65855726D01*
X108381808Y-65847267D01*
X108392749Y-65777119D01*
X108439878Y-65724021D01*
X108508233Y-65704833D01*
X108576110Y-65725646D01*
G37*
%TD.AperFunction*%
%TA.AperFunction,Conductor*%
G36*
X103703527Y-67603502D02*
G01*
X103724501Y-67620405D01*
X105096343Y-68992247D01*
X105103887Y-69000537D01*
X105108000Y-69007018D01*
X105113777Y-69012443D01*
X105157667Y-69053658D01*
X105160509Y-69056413D01*
X105180230Y-69076134D01*
X105183425Y-69078612D01*
X105192447Y-69086318D01*
X105224679Y-69116586D01*
X105231628Y-69120406D01*
X105242432Y-69126346D01*
X105258956Y-69137199D01*
X105274959Y-69149613D01*
X105315543Y-69167176D01*
X105326173Y-69172383D01*
X105364940Y-69193695D01*
X105372617Y-69195666D01*
X105372622Y-69195668D01*
X105384558Y-69198732D01*
X105403266Y-69205137D01*
X105421855Y-69213181D01*
X105429680Y-69214420D01*
X105429682Y-69214421D01*
X105465519Y-69220097D01*
X105477140Y-69222504D01*
X105512289Y-69231528D01*
X105519970Y-69233500D01*
X105540231Y-69233500D01*
X105559940Y-69235051D01*
X105579943Y-69238219D01*
X105587835Y-69237473D01*
X105593062Y-69236979D01*
X105623954Y-69234059D01*
X105635811Y-69233500D01*
X106660405Y-69233500D01*
X106728526Y-69253502D01*
X106749501Y-69270405D01*
X107092049Y-69612954D01*
X107126074Y-69675266D01*
X107121009Y-69746082D01*
X107084783Y-69797860D01*
X106933792Y-69926818D01*
X106933787Y-69926823D01*
X106930031Y-69930031D01*
X106775824Y-70110584D01*
X106773245Y-70114792D01*
X106773241Y-70114798D01*
X106681789Y-70264034D01*
X106651760Y-70313037D01*
X106649867Y-70317607D01*
X106649865Y-70317611D01*
X106562789Y-70527833D01*
X106560895Y-70532406D01*
X106505465Y-70763289D01*
X106505077Y-70768223D01*
X106500612Y-70824951D01*
X106475326Y-70891292D01*
X106418188Y-70933432D01*
X106347338Y-70937991D01*
X106285271Y-70903522D01*
X106251691Y-70840968D01*
X106249388Y-70824951D01*
X106244923Y-70768223D01*
X106244535Y-70763289D01*
X106189105Y-70532406D01*
X106187211Y-70527833D01*
X106100135Y-70317611D01*
X106100133Y-70317607D01*
X106098240Y-70313037D01*
X106068211Y-70264034D01*
X105976759Y-70114798D01*
X105976755Y-70114792D01*
X105974176Y-70110584D01*
X105819969Y-69930031D01*
X105639416Y-69775824D01*
X105635208Y-69773245D01*
X105635202Y-69773241D01*
X105441183Y-69654346D01*
X105436963Y-69651760D01*
X105432393Y-69649867D01*
X105432389Y-69649865D01*
X105222167Y-69562789D01*
X105222165Y-69562788D01*
X105217594Y-69560895D01*
X105101553Y-69533036D01*
X104991524Y-69506620D01*
X104991518Y-69506619D01*
X104986711Y-69505465D01*
X104750000Y-69486835D01*
X104513289Y-69505465D01*
X104508482Y-69506619D01*
X104508476Y-69506620D01*
X104493551Y-69510204D01*
X104488913Y-69511317D01*
X104418007Y-69507770D01*
X104360272Y-69466450D01*
X104334042Y-69400477D01*
X104333500Y-69388798D01*
X104333500Y-69228768D01*
X104334027Y-69217585D01*
X104335702Y-69210092D01*
X104335033Y-69188787D01*
X104333562Y-69142002D01*
X104333500Y-69138044D01*
X104333500Y-69110144D01*
X104332996Y-69106153D01*
X104332063Y-69094311D01*
X104331799Y-69085892D01*
X104330674Y-69050111D01*
X104325021Y-69030652D01*
X104321012Y-69011293D01*
X104320846Y-69009983D01*
X104318474Y-68991203D01*
X104315558Y-68983837D01*
X104315556Y-68983831D01*
X104302200Y-68950098D01*
X104298355Y-68938868D01*
X104288230Y-68904017D01*
X104288230Y-68904016D01*
X104286019Y-68896407D01*
X104275705Y-68878966D01*
X104267008Y-68861213D01*
X104262472Y-68849758D01*
X104259552Y-68842383D01*
X104233563Y-68806612D01*
X104227047Y-68796692D01*
X104204542Y-68758638D01*
X104190221Y-68744317D01*
X104177380Y-68729283D01*
X104175246Y-68726346D01*
X104165472Y-68712893D01*
X104131395Y-68684702D01*
X104122616Y-68676712D01*
X103244691Y-67798787D01*
X103210665Y-67736475D01*
X103215730Y-67665660D01*
X103258277Y-67608824D01*
X103321938Y-67584250D01*
X103323972Y-67584058D01*
X103335819Y-67583500D01*
X103635406Y-67583500D01*
X103703527Y-67603502D01*
G37*
%TD.AperFunction*%
%TA.AperFunction,Conductor*%
G36*
X100917012Y-67263370D02*
G01*
X100923595Y-67269499D01*
X103029595Y-69375499D01*
X103063621Y-69437811D01*
X103066500Y-69464594D01*
X103066500Y-69871233D01*
X103065973Y-69882416D01*
X103064298Y-69889909D01*
X103064547Y-69897835D01*
X103064547Y-69897836D01*
X103066438Y-69957986D01*
X103066500Y-69961945D01*
X103066500Y-69989856D01*
X103066997Y-69993790D01*
X103066997Y-69993791D01*
X103067005Y-69993856D01*
X103067938Y-70005693D01*
X103069327Y-70049889D01*
X103074978Y-70069339D01*
X103078987Y-70088700D01*
X103081526Y-70108797D01*
X103084445Y-70116168D01*
X103084445Y-70116170D01*
X103097804Y-70149912D01*
X103101649Y-70161142D01*
X103113982Y-70203593D01*
X103118015Y-70210412D01*
X103118017Y-70210417D01*
X103124293Y-70221028D01*
X103132988Y-70238776D01*
X103140448Y-70257617D01*
X103145110Y-70264033D01*
X103145110Y-70264034D01*
X103166436Y-70293387D01*
X103172952Y-70303307D01*
X103181412Y-70317611D01*
X103195458Y-70341362D01*
X103209779Y-70355683D01*
X103222619Y-70370716D01*
X103234528Y-70387107D01*
X103240632Y-70392157D01*
X103240637Y-70392162D01*
X103266796Y-70413802D01*
X103306534Y-70472635D01*
X103309000Y-70540299D01*
X103255465Y-70763289D01*
X103255077Y-70768223D01*
X103250612Y-70824951D01*
X103225326Y-70891292D01*
X103168188Y-70933432D01*
X103097338Y-70937991D01*
X103035271Y-70903522D01*
X103001691Y-70840968D01*
X102999388Y-70824951D01*
X102994923Y-70768223D01*
X102994535Y-70763289D01*
X102939105Y-70532406D01*
X102937211Y-70527833D01*
X102850135Y-70317611D01*
X102850133Y-70317607D01*
X102848240Y-70313037D01*
X102818211Y-70264034D01*
X102726759Y-70114798D01*
X102726755Y-70114792D01*
X102724176Y-70110584D01*
X102569969Y-69930031D01*
X102389416Y-69775824D01*
X102385208Y-69773245D01*
X102385202Y-69773241D01*
X102191183Y-69654346D01*
X102186963Y-69651760D01*
X102182393Y-69649867D01*
X102182389Y-69649865D01*
X101972167Y-69562789D01*
X101972165Y-69562788D01*
X101967594Y-69560895D01*
X101851553Y-69533036D01*
X101741524Y-69506620D01*
X101741518Y-69506619D01*
X101736711Y-69505465D01*
X101500000Y-69486835D01*
X101263289Y-69505465D01*
X101258482Y-69506619D01*
X101258476Y-69506620D01*
X101092896Y-69546373D01*
X101040049Y-69559060D01*
X100969142Y-69555513D01*
X100921541Y-69525636D01*
X100070405Y-68674500D01*
X100036379Y-68612188D01*
X100033500Y-68585405D01*
X100033500Y-68286506D01*
X100053502Y-68218385D01*
X100107158Y-68171892D01*
X100141232Y-68163066D01*
X100141078Y-68162225D01*
X100147419Y-68161067D01*
X100153831Y-68160562D01*
X100258408Y-68130180D01*
X100305988Y-68116357D01*
X100305990Y-68116356D01*
X100313601Y-68114145D01*
X100354485Y-68089966D01*
X100449980Y-68033491D01*
X100449983Y-68033489D01*
X100456807Y-68029453D01*
X100574453Y-67911807D01*
X100578489Y-67904983D01*
X100578491Y-67904980D01*
X100655108Y-67775427D01*
X100659145Y-67768601D01*
X100661988Y-67758817D01*
X100683894Y-67683414D01*
X100705562Y-67608831D01*
X100706158Y-67601267D01*
X100708307Y-67573958D01*
X100708307Y-67573950D01*
X100708500Y-67571502D01*
X100708500Y-67358594D01*
X100728502Y-67290473D01*
X100782158Y-67243980D01*
X100852432Y-67233876D01*
X100917012Y-67263370D01*
G37*
%TD.AperFunction*%
%TA.AperFunction,Conductor*%
G36*
X99121696Y-61828374D02*
G01*
X99178532Y-61870921D01*
X99200873Y-61920055D01*
X99201414Y-61922581D01*
X99202113Y-61929426D01*
X99204277Y-61935956D01*
X99204277Y-61935957D01*
X99218681Y-61979426D01*
X99257885Y-62097738D01*
X99350970Y-62248652D01*
X99476348Y-62374030D01*
X99627262Y-62467115D01*
X99700536Y-62491395D01*
X99758908Y-62531809D01*
X99786164Y-62597365D01*
X99773651Y-62667250D01*
X99725342Y-62719276D01*
X99688748Y-62729341D01*
X99689498Y-62731896D01*
X99656876Y-62741475D01*
X99655671Y-62742865D01*
X99654000Y-62750548D01*
X99654000Y-63673000D01*
X99633998Y-63741121D01*
X99580342Y-63787614D01*
X99528000Y-63799000D01*
X98113122Y-63799000D01*
X98099591Y-63802973D01*
X98098456Y-63810871D01*
X98139107Y-63950790D01*
X98145352Y-63965221D01*
X98221911Y-64094677D01*
X98227871Y-64102360D01*
X98253820Y-64168444D01*
X98239922Y-64238067D01*
X98229579Y-64254161D01*
X98225547Y-64258193D01*
X98140855Y-64401399D01*
X98138644Y-64409010D01*
X98138643Y-64409012D01*
X98125035Y-64455853D01*
X98094438Y-64561169D01*
X98091500Y-64598498D01*
X98091500Y-65031502D01*
X98094438Y-65068831D01*
X98140855Y-65228601D01*
X98225547Y-65371807D01*
X98228229Y-65374489D01*
X98253502Y-65438861D01*
X98239600Y-65508484D01*
X98229428Y-65524312D01*
X98225547Y-65528193D01*
X98140855Y-65671399D01*
X98138644Y-65679010D01*
X98138643Y-65679012D01*
X98133310Y-65697370D01*
X98094438Y-65831169D01*
X98093934Y-65837574D01*
X98093933Y-65837579D01*
X98092055Y-65861444D01*
X98091500Y-65868498D01*
X98091500Y-66301502D01*
X98091693Y-66303950D01*
X98091693Y-66303958D01*
X98093919Y-66332232D01*
X98094438Y-66338831D01*
X98118300Y-66420965D01*
X98133085Y-66471855D01*
X98140855Y-66498601D01*
X98225547Y-66641807D01*
X98228229Y-66644489D01*
X98253502Y-66708861D01*
X98239600Y-66778484D01*
X98229428Y-66794312D01*
X98225547Y-66798193D01*
X98140855Y-66941399D01*
X98138644Y-66949010D01*
X98138643Y-66949012D01*
X98127933Y-66985876D01*
X98094438Y-67101169D01*
X98093934Y-67107574D01*
X98093933Y-67107579D01*
X98091693Y-67136042D01*
X98091500Y-67138498D01*
X98091500Y-67571502D01*
X98091693Y-67573950D01*
X98091693Y-67573958D01*
X98093843Y-67601267D01*
X98094438Y-67608831D01*
X98116106Y-67683414D01*
X98138013Y-67758817D01*
X98140855Y-67768601D01*
X98144892Y-67775427D01*
X98221509Y-67904980D01*
X98221511Y-67904983D01*
X98225547Y-67911807D01*
X98343193Y-68029453D01*
X98350017Y-68033489D01*
X98350020Y-68033491D01*
X98445515Y-68089966D01*
X98486399Y-68114145D01*
X98494010Y-68116356D01*
X98494012Y-68116357D01*
X98541592Y-68130180D01*
X98646169Y-68160562D01*
X98652581Y-68161067D01*
X98658922Y-68162225D01*
X98658594Y-68164022D01*
X98716730Y-68186182D01*
X98758868Y-68243321D01*
X98766500Y-68286506D01*
X98766500Y-68821233D01*
X98765973Y-68832416D01*
X98764298Y-68839909D01*
X98764547Y-68847835D01*
X98764547Y-68847836D01*
X98766438Y-68907986D01*
X98766500Y-68911945D01*
X98766500Y-68939856D01*
X98766997Y-68943790D01*
X98766997Y-68943791D01*
X98767005Y-68943856D01*
X98767938Y-68955693D01*
X98769327Y-68999889D01*
X98773493Y-69014227D01*
X98774978Y-69019339D01*
X98778987Y-69038700D01*
X98781526Y-69058797D01*
X98784445Y-69066168D01*
X98784445Y-69066170D01*
X98797804Y-69099912D01*
X98801649Y-69111142D01*
X98811414Y-69144753D01*
X98813982Y-69153593D01*
X98818015Y-69160412D01*
X98818017Y-69160417D01*
X98824293Y-69171028D01*
X98832988Y-69188776D01*
X98840448Y-69207617D01*
X98845110Y-69214033D01*
X98845110Y-69214034D01*
X98866436Y-69243387D01*
X98872952Y-69253307D01*
X98886851Y-69276808D01*
X98895458Y-69291362D01*
X98909779Y-69305683D01*
X98922619Y-69320716D01*
X98934528Y-69337107D01*
X98954914Y-69353972D01*
X98968605Y-69365298D01*
X98977384Y-69373288D01*
X99033435Y-69429339D01*
X99067461Y-69491651D01*
X99062396Y-69562466D01*
X99019849Y-69619302D01*
X98953329Y-69644113D01*
X98896122Y-69634843D01*
X98722168Y-69562789D01*
X98722161Y-69562787D01*
X98717594Y-69560895D01*
X98601553Y-69533036D01*
X98491524Y-69506620D01*
X98491518Y-69506619D01*
X98486711Y-69505465D01*
X98250000Y-69486835D01*
X98013289Y-69505465D01*
X98008482Y-69506619D01*
X98008476Y-69506620D01*
X97842896Y-69546373D01*
X97790049Y-69559060D01*
X97719142Y-69555513D01*
X97671541Y-69525636D01*
X95108652Y-66962747D01*
X95101112Y-66954461D01*
X95097000Y-66947982D01*
X95047348Y-66901356D01*
X95044507Y-66898602D01*
X95024770Y-66878865D01*
X95021573Y-66876385D01*
X95012551Y-66868680D01*
X94998723Y-66855695D01*
X94980321Y-66838414D01*
X94973375Y-66834595D01*
X94973372Y-66834593D01*
X94962566Y-66828652D01*
X94946047Y-66817801D01*
X94945583Y-66817441D01*
X94930041Y-66805386D01*
X94922772Y-66802241D01*
X94922768Y-66802238D01*
X94889463Y-66787826D01*
X94878813Y-66782609D01*
X94840060Y-66761305D01*
X94826577Y-66757843D01*
X94820438Y-66756267D01*
X94801734Y-66749863D01*
X94790420Y-66744967D01*
X94790419Y-66744967D01*
X94783145Y-66741819D01*
X94775322Y-66740580D01*
X94775312Y-66740577D01*
X94739476Y-66734901D01*
X94727856Y-66732495D01*
X94692711Y-66723472D01*
X94692710Y-66723472D01*
X94685030Y-66721500D01*
X94664776Y-66721500D01*
X94645065Y-66719949D01*
X94632886Y-66718020D01*
X94625057Y-66716780D01*
X94617165Y-66717526D01*
X94581039Y-66720941D01*
X94569181Y-66721500D01*
X93548224Y-66721500D01*
X93480103Y-66701498D01*
X93433610Y-66647842D01*
X93423506Y-66577568D01*
X93439769Y-66531364D01*
X93459145Y-66498601D01*
X93466916Y-66471855D01*
X93481700Y-66420965D01*
X93505562Y-66338831D01*
X93506082Y-66332232D01*
X93508307Y-66303958D01*
X93508307Y-66303950D01*
X93508500Y-66301502D01*
X93508500Y-65868498D01*
X93507945Y-65861444D01*
X93506067Y-65837579D01*
X93506066Y-65837574D01*
X93505562Y-65831169D01*
X93466690Y-65697370D01*
X93461357Y-65679012D01*
X93461356Y-65679010D01*
X93459145Y-65671399D01*
X93374453Y-65528193D01*
X93371771Y-65525511D01*
X93346498Y-65461139D01*
X93360400Y-65391516D01*
X93370572Y-65375688D01*
X93374453Y-65371807D01*
X93459145Y-65228601D01*
X93505562Y-65068831D01*
X93508500Y-65031502D01*
X93508500Y-64598498D01*
X93505562Y-64561169D01*
X93474965Y-64455853D01*
X93461357Y-64409012D01*
X93461356Y-64409010D01*
X93459145Y-64401399D01*
X93374453Y-64258193D01*
X93371771Y-64255511D01*
X93346498Y-64191139D01*
X93360400Y-64121516D01*
X93370572Y-64105688D01*
X93374453Y-64101807D01*
X93459145Y-63958601D01*
X93461415Y-63950790D01*
X93486201Y-63865472D01*
X93505562Y-63798831D01*
X93506580Y-63785905D01*
X93508307Y-63763958D01*
X93508307Y-63763950D01*
X93508500Y-63761502D01*
X93508500Y-63328498D01*
X93508307Y-63326042D01*
X93506067Y-63297579D01*
X93506066Y-63297574D01*
X93505562Y-63291169D01*
X93500459Y-63273605D01*
X98100061Y-63273605D01*
X98100101Y-63287706D01*
X98107370Y-63291000D01*
X99127885Y-63291000D01*
X99143124Y-63286525D01*
X99144329Y-63285135D01*
X99146000Y-63277452D01*
X99146000Y-62755116D01*
X99141525Y-62739877D01*
X99140135Y-62738672D01*
X99132452Y-62737001D01*
X98686017Y-62737001D01*
X98681080Y-62737195D01*
X98652664Y-62739430D01*
X98640069Y-62741730D01*
X98494210Y-62784107D01*
X98479779Y-62790352D01*
X98350322Y-62866911D01*
X98337896Y-62876551D01*
X98231551Y-62982896D01*
X98221911Y-62995322D01*
X98145353Y-63124777D01*
X98139107Y-63139210D01*
X98100061Y-63273605D01*
X93500459Y-63273605D01*
X93491271Y-63241979D01*
X93491474Y-63170984D01*
X93523173Y-63117731D01*
X93817688Y-62823217D01*
X94120501Y-62520404D01*
X94182813Y-62486379D01*
X94209596Y-62483500D01*
X98021233Y-62483500D01*
X98032416Y-62484027D01*
X98039909Y-62485702D01*
X98047835Y-62485453D01*
X98047836Y-62485453D01*
X98107986Y-62483562D01*
X98111945Y-62483500D01*
X98139856Y-62483500D01*
X98143791Y-62483003D01*
X98143856Y-62482995D01*
X98155693Y-62482062D01*
X98187951Y-62481048D01*
X98191970Y-62480922D01*
X98199889Y-62480673D01*
X98219343Y-62475021D01*
X98238700Y-62471013D01*
X98250930Y-62469468D01*
X98250931Y-62469468D01*
X98258797Y-62468474D01*
X98266168Y-62465555D01*
X98266170Y-62465555D01*
X98299912Y-62452196D01*
X98311142Y-62448351D01*
X98345983Y-62438229D01*
X98345984Y-62438229D01*
X98353593Y-62436018D01*
X98360412Y-62431985D01*
X98360417Y-62431983D01*
X98371028Y-62425707D01*
X98388776Y-62417012D01*
X98407617Y-62409552D01*
X98443387Y-62383564D01*
X98453307Y-62377048D01*
X98484535Y-62358580D01*
X98484538Y-62358578D01*
X98491362Y-62354542D01*
X98505683Y-62340221D01*
X98520717Y-62327380D01*
X98530694Y-62320131D01*
X98537107Y-62315472D01*
X98565298Y-62281395D01*
X98573288Y-62272616D01*
X98988569Y-61857335D01*
X99050881Y-61823309D01*
X99121696Y-61828374D01*
G37*
%TD.AperFunction*%
%TA.AperFunction,Conductor*%
G36*
X105159921Y-66653502D02*
G01*
X105179147Y-66669843D01*
X105179420Y-66669540D01*
X105184330Y-66673961D01*
X105188747Y-66678866D01*
X105194086Y-66682745D01*
X105335878Y-66785763D01*
X105343248Y-66791118D01*
X105349276Y-66793802D01*
X105349278Y-66793803D01*
X105488291Y-66855695D01*
X105517712Y-66868794D01*
X105611113Y-66888647D01*
X105698056Y-66907128D01*
X105698061Y-66907128D01*
X105704513Y-66908500D01*
X105781455Y-66908500D01*
X105849576Y-66928502D01*
X105896069Y-66982158D01*
X105906377Y-67050946D01*
X105902283Y-67082040D01*
X105904495Y-67096222D01*
X105917652Y-67100000D01*
X105939431Y-67100000D01*
X106007552Y-67120002D01*
X106039391Y-67149294D01*
X106066013Y-67183987D01*
X106072563Y-67189013D01*
X106072564Y-67189014D01*
X106183368Y-67274038D01*
X106225235Y-67331376D01*
X106229456Y-67402247D01*
X106194691Y-67464150D01*
X106131978Y-67497431D01*
X106106663Y-67500000D01*
X105918035Y-67500000D01*
X105904264Y-67504044D01*
X105902235Y-67517583D01*
X105906572Y-67550533D01*
X105910810Y-67566348D01*
X105965753Y-67698993D01*
X105973941Y-67713176D01*
X106006936Y-67756175D01*
X106032537Y-67822395D01*
X106018273Y-67891944D01*
X105968672Y-67942740D01*
X105899482Y-67958656D01*
X105832671Y-67934639D01*
X105817879Y-67921974D01*
X104744500Y-66848595D01*
X104710474Y-66786283D01*
X104715539Y-66715468D01*
X104758086Y-66658632D01*
X104824606Y-66633821D01*
X104833595Y-66633500D01*
X105091800Y-66633500D01*
X105159921Y-66653502D01*
G37*
%TD.AperFunction*%
%TA.AperFunction,Conductor*%
G36*
X118328527Y-64416002D02*
G01*
X118349501Y-64432905D01*
X118945628Y-65029033D01*
X119508848Y-65592253D01*
X119516388Y-65600539D01*
X119520500Y-65607018D01*
X119526277Y-65612443D01*
X119570151Y-65653643D01*
X119572993Y-65656398D01*
X119592730Y-65676135D01*
X119595927Y-65678615D01*
X119604947Y-65686318D01*
X119637179Y-65716586D01*
X119644125Y-65720405D01*
X119644128Y-65720407D01*
X119654934Y-65726348D01*
X119671453Y-65737199D01*
X119687459Y-65749614D01*
X119694728Y-65752759D01*
X119694732Y-65752762D01*
X119728037Y-65767174D01*
X119738687Y-65772391D01*
X119777440Y-65793695D01*
X119785115Y-65795666D01*
X119785116Y-65795666D01*
X119797062Y-65798733D01*
X119815767Y-65805137D01*
X119834355Y-65813181D01*
X119842178Y-65814420D01*
X119842188Y-65814423D01*
X119878024Y-65820099D01*
X119889644Y-65822505D01*
X119923391Y-65831169D01*
X119932470Y-65833500D01*
X119952724Y-65833500D01*
X119972434Y-65835051D01*
X119992443Y-65838220D01*
X120000335Y-65837474D01*
X120036461Y-65834059D01*
X120048319Y-65833500D01*
X120198434Y-65833500D01*
X120266555Y-65853502D01*
X120305867Y-65893665D01*
X120423241Y-66085202D01*
X120423245Y-66085208D01*
X120425824Y-66089416D01*
X120580031Y-66269969D01*
X120760584Y-66424176D01*
X120764792Y-66426755D01*
X120764798Y-66426759D01*
X120935493Y-66531361D01*
X120963037Y-66548240D01*
X120967607Y-66550133D01*
X120967611Y-66550135D01*
X121168874Y-66633500D01*
X121182406Y-66639105D01*
X121242374Y-66653502D01*
X121408476Y-66693380D01*
X121408482Y-66693381D01*
X121413289Y-66694535D01*
X121474951Y-66699388D01*
X121541292Y-66724674D01*
X121583432Y-66781812D01*
X121587991Y-66852662D01*
X121553522Y-66914729D01*
X121490968Y-66948309D01*
X121474951Y-66950612D01*
X121413289Y-66955465D01*
X121408482Y-66956619D01*
X121408476Y-66956620D01*
X121192073Y-67008574D01*
X121121165Y-67005027D01*
X121076407Y-66977906D01*
X121035244Y-66939252D01*
X121032401Y-66936496D01*
X121012664Y-66916759D01*
X121009467Y-66914279D01*
X121000445Y-66906574D01*
X120998776Y-66905007D01*
X120968215Y-66876308D01*
X120961269Y-66872489D01*
X120961266Y-66872487D01*
X120950460Y-66866546D01*
X120933941Y-66855695D01*
X120933477Y-66855335D01*
X120917935Y-66843280D01*
X120910666Y-66840135D01*
X120910662Y-66840132D01*
X120877357Y-66825720D01*
X120866707Y-66820503D01*
X120827954Y-66799199D01*
X120808331Y-66794161D01*
X120789628Y-66787757D01*
X120778314Y-66782861D01*
X120778313Y-66782861D01*
X120771039Y-66779713D01*
X120763216Y-66778474D01*
X120763206Y-66778471D01*
X120727370Y-66772795D01*
X120715750Y-66770389D01*
X120680605Y-66761366D01*
X120680604Y-66761366D01*
X120672924Y-66759394D01*
X120652670Y-66759394D01*
X120632959Y-66757843D01*
X120620780Y-66755914D01*
X120612951Y-66754674D01*
X120605059Y-66755420D01*
X120568933Y-66758835D01*
X120557075Y-66759394D01*
X118121701Y-66759394D01*
X118053580Y-66739392D01*
X118032606Y-66722489D01*
X116308712Y-64998595D01*
X116274686Y-64936283D01*
X116279751Y-64865468D01*
X116322298Y-64808632D01*
X116388818Y-64783821D01*
X116397807Y-64783500D01*
X116839154Y-64783499D01*
X116850544Y-64783499D01*
X116853721Y-64783174D01*
X116853730Y-64783174D01*
X116902467Y-64778195D01*
X116954426Y-64772887D01*
X117122738Y-64717115D01*
X117273652Y-64624030D01*
X117399030Y-64498652D01*
X117402883Y-64492405D01*
X117402888Y-64492399D01*
X117425430Y-64455853D01*
X117478216Y-64408375D01*
X117532670Y-64396000D01*
X118260406Y-64396000D01*
X118328527Y-64416002D01*
G37*
%TD.AperFunction*%
%TA.AperFunction,Conductor*%
G36*
X111609921Y-62403502D02*
G01*
X111629147Y-62419843D01*
X111629420Y-62419540D01*
X111634332Y-62423963D01*
X111638747Y-62428866D01*
X111644086Y-62432745D01*
X111782763Y-62533500D01*
X111793248Y-62541118D01*
X111799276Y-62543802D01*
X111799278Y-62543803D01*
X111866298Y-62573642D01*
X111920394Y-62619622D01*
X111941043Y-62687550D01*
X111921691Y-62755858D01*
X111891753Y-62788711D01*
X111797562Y-62860987D01*
X111797559Y-62860990D01*
X111791013Y-62866013D01*
X111693476Y-62993124D01*
X111690317Y-63000750D01*
X111690316Y-63000752D01*
X111635322Y-63133520D01*
X111635321Y-63133523D01*
X111632162Y-63141150D01*
X111631084Y-63149337D01*
X111631084Y-63149338D01*
X111630028Y-63157363D01*
X111616500Y-63260115D01*
X111616501Y-63539884D01*
X111617039Y-63543969D01*
X111617039Y-63543973D01*
X111626809Y-63618188D01*
X111632162Y-63658850D01*
X111637096Y-63670761D01*
X111639589Y-63676780D01*
X111647179Y-63747370D01*
X111639590Y-63773218D01*
X111638163Y-63776661D01*
X111635322Y-63783520D01*
X111635321Y-63783523D01*
X111632162Y-63791150D01*
X111616500Y-63910115D01*
X111616500Y-63940500D01*
X111596498Y-64008621D01*
X111542842Y-64055114D01*
X111490500Y-64066500D01*
X111178763Y-64066500D01*
X111167579Y-64065973D01*
X111160091Y-64064299D01*
X111152168Y-64064548D01*
X111092033Y-64066438D01*
X111088075Y-64066500D01*
X111060144Y-64066500D01*
X111056229Y-64066995D01*
X111056225Y-64066995D01*
X111056167Y-64067003D01*
X111056138Y-64067006D01*
X111044296Y-64067939D01*
X111000110Y-64069327D01*
X110982744Y-64074372D01*
X110980658Y-64074978D01*
X110961306Y-64078986D01*
X110949068Y-64080532D01*
X110949066Y-64080533D01*
X110941203Y-64081526D01*
X110900086Y-64097806D01*
X110888885Y-64101641D01*
X110846406Y-64113982D01*
X110839587Y-64118015D01*
X110839582Y-64118017D01*
X110828971Y-64124293D01*
X110811221Y-64132990D01*
X110792383Y-64140448D01*
X110785967Y-64145109D01*
X110785966Y-64145110D01*
X110756625Y-64166428D01*
X110746701Y-64172947D01*
X110715460Y-64191422D01*
X110715455Y-64191426D01*
X110708637Y-64195458D01*
X110694313Y-64209782D01*
X110679281Y-64222621D01*
X110662893Y-64234528D01*
X110643316Y-64258193D01*
X110634712Y-64268593D01*
X110626722Y-64277373D01*
X110525000Y-64379095D01*
X110462688Y-64413121D01*
X110435905Y-64416000D01*
X110380013Y-64416000D01*
X110373561Y-64417372D01*
X110373556Y-64417372D01*
X110297974Y-64433438D01*
X110193212Y-64455706D01*
X110187182Y-64458391D01*
X110187181Y-64458391D01*
X110024778Y-64530697D01*
X110024776Y-64530698D01*
X110018748Y-64533382D01*
X110013407Y-64537262D01*
X110013406Y-64537263D01*
X109980503Y-64561169D01*
X109864247Y-64645634D01*
X109859826Y-64650544D01*
X109859825Y-64650545D01*
X109749040Y-64773585D01*
X109736460Y-64787556D01*
X109724292Y-64808632D01*
X109707657Y-64837444D01*
X109656273Y-64886437D01*
X109586560Y-64899872D01*
X109520649Y-64873485D01*
X109509443Y-64863538D01*
X108610000Y-63964095D01*
X108575974Y-63901783D01*
X108581039Y-63830968D01*
X108610000Y-63785905D01*
X109975499Y-62420405D01*
X110037811Y-62386380D01*
X110064594Y-62383500D01*
X111541800Y-62383500D01*
X111609921Y-62403502D01*
G37*
%TD.AperFunction*%
%TA.AperFunction,Conductor*%
G36*
X119703527Y-60903502D02*
G01*
X119724501Y-60920405D01*
X120175636Y-61371540D01*
X120209662Y-61433852D01*
X120209060Y-61490049D01*
X120160613Y-61691847D01*
X120155465Y-61713289D01*
X120136835Y-61950000D01*
X120155465Y-62186711D01*
X120156619Y-62191518D01*
X120156620Y-62191524D01*
X120191640Y-62337391D01*
X120210895Y-62417594D01*
X120212788Y-62422165D01*
X120212789Y-62422167D01*
X120289549Y-62607482D01*
X120301760Y-62636963D01*
X120304346Y-62641183D01*
X120423241Y-62835202D01*
X120423245Y-62835208D01*
X120425824Y-62839416D01*
X120580031Y-63019969D01*
X120760584Y-63174176D01*
X120764792Y-63176755D01*
X120764798Y-63176759D01*
X120951222Y-63291000D01*
X120963037Y-63298240D01*
X120967607Y-63300133D01*
X120967611Y-63300135D01*
X121136878Y-63370247D01*
X121182406Y-63389105D01*
X121258839Y-63407455D01*
X121408476Y-63443380D01*
X121408482Y-63443381D01*
X121413289Y-63444535D01*
X121474951Y-63449388D01*
X121541292Y-63474674D01*
X121583432Y-63531812D01*
X121587991Y-63602662D01*
X121553522Y-63664729D01*
X121490968Y-63698309D01*
X121474951Y-63700612D01*
X121413289Y-63705465D01*
X121408482Y-63706619D01*
X121408476Y-63706620D01*
X121308398Y-63730647D01*
X121182406Y-63760895D01*
X121177835Y-63762788D01*
X121177833Y-63762789D01*
X120967611Y-63849865D01*
X120967607Y-63849867D01*
X120963037Y-63851760D01*
X120958817Y-63854346D01*
X120764798Y-63973241D01*
X120764792Y-63973245D01*
X120760584Y-63975824D01*
X120580031Y-64130031D01*
X120425824Y-64310584D01*
X120360384Y-64417372D01*
X120354753Y-64426561D01*
X120302105Y-64474192D01*
X120232064Y-64485799D01*
X120166866Y-64457696D01*
X120158225Y-64449821D01*
X119673626Y-63965221D01*
X119078652Y-63370247D01*
X119071112Y-63361961D01*
X119067000Y-63355482D01*
X119017348Y-63308856D01*
X119014507Y-63306102D01*
X118994770Y-63286365D01*
X118991573Y-63283885D01*
X118982551Y-63276180D01*
X118969833Y-63264237D01*
X118950321Y-63245914D01*
X118943375Y-63242095D01*
X118943372Y-63242093D01*
X118932566Y-63236152D01*
X118916047Y-63225301D01*
X118915583Y-63224941D01*
X118900041Y-63212886D01*
X118892772Y-63209741D01*
X118892768Y-63209738D01*
X118859463Y-63195326D01*
X118848813Y-63190109D01*
X118810060Y-63168805D01*
X118790437Y-63163767D01*
X118771734Y-63157363D01*
X118760420Y-63152467D01*
X118760419Y-63152467D01*
X118753145Y-63149319D01*
X118745322Y-63148080D01*
X118745312Y-63148077D01*
X118709476Y-63142401D01*
X118697856Y-63139995D01*
X118662711Y-63130972D01*
X118662710Y-63130972D01*
X118655030Y-63129000D01*
X118634776Y-63129000D01*
X118615065Y-63127449D01*
X118602886Y-63125520D01*
X118595057Y-63124280D01*
X118587165Y-63125026D01*
X118551039Y-63128441D01*
X118539181Y-63129000D01*
X117532670Y-63129000D01*
X117464549Y-63108998D01*
X117425430Y-63069147D01*
X117402888Y-63032601D01*
X117402883Y-63032595D01*
X117399030Y-63026348D01*
X117311777Y-62939095D01*
X117277751Y-62876783D01*
X117282816Y-62805968D01*
X117311777Y-62760905D01*
X117399030Y-62673652D01*
X117492115Y-62522738D01*
X117526024Y-62420405D01*
X117545725Y-62360952D01*
X117545726Y-62360948D01*
X117547887Y-62354426D01*
X117549339Y-62340221D01*
X117558175Y-62253729D01*
X117558175Y-62253723D01*
X117558500Y-62250545D01*
X117558499Y-61624456D01*
X117553742Y-61577884D01*
X117548585Y-61527411D01*
X117547887Y-61520574D01*
X117492115Y-61352262D01*
X117423748Y-61241422D01*
X117402884Y-61207596D01*
X117402883Y-61207595D01*
X117399030Y-61201348D01*
X117296277Y-61098595D01*
X117262251Y-61036283D01*
X117267316Y-60965468D01*
X117309863Y-60908632D01*
X117376383Y-60883821D01*
X117385372Y-60883500D01*
X119635406Y-60883500D01*
X119703527Y-60903502D01*
G37*
%TD.AperFunction*%
%TA.AperFunction,Conductor*%
G36*
X115235451Y-62591002D02*
G01*
X115274570Y-62630853D01*
X115297112Y-62667399D01*
X115297116Y-62667404D01*
X115300970Y-62673652D01*
X115388223Y-62760905D01*
X115422249Y-62823217D01*
X115417184Y-62894032D01*
X115388223Y-62939095D01*
X115300970Y-63026348D01*
X115207885Y-63177262D01*
X115197124Y-63209738D01*
X115156953Y-63330968D01*
X115152113Y-63345574D01*
X115151415Y-63352408D01*
X115151414Y-63352412D01*
X115141963Y-63444923D01*
X115141500Y-63449455D01*
X115141501Y-63625789D01*
X115141501Y-63690999D01*
X115121499Y-63759120D01*
X115067844Y-63805613D01*
X115015501Y-63817000D01*
X114854513Y-63817000D01*
X114848061Y-63818372D01*
X114848056Y-63818372D01*
X114761112Y-63836853D01*
X114667712Y-63856706D01*
X114661682Y-63859391D01*
X114661681Y-63859391D01*
X114499278Y-63931697D01*
X114499276Y-63931698D01*
X114493248Y-63934382D01*
X114487907Y-63938262D01*
X114487906Y-63938263D01*
X114452352Y-63964095D01*
X114338747Y-64046634D01*
X114328133Y-64058422D01*
X114267690Y-64095660D01*
X114196706Y-64094309D01*
X114137721Y-64054795D01*
X114109463Y-63989665D01*
X114108499Y-63974110D01*
X114108499Y-63910116D01*
X114106737Y-63896726D01*
X114093916Y-63799337D01*
X114093916Y-63799335D01*
X114092838Y-63791150D01*
X114085411Y-63773219D01*
X114077821Y-63702630D01*
X114085411Y-63676780D01*
X114089678Y-63666480D01*
X114089679Y-63666477D01*
X114092838Y-63658850D01*
X114108500Y-63539885D01*
X114108499Y-63260116D01*
X114106630Y-63245914D01*
X114093916Y-63149337D01*
X114093916Y-63149335D01*
X114092838Y-63141150D01*
X114045286Y-63026348D01*
X114034684Y-63000752D01*
X114034683Y-63000750D01*
X114031524Y-62993124D01*
X113933987Y-62866013D01*
X113927441Y-62860990D01*
X113927438Y-62860987D01*
X113844000Y-62796962D01*
X113802132Y-62739624D01*
X113797911Y-62668753D01*
X113832676Y-62606850D01*
X113895388Y-62573569D01*
X113920704Y-62571000D01*
X115167330Y-62571000D01*
X115235451Y-62591002D01*
G37*
%TD.AperFunction*%
%TA.AperFunction,Conductor*%
G36*
X101928527Y-60341002D02*
G01*
X101949501Y-60357905D01*
X102804595Y-61212999D01*
X102838621Y-61275311D01*
X102841500Y-61302094D01*
X102841501Y-61621270D01*
X102841501Y-61875544D01*
X102852113Y-61979426D01*
X102907885Y-62147738D01*
X103000970Y-62298652D01*
X103126348Y-62424030D01*
X103132595Y-62427883D01*
X103132596Y-62427884D01*
X103149368Y-62438229D01*
X103277262Y-62517115D01*
X103326707Y-62533499D01*
X103439048Y-62570725D01*
X103439052Y-62570726D01*
X103445574Y-62572887D01*
X103452408Y-62573585D01*
X103452412Y-62573586D01*
X103546271Y-62583175D01*
X103546277Y-62583175D01*
X103549455Y-62583500D01*
X104049921Y-62583500D01*
X104550544Y-62583499D01*
X104553721Y-62583174D01*
X104553730Y-62583174D01*
X104602467Y-62578195D01*
X104654426Y-62572887D01*
X104822738Y-62517115D01*
X104950632Y-62438229D01*
X104967404Y-62427884D01*
X104967405Y-62427883D01*
X104973652Y-62424030D01*
X105099030Y-62298652D01*
X105133259Y-62243158D01*
X105186045Y-62195680D01*
X105256120Y-62184277D01*
X105321235Y-62212569D01*
X105360718Y-62271575D01*
X105366500Y-62309305D01*
X105366500Y-63380852D01*
X105365973Y-63392035D01*
X105364298Y-63399528D01*
X105364547Y-63407454D01*
X105364547Y-63407455D01*
X105366438Y-63467605D01*
X105366500Y-63471564D01*
X105366500Y-63499475D01*
X105366997Y-63503409D01*
X105366997Y-63503410D01*
X105367005Y-63503475D01*
X105367938Y-63515312D01*
X105369327Y-63559508D01*
X105374978Y-63578958D01*
X105378987Y-63598319D01*
X105381526Y-63618416D01*
X105384445Y-63625787D01*
X105384445Y-63625789D01*
X105397804Y-63659531D01*
X105401649Y-63670761D01*
X105411731Y-63705465D01*
X105413982Y-63713212D01*
X105418015Y-63720031D01*
X105418017Y-63720036D01*
X105424293Y-63730647D01*
X105432988Y-63748395D01*
X105440448Y-63767236D01*
X105445110Y-63773652D01*
X105445110Y-63773653D01*
X105466436Y-63803006D01*
X105472952Y-63812926D01*
X105487431Y-63837408D01*
X105495458Y-63850981D01*
X105501068Y-63856591D01*
X105505921Y-63862847D01*
X105503258Y-63864913D01*
X105529908Y-63913717D01*
X105524843Y-63984532D01*
X105482296Y-64041368D01*
X105415776Y-64066179D01*
X105406787Y-64066500D01*
X103902094Y-64066500D01*
X103833973Y-64046498D01*
X103812999Y-64029595D01*
X101645405Y-61862000D01*
X101611379Y-61799688D01*
X101608500Y-61772905D01*
X101608499Y-61202662D01*
X101608499Y-61199456D01*
X101606818Y-61182994D01*
X101600259Y-61118794D01*
X101597887Y-61095574D01*
X101542115Y-60927262D01*
X101449030Y-60776348D01*
X101361777Y-60689095D01*
X101327751Y-60626783D01*
X101332816Y-60555968D01*
X101361777Y-60510905D01*
X101449030Y-60423652D01*
X101452883Y-60417405D01*
X101452888Y-60417399D01*
X101475430Y-60380853D01*
X101528216Y-60333375D01*
X101582670Y-60321000D01*
X101860406Y-60321000D01*
X101928527Y-60341002D01*
G37*
%TD.AperFunction*%
%TA.AperFunction,Conductor*%
G36*
X124827887Y-58119519D02*
G01*
X124856066Y-58152039D01*
X124856397Y-58151807D01*
X124931561Y-58259152D01*
X124963318Y-58304505D01*
X124990733Y-58343658D01*
X125156342Y-58509267D01*
X125160850Y-58512424D01*
X125160856Y-58512428D01*
X125348193Y-58643603D01*
X125353175Y-58645926D01*
X125353180Y-58645929D01*
X125547918Y-58736736D01*
X125560457Y-58742583D01*
X125565765Y-58744005D01*
X125565767Y-58744006D01*
X125658275Y-58768793D01*
X125718898Y-58805745D01*
X125749919Y-58869605D01*
X125741491Y-58940100D01*
X125696288Y-58994847D01*
X125625664Y-59016500D01*
X124028767Y-59016500D01*
X124017584Y-59015973D01*
X124010091Y-59014298D01*
X124002165Y-59014547D01*
X124002164Y-59014547D01*
X123942014Y-59016438D01*
X123938055Y-59016500D01*
X123910144Y-59016500D01*
X123906210Y-59016997D01*
X123906209Y-59016997D01*
X123906144Y-59017005D01*
X123894305Y-59017938D01*
X123880381Y-59018375D01*
X123869825Y-59018707D01*
X123806899Y-59002358D01*
X123806179Y-59004385D01*
X123750427Y-59047670D01*
X123750017Y-59047832D01*
X123738869Y-59051645D01*
X123696407Y-59063982D01*
X123689585Y-59068016D01*
X123689579Y-59068019D01*
X123678968Y-59074294D01*
X123661218Y-59082990D01*
X123649756Y-59087528D01*
X123649751Y-59087531D01*
X123642383Y-59090448D01*
X123635968Y-59095109D01*
X123606625Y-59116427D01*
X123596707Y-59122943D01*
X123584188Y-59130347D01*
X123558637Y-59145458D01*
X123544313Y-59159782D01*
X123529281Y-59172621D01*
X123512893Y-59184528D01*
X123488372Y-59214169D01*
X123484712Y-59218593D01*
X123476722Y-59227373D01*
X122228459Y-60475636D01*
X122166147Y-60509662D01*
X122109951Y-60509060D01*
X122041448Y-60492614D01*
X121891524Y-60456620D01*
X121891518Y-60456619D01*
X121886711Y-60455465D01*
X121650000Y-60436835D01*
X121413289Y-60455465D01*
X121408482Y-60456619D01*
X121408476Y-60456620D01*
X121258552Y-60492614D01*
X121190049Y-60509060D01*
X121119142Y-60505513D01*
X121071540Y-60475636D01*
X120785018Y-60189113D01*
X120453647Y-59857742D01*
X120446113Y-59849463D01*
X120442000Y-59842982D01*
X120392348Y-59796356D01*
X120389507Y-59793602D01*
X120369770Y-59773865D01*
X120366573Y-59771385D01*
X120357551Y-59763680D01*
X120331100Y-59738841D01*
X120325321Y-59733414D01*
X120318375Y-59729595D01*
X120318372Y-59729593D01*
X120307566Y-59723652D01*
X120291047Y-59712801D01*
X120286707Y-59709435D01*
X120275041Y-59700386D01*
X120267772Y-59697241D01*
X120267768Y-59697238D01*
X120234463Y-59682826D01*
X120223813Y-59677609D01*
X120185060Y-59656305D01*
X120165437Y-59651267D01*
X120146734Y-59644863D01*
X120135420Y-59639967D01*
X120135419Y-59639967D01*
X120128145Y-59636819D01*
X120120322Y-59635580D01*
X120120312Y-59635577D01*
X120084476Y-59629901D01*
X120072856Y-59627495D01*
X120037711Y-59618472D01*
X120037710Y-59618472D01*
X120030030Y-59616500D01*
X120009776Y-59616500D01*
X119990065Y-59614949D01*
X119977886Y-59613020D01*
X119970057Y-59611780D01*
X119927954Y-59615760D01*
X119926039Y-59615941D01*
X119914181Y-59616500D01*
X115458200Y-59616500D01*
X115390079Y-59596498D01*
X115370853Y-59580157D01*
X115370580Y-59580460D01*
X115365668Y-59576037D01*
X115361253Y-59571134D01*
X115326875Y-59546157D01*
X115212094Y-59462763D01*
X115212093Y-59462762D01*
X115206752Y-59458882D01*
X115200724Y-59456198D01*
X115200722Y-59456197D01*
X115038319Y-59383891D01*
X115038318Y-59383891D01*
X115032288Y-59381206D01*
X114938888Y-59361353D01*
X114851944Y-59342872D01*
X114851939Y-59342872D01*
X114845487Y-59341500D01*
X114654513Y-59341500D01*
X114648061Y-59342872D01*
X114648056Y-59342872D01*
X114561112Y-59361353D01*
X114467712Y-59381206D01*
X114317296Y-59448175D01*
X114246930Y-59457609D01*
X114182633Y-59427503D01*
X114158807Y-59399215D01*
X114102489Y-59307909D01*
X114093442Y-59296468D01*
X113978532Y-59181558D01*
X113967092Y-59172512D01*
X113828767Y-59087192D01*
X113815565Y-59081036D01*
X113660852Y-59029769D01*
X113642604Y-59025863D01*
X113580179Y-58992045D01*
X113545947Y-58929846D01*
X113550777Y-58859014D01*
X113593134Y-58802037D01*
X113636367Y-58780947D01*
X113774233Y-58744006D01*
X113774235Y-58744005D01*
X113779543Y-58742583D01*
X113792082Y-58736736D01*
X113986820Y-58645929D01*
X113986825Y-58645926D01*
X113991807Y-58643603D01*
X114179144Y-58512428D01*
X114179150Y-58512424D01*
X114183658Y-58509267D01*
X114349267Y-58343658D01*
X114376683Y-58304505D01*
X114408439Y-58259152D01*
X114483603Y-58151807D01*
X114484305Y-58152298D01*
X114532262Y-58106570D01*
X114601976Y-58093133D01*
X114667887Y-58119519D01*
X114696066Y-58152039D01*
X114696397Y-58151807D01*
X114771561Y-58259152D01*
X114803318Y-58304505D01*
X114830733Y-58343658D01*
X114996342Y-58509267D01*
X115000850Y-58512424D01*
X115000856Y-58512428D01*
X115188193Y-58643603D01*
X115193175Y-58645926D01*
X115193180Y-58645929D01*
X115387918Y-58736736D01*
X115400457Y-58742583D01*
X115405765Y-58744005D01*
X115405767Y-58744006D01*
X115621369Y-58801776D01*
X115621371Y-58801776D01*
X115626684Y-58803200D01*
X115860000Y-58823613D01*
X116093316Y-58803200D01*
X116098629Y-58801776D01*
X116098631Y-58801776D01*
X116314233Y-58744006D01*
X116314235Y-58744005D01*
X116319543Y-58742583D01*
X116332082Y-58736736D01*
X116526820Y-58645929D01*
X116526825Y-58645926D01*
X116531807Y-58643603D01*
X116719144Y-58512428D01*
X116719150Y-58512424D01*
X116723658Y-58509267D01*
X116889267Y-58343658D01*
X116916683Y-58304505D01*
X116948439Y-58259152D01*
X117023603Y-58151807D01*
X117024305Y-58152298D01*
X117072262Y-58106570D01*
X117141976Y-58093133D01*
X117207887Y-58119519D01*
X117236066Y-58152039D01*
X117236397Y-58151807D01*
X117311561Y-58259152D01*
X117343318Y-58304505D01*
X117370733Y-58343658D01*
X117536342Y-58509267D01*
X117540850Y-58512424D01*
X117540856Y-58512428D01*
X117728193Y-58643603D01*
X117733175Y-58645926D01*
X117733180Y-58645929D01*
X117927918Y-58736736D01*
X117940457Y-58742583D01*
X117945765Y-58744005D01*
X117945767Y-58744006D01*
X118161369Y-58801776D01*
X118161371Y-58801776D01*
X118166684Y-58803200D01*
X118400000Y-58823613D01*
X118633316Y-58803200D01*
X118638629Y-58801776D01*
X118638631Y-58801776D01*
X118854233Y-58744006D01*
X118854235Y-58744005D01*
X118859543Y-58742583D01*
X118872082Y-58736736D01*
X119066820Y-58645929D01*
X119066825Y-58645926D01*
X119071807Y-58643603D01*
X119259144Y-58512428D01*
X119259150Y-58512424D01*
X119263658Y-58509267D01*
X119429267Y-58343658D01*
X119456683Y-58304505D01*
X119488439Y-58259152D01*
X119563603Y-58151807D01*
X119564305Y-58152298D01*
X119612262Y-58106570D01*
X119681976Y-58093133D01*
X119747887Y-58119519D01*
X119776066Y-58152039D01*
X119776397Y-58151807D01*
X119851561Y-58259152D01*
X119883318Y-58304505D01*
X119910733Y-58343658D01*
X120076342Y-58509267D01*
X120080850Y-58512424D01*
X120080856Y-58512428D01*
X120268193Y-58643603D01*
X120273175Y-58645926D01*
X120273180Y-58645929D01*
X120467918Y-58736736D01*
X120480457Y-58742583D01*
X120485765Y-58744005D01*
X120485767Y-58744006D01*
X120701369Y-58801776D01*
X120701371Y-58801776D01*
X120706684Y-58803200D01*
X120940000Y-58823613D01*
X121173316Y-58803200D01*
X121178629Y-58801776D01*
X121178631Y-58801776D01*
X121394233Y-58744006D01*
X121394235Y-58744005D01*
X121399543Y-58742583D01*
X121412082Y-58736736D01*
X121606820Y-58645929D01*
X121606825Y-58645926D01*
X121611807Y-58643603D01*
X121799144Y-58512428D01*
X121799150Y-58512424D01*
X121803658Y-58509267D01*
X121969267Y-58343658D01*
X121996683Y-58304505D01*
X122028439Y-58259152D01*
X122103603Y-58151807D01*
X122104305Y-58152298D01*
X122152262Y-58106570D01*
X122221976Y-58093133D01*
X122287887Y-58119519D01*
X122316066Y-58152039D01*
X122316397Y-58151807D01*
X122391561Y-58259152D01*
X122423318Y-58304505D01*
X122450733Y-58343658D01*
X122616342Y-58509267D01*
X122620850Y-58512424D01*
X122620856Y-58512428D01*
X122808193Y-58643603D01*
X122813175Y-58645926D01*
X122813180Y-58645929D01*
X123007918Y-58736736D01*
X123020457Y-58742583D01*
X123025765Y-58744005D01*
X123025767Y-58744006D01*
X123241369Y-58801776D01*
X123241371Y-58801776D01*
X123246684Y-58803200D01*
X123480000Y-58823613D01*
X123485475Y-58823134D01*
X123693143Y-58804965D01*
X123762748Y-58818954D01*
X123764864Y-58821004D01*
X123768099Y-58813288D01*
X123833257Y-58771062D01*
X123934233Y-58744006D01*
X123934235Y-58744005D01*
X123939543Y-58742583D01*
X123952082Y-58736736D01*
X124146820Y-58645929D01*
X124146825Y-58645926D01*
X124151807Y-58643603D01*
X124339144Y-58512428D01*
X124339150Y-58512424D01*
X124343658Y-58509267D01*
X124509267Y-58343658D01*
X124536683Y-58304505D01*
X124568439Y-58259152D01*
X124643603Y-58151807D01*
X124644305Y-58152298D01*
X124692262Y-58106570D01*
X124761976Y-58093133D01*
X124827887Y-58119519D01*
G37*
%TD.AperFunction*%
%TA.AperFunction,Conductor*%
G36*
X99427887Y-58119519D02*
G01*
X99456066Y-58152039D01*
X99456397Y-58151807D01*
X99531561Y-58259152D01*
X99563318Y-58304505D01*
X99590733Y-58343658D01*
X99747731Y-58500656D01*
X99781757Y-58562968D01*
X99776692Y-58633783D01*
X99734145Y-58690619D01*
X99698269Y-58709355D01*
X99634231Y-58730575D01*
X99634225Y-58730578D01*
X99627262Y-58732885D01*
X99603148Y-58747759D01*
X99487723Y-58818954D01*
X99476348Y-58825970D01*
X99350970Y-58951348D01*
X99347117Y-58957595D01*
X99347116Y-58957596D01*
X99335740Y-58976039D01*
X99257885Y-59102262D01*
X99251887Y-59120364D01*
X99205541Y-59260229D01*
X99202113Y-59270574D01*
X99201415Y-59277408D01*
X99201414Y-59277412D01*
X99193994Y-59350045D01*
X99191500Y-59374455D01*
X99191501Y-59682826D01*
X99191501Y-59925982D01*
X99171499Y-59994103D01*
X99111881Y-60043135D01*
X99100095Y-60047801D01*
X99088869Y-60051645D01*
X99046407Y-60063982D01*
X99039585Y-60068016D01*
X99039579Y-60068019D01*
X99028968Y-60074294D01*
X99011218Y-60082990D01*
X98999756Y-60087528D01*
X98999751Y-60087531D01*
X98992383Y-60090448D01*
X98985968Y-60095109D01*
X98956625Y-60116427D01*
X98946707Y-60122943D01*
X98941469Y-60126041D01*
X98908637Y-60145458D01*
X98894313Y-60159782D01*
X98879282Y-60172620D01*
X98869025Y-60180073D01*
X98867284Y-60181338D01*
X98800415Y-60205195D01*
X98731264Y-60189113D01*
X98699589Y-60163711D01*
X98661253Y-60121134D01*
X98506752Y-60008882D01*
X98500724Y-60006198D01*
X98500722Y-60006197D01*
X98338319Y-59933891D01*
X98338318Y-59933891D01*
X98332288Y-59931206D01*
X98238888Y-59911353D01*
X98151944Y-59892872D01*
X98151939Y-59892872D01*
X98145487Y-59891500D01*
X98090139Y-59891500D01*
X98022018Y-59871498D01*
X97994754Y-59847321D01*
X97992000Y-59842982D01*
X97942348Y-59796356D01*
X97939507Y-59793602D01*
X97919770Y-59773865D01*
X97919296Y-59773498D01*
X97881826Y-59714081D01*
X97877673Y-59692423D01*
X97873983Y-59656305D01*
X97872887Y-59645574D01*
X97817115Y-59477262D01*
X97757867Y-59381206D01*
X97727884Y-59332596D01*
X97727883Y-59332595D01*
X97724030Y-59326348D01*
X97598652Y-59200970D01*
X97592405Y-59197117D01*
X97592399Y-59197112D01*
X97555853Y-59174570D01*
X97508375Y-59121784D01*
X97496000Y-59067330D01*
X97496000Y-58881263D01*
X97496527Y-58870079D01*
X97498201Y-58862591D01*
X97498110Y-58859699D01*
X97523604Y-58795842D01*
X97581396Y-58754604D01*
X97655332Y-58751928D01*
X97841369Y-58801776D01*
X97841371Y-58801776D01*
X97846684Y-58803200D01*
X98080000Y-58823613D01*
X98313316Y-58803200D01*
X98318629Y-58801776D01*
X98318631Y-58801776D01*
X98534233Y-58744006D01*
X98534235Y-58744005D01*
X98539543Y-58742583D01*
X98552082Y-58736736D01*
X98746820Y-58645929D01*
X98746825Y-58645926D01*
X98751807Y-58643603D01*
X98939144Y-58512428D01*
X98939150Y-58512424D01*
X98943658Y-58509267D01*
X99109267Y-58343658D01*
X99136683Y-58304505D01*
X99168439Y-58259152D01*
X99243603Y-58151807D01*
X99244305Y-58152298D01*
X99292262Y-58106570D01*
X99361976Y-58093133D01*
X99427887Y-58119519D01*
G37*
%TD.AperFunction*%
%TA.AperFunction,Conductor*%
G36*
X109587887Y-58119519D02*
G01*
X109616066Y-58152039D01*
X109616397Y-58151807D01*
X109691561Y-58259152D01*
X109723318Y-58304505D01*
X109750733Y-58343658D01*
X109916342Y-58509267D01*
X109920850Y-58512424D01*
X109920856Y-58512428D01*
X110108193Y-58643603D01*
X110113175Y-58645926D01*
X110113180Y-58645929D01*
X110307918Y-58736736D01*
X110320457Y-58742583D01*
X110325765Y-58744005D01*
X110325767Y-58744006D01*
X110541369Y-58801776D01*
X110541371Y-58801776D01*
X110546684Y-58803200D01*
X110552160Y-58803679D01*
X110552165Y-58803680D01*
X110591226Y-58807097D01*
X110601481Y-58807994D01*
X110667599Y-58833857D01*
X110709239Y-58891361D01*
X110716500Y-58933515D01*
X110716500Y-59050040D01*
X110696498Y-59118161D01*
X110656648Y-59157280D01*
X110632598Y-59172114D01*
X110632592Y-59172118D01*
X110626348Y-59175970D01*
X110500970Y-59301348D01*
X110497117Y-59307595D01*
X110497116Y-59307596D01*
X110479142Y-59336736D01*
X110407885Y-59452262D01*
X110382082Y-59530132D01*
X110341668Y-59588504D01*
X110276112Y-59615760D01*
X110262477Y-59616500D01*
X106976009Y-59616500D01*
X106907888Y-59596498D01*
X106861395Y-59542842D01*
X106850699Y-59503670D01*
X106848656Y-59484225D01*
X106843542Y-59435572D01*
X106784527Y-59253944D01*
X106758545Y-59208941D01*
X106737282Y-59172114D01*
X106689040Y-59088556D01*
X106684029Y-59082990D01*
X106565675Y-58951545D01*
X106565674Y-58951544D01*
X106561253Y-58946634D01*
X106463993Y-58875970D01*
X106412097Y-58838265D01*
X106412094Y-58838264D01*
X106406752Y-58834382D01*
X106406846Y-58834252D01*
X106359935Y-58785056D01*
X106346497Y-58715342D01*
X106372882Y-58649431D01*
X106399656Y-58624103D01*
X106559147Y-58512426D01*
X106559150Y-58512424D01*
X106563658Y-58509267D01*
X106729267Y-58343658D01*
X106756683Y-58304505D01*
X106788439Y-58259152D01*
X106863603Y-58151807D01*
X106864305Y-58152298D01*
X106912262Y-58106570D01*
X106981976Y-58093133D01*
X107047887Y-58119519D01*
X107076066Y-58152039D01*
X107076397Y-58151807D01*
X107151561Y-58259152D01*
X107183318Y-58304505D01*
X107210733Y-58343658D01*
X107376342Y-58509267D01*
X107380850Y-58512424D01*
X107380856Y-58512428D01*
X107568193Y-58643603D01*
X107573175Y-58645926D01*
X107573180Y-58645929D01*
X107767918Y-58736736D01*
X107780457Y-58742583D01*
X107785765Y-58744005D01*
X107785767Y-58744006D01*
X108001369Y-58801776D01*
X108001371Y-58801776D01*
X108006684Y-58803200D01*
X108240000Y-58823613D01*
X108473316Y-58803200D01*
X108478629Y-58801776D01*
X108478631Y-58801776D01*
X108694233Y-58744006D01*
X108694235Y-58744005D01*
X108699543Y-58742583D01*
X108712082Y-58736736D01*
X108906820Y-58645929D01*
X108906825Y-58645926D01*
X108911807Y-58643603D01*
X109099144Y-58512428D01*
X109099150Y-58512424D01*
X109103658Y-58509267D01*
X109269267Y-58343658D01*
X109296683Y-58304505D01*
X109328439Y-58259152D01*
X109403603Y-58151807D01*
X109404305Y-58152298D01*
X109452262Y-58106570D01*
X109521976Y-58093133D01*
X109587887Y-58119519D01*
G37*
%TD.AperFunction*%
%TA.AperFunction,Conductor*%
G36*
X112192012Y-58209281D02*
G01*
X112212712Y-58232233D01*
X112290733Y-58343658D01*
X112456342Y-58509267D01*
X112460850Y-58512424D01*
X112460856Y-58512428D01*
X112648193Y-58643603D01*
X112653175Y-58645926D01*
X112653180Y-58645929D01*
X112847918Y-58736736D01*
X112860457Y-58742583D01*
X112865765Y-58744005D01*
X112865767Y-58744006D01*
X112865771Y-58744007D01*
X112964431Y-58770443D01*
X113025053Y-58807393D01*
X113056074Y-58871254D01*
X113047646Y-58941748D01*
X113002443Y-58996496D01*
X112944625Y-59017497D01*
X112852512Y-59026908D01*
X112839154Y-59029767D01*
X112684435Y-59081036D01*
X112671233Y-59087192D01*
X112532908Y-59172512D01*
X112521468Y-59181558D01*
X112406558Y-59296468D01*
X112399155Y-59305830D01*
X112341213Y-59346857D01*
X112270288Y-59350045D01*
X112208898Y-59314383D01*
X112202553Y-59307059D01*
X112199030Y-59301348D01*
X112073652Y-59175970D01*
X112067408Y-59172118D01*
X112067402Y-59172114D01*
X112043352Y-59157280D01*
X111995874Y-59104494D01*
X111983500Y-59050040D01*
X111983500Y-58304505D01*
X112003502Y-58236384D01*
X112057158Y-58189891D01*
X112127432Y-58179787D01*
X112192012Y-58209281D01*
G37*
%TD.AperFunction*%
%TA.AperFunction,Conductor*%
G36*
X101967887Y-58119519D02*
G01*
X101996066Y-58152039D01*
X101996397Y-58151807D01*
X102071561Y-58259152D01*
X102103318Y-58304505D01*
X102130733Y-58343658D01*
X102296342Y-58509267D01*
X102300850Y-58512424D01*
X102300856Y-58512428D01*
X102488193Y-58643603D01*
X102493175Y-58645926D01*
X102493180Y-58645929D01*
X102687918Y-58736736D01*
X102700457Y-58742583D01*
X102705765Y-58744005D01*
X102705767Y-58744006D01*
X102705771Y-58744007D01*
X102923355Y-58802308D01*
X102923357Y-58802309D01*
X102926684Y-58803200D01*
X102926505Y-58803868D01*
X102986402Y-58833549D01*
X103022875Y-58894461D01*
X103020626Y-58965422D01*
X103001723Y-59000595D01*
X103000970Y-59001348D01*
X102907885Y-59152262D01*
X102886951Y-59215438D01*
X102879886Y-59236759D01*
X102839472Y-59295131D01*
X102773916Y-59322387D01*
X102704031Y-59309874D01*
X102667009Y-59280472D01*
X102667000Y-59280482D01*
X102659887Y-59273802D01*
X102617349Y-59233857D01*
X102614507Y-59231102D01*
X102594770Y-59211365D01*
X102591573Y-59208885D01*
X102582551Y-59201180D01*
X102550321Y-59170914D01*
X102543375Y-59167095D01*
X102543372Y-59167093D01*
X102532566Y-59161152D01*
X102516047Y-59150301D01*
X102509803Y-59145458D01*
X102500041Y-59137886D01*
X102492772Y-59134741D01*
X102492768Y-59134738D01*
X102459463Y-59120326D01*
X102448813Y-59115109D01*
X102410060Y-59093805D01*
X102396986Y-59090448D01*
X102390438Y-59088767D01*
X102371734Y-59082363D01*
X102360420Y-59077467D01*
X102360419Y-59077467D01*
X102353145Y-59074319D01*
X102345322Y-59073080D01*
X102345312Y-59073077D01*
X102309476Y-59067401D01*
X102297856Y-59064995D01*
X102262711Y-59055972D01*
X102262710Y-59055972D01*
X102255030Y-59054000D01*
X102234776Y-59054000D01*
X102215065Y-59052449D01*
X102211650Y-59051908D01*
X102195057Y-59049280D01*
X102187165Y-59050026D01*
X102151039Y-59053441D01*
X102139181Y-59054000D01*
X101582670Y-59054000D01*
X101514549Y-59033998D01*
X101475430Y-58994147D01*
X101452888Y-58957601D01*
X101452883Y-58957595D01*
X101449030Y-58951348D01*
X101323652Y-58825970D01*
X101318186Y-58822599D01*
X101277377Y-58764962D01*
X101274190Y-58694037D01*
X101309854Y-58632648D01*
X101324287Y-58620860D01*
X101346501Y-58605306D01*
X101479144Y-58512428D01*
X101479150Y-58512424D01*
X101483658Y-58509267D01*
X101649267Y-58343658D01*
X101676683Y-58304505D01*
X101708439Y-58259152D01*
X101783603Y-58151807D01*
X101784305Y-58152298D01*
X101832262Y-58106570D01*
X101901976Y-58093133D01*
X101967887Y-58119519D01*
G37*
%TD.AperFunction*%
%TD*%
%TA.AperFunction,NonConductor*%
G36*
X104507887Y-58119519D02*
G01*
X104536066Y-58152039D01*
X104536397Y-58151807D01*
X104611561Y-58259152D01*
X104643318Y-58304505D01*
X104670733Y-58343658D01*
X104836342Y-58509267D01*
X104840854Y-58512426D01*
X104840856Y-58512428D01*
X104885760Y-58543871D01*
X104930088Y-58599328D01*
X104937396Y-58669948D01*
X104905364Y-58733308D01*
X104844163Y-58769292D01*
X104773858Y-58766688D01*
X104654426Y-58727113D01*
X104647592Y-58726415D01*
X104647588Y-58726414D01*
X104553729Y-58716825D01*
X104553723Y-58716825D01*
X104550545Y-58716500D01*
X104120615Y-58716500D01*
X104052494Y-58696498D01*
X104006001Y-58642842D01*
X103995897Y-58572568D01*
X104025391Y-58507988D01*
X104031520Y-58501405D01*
X104189267Y-58343658D01*
X104216683Y-58304505D01*
X104248439Y-58259152D01*
X104323603Y-58151807D01*
X104324305Y-58152298D01*
X104372262Y-58106570D01*
X104441976Y-58093133D01*
X104507887Y-58119519D01*
G37*
%TD.AperFunction*%
%TA.AperFunction,NonConductor*%
G36*
X95927013Y-58782725D02*
G01*
X95977743Y-58813647D01*
X96161316Y-58997220D01*
X96195342Y-59059532D01*
X96190277Y-59130347D01*
X96147730Y-59187183D01*
X96138369Y-59193555D01*
X96126348Y-59200970D01*
X96038741Y-59288577D01*
X95976429Y-59322603D01*
X95905614Y-59317538D01*
X95860551Y-59288577D01*
X95778532Y-59206558D01*
X95767092Y-59197512D01*
X95628767Y-59112192D01*
X95615565Y-59106036D01*
X95503010Y-59068739D01*
X95444639Y-59028325D01*
X95417383Y-58962768D01*
X95429896Y-58892883D01*
X95478206Y-58840857D01*
X95540021Y-58823855D01*
X95540000Y-58823613D01*
X95773316Y-58803200D01*
X95778629Y-58801776D01*
X95778631Y-58801776D01*
X95856037Y-58781035D01*
X95927013Y-58782725D01*
G37*
%TD.AperFunction*%
%TA.AperFunction,NonConductor*%
G36*
X109631925Y-60903502D02*
G01*
X109678418Y-60957158D01*
X109688522Y-61027432D01*
X109659028Y-61092012D01*
X109596181Y-61130897D01*
X109591203Y-61131526D01*
X109550086Y-61147806D01*
X109538885Y-61151641D01*
X109496406Y-61163982D01*
X109489587Y-61168015D01*
X109489582Y-61168017D01*
X109478971Y-61174293D01*
X109461221Y-61182990D01*
X109442383Y-61190448D01*
X109435967Y-61195109D01*
X109435966Y-61195110D01*
X109406625Y-61216428D01*
X109396701Y-61222947D01*
X109365460Y-61241422D01*
X109365455Y-61241426D01*
X109358637Y-61245458D01*
X109344313Y-61259782D01*
X109329281Y-61272621D01*
X109312893Y-61284528D01*
X109284712Y-61318593D01*
X109276722Y-61327373D01*
X107945165Y-62658930D01*
X107882853Y-62692956D01*
X107839624Y-62694757D01*
X107814885Y-62691500D01*
X107777461Y-62691500D01*
X106759500Y-62691501D01*
X106691379Y-62671499D01*
X106644886Y-62617843D01*
X106633500Y-62565501D01*
X106633500Y-61852524D01*
X106653502Y-61784403D01*
X106665858Y-61768221D01*
X106739040Y-61686944D01*
X106834527Y-61521556D01*
X106893542Y-61339928D01*
X106895785Y-61318593D01*
X106912814Y-61156565D01*
X106913504Y-61150000D01*
X106900121Y-61022670D01*
X106912893Y-60952832D01*
X106961395Y-60900986D01*
X107025431Y-60883500D01*
X109563804Y-60883500D01*
X109631925Y-60903502D01*
G37*
%TD.AperFunction*%
%TA.AperFunction,NonConductor*%
G36*
X100541026Y-62553501D02*
G01*
X100562000Y-62570404D01*
X100895389Y-62903793D01*
X100929415Y-62966105D01*
X100924350Y-63036920D01*
X100881803Y-63093756D01*
X100857542Y-63107995D01*
X100791635Y-63137338D01*
X100721268Y-63146772D01*
X100656971Y-63116665D01*
X100631933Y-63086369D01*
X100578091Y-62995326D01*
X100568449Y-62982896D01*
X100462104Y-62876551D01*
X100449678Y-62866911D01*
X100320221Y-62790352D01*
X100305784Y-62784105D01*
X100293361Y-62780495D01*
X100233526Y-62742281D01*
X100203850Y-62677784D01*
X100213754Y-62607482D01*
X100260095Y-62553695D01*
X100328515Y-62533499D01*
X100472905Y-62533499D01*
X100541026Y-62553501D01*
G37*
%TD.AperFunction*%
%TA.AperFunction,NonConductor*%
G36*
X111586392Y-65441421D02*
G01*
X111619286Y-65511039D01*
X111632162Y-65608850D01*
X111635322Y-65616478D01*
X111639589Y-65626780D01*
X111647179Y-65697370D01*
X111639590Y-65723218D01*
X111632162Y-65741150D01*
X111631084Y-65749338D01*
X111619383Y-65838220D01*
X111616500Y-65860115D01*
X111616501Y-66139884D01*
X111617039Y-66143969D01*
X111617039Y-66143973D01*
X111631084Y-66250662D01*
X111632162Y-66258850D01*
X111638719Y-66274679D01*
X111639589Y-66276780D01*
X111647179Y-66347370D01*
X111639589Y-66373220D01*
X111635322Y-66383520D01*
X111635321Y-66383523D01*
X111632162Y-66391150D01*
X111616500Y-66510115D01*
X111616501Y-66648455D01*
X111616501Y-66666405D01*
X111596499Y-66734526D01*
X111542844Y-66781019D01*
X111472570Y-66791124D01*
X111407989Y-66761631D01*
X111401406Y-66755501D01*
X110937684Y-66291779D01*
X110903658Y-66229467D01*
X110908723Y-66158652D01*
X110952717Y-66100749D01*
X111086753Y-66003366D01*
X111214540Y-65861444D01*
X111310027Y-65696056D01*
X111369042Y-65514428D01*
X111369732Y-65507864D01*
X111371106Y-65501400D01*
X111374101Y-65502037D01*
X111396080Y-65448641D01*
X111454308Y-65408021D01*
X111525253Y-65405329D01*
X111586392Y-65441421D01*
G37*
%TD.AperFunction*%
%TA.AperFunction,NonConductor*%
G36*
X115886955Y-66369907D02*
G01*
X115898162Y-66379854D01*
X116918712Y-67400404D01*
X116952738Y-67462716D01*
X116947673Y-67533531D01*
X116905126Y-67590367D01*
X116838606Y-67615178D01*
X116786645Y-67607176D01*
X116785060Y-67606305D01*
X116765437Y-67601267D01*
X116746734Y-67594863D01*
X116735420Y-67589967D01*
X116735419Y-67589967D01*
X116728145Y-67586819D01*
X116720322Y-67585580D01*
X116720312Y-67585577D01*
X116684476Y-67579901D01*
X116672856Y-67577495D01*
X116637711Y-67568472D01*
X116637710Y-67568472D01*
X116630030Y-67566500D01*
X116609776Y-67566500D01*
X116590065Y-67564949D01*
X116578903Y-67563181D01*
X116570057Y-67561780D01*
X116562165Y-67562526D01*
X116526039Y-67565941D01*
X116514181Y-67566500D01*
X115522751Y-67566500D01*
X115454630Y-67546498D01*
X115408137Y-67492842D01*
X115397441Y-67427329D01*
X115397567Y-67426135D01*
X115413504Y-67274500D01*
X115409234Y-67233876D01*
X115394232Y-67091135D01*
X115394232Y-67091133D01*
X115393542Y-67084572D01*
X115342484Y-66927434D01*
X115336568Y-66909225D01*
X115336567Y-66909224D01*
X115334527Y-66902944D01*
X115334379Y-66902688D01*
X115325257Y-66834640D01*
X115355365Y-66770344D01*
X115375737Y-66751825D01*
X115470816Y-66682745D01*
X115511253Y-66653366D01*
X115528282Y-66634453D01*
X115634621Y-66516352D01*
X115634622Y-66516351D01*
X115639040Y-66511444D01*
X115642339Y-66505731D01*
X115642342Y-66505726D01*
X115699948Y-66405949D01*
X115751331Y-66356956D01*
X115821044Y-66343520D01*
X115886955Y-66369907D01*
G37*
%TD.AperFunction*%
%TA.AperFunction,NonConductor*%
G36*
X94358527Y-68008502D02*
G01*
X94379501Y-68025405D01*
X94747412Y-68393316D01*
X94752798Y-68403180D01*
X94754597Y-68403753D01*
X94773168Y-68419072D01*
X95611301Y-69257205D01*
X95645327Y-69319517D01*
X95640262Y-69390332D01*
X95597715Y-69447168D01*
X95531195Y-69471979D01*
X95461821Y-69456888D01*
X95441891Y-69443385D01*
X95431407Y-69434712D01*
X95422627Y-69426722D01*
X94603652Y-68607747D01*
X94596112Y-68599461D01*
X94592000Y-68592982D01*
X94586840Y-68588137D01*
X94584863Y-68583533D01*
X94572064Y-68574261D01*
X94542349Y-68546357D01*
X94539507Y-68543602D01*
X94519770Y-68523865D01*
X94516573Y-68521385D01*
X94507551Y-68513680D01*
X94481100Y-68488841D01*
X94475321Y-68483414D01*
X94468375Y-68479595D01*
X94468372Y-68479593D01*
X94457566Y-68473652D01*
X94441047Y-68462801D01*
X94440583Y-68462441D01*
X94425041Y-68450386D01*
X94417772Y-68447241D01*
X94417768Y-68447238D01*
X94384463Y-68432826D01*
X94373813Y-68427609D01*
X94335060Y-68406305D01*
X94315437Y-68401267D01*
X94296734Y-68394863D01*
X94285420Y-68389967D01*
X94285419Y-68389967D01*
X94278145Y-68386819D01*
X94270322Y-68385580D01*
X94270312Y-68385577D01*
X94234476Y-68379901D01*
X94222856Y-68377495D01*
X94187711Y-68368472D01*
X94187710Y-68368472D01*
X94180030Y-68366500D01*
X94159776Y-68366500D01*
X94140065Y-68364949D01*
X94127886Y-68363020D01*
X94120057Y-68361780D01*
X94112165Y-68362526D01*
X94076039Y-68365941D01*
X94064181Y-68366500D01*
X93130311Y-68366500D01*
X93062190Y-68346498D01*
X93015697Y-68292842D01*
X93005593Y-68222568D01*
X93035087Y-68157988D01*
X93095159Y-68119503D01*
X93105987Y-68116357D01*
X93113601Y-68114145D01*
X93154485Y-68089966D01*
X93249980Y-68033491D01*
X93249983Y-68033489D01*
X93256807Y-68029453D01*
X93262416Y-68023844D01*
X93268675Y-68018989D01*
X93269844Y-68020496D01*
X93323167Y-67991379D01*
X93349950Y-67988500D01*
X94290406Y-67988500D01*
X94358527Y-68008502D01*
G37*
%TD.AperFunction*%
%TA.AperFunction,NonConductor*%
G36*
X99771357Y-70186108D02*
G01*
X99820661Y-70216565D01*
X100025636Y-70421540D01*
X100059662Y-70483852D01*
X100059060Y-70540049D01*
X100059000Y-70540301D01*
X100005465Y-70763289D01*
X100005077Y-70768223D01*
X100000612Y-70824951D01*
X99975326Y-70891292D01*
X99918188Y-70933432D01*
X99847338Y-70937991D01*
X99785271Y-70903522D01*
X99751691Y-70840968D01*
X99749388Y-70824951D01*
X99744923Y-70768223D01*
X99744535Y-70763289D01*
X99689105Y-70532406D01*
X99687211Y-70527833D01*
X99687211Y-70527832D01*
X99615157Y-70353878D01*
X99607568Y-70283288D01*
X99639348Y-70219801D01*
X99700406Y-70183574D01*
X99771357Y-70186108D01*
G37*
%TD.AperFunction*%
%TA.AperFunction,NonConductor*%
G36*
X93853527Y-69653502D02*
G01*
X93874501Y-69670405D01*
X93943727Y-69739631D01*
X93977753Y-69801943D01*
X93972688Y-69872758D01*
X93936467Y-69924533D01*
X93933793Y-69926817D01*
X93933787Y-69926823D01*
X93930031Y-69930031D01*
X93775824Y-70110584D01*
X93773245Y-70114792D01*
X93773241Y-70114798D01*
X93681789Y-70264034D01*
X93651760Y-70313037D01*
X93649867Y-70317607D01*
X93649865Y-70317611D01*
X93562789Y-70527833D01*
X93560895Y-70532406D01*
X93505465Y-70763289D01*
X93505077Y-70768223D01*
X93500612Y-70824951D01*
X93475326Y-70891292D01*
X93418188Y-70933432D01*
X93347338Y-70937991D01*
X93285271Y-70903522D01*
X93251691Y-70840968D01*
X93249388Y-70824951D01*
X93244923Y-70768223D01*
X93244535Y-70763289D01*
X93189105Y-70532406D01*
X93187211Y-70527833D01*
X93100135Y-70317611D01*
X93100133Y-70317607D01*
X93098240Y-70313037D01*
X93068211Y-70264034D01*
X92976759Y-70114798D01*
X92976755Y-70114792D01*
X92974176Y-70110584D01*
X92819969Y-69930031D01*
X92816213Y-69926823D01*
X92816208Y-69926818D01*
X92732484Y-69855311D01*
X92693674Y-69795861D01*
X92693167Y-69724866D01*
X92731124Y-69664867D01*
X92795492Y-69634914D01*
X92814314Y-69633500D01*
X93785406Y-69633500D01*
X93853527Y-69653502D01*
G37*
%TD.AperFunction*%
%TA.AperFunction,NonConductor*%
G36*
X96521357Y-70186108D02*
G01*
X96570661Y-70216565D01*
X96775636Y-70421540D01*
X96809662Y-70483852D01*
X96809060Y-70540049D01*
X96809000Y-70540301D01*
X96755465Y-70763289D01*
X96755077Y-70768223D01*
X96750612Y-70824951D01*
X96725326Y-70891292D01*
X96668188Y-70933432D01*
X96597338Y-70937991D01*
X96535271Y-70903522D01*
X96501691Y-70840968D01*
X96499388Y-70824951D01*
X96494923Y-70768223D01*
X96494535Y-70763289D01*
X96439105Y-70532406D01*
X96437211Y-70527833D01*
X96437211Y-70527832D01*
X96365157Y-70353878D01*
X96357568Y-70283288D01*
X96389348Y-70219801D01*
X96450406Y-70183574D01*
X96521357Y-70186108D01*
G37*
%TD.AperFunction*%
%TA.AperFunction,NonConductor*%
G36*
X93464729Y-71096478D02*
G01*
X93498309Y-71159032D01*
X93500612Y-71175049D01*
X93505465Y-71236711D01*
X93506619Y-71241518D01*
X93506620Y-71241524D01*
X93541640Y-71387391D01*
X93560895Y-71467594D01*
X93562788Y-71472165D01*
X93562789Y-71472167D01*
X93647154Y-71675842D01*
X93651760Y-71686963D01*
X93654346Y-71691183D01*
X93773241Y-71885202D01*
X93773245Y-71885208D01*
X93775824Y-71889416D01*
X93930031Y-72069969D01*
X94110584Y-72224176D01*
X94114792Y-72226755D01*
X94114798Y-72226759D01*
X94308817Y-72345654D01*
X94313037Y-72348240D01*
X94317607Y-72350133D01*
X94317611Y-72350135D01*
X94527833Y-72437211D01*
X94532406Y-72439105D01*
X94575048Y-72449342D01*
X94581873Y-72450981D01*
X94643442Y-72486333D01*
X94676125Y-72549360D01*
X94669544Y-72620051D01*
X94625790Y-72675962D01*
X94552459Y-72699500D01*
X92197541Y-72699500D01*
X92129420Y-72679498D01*
X92082927Y-72625842D01*
X92072823Y-72555568D01*
X92102317Y-72490988D01*
X92168127Y-72450981D01*
X92174952Y-72449342D01*
X92217594Y-72439105D01*
X92222167Y-72437211D01*
X92432389Y-72350135D01*
X92432393Y-72350133D01*
X92436963Y-72348240D01*
X92441183Y-72345654D01*
X92635202Y-72226759D01*
X92635208Y-72226755D01*
X92639416Y-72224176D01*
X92819969Y-72069969D01*
X92974176Y-71889416D01*
X92976755Y-71885208D01*
X92976759Y-71885202D01*
X93095654Y-71691183D01*
X93098240Y-71686963D01*
X93102847Y-71675842D01*
X93187211Y-71472167D01*
X93187212Y-71472165D01*
X93189105Y-71467594D01*
X93208360Y-71387391D01*
X93243380Y-71241524D01*
X93243381Y-71241518D01*
X93244535Y-71236711D01*
X93249388Y-71175049D01*
X93274674Y-71108708D01*
X93331812Y-71066568D01*
X93402662Y-71062009D01*
X93464729Y-71096478D01*
G37*
%TD.AperFunction*%
M02*
