%TF.GenerationSoftware,KiCad,Pcbnew,(6.99.0-4502-gf1556ed801-dirty)*%
%TF.CreationDate,2022-12-17T21:10:20-05:00*%
%TF.ProjectId,siox,73696f78-2e6b-4696-9361-645f70636258,rev?*%
%TF.SameCoordinates,Original*%
%TF.FileFunction,Copper,L2,Bot*%
%TF.FilePolarity,Positive*%
%FSLAX46Y46*%
G04 Gerber Fmt 4.6, Leading zero omitted, Abs format (unit mm)*
G04 Created by KiCad (PCBNEW (6.99.0-4502-gf1556ed801-dirty)) date 2022-12-17 21:10:20*
%MOMM*%
%LPD*%
G01*
G04 APERTURE LIST*
%TA.AperFunction,ComponentPad*%
%ADD10O,1.625000X1.625000*%
%TD*%
%TA.AperFunction,ViaPad*%
%ADD11C,0.800000*%
%TD*%
%TA.AperFunction,ViaPad*%
%ADD12C,1.660000*%
%TD*%
%TA.AperFunction,Conductor*%
%ADD13C,0.250000*%
%TD*%
G04 APERTURE END LIST*
D10*
%TO.P,J19,1,Pin_1*%
%TO.N,EN*%
X95539999Y-57479999D03*
%TD*%
%TO.P,J18,1,Pin_1*%
%TO.N,MP1*%
X110779999Y-57479999D03*
%TD*%
%TO.P,J17,1,Pin_1*%
%TO.N,MP1*%
X110779999Y-53659999D03*
%TD*%
%TO.P,J16,1,Pin_1*%
%TO.N,PI*%
X128559999Y-57479999D03*
%TD*%
%TO.P,J15,1,Pin_1*%
%TO.N,CE*%
X128559999Y-53659999D03*
%TD*%
%TO.P,J14,1,Pin_1*%
%TO.N,GND1*%
X132369999Y-55569999D03*
%TD*%
%TO.P,J13,1,Pin_1*%
%TO.N,GND1*%
X90459999Y-57479999D03*
%TD*%
%TO.P,J12,1,Pin_1*%
%TO.N,GND1*%
X90459999Y-53659999D03*
%TD*%
%TO.P,J11,1,Pin_1*%
%TO.N,GND1*%
X132369999Y-51749999D03*
%TD*%
D11*
%TO.N,GND1*%
X98600000Y-59300000D03*
X114600000Y-58700000D03*
X112350000Y-58825000D03*
X109550000Y-58925000D03*
X101975000Y-58775000D03*
X106375000Y-69750000D03*
X114600000Y-63175000D03*
X122125000Y-59975000D03*
X124150000Y-61300000D03*
X119475000Y-62625000D03*
X123025000Y-63600000D03*
X117125000Y-65150000D03*
X119375000Y-66275000D03*
X110400000Y-63625000D03*
X104750000Y-63100000D03*
X106400000Y-72225000D03*
X101625000Y-68900000D03*
X103125000Y-72175000D03*
X99900000Y-72225000D03*
X96625000Y-72200000D03*
X89500000Y-58875000D03*
X90100000Y-63550000D03*
X98250000Y-68900000D03*
X95925000Y-65350000D03*
X130825000Y-59625000D03*
X129250000Y-60500000D03*
X117825000Y-59325000D03*
X115825000Y-69975000D03*
X110400000Y-69300000D03*
X105500000Y-67275000D03*
X108825000Y-67300000D03*
D12*
%TO.N,*%
X113320000Y-57480000D03*
X127290000Y-55570000D03*
X99350000Y-55570000D03*
X105700000Y-57480000D03*
X120940000Y-57480000D03*
X112050000Y-55570000D03*
X114590000Y-55570000D03*
X109510000Y-55570000D03*
X118400000Y-57480000D03*
X129830000Y-55570000D03*
X108240000Y-57480000D03*
X98080000Y-57480000D03*
X103160000Y-57480000D03*
X117130000Y-55570000D03*
X101890000Y-55570000D03*
X106970000Y-55570000D03*
X104430000Y-55570000D03*
X122210000Y-55570000D03*
X131100000Y-57480000D03*
X93000000Y-57480000D03*
X91730000Y-55570000D03*
X115860000Y-57480000D03*
X119670000Y-55570000D03*
X96810000Y-55570000D03*
X126020000Y-57480000D03*
X124750000Y-55570000D03*
X94270000Y-55570000D03*
X123480000Y-57480000D03*
X100620000Y-57480000D03*
X100620000Y-53660000D03*
X113320000Y-53660000D03*
X115860000Y-53660000D03*
X131100000Y-53660000D03*
X118400000Y-53660000D03*
X103160000Y-53660000D03*
X108240000Y-53660000D03*
X105700000Y-53660000D03*
X123480000Y-53660000D03*
X93000000Y-53660000D03*
X120940000Y-53660000D03*
X98080000Y-53660000D03*
X126020000Y-53660000D03*
X95540000Y-53660000D03*
X119670000Y-51750000D03*
X129830000Y-51750000D03*
X122210000Y-51750000D03*
X127290000Y-51750000D03*
X124750000Y-51750000D03*
X112050000Y-51750000D03*
X117130000Y-51750000D03*
X114590000Y-51750000D03*
X109510000Y-51750000D03*
X101890000Y-51750000D03*
X106970000Y-51750000D03*
X104430000Y-51750000D03*
X96810000Y-51750000D03*
X99350000Y-51750000D03*
X94270000Y-51750000D03*
X91730000Y-51750000D03*
D11*
%TO.N,PI*%
X114500000Y-67274500D03*
%TO.N,EN*%
X105800000Y-66000000D03*
X110475500Y-65324500D03*
%TO.N,GND1*%
X96000000Y-62800000D03*
X95800000Y-61225500D03*
%TO.N,EN*%
X98050000Y-60800000D03*
X101200000Y-63950000D03*
%TO.N,XE*%
X106000000Y-61150000D03*
X105950000Y-59625500D03*
%TO.N,CI*%
X114900000Y-65974500D03*
X114950000Y-64725500D03*
%TO.N,GND1*%
X115900000Y-59300000D03*
%TO.N,CE*%
X112250000Y-61750000D03*
X114750000Y-60250000D03*
%TD*%
D13*
%TO.N,PI*%
X128550500Y-58600000D02*
X128550500Y-57489500D01*
X128550500Y-58600000D02*
X128150000Y-59000500D01*
X121615616Y-59000500D02*
X128150000Y-59000500D01*
X118358058Y-62258058D02*
X121615616Y-59000500D01*
X118358058Y-65391942D02*
X118358058Y-62258058D01*
X116475500Y-67274500D02*
X118358058Y-65391942D01*
X114500000Y-67274500D02*
X116475500Y-67274500D01*
%TO.N,EN*%
X98050000Y-60800000D02*
X101200000Y-63950000D01*
X105800000Y-66000000D02*
X109800000Y-66000000D01*
X109800000Y-66000000D02*
X110475500Y-65324500D01*
%TO.N,GND1*%
X95800000Y-62600000D02*
X96000000Y-62800000D01*
X95800000Y-61225500D02*
X95800000Y-62600000D01*
%TO.N,XE*%
X105950000Y-61100000D02*
X106000000Y-61150000D01*
X105950000Y-59625500D02*
X105950000Y-61100000D01*
%TO.N,CI*%
X114950000Y-65924500D02*
X114900000Y-65974500D01*
X114950000Y-64725500D02*
X114950000Y-65924500D01*
%TO.N,CE*%
X112250000Y-61750000D02*
X113250000Y-61750000D01*
X113250000Y-61750000D02*
X114750000Y-60250000D01*
%TD*%
%TA.AperFunction,Conductor*%
%TO.N,GND1*%
G36*
X131677482Y-49300731D02*
G01*
X131772031Y-49306449D01*
X131772369Y-49306470D01*
X131951244Y-49318194D01*
X131965706Y-49319987D01*
X132088142Y-49342421D01*
X132089913Y-49342760D01*
X132236216Y-49371861D01*
X132249095Y-49375139D01*
X132373407Y-49413875D01*
X132376371Y-49414839D01*
X132441387Y-49436909D01*
X132512138Y-49460926D01*
X132523346Y-49465339D01*
X132644119Y-49519692D01*
X132648137Y-49521586D01*
X132774691Y-49583995D01*
X132784117Y-49589156D01*
X132823785Y-49613135D01*
X132898403Y-49658243D01*
X132903220Y-49661306D01*
X132948457Y-49691532D01*
X133019702Y-49739136D01*
X133027385Y-49744701D01*
X133132874Y-49827346D01*
X133138245Y-49831799D01*
X133243277Y-49923909D01*
X133249295Y-49929546D01*
X133344098Y-50024349D01*
X133349734Y-50030365D01*
X133441957Y-50135525D01*
X133446370Y-50140847D01*
X133504534Y-50215087D01*
X133528887Y-50246171D01*
X133534467Y-50253876D01*
X133612520Y-50370690D01*
X133615583Y-50375507D01*
X133684400Y-50489342D01*
X133689572Y-50498788D01*
X133752382Y-50626153D01*
X133754217Y-50630047D01*
X133795032Y-50720733D01*
X133808229Y-50750055D01*
X133812642Y-50761264D01*
X133859181Y-50898362D01*
X133860163Y-50901378D01*
X133898452Y-51024250D01*
X133901736Y-51037154D01*
X133925261Y-51155420D01*
X133931370Y-51186133D01*
X133931727Y-51188003D01*
X133953643Y-51307593D01*
X133955437Y-51322063D01*
X133967770Y-51510229D01*
X133972565Y-51589492D01*
X133972924Y-51595436D01*
X133973154Y-51603042D01*
X133973154Y-59196194D01*
X133972924Y-59203802D01*
X133967188Y-59298625D01*
X133967148Y-59299258D01*
X133955463Y-59477538D01*
X133953669Y-59492008D01*
X133933385Y-59602696D01*
X133931131Y-59614993D01*
X133930778Y-59616839D01*
X133926792Y-59636879D01*
X133901821Y-59762418D01*
X133898537Y-59775322D01*
X133868187Y-59872721D01*
X133859576Y-59900354D01*
X133858613Y-59903314D01*
X133812794Y-60038290D01*
X133808389Y-60049477D01*
X133777887Y-60117251D01*
X133753664Y-60171071D01*
X133751776Y-60175075D01*
X133710810Y-60258148D01*
X133689813Y-60300725D01*
X133684645Y-60310165D01*
X133615011Y-60425351D01*
X133611962Y-60430145D01*
X133534799Y-60545628D01*
X133529231Y-60553316D01*
X133475768Y-60621556D01*
X133445850Y-60659743D01*
X133441398Y-60665112D01*
X133350192Y-60769113D01*
X133344555Y-60775132D01*
X133248775Y-60870910D01*
X133242758Y-60876545D01*
X133138853Y-60967668D01*
X133133495Y-60972110D01*
X133026883Y-61055634D01*
X133019182Y-61061211D01*
X132930951Y-61120166D01*
X132904076Y-61138123D01*
X132899256Y-61141188D01*
X132783640Y-61211077D01*
X132774186Y-61216253D01*
X132649312Y-61277834D01*
X132645294Y-61279728D01*
X132522891Y-61334815D01*
X132511683Y-61339228D01*
X132424218Y-61368919D01*
X132378125Y-61384566D01*
X132375159Y-61385531D01*
X132299153Y-61409215D01*
X132248672Y-61424944D01*
X132235771Y-61428227D01*
X132185821Y-61438163D01*
X132092804Y-61456665D01*
X132091171Y-61456977D01*
X131965309Y-61480040D01*
X131950857Y-61481831D01*
X131781518Y-61492930D01*
X131780882Y-61492970D01*
X131676697Y-61499270D01*
X131669092Y-61499500D01*
X126760845Y-61499500D01*
X126579195Y-61521556D01*
X126488344Y-61532587D01*
X126488342Y-61532587D01*
X126484565Y-61533046D01*
X126214343Y-61599650D01*
X125954120Y-61698340D01*
X125707689Y-61827677D01*
X125704560Y-61829837D01*
X125704553Y-61829841D01*
X125481787Y-61983605D01*
X125478645Y-61985774D01*
X125475790Y-61988303D01*
X125475784Y-61988308D01*
X125325378Y-62121556D01*
X125270327Y-62170327D01*
X125267803Y-62173176D01*
X125088308Y-62375784D01*
X125088303Y-62375790D01*
X125085774Y-62378645D01*
X125083607Y-62381784D01*
X125083605Y-62381787D01*
X124929841Y-62604553D01*
X124929837Y-62604560D01*
X124927677Y-62607689D01*
X124798340Y-62854120D01*
X124699650Y-63114343D01*
X124633046Y-63384565D01*
X124632587Y-63388342D01*
X124632587Y-63388344D01*
X124629587Y-63413056D01*
X124599500Y-63660845D01*
X124599500Y-71096194D01*
X124599270Y-71103801D01*
X124593535Y-71198615D01*
X124593495Y-71199249D01*
X124581809Y-71377543D01*
X124580016Y-71392005D01*
X124558027Y-71511997D01*
X124557495Y-71514901D01*
X124557138Y-71516771D01*
X124528162Y-71662442D01*
X124524878Y-71675344D01*
X124500605Y-71753242D01*
X124485946Y-71800284D01*
X124484995Y-71803207D01*
X124439128Y-71938326D01*
X124434724Y-71949512D01*
X124380546Y-72069890D01*
X124380062Y-72070965D01*
X124378169Y-72074981D01*
X124316128Y-72200787D01*
X124310951Y-72210242D01*
X124241450Y-72325211D01*
X124238404Y-72330002D01*
X124161067Y-72445744D01*
X124155514Y-72453411D01*
X124072684Y-72559137D01*
X124072311Y-72559613D01*
X124067879Y-72564959D01*
X123976389Y-72669283D01*
X123970766Y-72675285D01*
X123875285Y-72770766D01*
X123869283Y-72776389D01*
X123764959Y-72867879D01*
X123759621Y-72872305D01*
X123653411Y-72955514D01*
X123645744Y-72961067D01*
X123530009Y-73038399D01*
X123525211Y-73041450D01*
X123443000Y-73091148D01*
X123410242Y-73110951D01*
X123400787Y-73116128D01*
X123274959Y-73178179D01*
X123270965Y-73180062D01*
X123149512Y-73234724D01*
X123138326Y-73239128D01*
X123003207Y-73284995D01*
X123000284Y-73285946D01*
X122954060Y-73300350D01*
X122875344Y-73324878D01*
X122862442Y-73328162D01*
X122716771Y-73357138D01*
X122714935Y-73357489D01*
X122592005Y-73380016D01*
X122577548Y-73381808D01*
X122399172Y-73393500D01*
X122398671Y-73393532D01*
X122340110Y-73397074D01*
X122303801Y-73399270D01*
X122296194Y-73399500D01*
X117303806Y-73399500D01*
X117296199Y-73399270D01*
X117259890Y-73397074D01*
X117201329Y-73393532D01*
X117200828Y-73393500D01*
X117022452Y-73381808D01*
X117007995Y-73380016D01*
X116885065Y-73357489D01*
X116883229Y-73357138D01*
X116737558Y-73328162D01*
X116724656Y-73324878D01*
X116645940Y-73300350D01*
X116599716Y-73285946D01*
X116596793Y-73284995D01*
X116461674Y-73239128D01*
X116450488Y-73234724D01*
X116329035Y-73180062D01*
X116325041Y-73178179D01*
X116199213Y-73116128D01*
X116189758Y-73110951D01*
X116157000Y-73091148D01*
X116074789Y-73041450D01*
X116069991Y-73038399D01*
X115954256Y-72961067D01*
X115946589Y-72955514D01*
X115840379Y-72872305D01*
X115835041Y-72867879D01*
X115730717Y-72776389D01*
X115724715Y-72770766D01*
X115629234Y-72675285D01*
X115623611Y-72669283D01*
X115532121Y-72564959D01*
X115527689Y-72559613D01*
X115527316Y-72559137D01*
X115444486Y-72453411D01*
X115438933Y-72445744D01*
X115361596Y-72330002D01*
X115358550Y-72325211D01*
X115289049Y-72210242D01*
X115283872Y-72200787D01*
X115221831Y-72074981D01*
X115219938Y-72070965D01*
X115219454Y-72069890D01*
X115165276Y-71949512D01*
X115160872Y-71938326D01*
X115115005Y-71803207D01*
X115114054Y-71800284D01*
X115099395Y-71753242D01*
X115075122Y-71675344D01*
X115071838Y-71662442D01*
X115042862Y-71516771D01*
X115042505Y-71514901D01*
X115041973Y-71511997D01*
X115019984Y-71392005D01*
X115018191Y-71377543D01*
X115006505Y-71199249D01*
X115006465Y-71198615D01*
X115000730Y-71103801D01*
X115000500Y-71096194D01*
X115000500Y-70972565D01*
X114962513Y-70720542D01*
X114887389Y-70476996D01*
X114776805Y-70247366D01*
X114633232Y-70036783D01*
X114459877Y-69849950D01*
X114456197Y-69847015D01*
X114264293Y-69693976D01*
X114264289Y-69693973D01*
X114260612Y-69691041D01*
X114039888Y-69563607D01*
X113802637Y-69470492D01*
X113682669Y-69443110D01*
X113558758Y-69414828D01*
X113558756Y-69414828D01*
X113554157Y-69413778D01*
X113549457Y-69413426D01*
X113549452Y-69413425D01*
X113304697Y-69395084D01*
X113300000Y-69394732D01*
X113295303Y-69395084D01*
X113050548Y-69413425D01*
X113050543Y-69413426D01*
X113045843Y-69413778D01*
X113041244Y-69414828D01*
X113041242Y-69414828D01*
X112917331Y-69443110D01*
X112797363Y-69470492D01*
X112560112Y-69563607D01*
X112339388Y-69691041D01*
X112335711Y-69693973D01*
X112335707Y-69693976D01*
X112143803Y-69847015D01*
X112140123Y-69849950D01*
X111966768Y-70036783D01*
X111823195Y-70247366D01*
X111712611Y-70476996D01*
X111637487Y-70720542D01*
X111599500Y-70972565D01*
X111599500Y-71096194D01*
X111599270Y-71103801D01*
X111593535Y-71198615D01*
X111593495Y-71199249D01*
X111581809Y-71377543D01*
X111580016Y-71392005D01*
X111558027Y-71511997D01*
X111557495Y-71514901D01*
X111557138Y-71516771D01*
X111528162Y-71662442D01*
X111524878Y-71675344D01*
X111500605Y-71753242D01*
X111485946Y-71800284D01*
X111484995Y-71803207D01*
X111439128Y-71938326D01*
X111434724Y-71949512D01*
X111380546Y-72069890D01*
X111380062Y-72070965D01*
X111378169Y-72074981D01*
X111316128Y-72200787D01*
X111310951Y-72210242D01*
X111241450Y-72325211D01*
X111238404Y-72330002D01*
X111161067Y-72445744D01*
X111155514Y-72453411D01*
X111072684Y-72559137D01*
X111072311Y-72559613D01*
X111067879Y-72564959D01*
X110976389Y-72669283D01*
X110970766Y-72675285D01*
X110875285Y-72770766D01*
X110869283Y-72776389D01*
X110764959Y-72867879D01*
X110759621Y-72872305D01*
X110653411Y-72955514D01*
X110645744Y-72961067D01*
X110530009Y-73038399D01*
X110525211Y-73041450D01*
X110443000Y-73091148D01*
X110410242Y-73110951D01*
X110400787Y-73116128D01*
X110274959Y-73178179D01*
X110270965Y-73180062D01*
X110149512Y-73234724D01*
X110138326Y-73239128D01*
X110003207Y-73284995D01*
X110000284Y-73285946D01*
X109954060Y-73300350D01*
X109875344Y-73324878D01*
X109862442Y-73328162D01*
X109716771Y-73357138D01*
X109714935Y-73357489D01*
X109592005Y-73380016D01*
X109577548Y-73381808D01*
X109399172Y-73393500D01*
X109398671Y-73393532D01*
X109340110Y-73397074D01*
X109303801Y-73399270D01*
X109296194Y-73399500D01*
X90430148Y-73399500D01*
X90422542Y-73399270D01*
X90328134Y-73393561D01*
X90327499Y-73393521D01*
X90246903Y-73388239D01*
X90148756Y-73381806D01*
X90134294Y-73380013D01*
X90011858Y-73357579D01*
X90010087Y-73357240D01*
X89863784Y-73328139D01*
X89850905Y-73324861D01*
X89726593Y-73286125D01*
X89723629Y-73285161D01*
X89658613Y-73263091D01*
X89587862Y-73239074D01*
X89576654Y-73234661D01*
X89455881Y-73180308D01*
X89451863Y-73178414D01*
X89435796Y-73170491D01*
X89325309Y-73116005D01*
X89315883Y-73110844D01*
X89252186Y-73072339D01*
X89201597Y-73041757D01*
X89196780Y-73038694D01*
X89151543Y-73008468D01*
X89080298Y-72960864D01*
X89072615Y-72955299D01*
X88967126Y-72872654D01*
X88961755Y-72868201D01*
X88856723Y-72776091D01*
X88850705Y-72770454D01*
X88755902Y-72675651D01*
X88750266Y-72669635D01*
X88737614Y-72655208D01*
X88658043Y-72564475D01*
X88653630Y-72559153D01*
X88571113Y-72453829D01*
X88565533Y-72446124D01*
X88487480Y-72329310D01*
X88484417Y-72324493D01*
X88415600Y-72210658D01*
X88410428Y-72201212D01*
X88347618Y-72073847D01*
X88345783Y-72069953D01*
X88291771Y-71949945D01*
X88287358Y-71938736D01*
X88240819Y-71801638D01*
X88239837Y-71798622D01*
X88201548Y-71675750D01*
X88198264Y-71662846D01*
X88168630Y-71513867D01*
X88168273Y-71511997D01*
X88146357Y-71392407D01*
X88144563Y-71377936D01*
X88144537Y-71377543D01*
X88132230Y-71189771D01*
X88127076Y-71104564D01*
X88126846Y-71096958D01*
X88126846Y-66000000D01*
X104886496Y-66000000D01*
X104906458Y-66189928D01*
X104965473Y-66371556D01*
X105060960Y-66536944D01*
X105065378Y-66541851D01*
X105065379Y-66541852D01*
X105147452Y-66633003D01*
X105188747Y-66678866D01*
X105343248Y-66791118D01*
X105349276Y-66793802D01*
X105349278Y-66793803D01*
X105511681Y-66866109D01*
X105517712Y-66868794D01*
X105611113Y-66888647D01*
X105698056Y-66907128D01*
X105698061Y-66907128D01*
X105704513Y-66908500D01*
X105895487Y-66908500D01*
X105901939Y-66907128D01*
X105901944Y-66907128D01*
X105988887Y-66888647D01*
X106082288Y-66868794D01*
X106088319Y-66866109D01*
X106250722Y-66793803D01*
X106250724Y-66793802D01*
X106256752Y-66791118D01*
X106330474Y-66737556D01*
X106389671Y-66694546D01*
X106411253Y-66678866D01*
X106415668Y-66673963D01*
X106420580Y-66669540D01*
X106421705Y-66670789D01*
X106475014Y-66637949D01*
X106508200Y-66633500D01*
X109721233Y-66633500D01*
X109732416Y-66634027D01*
X109739909Y-66635702D01*
X109747835Y-66635453D01*
X109747836Y-66635453D01*
X109807986Y-66633562D01*
X109811945Y-66633500D01*
X109839856Y-66633500D01*
X109843791Y-66633003D01*
X109843856Y-66632995D01*
X109855693Y-66632062D01*
X109887951Y-66631048D01*
X109891970Y-66630922D01*
X109899889Y-66630673D01*
X109919343Y-66625021D01*
X109938700Y-66621013D01*
X109950930Y-66619468D01*
X109950931Y-66619468D01*
X109958797Y-66618474D01*
X109966168Y-66615555D01*
X109966170Y-66615555D01*
X109999912Y-66602196D01*
X110011142Y-66598351D01*
X110045983Y-66588229D01*
X110045984Y-66588229D01*
X110053593Y-66586018D01*
X110060412Y-66581985D01*
X110060417Y-66581983D01*
X110071028Y-66575707D01*
X110088776Y-66567012D01*
X110107617Y-66559552D01*
X110143387Y-66533564D01*
X110153307Y-66527048D01*
X110184535Y-66508580D01*
X110184538Y-66508578D01*
X110191362Y-66504542D01*
X110205683Y-66490221D01*
X110220717Y-66477380D01*
X110230694Y-66470131D01*
X110237107Y-66465472D01*
X110265298Y-66431395D01*
X110273288Y-66422616D01*
X110425999Y-66269905D01*
X110488311Y-66235879D01*
X110515094Y-66233000D01*
X110570987Y-66233000D01*
X110577439Y-66231628D01*
X110577444Y-66231628D01*
X110664388Y-66213147D01*
X110757788Y-66193294D01*
X110763819Y-66190609D01*
X110926222Y-66118303D01*
X110926224Y-66118302D01*
X110932252Y-66115618D01*
X111086753Y-66003366D01*
X111194283Y-65883942D01*
X111210121Y-65866352D01*
X111210122Y-65866351D01*
X111214540Y-65861444D01*
X111310027Y-65696056D01*
X111369042Y-65514428D01*
X111373841Y-65468774D01*
X111388314Y-65331065D01*
X111389004Y-65324500D01*
X111382482Y-65262444D01*
X111369732Y-65141135D01*
X111369732Y-65141133D01*
X111369042Y-65134572D01*
X111310027Y-64952944D01*
X111214540Y-64787556D01*
X111152754Y-64718935D01*
X111091175Y-64650545D01*
X111091174Y-64650544D01*
X111086753Y-64645634D01*
X110987657Y-64573636D01*
X110937594Y-64537263D01*
X110937593Y-64537262D01*
X110932252Y-64533382D01*
X110926224Y-64530698D01*
X110926222Y-64530697D01*
X110763819Y-64458391D01*
X110763818Y-64458391D01*
X110757788Y-64455706D01*
X110664388Y-64435853D01*
X110577444Y-64417372D01*
X110577439Y-64417372D01*
X110570987Y-64416000D01*
X110380013Y-64416000D01*
X110373561Y-64417372D01*
X110373556Y-64417372D01*
X110286612Y-64435853D01*
X110193212Y-64455706D01*
X110187182Y-64458391D01*
X110187181Y-64458391D01*
X110024778Y-64530697D01*
X110024776Y-64530698D01*
X110018748Y-64533382D01*
X110013407Y-64537262D01*
X110013406Y-64537263D01*
X109963343Y-64573636D01*
X109864247Y-64645634D01*
X109859826Y-64650544D01*
X109859825Y-64650545D01*
X109798247Y-64718935D01*
X109736460Y-64787556D01*
X109640973Y-64952944D01*
X109581958Y-65134572D01*
X109581268Y-65141133D01*
X109581268Y-65141135D01*
X109569440Y-65253671D01*
X109542427Y-65319328D01*
X109484205Y-65359957D01*
X109444130Y-65366500D01*
X106508200Y-65366500D01*
X106440079Y-65346498D01*
X106420853Y-65330157D01*
X106420580Y-65330460D01*
X106415668Y-65326037D01*
X106411253Y-65321134D01*
X106337229Y-65267352D01*
X106262094Y-65212763D01*
X106262093Y-65212762D01*
X106256752Y-65208882D01*
X106250724Y-65206198D01*
X106250722Y-65206197D01*
X106088319Y-65133891D01*
X106088318Y-65133891D01*
X106082288Y-65131206D01*
X105988888Y-65111353D01*
X105901944Y-65092872D01*
X105901939Y-65092872D01*
X105895487Y-65091500D01*
X105704513Y-65091500D01*
X105698061Y-65092872D01*
X105698056Y-65092872D01*
X105611112Y-65111353D01*
X105517712Y-65131206D01*
X105511682Y-65133891D01*
X105511681Y-65133891D01*
X105349278Y-65206197D01*
X105349276Y-65206198D01*
X105343248Y-65208882D01*
X105188747Y-65321134D01*
X105184326Y-65326044D01*
X105184325Y-65326045D01*
X105088917Y-65432007D01*
X105060960Y-65463056D01*
X104965473Y-65628444D01*
X104906458Y-65810072D01*
X104905768Y-65816633D01*
X104905768Y-65816635D01*
X104900543Y-65866352D01*
X104886496Y-66000000D01*
X88126846Y-66000000D01*
X88126846Y-60800000D01*
X97136496Y-60800000D01*
X97137186Y-60806565D01*
X97154587Y-60972123D01*
X97156458Y-60989928D01*
X97215473Y-61171556D01*
X97218776Y-61177278D01*
X97218777Y-61177279D01*
X97239433Y-61213056D01*
X97310960Y-61336944D01*
X97315378Y-61341851D01*
X97315379Y-61341852D01*
X97427987Y-61466916D01*
X97438747Y-61478866D01*
X97468524Y-61500500D01*
X97560492Y-61567319D01*
X97593248Y-61591118D01*
X97599276Y-61593802D01*
X97599278Y-61593803D01*
X97761681Y-61666109D01*
X97767712Y-61668794D01*
X97853101Y-61686944D01*
X97948056Y-61707128D01*
X97948061Y-61707128D01*
X97954513Y-61708500D01*
X98010406Y-61708500D01*
X98078527Y-61728502D01*
X98099501Y-61745405D01*
X100252878Y-63898783D01*
X100286904Y-63961095D01*
X100289093Y-63974708D01*
X100296653Y-64046634D01*
X100306458Y-64139928D01*
X100365473Y-64321556D01*
X100460960Y-64486944D01*
X100588747Y-64628866D01*
X100687843Y-64700864D01*
X100730788Y-64732065D01*
X100743248Y-64741118D01*
X100749276Y-64743802D01*
X100749278Y-64743803D01*
X100911681Y-64816109D01*
X100917712Y-64818794D01*
X101011113Y-64838647D01*
X101098056Y-64857128D01*
X101098061Y-64857128D01*
X101104513Y-64858500D01*
X101295487Y-64858500D01*
X101301939Y-64857128D01*
X101301944Y-64857128D01*
X101388887Y-64838647D01*
X101482288Y-64818794D01*
X101488319Y-64816109D01*
X101650722Y-64743803D01*
X101650724Y-64743802D01*
X101656752Y-64741118D01*
X101669213Y-64732065D01*
X101712157Y-64700864D01*
X101811253Y-64628866D01*
X101939040Y-64486944D01*
X102034527Y-64321556D01*
X102093542Y-64139928D01*
X102103348Y-64046634D01*
X102112814Y-63956565D01*
X102113504Y-63950000D01*
X102093542Y-63760072D01*
X102034527Y-63578444D01*
X101939040Y-63413056D01*
X101811253Y-63271134D01*
X101656752Y-63158882D01*
X101650724Y-63156198D01*
X101650722Y-63156197D01*
X101488319Y-63083891D01*
X101488318Y-63083891D01*
X101482288Y-63081206D01*
X101388887Y-63061353D01*
X101301944Y-63042872D01*
X101301939Y-63042872D01*
X101295487Y-63041500D01*
X101239594Y-63041500D01*
X101171473Y-63021498D01*
X101150499Y-63004595D01*
X98997122Y-60851217D01*
X98963096Y-60788905D01*
X98960907Y-60775292D01*
X98944232Y-60616635D01*
X98944232Y-60616633D01*
X98943542Y-60610072D01*
X98884527Y-60428444D01*
X98789040Y-60263056D01*
X98783196Y-60256565D01*
X98665675Y-60126045D01*
X98665674Y-60126044D01*
X98661253Y-60121134D01*
X98562157Y-60049136D01*
X98512094Y-60012763D01*
X98512093Y-60012762D01*
X98506752Y-60008882D01*
X98500724Y-60006198D01*
X98500722Y-60006197D01*
X98338319Y-59933891D01*
X98338318Y-59933891D01*
X98332288Y-59931206D01*
X98238888Y-59911353D01*
X98151944Y-59892872D01*
X98151939Y-59892872D01*
X98145487Y-59891500D01*
X97954513Y-59891500D01*
X97948061Y-59892872D01*
X97948056Y-59892872D01*
X97861112Y-59911353D01*
X97767712Y-59931206D01*
X97761682Y-59933891D01*
X97761681Y-59933891D01*
X97599278Y-60006197D01*
X97599276Y-60006198D01*
X97593248Y-60008882D01*
X97587907Y-60012762D01*
X97587906Y-60012763D01*
X97537843Y-60049136D01*
X97438747Y-60121134D01*
X97434326Y-60126044D01*
X97434325Y-60126045D01*
X97316805Y-60256565D01*
X97310960Y-60263056D01*
X97215473Y-60428444D01*
X97156458Y-60610072D01*
X97136496Y-60800000D01*
X88126846Y-60800000D01*
X88126846Y-57746522D01*
X89164332Y-57746522D01*
X89212973Y-57928053D01*
X89216719Y-57938345D01*
X89309719Y-58137785D01*
X89315202Y-58147281D01*
X89441415Y-58327532D01*
X89448471Y-58335940D01*
X89604060Y-58491529D01*
X89612468Y-58498585D01*
X89792719Y-58624798D01*
X89802215Y-58630281D01*
X90001655Y-58723281D01*
X90011947Y-58727027D01*
X90188503Y-58774335D01*
X90202599Y-58773999D01*
X90206000Y-58766057D01*
X90206000Y-57752115D01*
X90201525Y-57736876D01*
X90200135Y-57735671D01*
X90192452Y-57734000D01*
X89179092Y-57734000D01*
X89165561Y-57737973D01*
X89164332Y-57746522D01*
X88126846Y-57746522D01*
X88126846Y-53926522D01*
X89164332Y-53926522D01*
X89212973Y-54108053D01*
X89216719Y-54118345D01*
X89309719Y-54317785D01*
X89315202Y-54327281D01*
X89441415Y-54507532D01*
X89448471Y-54515940D01*
X89604060Y-54671529D01*
X89612468Y-54678585D01*
X89792719Y-54804798D01*
X89802215Y-54810281D01*
X90001655Y-54903281D01*
X90011947Y-54907027D01*
X90224507Y-54963982D01*
X90235302Y-54965885D01*
X90350361Y-54975952D01*
X90416479Y-55001816D01*
X90458118Y-55059319D01*
X90461086Y-55134084D01*
X90406800Y-55336684D01*
X90386387Y-55570000D01*
X90406800Y-55803316D01*
X90408224Y-55808629D01*
X90408224Y-55808631D01*
X90461086Y-56005916D01*
X90459396Y-56076893D01*
X90419602Y-56135688D01*
X90350361Y-56164048D01*
X90235302Y-56174115D01*
X90224507Y-56176018D01*
X90011947Y-56232973D01*
X90001655Y-56236719D01*
X89802215Y-56329719D01*
X89792719Y-56335202D01*
X89612468Y-56461415D01*
X89604060Y-56468471D01*
X89448471Y-56624060D01*
X89441415Y-56632468D01*
X89315202Y-56812719D01*
X89309719Y-56822215D01*
X89216719Y-57021655D01*
X89212973Y-57031947D01*
X89165665Y-57208503D01*
X89166001Y-57222599D01*
X89173943Y-57226000D01*
X90588000Y-57226000D01*
X90656121Y-57246002D01*
X90702614Y-57299658D01*
X90714000Y-57352000D01*
X90714000Y-58760908D01*
X90717973Y-58774439D01*
X90726522Y-58775668D01*
X90908053Y-58727027D01*
X90918345Y-58723281D01*
X91117785Y-58630281D01*
X91127281Y-58624798D01*
X91307532Y-58498585D01*
X91315940Y-58491529D01*
X91471529Y-58335940D01*
X91478585Y-58327532D01*
X91604798Y-58147281D01*
X91610729Y-58137008D01*
X91662112Y-58088015D01*
X91731826Y-58074580D01*
X91797737Y-58100967D01*
X91830630Y-58142455D01*
X91831321Y-58142056D01*
X91834019Y-58146729D01*
X91834042Y-58146758D01*
X91834068Y-58146814D01*
X91834072Y-58146821D01*
X91836397Y-58151807D01*
X91839554Y-58156315D01*
X91965329Y-58335940D01*
X91970733Y-58343658D01*
X92136342Y-58509267D01*
X92140850Y-58512424D01*
X92140853Y-58512426D01*
X92220848Y-58568439D01*
X92328193Y-58643603D01*
X92333175Y-58645926D01*
X92333180Y-58645929D01*
X92523071Y-58734476D01*
X92540457Y-58742583D01*
X92545765Y-58744005D01*
X92545767Y-58744006D01*
X92761369Y-58801776D01*
X92761371Y-58801776D01*
X92766684Y-58803200D01*
X93000000Y-58823613D01*
X93233316Y-58803200D01*
X93238629Y-58801776D01*
X93238631Y-58801776D01*
X93454233Y-58744006D01*
X93454235Y-58744005D01*
X93459543Y-58742583D01*
X93476929Y-58734476D01*
X93666820Y-58645929D01*
X93666825Y-58645926D01*
X93671807Y-58643603D01*
X93779152Y-58568439D01*
X93859147Y-58512426D01*
X93859150Y-58512424D01*
X93863658Y-58509267D01*
X94029267Y-58343658D01*
X94034672Y-58335940D01*
X94160446Y-58156315D01*
X94163603Y-58151807D01*
X94165929Y-58146819D01*
X94168679Y-58142056D01*
X94169771Y-58142687D01*
X94212622Y-58094026D01*
X94280901Y-58074569D01*
X94348859Y-58095115D01*
X94389012Y-58137564D01*
X94389285Y-58138036D01*
X94391610Y-58143023D01*
X94524190Y-58332366D01*
X94687634Y-58495810D01*
X94692142Y-58498967D01*
X94692145Y-58498969D01*
X94711364Y-58512426D01*
X94876977Y-58628390D01*
X94881959Y-58630713D01*
X94881964Y-58630716D01*
X95079556Y-58722854D01*
X95086466Y-58726076D01*
X95091774Y-58727498D01*
X95091776Y-58727499D01*
X95304420Y-58784476D01*
X95309735Y-58785900D01*
X95540000Y-58806046D01*
X95770265Y-58785900D01*
X95775580Y-58784476D01*
X95988224Y-58727499D01*
X95988226Y-58727498D01*
X95993534Y-58726076D01*
X96000444Y-58722854D01*
X96198036Y-58630716D01*
X96198041Y-58630713D01*
X96203023Y-58628390D01*
X96368636Y-58512426D01*
X96387855Y-58498969D01*
X96387858Y-58498967D01*
X96392366Y-58495810D01*
X96555810Y-58332366D01*
X96688390Y-58143023D01*
X96690715Y-58138036D01*
X96690988Y-58137564D01*
X96742372Y-58088571D01*
X96812085Y-58075136D01*
X96877996Y-58101523D01*
X96910507Y-58142526D01*
X96911321Y-58142056D01*
X96914071Y-58146819D01*
X96916397Y-58151807D01*
X96919554Y-58156315D01*
X97045329Y-58335940D01*
X97050733Y-58343658D01*
X97216342Y-58509267D01*
X97220850Y-58512424D01*
X97220853Y-58512426D01*
X97300848Y-58568439D01*
X97408193Y-58643603D01*
X97413175Y-58645926D01*
X97413180Y-58645929D01*
X97603071Y-58734476D01*
X97620457Y-58742583D01*
X97625765Y-58744005D01*
X97625767Y-58744006D01*
X97841369Y-58801776D01*
X97841371Y-58801776D01*
X97846684Y-58803200D01*
X98080000Y-58823613D01*
X98313316Y-58803200D01*
X98318629Y-58801776D01*
X98318631Y-58801776D01*
X98534233Y-58744006D01*
X98534235Y-58744005D01*
X98539543Y-58742583D01*
X98556929Y-58734476D01*
X98746820Y-58645929D01*
X98746825Y-58645926D01*
X98751807Y-58643603D01*
X98859152Y-58568439D01*
X98939147Y-58512426D01*
X98939150Y-58512424D01*
X98943658Y-58509267D01*
X99109267Y-58343658D01*
X99114672Y-58335940D01*
X99240446Y-58156315D01*
X99243603Y-58151807D01*
X99244305Y-58152298D01*
X99292262Y-58106570D01*
X99361976Y-58093133D01*
X99427887Y-58119519D01*
X99456066Y-58152039D01*
X99456397Y-58151807D01*
X99459554Y-58156315D01*
X99585329Y-58335940D01*
X99590733Y-58343658D01*
X99756342Y-58509267D01*
X99760850Y-58512424D01*
X99760853Y-58512426D01*
X99840848Y-58568439D01*
X99948193Y-58643603D01*
X99953175Y-58645926D01*
X99953180Y-58645929D01*
X100143071Y-58734476D01*
X100160457Y-58742583D01*
X100165765Y-58744005D01*
X100165767Y-58744006D01*
X100381369Y-58801776D01*
X100381371Y-58801776D01*
X100386684Y-58803200D01*
X100620000Y-58823613D01*
X100853316Y-58803200D01*
X100858629Y-58801776D01*
X100858631Y-58801776D01*
X101074233Y-58744006D01*
X101074235Y-58744005D01*
X101079543Y-58742583D01*
X101096929Y-58734476D01*
X101286820Y-58645929D01*
X101286825Y-58645926D01*
X101291807Y-58643603D01*
X101399152Y-58568439D01*
X101479147Y-58512426D01*
X101479150Y-58512424D01*
X101483658Y-58509267D01*
X101649267Y-58343658D01*
X101654672Y-58335940D01*
X101780446Y-58156315D01*
X101783603Y-58151807D01*
X101784305Y-58152298D01*
X101832262Y-58106570D01*
X101901976Y-58093133D01*
X101967887Y-58119519D01*
X101996066Y-58152039D01*
X101996397Y-58151807D01*
X101999554Y-58156315D01*
X102125329Y-58335940D01*
X102130733Y-58343658D01*
X102296342Y-58509267D01*
X102300850Y-58512424D01*
X102300853Y-58512426D01*
X102380848Y-58568439D01*
X102488193Y-58643603D01*
X102493175Y-58645926D01*
X102493180Y-58645929D01*
X102683071Y-58734476D01*
X102700457Y-58742583D01*
X102705765Y-58744005D01*
X102705767Y-58744006D01*
X102921369Y-58801776D01*
X102921371Y-58801776D01*
X102926684Y-58803200D01*
X103160000Y-58823613D01*
X103393316Y-58803200D01*
X103398629Y-58801776D01*
X103398631Y-58801776D01*
X103614233Y-58744006D01*
X103614235Y-58744005D01*
X103619543Y-58742583D01*
X103636929Y-58734476D01*
X103826820Y-58645929D01*
X103826825Y-58645926D01*
X103831807Y-58643603D01*
X103939152Y-58568439D01*
X104019147Y-58512426D01*
X104019150Y-58512424D01*
X104023658Y-58509267D01*
X104189267Y-58343658D01*
X104194672Y-58335940D01*
X104320446Y-58156315D01*
X104323603Y-58151807D01*
X104324305Y-58152298D01*
X104372262Y-58106570D01*
X104441976Y-58093133D01*
X104507887Y-58119519D01*
X104536066Y-58152039D01*
X104536397Y-58151807D01*
X104539554Y-58156315D01*
X104665329Y-58335940D01*
X104670733Y-58343658D01*
X104836342Y-58509267D01*
X104840850Y-58512424D01*
X104840853Y-58512426D01*
X104920848Y-58568439D01*
X105028193Y-58643603D01*
X105033175Y-58645926D01*
X105033180Y-58645929D01*
X105223071Y-58734476D01*
X105240457Y-58742583D01*
X105245762Y-58744004D01*
X105245769Y-58744007D01*
X105269052Y-58750245D01*
X105329675Y-58787196D01*
X105360697Y-58851056D01*
X105352269Y-58921551D01*
X105330078Y-58956262D01*
X105210960Y-59088556D01*
X105115473Y-59253944D01*
X105056458Y-59435572D01*
X105055768Y-59442133D01*
X105055768Y-59442135D01*
X105053600Y-59462763D01*
X105036496Y-59625500D01*
X105037186Y-59632065D01*
X105045183Y-59708148D01*
X105056458Y-59815428D01*
X105115473Y-59997056D01*
X105118776Y-60002778D01*
X105118777Y-60002779D01*
X105148231Y-60053794D01*
X105210960Y-60162444D01*
X105284137Y-60243715D01*
X105314853Y-60307721D01*
X105316500Y-60328024D01*
X105316500Y-60503006D01*
X105296498Y-60571127D01*
X105284135Y-60587317D01*
X105265383Y-60608143D01*
X105265380Y-60608147D01*
X105260960Y-60613056D01*
X105165473Y-60778444D01*
X105106458Y-60960072D01*
X105105768Y-60966633D01*
X105105768Y-60966635D01*
X105105191Y-60972123D01*
X105086496Y-61150000D01*
X105087186Y-61156565D01*
X105092608Y-61208148D01*
X105106458Y-61339928D01*
X105165473Y-61521556D01*
X105260960Y-61686944D01*
X105265378Y-61691851D01*
X105265379Y-61691852D01*
X105279134Y-61707128D01*
X105388747Y-61828866D01*
X105543248Y-61941118D01*
X105549276Y-61943802D01*
X105549278Y-61943803D01*
X105711681Y-62016109D01*
X105717712Y-62018794D01*
X105811112Y-62038647D01*
X105898056Y-62057128D01*
X105898061Y-62057128D01*
X105904513Y-62058500D01*
X106095487Y-62058500D01*
X106101939Y-62057128D01*
X106101944Y-62057128D01*
X106188888Y-62038647D01*
X106282288Y-62018794D01*
X106288319Y-62016109D01*
X106450722Y-61943803D01*
X106450724Y-61943802D01*
X106456752Y-61941118D01*
X106611253Y-61828866D01*
X106682264Y-61750000D01*
X111336496Y-61750000D01*
X111337186Y-61756565D01*
X111355732Y-61933017D01*
X111356458Y-61939928D01*
X111415473Y-62121556D01*
X111418776Y-62127278D01*
X111418777Y-62127279D01*
X111442174Y-62167803D01*
X111510960Y-62286944D01*
X111515378Y-62291851D01*
X111515379Y-62291852D01*
X111597452Y-62383003D01*
X111638747Y-62428866D01*
X111728031Y-62493735D01*
X111764818Y-62520462D01*
X111793248Y-62541118D01*
X111799276Y-62543802D01*
X111799278Y-62543803D01*
X111961681Y-62616109D01*
X111967712Y-62618794D01*
X112061113Y-62638647D01*
X112148056Y-62657128D01*
X112148061Y-62657128D01*
X112154513Y-62658500D01*
X112345487Y-62658500D01*
X112351939Y-62657128D01*
X112351944Y-62657128D01*
X112438887Y-62638647D01*
X112532288Y-62618794D01*
X112538319Y-62616109D01*
X112700722Y-62543803D01*
X112700724Y-62543802D01*
X112706752Y-62541118D01*
X112735183Y-62520462D01*
X112839671Y-62444546D01*
X112861253Y-62428866D01*
X112865668Y-62423963D01*
X112870580Y-62419540D01*
X112871705Y-62420789D01*
X112925014Y-62387949D01*
X112958200Y-62383500D01*
X113171233Y-62383500D01*
X113182416Y-62384027D01*
X113189909Y-62385702D01*
X113197835Y-62385453D01*
X113197836Y-62385453D01*
X113257986Y-62383562D01*
X113261945Y-62383500D01*
X113289856Y-62383500D01*
X113293791Y-62383003D01*
X113293856Y-62382995D01*
X113305693Y-62382062D01*
X113337951Y-62381048D01*
X113341970Y-62380922D01*
X113349889Y-62380673D01*
X113369343Y-62375021D01*
X113388700Y-62371013D01*
X113400930Y-62369468D01*
X113400931Y-62369468D01*
X113408797Y-62368474D01*
X113416168Y-62365555D01*
X113416170Y-62365555D01*
X113449912Y-62352196D01*
X113461142Y-62348351D01*
X113495983Y-62338229D01*
X113495984Y-62338229D01*
X113503593Y-62336018D01*
X113510412Y-62331985D01*
X113510417Y-62331983D01*
X113521028Y-62325707D01*
X113538776Y-62317012D01*
X113557617Y-62309552D01*
X113587374Y-62287933D01*
X113593387Y-62283564D01*
X113603307Y-62277048D01*
X113634535Y-62258580D01*
X113634538Y-62258578D01*
X113641362Y-62254542D01*
X113655683Y-62240221D01*
X113670717Y-62227380D01*
X113680694Y-62220131D01*
X113687107Y-62215472D01*
X113715298Y-62181395D01*
X113723288Y-62172616D01*
X114700499Y-61195405D01*
X114762811Y-61161379D01*
X114789594Y-61158500D01*
X114845487Y-61158500D01*
X114851939Y-61157128D01*
X114851944Y-61157128D01*
X114941353Y-61138123D01*
X115032288Y-61118794D01*
X115038319Y-61116109D01*
X115200722Y-61043803D01*
X115200724Y-61043802D01*
X115206752Y-61041118D01*
X115361253Y-60928866D01*
X115413437Y-60870910D01*
X115484621Y-60791852D01*
X115484622Y-60791851D01*
X115489040Y-60786944D01*
X115584527Y-60621556D01*
X115643542Y-60439928D01*
X115645077Y-60425329D01*
X115662814Y-60256565D01*
X115663504Y-60250000D01*
X115643542Y-60060072D01*
X115584527Y-59878444D01*
X115489040Y-59713056D01*
X115419841Y-59636202D01*
X115365675Y-59576045D01*
X115365674Y-59576044D01*
X115361253Y-59571134D01*
X115252347Y-59492009D01*
X115212094Y-59462763D01*
X115212093Y-59462762D01*
X115206752Y-59458882D01*
X115200724Y-59456198D01*
X115200722Y-59456197D01*
X115038319Y-59383891D01*
X115038318Y-59383891D01*
X115032288Y-59381206D01*
X114938888Y-59361353D01*
X114851944Y-59342872D01*
X114851939Y-59342872D01*
X114845487Y-59341500D01*
X114654513Y-59341500D01*
X114648061Y-59342872D01*
X114648056Y-59342872D01*
X114561112Y-59361353D01*
X114467712Y-59381206D01*
X114461682Y-59383891D01*
X114461681Y-59383891D01*
X114299278Y-59456197D01*
X114299276Y-59456198D01*
X114293248Y-59458882D01*
X114287907Y-59462762D01*
X114287906Y-59462763D01*
X114247653Y-59492009D01*
X114138747Y-59571134D01*
X114134326Y-59576044D01*
X114134325Y-59576045D01*
X114080160Y-59636202D01*
X114010960Y-59713056D01*
X113915473Y-59878444D01*
X113856458Y-60060072D01*
X113855768Y-60066633D01*
X113855768Y-60066635D01*
X113839093Y-60225292D01*
X113812080Y-60290949D01*
X113802878Y-60301217D01*
X113035666Y-61068429D01*
X112973354Y-61102455D01*
X112902539Y-61097390D01*
X112863683Y-61073833D01*
X112861253Y-61071134D01*
X112706752Y-60958882D01*
X112700724Y-60956198D01*
X112700722Y-60956197D01*
X112538319Y-60883891D01*
X112538318Y-60883891D01*
X112532288Y-60881206D01*
X112438888Y-60861353D01*
X112351944Y-60842872D01*
X112351939Y-60842872D01*
X112345487Y-60841500D01*
X112154513Y-60841500D01*
X112148061Y-60842872D01*
X112148056Y-60842872D01*
X112061112Y-60861353D01*
X111967712Y-60881206D01*
X111961682Y-60883891D01*
X111961681Y-60883891D01*
X111799278Y-60956197D01*
X111799276Y-60956198D01*
X111793248Y-60958882D01*
X111638747Y-61071134D01*
X111510960Y-61213056D01*
X111415473Y-61378444D01*
X111356458Y-61560072D01*
X111355768Y-61566633D01*
X111355768Y-61566635D01*
X111337186Y-61743435D01*
X111336496Y-61750000D01*
X106682264Y-61750000D01*
X106720866Y-61707128D01*
X106734621Y-61691852D01*
X106734622Y-61691851D01*
X106739040Y-61686944D01*
X106834527Y-61521556D01*
X106893542Y-61339928D01*
X106907393Y-61208148D01*
X106912814Y-61156565D01*
X106913504Y-61150000D01*
X106894809Y-60972123D01*
X106894232Y-60966635D01*
X106894232Y-60966633D01*
X106893542Y-60960072D01*
X106834527Y-60778444D01*
X106739040Y-60613056D01*
X106730701Y-60603794D01*
X106615864Y-60476255D01*
X106585146Y-60412248D01*
X106583500Y-60391945D01*
X106583500Y-60328024D01*
X106603502Y-60259903D01*
X106615858Y-60243721D01*
X106689040Y-60162444D01*
X106751769Y-60053794D01*
X106781223Y-60002779D01*
X106781224Y-60002778D01*
X106784527Y-59997056D01*
X106843542Y-59815428D01*
X106854818Y-59708148D01*
X106862814Y-59632065D01*
X106863504Y-59625500D01*
X106846400Y-59462763D01*
X106844232Y-59442135D01*
X106844232Y-59442133D01*
X106843542Y-59435572D01*
X106784527Y-59253944D01*
X106689040Y-59088556D01*
X106616107Y-59007555D01*
X106565675Y-58951545D01*
X106565674Y-58951544D01*
X106561253Y-58946634D01*
X106475699Y-58884475D01*
X106412097Y-58838265D01*
X106412094Y-58838264D01*
X106406752Y-58834382D01*
X106406846Y-58834252D01*
X106359935Y-58785056D01*
X106346497Y-58715342D01*
X106372882Y-58649431D01*
X106399656Y-58624103D01*
X106559147Y-58512426D01*
X106559150Y-58512424D01*
X106563658Y-58509267D01*
X106729267Y-58343658D01*
X106734672Y-58335940D01*
X106860446Y-58156315D01*
X106863603Y-58151807D01*
X106864305Y-58152298D01*
X106912262Y-58106570D01*
X106981976Y-58093133D01*
X107047887Y-58119519D01*
X107076066Y-58152039D01*
X107076397Y-58151807D01*
X107079554Y-58156315D01*
X107205329Y-58335940D01*
X107210733Y-58343658D01*
X107376342Y-58509267D01*
X107380850Y-58512424D01*
X107380853Y-58512426D01*
X107460848Y-58568439D01*
X107568193Y-58643603D01*
X107573175Y-58645926D01*
X107573180Y-58645929D01*
X107763071Y-58734476D01*
X107780457Y-58742583D01*
X107785765Y-58744005D01*
X107785767Y-58744006D01*
X108001369Y-58801776D01*
X108001371Y-58801776D01*
X108006684Y-58803200D01*
X108240000Y-58823613D01*
X108473316Y-58803200D01*
X108478629Y-58801776D01*
X108478631Y-58801776D01*
X108694233Y-58744006D01*
X108694235Y-58744005D01*
X108699543Y-58742583D01*
X108716929Y-58734476D01*
X108906820Y-58645929D01*
X108906825Y-58645926D01*
X108911807Y-58643603D01*
X109019152Y-58568439D01*
X109099147Y-58512426D01*
X109099150Y-58512424D01*
X109103658Y-58509267D01*
X109269267Y-58343658D01*
X109274672Y-58335940D01*
X109400446Y-58156315D01*
X109403603Y-58151807D01*
X109405929Y-58146819D01*
X109408679Y-58142056D01*
X109409771Y-58142687D01*
X109452622Y-58094026D01*
X109520901Y-58074569D01*
X109588859Y-58095115D01*
X109629012Y-58137564D01*
X109629285Y-58138036D01*
X109631610Y-58143023D01*
X109764190Y-58332366D01*
X109927634Y-58495810D01*
X109932142Y-58498967D01*
X109932145Y-58498969D01*
X109951364Y-58512426D01*
X110116977Y-58628390D01*
X110121959Y-58630713D01*
X110121964Y-58630716D01*
X110319556Y-58722854D01*
X110326466Y-58726076D01*
X110331774Y-58727498D01*
X110331776Y-58727499D01*
X110544420Y-58784476D01*
X110549735Y-58785900D01*
X110780000Y-58806046D01*
X111010265Y-58785900D01*
X111015580Y-58784476D01*
X111228224Y-58727499D01*
X111228226Y-58727498D01*
X111233534Y-58726076D01*
X111240444Y-58722854D01*
X111438036Y-58630716D01*
X111438041Y-58630713D01*
X111443023Y-58628390D01*
X111608636Y-58512426D01*
X111627855Y-58498969D01*
X111627858Y-58498967D01*
X111632366Y-58495810D01*
X111795810Y-58332366D01*
X111928390Y-58143023D01*
X111930715Y-58138036D01*
X111930988Y-58137564D01*
X111982372Y-58088571D01*
X112052085Y-58075136D01*
X112117996Y-58101523D01*
X112150507Y-58142526D01*
X112151321Y-58142056D01*
X112154071Y-58146819D01*
X112156397Y-58151807D01*
X112159554Y-58156315D01*
X112285329Y-58335940D01*
X112290733Y-58343658D01*
X112456342Y-58509267D01*
X112460850Y-58512424D01*
X112460853Y-58512426D01*
X112540848Y-58568439D01*
X112648193Y-58643603D01*
X112653175Y-58645926D01*
X112653180Y-58645929D01*
X112843071Y-58734476D01*
X112860457Y-58742583D01*
X112865765Y-58744005D01*
X112865767Y-58744006D01*
X113081369Y-58801776D01*
X113081371Y-58801776D01*
X113086684Y-58803200D01*
X113320000Y-58823613D01*
X113553316Y-58803200D01*
X113558629Y-58801776D01*
X113558631Y-58801776D01*
X113774233Y-58744006D01*
X113774235Y-58744005D01*
X113779543Y-58742583D01*
X113796929Y-58734476D01*
X113986820Y-58645929D01*
X113986825Y-58645926D01*
X113991807Y-58643603D01*
X114099152Y-58568439D01*
X114179147Y-58512426D01*
X114179150Y-58512424D01*
X114183658Y-58509267D01*
X114349267Y-58343658D01*
X114354672Y-58335940D01*
X114480446Y-58156315D01*
X114483603Y-58151807D01*
X114484305Y-58152298D01*
X114532262Y-58106570D01*
X114601976Y-58093133D01*
X114667887Y-58119519D01*
X114696066Y-58152039D01*
X114696397Y-58151807D01*
X114699554Y-58156315D01*
X114825329Y-58335940D01*
X114830733Y-58343658D01*
X114996342Y-58509267D01*
X115000850Y-58512424D01*
X115000853Y-58512426D01*
X115080848Y-58568439D01*
X115188193Y-58643603D01*
X115193175Y-58645926D01*
X115193180Y-58645929D01*
X115383071Y-58734476D01*
X115400457Y-58742583D01*
X115405765Y-58744005D01*
X115405767Y-58744006D01*
X115621369Y-58801776D01*
X115621371Y-58801776D01*
X115626684Y-58803200D01*
X115860000Y-58823613D01*
X116093316Y-58803200D01*
X116098629Y-58801776D01*
X116098631Y-58801776D01*
X116314233Y-58744006D01*
X116314235Y-58744005D01*
X116319543Y-58742583D01*
X116336929Y-58734476D01*
X116526820Y-58645929D01*
X116526825Y-58645926D01*
X116531807Y-58643603D01*
X116639152Y-58568439D01*
X116719147Y-58512426D01*
X116719150Y-58512424D01*
X116723658Y-58509267D01*
X116889267Y-58343658D01*
X116894672Y-58335940D01*
X117020446Y-58156315D01*
X117023603Y-58151807D01*
X117024305Y-58152298D01*
X117072262Y-58106570D01*
X117141976Y-58093133D01*
X117207887Y-58119519D01*
X117236066Y-58152039D01*
X117236397Y-58151807D01*
X117239554Y-58156315D01*
X117365329Y-58335940D01*
X117370733Y-58343658D01*
X117536342Y-58509267D01*
X117540850Y-58512424D01*
X117540853Y-58512426D01*
X117620848Y-58568439D01*
X117728193Y-58643603D01*
X117733175Y-58645926D01*
X117733180Y-58645929D01*
X117923071Y-58734476D01*
X117940457Y-58742583D01*
X117945765Y-58744005D01*
X117945767Y-58744006D01*
X118161369Y-58801776D01*
X118161371Y-58801776D01*
X118166684Y-58803200D01*
X118400000Y-58823613D01*
X118633316Y-58803200D01*
X118638629Y-58801776D01*
X118638631Y-58801776D01*
X118854233Y-58744006D01*
X118854235Y-58744005D01*
X118859543Y-58742583D01*
X118876929Y-58734476D01*
X119066820Y-58645929D01*
X119066825Y-58645926D01*
X119071807Y-58643603D01*
X119179152Y-58568439D01*
X119259147Y-58512426D01*
X119259150Y-58512424D01*
X119263658Y-58509267D01*
X119429267Y-58343658D01*
X119434672Y-58335940D01*
X119560446Y-58156315D01*
X119563603Y-58151807D01*
X119564305Y-58152298D01*
X119612262Y-58106570D01*
X119681976Y-58093133D01*
X119747887Y-58119519D01*
X119776066Y-58152039D01*
X119776397Y-58151807D01*
X119779554Y-58156315D01*
X119905329Y-58335940D01*
X119910733Y-58343658D01*
X120076342Y-58509267D01*
X120080850Y-58512424D01*
X120080853Y-58512426D01*
X120160848Y-58568439D01*
X120268193Y-58643603D01*
X120273175Y-58645926D01*
X120273180Y-58645929D01*
X120463071Y-58734476D01*
X120480457Y-58742583D01*
X120485765Y-58744005D01*
X120485767Y-58744006D01*
X120485771Y-58744007D01*
X120661765Y-58791164D01*
X120722386Y-58828114D01*
X120753407Y-58891975D01*
X120744979Y-58962469D01*
X120718247Y-59001965D01*
X119328266Y-60391945D01*
X117965805Y-61754406D01*
X117957519Y-61761946D01*
X117951040Y-61766058D01*
X117945615Y-61771835D01*
X117904415Y-61815709D01*
X117901660Y-61818551D01*
X117881923Y-61838288D01*
X117879443Y-61841485D01*
X117871740Y-61850505D01*
X117841472Y-61882737D01*
X117837653Y-61889683D01*
X117837651Y-61889686D01*
X117831710Y-61900492D01*
X117820859Y-61917011D01*
X117808444Y-61933017D01*
X117805299Y-61940286D01*
X117805296Y-61940290D01*
X117790884Y-61973595D01*
X117785667Y-61984245D01*
X117764363Y-62022998D01*
X117762392Y-62030673D01*
X117762392Y-62030674D01*
X117759325Y-62042620D01*
X117752921Y-62061324D01*
X117744877Y-62079913D01*
X117743638Y-62087736D01*
X117743635Y-62087746D01*
X117737959Y-62123582D01*
X117735553Y-62135202D01*
X117724558Y-62178028D01*
X117724558Y-62198282D01*
X117723007Y-62217992D01*
X117719838Y-62238001D01*
X117720584Y-62245893D01*
X117723999Y-62282019D01*
X117724558Y-62293877D01*
X117724558Y-65077348D01*
X117704556Y-65145469D01*
X117687653Y-65166443D01*
X116250000Y-66604095D01*
X116187688Y-66638121D01*
X116160905Y-66641000D01*
X115782479Y-66641000D01*
X115714358Y-66620998D01*
X115667865Y-66567342D01*
X115657761Y-66497068D01*
X115673360Y-66452000D01*
X115731223Y-66351779D01*
X115731224Y-66351778D01*
X115734527Y-66346056D01*
X115793542Y-66164428D01*
X115813504Y-65974500D01*
X115802137Y-65866352D01*
X115794232Y-65791135D01*
X115794232Y-65791133D01*
X115793542Y-65784572D01*
X115734527Y-65602944D01*
X115731223Y-65597221D01*
X115642746Y-65443974D01*
X115626008Y-65374978D01*
X115649229Y-65307887D01*
X115658229Y-65296663D01*
X115684621Y-65267352D01*
X115684622Y-65267351D01*
X115689040Y-65262444D01*
X115763260Y-65133891D01*
X115781223Y-65102779D01*
X115781224Y-65102778D01*
X115784527Y-65097056D01*
X115843542Y-64915428D01*
X115863504Y-64725500D01*
X115853756Y-64632749D01*
X115844232Y-64542135D01*
X115844232Y-64542133D01*
X115843542Y-64535572D01*
X115784527Y-64353944D01*
X115689040Y-64188556D01*
X115561253Y-64046634D01*
X115428248Y-63950000D01*
X115412094Y-63938263D01*
X115412093Y-63938262D01*
X115406752Y-63934382D01*
X115400724Y-63931698D01*
X115400722Y-63931697D01*
X115238319Y-63859391D01*
X115238318Y-63859391D01*
X115232288Y-63856706D01*
X115138888Y-63836853D01*
X115051944Y-63818372D01*
X115051939Y-63818372D01*
X115045487Y-63817000D01*
X114854513Y-63817000D01*
X114848061Y-63818372D01*
X114848056Y-63818372D01*
X114761112Y-63836853D01*
X114667712Y-63856706D01*
X114661682Y-63859391D01*
X114661681Y-63859391D01*
X114499278Y-63931697D01*
X114499276Y-63931698D01*
X114493248Y-63934382D01*
X114487907Y-63938262D01*
X114487906Y-63938263D01*
X114471752Y-63950000D01*
X114338747Y-64046634D01*
X114210960Y-64188556D01*
X114115473Y-64353944D01*
X114056458Y-64535572D01*
X114055768Y-64542133D01*
X114055768Y-64542135D01*
X114046244Y-64632749D01*
X114036496Y-64725500D01*
X114056458Y-64915428D01*
X114115473Y-65097056D01*
X114118776Y-65102778D01*
X114118777Y-65102779D01*
X114207254Y-65256026D01*
X114223992Y-65325022D01*
X114200771Y-65392113D01*
X114191771Y-65403337D01*
X114160960Y-65437556D01*
X114157657Y-65443277D01*
X114073711Y-65588676D01*
X114065473Y-65602944D01*
X114006458Y-65784572D01*
X114005768Y-65791133D01*
X114005768Y-65791135D01*
X113997863Y-65866352D01*
X113986496Y-65974500D01*
X114006458Y-66164428D01*
X114065473Y-66346056D01*
X114065621Y-66346312D01*
X114074743Y-66414360D01*
X114044635Y-66478656D01*
X114024263Y-66497175D01*
X113962771Y-66541852D01*
X113888747Y-66595634D01*
X113884326Y-66600544D01*
X113884325Y-66600545D01*
X113813805Y-66678866D01*
X113760960Y-66737556D01*
X113757659Y-66743274D01*
X113685190Y-66868794D01*
X113665473Y-66902944D01*
X113606458Y-67084572D01*
X113586496Y-67274500D01*
X113606458Y-67464428D01*
X113665473Y-67646056D01*
X113760960Y-67811444D01*
X113765378Y-67816351D01*
X113765379Y-67816352D01*
X113847452Y-67907503D01*
X113888747Y-67953366D01*
X114043248Y-68065618D01*
X114049276Y-68068302D01*
X114049278Y-68068303D01*
X114211681Y-68140609D01*
X114217712Y-68143294D01*
X114311113Y-68163147D01*
X114398056Y-68181628D01*
X114398061Y-68181628D01*
X114404513Y-68183000D01*
X114595487Y-68183000D01*
X114601939Y-68181628D01*
X114601944Y-68181628D01*
X114688887Y-68163147D01*
X114782288Y-68143294D01*
X114788319Y-68140609D01*
X114950722Y-68068303D01*
X114950724Y-68068302D01*
X114956752Y-68065618D01*
X115111253Y-67953366D01*
X115115668Y-67948463D01*
X115120580Y-67944040D01*
X115121705Y-67945289D01*
X115175014Y-67912449D01*
X115208200Y-67908000D01*
X116396733Y-67908000D01*
X116407916Y-67908527D01*
X116415409Y-67910202D01*
X116423335Y-67909953D01*
X116423336Y-67909953D01*
X116483486Y-67908062D01*
X116487445Y-67908000D01*
X116515356Y-67908000D01*
X116519291Y-67907503D01*
X116519356Y-67907495D01*
X116531193Y-67906562D01*
X116563451Y-67905548D01*
X116567470Y-67905422D01*
X116575389Y-67905173D01*
X116594843Y-67899521D01*
X116614200Y-67895513D01*
X116626430Y-67893968D01*
X116626431Y-67893968D01*
X116634297Y-67892974D01*
X116641668Y-67890055D01*
X116641670Y-67890055D01*
X116675412Y-67876696D01*
X116686642Y-67872851D01*
X116721483Y-67862729D01*
X116721484Y-67862729D01*
X116729093Y-67860518D01*
X116735912Y-67856485D01*
X116735917Y-67856483D01*
X116746528Y-67850207D01*
X116764276Y-67841512D01*
X116783117Y-67834052D01*
X116818887Y-67808064D01*
X116828807Y-67801548D01*
X116860035Y-67783080D01*
X116860038Y-67783078D01*
X116866862Y-67779042D01*
X116881183Y-67764721D01*
X116896217Y-67751880D01*
X116906194Y-67744631D01*
X116912607Y-67739972D01*
X116940798Y-67705895D01*
X116948788Y-67697116D01*
X118750311Y-65895594D01*
X118758597Y-65888054D01*
X118765076Y-65883942D01*
X118811702Y-65834290D01*
X118814456Y-65831449D01*
X118834193Y-65811712D01*
X118836673Y-65808515D01*
X118844378Y-65799493D01*
X118869217Y-65773042D01*
X118874644Y-65767263D01*
X118878463Y-65760317D01*
X118878465Y-65760314D01*
X118884406Y-65749508D01*
X118895257Y-65732989D01*
X118902816Y-65723243D01*
X118907672Y-65716983D01*
X118910817Y-65709714D01*
X118910820Y-65709710D01*
X118925232Y-65676405D01*
X118930449Y-65665755D01*
X118951753Y-65627002D01*
X118956791Y-65607379D01*
X118963195Y-65588676D01*
X118968091Y-65577362D01*
X118968091Y-65577361D01*
X118971239Y-65570087D01*
X118972478Y-65562264D01*
X118972481Y-65562254D01*
X118978157Y-65526418D01*
X118980563Y-65514798D01*
X118989586Y-65479653D01*
X118989586Y-65479652D01*
X118991558Y-65471972D01*
X118991558Y-65451718D01*
X118993109Y-65432007D01*
X118995038Y-65419828D01*
X118996278Y-65411999D01*
X118992117Y-65367980D01*
X118991558Y-65356123D01*
X118991558Y-62572652D01*
X119011560Y-62504531D01*
X119028463Y-62483557D01*
X121841115Y-59670905D01*
X121903427Y-59636879D01*
X121930210Y-59634000D01*
X128071233Y-59634000D01*
X128082416Y-59634527D01*
X128089909Y-59636202D01*
X128097835Y-59635953D01*
X128097836Y-59635953D01*
X128157986Y-59634062D01*
X128161945Y-59634000D01*
X128189856Y-59634000D01*
X128193791Y-59633503D01*
X128193856Y-59633495D01*
X128205693Y-59632562D01*
X128237951Y-59631548D01*
X128241970Y-59631422D01*
X128249889Y-59631173D01*
X128269343Y-59625521D01*
X128288700Y-59621513D01*
X128300930Y-59619968D01*
X128300931Y-59619968D01*
X128308797Y-59618974D01*
X128316168Y-59616055D01*
X128316170Y-59616055D01*
X128349912Y-59602696D01*
X128361142Y-59598851D01*
X128395983Y-59588729D01*
X128395984Y-59588729D01*
X128403593Y-59586518D01*
X128410412Y-59582485D01*
X128410417Y-59582483D01*
X128421028Y-59576207D01*
X128438776Y-59567512D01*
X128457617Y-59560052D01*
X128493387Y-59534064D01*
X128503307Y-59527548D01*
X128534535Y-59509080D01*
X128534538Y-59509078D01*
X128541362Y-59505042D01*
X128555683Y-59490721D01*
X128570717Y-59477880D01*
X128571188Y-59477538D01*
X128587107Y-59465972D01*
X128615298Y-59431895D01*
X128623288Y-59423116D01*
X128942747Y-59103657D01*
X128951037Y-59096113D01*
X128957518Y-59092000D01*
X129004159Y-59042332D01*
X129006913Y-59039491D01*
X129026635Y-59019769D01*
X129029112Y-59016576D01*
X129036817Y-59007555D01*
X129061659Y-58981100D01*
X129067086Y-58975321D01*
X129070907Y-58968371D01*
X129076846Y-58957568D01*
X129087702Y-58941041D01*
X129095257Y-58931302D01*
X129095258Y-58931300D01*
X129100114Y-58925040D01*
X129117674Y-58884460D01*
X129122891Y-58873812D01*
X129140375Y-58842009D01*
X129140376Y-58842007D01*
X129144195Y-58835060D01*
X129149233Y-58815437D01*
X129155637Y-58796734D01*
X129160533Y-58785420D01*
X129160533Y-58785419D01*
X129163681Y-58778145D01*
X129164920Y-58770322D01*
X129164923Y-58770312D01*
X129170599Y-58734476D01*
X129173006Y-58722854D01*
X129180022Y-58695529D01*
X129216337Y-58634522D01*
X129229792Y-58623651D01*
X129407855Y-58498969D01*
X129407858Y-58498967D01*
X129412366Y-58495810D01*
X129575810Y-58332366D01*
X129708390Y-58143023D01*
X129710715Y-58138036D01*
X129710988Y-58137564D01*
X129762372Y-58088571D01*
X129832085Y-58075136D01*
X129897996Y-58101523D01*
X129930507Y-58142526D01*
X129931321Y-58142056D01*
X129934071Y-58146819D01*
X129936397Y-58151807D01*
X129939554Y-58156315D01*
X130065329Y-58335940D01*
X130070733Y-58343658D01*
X130236342Y-58509267D01*
X130240850Y-58512424D01*
X130240853Y-58512426D01*
X130320848Y-58568439D01*
X130428193Y-58643603D01*
X130433175Y-58645926D01*
X130433180Y-58645929D01*
X130623071Y-58734476D01*
X130640457Y-58742583D01*
X130645765Y-58744005D01*
X130645767Y-58744006D01*
X130861369Y-58801776D01*
X130861371Y-58801776D01*
X130866684Y-58803200D01*
X131100000Y-58823613D01*
X131333316Y-58803200D01*
X131338629Y-58801776D01*
X131338631Y-58801776D01*
X131554233Y-58744006D01*
X131554235Y-58744005D01*
X131559543Y-58742583D01*
X131576929Y-58734476D01*
X131766820Y-58645929D01*
X131766825Y-58645926D01*
X131771807Y-58643603D01*
X131879152Y-58568439D01*
X131959147Y-58512426D01*
X131959150Y-58512424D01*
X131963658Y-58509267D01*
X132129267Y-58343658D01*
X132134672Y-58335940D01*
X132260446Y-58156315D01*
X132263603Y-58151807D01*
X132265926Y-58146825D01*
X132265929Y-58146820D01*
X132360260Y-57944525D01*
X132360260Y-57944524D01*
X132362583Y-57939543D01*
X132423200Y-57713316D01*
X132443613Y-57480000D01*
X132423200Y-57246684D01*
X132417658Y-57226000D01*
X132368914Y-57044084D01*
X132370604Y-56973107D01*
X132410398Y-56914312D01*
X132479639Y-56885952D01*
X132594698Y-56875885D01*
X132605493Y-56873982D01*
X132818053Y-56817027D01*
X132828345Y-56813281D01*
X133027785Y-56720281D01*
X133037281Y-56714798D01*
X133217532Y-56588585D01*
X133225940Y-56581529D01*
X133381529Y-56425940D01*
X133388585Y-56417532D01*
X133514798Y-56237281D01*
X133520281Y-56227785D01*
X133613281Y-56028345D01*
X133617027Y-56018053D01*
X133664335Y-55841497D01*
X133663999Y-55827401D01*
X133656057Y-55824000D01*
X132242000Y-55824000D01*
X132173879Y-55803998D01*
X132127386Y-55750342D01*
X132116000Y-55698000D01*
X132116000Y-55442000D01*
X132136002Y-55373879D01*
X132189658Y-55327386D01*
X132242000Y-55316000D01*
X133650908Y-55316000D01*
X133664439Y-55312027D01*
X133665668Y-55303478D01*
X133617027Y-55121947D01*
X133613281Y-55111655D01*
X133520281Y-54912215D01*
X133514798Y-54902719D01*
X133388585Y-54722468D01*
X133381529Y-54714060D01*
X133225940Y-54558471D01*
X133217532Y-54551415D01*
X133037281Y-54425202D01*
X133027785Y-54419719D01*
X132828345Y-54326719D01*
X132818053Y-54322973D01*
X132605493Y-54266018D01*
X132594698Y-54264115D01*
X132479639Y-54254048D01*
X132413521Y-54228184D01*
X132371882Y-54170681D01*
X132368914Y-54095916D01*
X132421776Y-53898631D01*
X132421776Y-53898629D01*
X132423200Y-53893316D01*
X132443613Y-53660000D01*
X132423200Y-53426684D01*
X132417658Y-53406000D01*
X132368914Y-53224084D01*
X132370604Y-53153107D01*
X132410398Y-53094312D01*
X132479639Y-53065952D01*
X132594698Y-53055885D01*
X132605493Y-53053982D01*
X132818053Y-52997027D01*
X132828345Y-52993281D01*
X133027785Y-52900281D01*
X133037281Y-52894798D01*
X133217532Y-52768585D01*
X133225940Y-52761529D01*
X133381529Y-52605940D01*
X133388585Y-52597532D01*
X133514798Y-52417281D01*
X133520281Y-52407785D01*
X133613281Y-52208345D01*
X133617027Y-52198053D01*
X133664335Y-52021497D01*
X133663999Y-52007401D01*
X133656057Y-52004000D01*
X132242000Y-52004000D01*
X132173879Y-51983998D01*
X132127386Y-51930342D01*
X132116000Y-51878000D01*
X132116000Y-51477885D01*
X132624000Y-51477885D01*
X132628475Y-51493124D01*
X132629865Y-51494329D01*
X132637548Y-51496000D01*
X133650908Y-51496000D01*
X133664439Y-51492027D01*
X133665668Y-51483478D01*
X133617027Y-51301947D01*
X133613281Y-51291655D01*
X133520281Y-51092215D01*
X133514798Y-51082719D01*
X133388585Y-50902468D01*
X133381529Y-50894060D01*
X133225940Y-50738471D01*
X133217532Y-50731415D01*
X133037281Y-50605202D01*
X133027785Y-50599719D01*
X132828345Y-50506719D01*
X132818053Y-50502973D01*
X132641497Y-50455665D01*
X132627401Y-50456001D01*
X132624000Y-50463943D01*
X132624000Y-51477885D01*
X132116000Y-51477885D01*
X132116000Y-50469092D01*
X132112027Y-50455561D01*
X132103478Y-50454332D01*
X131921947Y-50502973D01*
X131911655Y-50506719D01*
X131712215Y-50599719D01*
X131702719Y-50605202D01*
X131522468Y-50731415D01*
X131514060Y-50738471D01*
X131358471Y-50894060D01*
X131351415Y-50902468D01*
X131225202Y-51082719D01*
X131219271Y-51092992D01*
X131167888Y-51141985D01*
X131098174Y-51155420D01*
X131032263Y-51129033D01*
X130999368Y-51087547D01*
X130998679Y-51087945D01*
X130995987Y-51083283D01*
X130995962Y-51083251D01*
X130995933Y-51083189D01*
X130995928Y-51083181D01*
X130993603Y-51078194D01*
X130990447Y-51073687D01*
X130990446Y-51073685D01*
X130862426Y-50890853D01*
X130862424Y-50890850D01*
X130859267Y-50886342D01*
X130693658Y-50720733D01*
X130689150Y-50717576D01*
X130689147Y-50717574D01*
X130564235Y-50630110D01*
X130501807Y-50586397D01*
X130496825Y-50584074D01*
X130496820Y-50584071D01*
X130294525Y-50489740D01*
X130294524Y-50489740D01*
X130289543Y-50487417D01*
X130284235Y-50485995D01*
X130284233Y-50485994D01*
X130068631Y-50428224D01*
X130068629Y-50428224D01*
X130063316Y-50426800D01*
X129830000Y-50406387D01*
X129596684Y-50426800D01*
X129591371Y-50428224D01*
X129591369Y-50428224D01*
X129375767Y-50485994D01*
X129375765Y-50485995D01*
X129370457Y-50487417D01*
X129365476Y-50489739D01*
X129365475Y-50489740D01*
X129163181Y-50584071D01*
X129163176Y-50584074D01*
X129158194Y-50586397D01*
X129153687Y-50589553D01*
X129153685Y-50589554D01*
X128970853Y-50717574D01*
X128970850Y-50717576D01*
X128966342Y-50720733D01*
X128800733Y-50886342D01*
X128797576Y-50890850D01*
X128797574Y-50890853D01*
X128789441Y-50902468D01*
X128666397Y-51078194D01*
X128665695Y-51077703D01*
X128617738Y-51123431D01*
X128548024Y-51136868D01*
X128482113Y-51110482D01*
X128453934Y-51077962D01*
X128453603Y-51078194D01*
X128451361Y-51074992D01*
X128330559Y-50902468D01*
X128322426Y-50890853D01*
X128322424Y-50890850D01*
X128319267Y-50886342D01*
X128153658Y-50720733D01*
X128149150Y-50717576D01*
X128149147Y-50717574D01*
X128024235Y-50630110D01*
X127961807Y-50586397D01*
X127956825Y-50584074D01*
X127956820Y-50584071D01*
X127754525Y-50489740D01*
X127754524Y-50489740D01*
X127749543Y-50487417D01*
X127744235Y-50485995D01*
X127744233Y-50485994D01*
X127528631Y-50428224D01*
X127528629Y-50428224D01*
X127523316Y-50426800D01*
X127290000Y-50406387D01*
X127056684Y-50426800D01*
X127051371Y-50428224D01*
X127051369Y-50428224D01*
X126835767Y-50485994D01*
X126835765Y-50485995D01*
X126830457Y-50487417D01*
X126825476Y-50489739D01*
X126825475Y-50489740D01*
X126623181Y-50584071D01*
X126623176Y-50584074D01*
X126618194Y-50586397D01*
X126613687Y-50589553D01*
X126613685Y-50589554D01*
X126430853Y-50717574D01*
X126430850Y-50717576D01*
X126426342Y-50720733D01*
X126260733Y-50886342D01*
X126257576Y-50890850D01*
X126257574Y-50890853D01*
X126249441Y-50902468D01*
X126126397Y-51078194D01*
X126125695Y-51077703D01*
X126077738Y-51123431D01*
X126008024Y-51136868D01*
X125942113Y-51110482D01*
X125913934Y-51077962D01*
X125913603Y-51078194D01*
X125911361Y-51074992D01*
X125790559Y-50902468D01*
X125782426Y-50890853D01*
X125782424Y-50890850D01*
X125779267Y-50886342D01*
X125613658Y-50720733D01*
X125609150Y-50717576D01*
X125609147Y-50717574D01*
X125484235Y-50630110D01*
X125421807Y-50586397D01*
X125416825Y-50584074D01*
X125416820Y-50584071D01*
X125214525Y-50489740D01*
X125214524Y-50489740D01*
X125209543Y-50487417D01*
X125204235Y-50485995D01*
X125204233Y-50485994D01*
X124988631Y-50428224D01*
X124988629Y-50428224D01*
X124983316Y-50426800D01*
X124750000Y-50406387D01*
X124516684Y-50426800D01*
X124511371Y-50428224D01*
X124511369Y-50428224D01*
X124295767Y-50485994D01*
X124295765Y-50485995D01*
X124290457Y-50487417D01*
X124285476Y-50489739D01*
X124285475Y-50489740D01*
X124083181Y-50584071D01*
X124083176Y-50584074D01*
X124078194Y-50586397D01*
X124073687Y-50589553D01*
X124073685Y-50589554D01*
X123890853Y-50717574D01*
X123890850Y-50717576D01*
X123886342Y-50720733D01*
X123720733Y-50886342D01*
X123717576Y-50890850D01*
X123717574Y-50890853D01*
X123709441Y-50902468D01*
X123586397Y-51078194D01*
X123585695Y-51077703D01*
X123537738Y-51123431D01*
X123468024Y-51136868D01*
X123402113Y-51110482D01*
X123373934Y-51077962D01*
X123373603Y-51078194D01*
X123371361Y-51074992D01*
X123250559Y-50902468D01*
X123242426Y-50890853D01*
X123242424Y-50890850D01*
X123239267Y-50886342D01*
X123073658Y-50720733D01*
X123069150Y-50717576D01*
X123069147Y-50717574D01*
X122944235Y-50630110D01*
X122881807Y-50586397D01*
X122876825Y-50584074D01*
X122876820Y-50584071D01*
X122674525Y-50489740D01*
X122674524Y-50489740D01*
X122669543Y-50487417D01*
X122664235Y-50485995D01*
X122664233Y-50485994D01*
X122448631Y-50428224D01*
X122448629Y-50428224D01*
X122443316Y-50426800D01*
X122210000Y-50406387D01*
X121976684Y-50426800D01*
X121971371Y-50428224D01*
X121971369Y-50428224D01*
X121755767Y-50485994D01*
X121755765Y-50485995D01*
X121750457Y-50487417D01*
X121745476Y-50489739D01*
X121745475Y-50489740D01*
X121543181Y-50584071D01*
X121543176Y-50584074D01*
X121538194Y-50586397D01*
X121533687Y-50589553D01*
X121533685Y-50589554D01*
X121350853Y-50717574D01*
X121350850Y-50717576D01*
X121346342Y-50720733D01*
X121180733Y-50886342D01*
X121177576Y-50890850D01*
X121177574Y-50890853D01*
X121169441Y-50902468D01*
X121046397Y-51078194D01*
X121045695Y-51077703D01*
X120997738Y-51123431D01*
X120928024Y-51136868D01*
X120862113Y-51110482D01*
X120833934Y-51077962D01*
X120833603Y-51078194D01*
X120831361Y-51074992D01*
X120710559Y-50902468D01*
X120702426Y-50890853D01*
X120702424Y-50890850D01*
X120699267Y-50886342D01*
X120533658Y-50720733D01*
X120529150Y-50717576D01*
X120529147Y-50717574D01*
X120404235Y-50630110D01*
X120341807Y-50586397D01*
X120336825Y-50584074D01*
X120336820Y-50584071D01*
X120134525Y-50489740D01*
X120134524Y-50489740D01*
X120129543Y-50487417D01*
X120124235Y-50485995D01*
X120124233Y-50485994D01*
X119908631Y-50428224D01*
X119908629Y-50428224D01*
X119903316Y-50426800D01*
X119670000Y-50406387D01*
X119436684Y-50426800D01*
X119431371Y-50428224D01*
X119431369Y-50428224D01*
X119215767Y-50485994D01*
X119215765Y-50485995D01*
X119210457Y-50487417D01*
X119205476Y-50489739D01*
X119205475Y-50489740D01*
X119003181Y-50584071D01*
X119003176Y-50584074D01*
X118998194Y-50586397D01*
X118993687Y-50589553D01*
X118993685Y-50589554D01*
X118810853Y-50717574D01*
X118810850Y-50717576D01*
X118806342Y-50720733D01*
X118640733Y-50886342D01*
X118637576Y-50890850D01*
X118637574Y-50890853D01*
X118629441Y-50902468D01*
X118506397Y-51078194D01*
X118505695Y-51077703D01*
X118457738Y-51123431D01*
X118388024Y-51136868D01*
X118322113Y-51110482D01*
X118293934Y-51077962D01*
X118293603Y-51078194D01*
X118291361Y-51074992D01*
X118170559Y-50902468D01*
X118162426Y-50890853D01*
X118162424Y-50890850D01*
X118159267Y-50886342D01*
X117993658Y-50720733D01*
X117989150Y-50717576D01*
X117989147Y-50717574D01*
X117864235Y-50630110D01*
X117801807Y-50586397D01*
X117796825Y-50584074D01*
X117796820Y-50584071D01*
X117594525Y-50489740D01*
X117594524Y-50489740D01*
X117589543Y-50487417D01*
X117584235Y-50485995D01*
X117584233Y-50485994D01*
X117368631Y-50428224D01*
X117368629Y-50428224D01*
X117363316Y-50426800D01*
X117130000Y-50406387D01*
X116896684Y-50426800D01*
X116891371Y-50428224D01*
X116891369Y-50428224D01*
X116675767Y-50485994D01*
X116675765Y-50485995D01*
X116670457Y-50487417D01*
X116665476Y-50489739D01*
X116665475Y-50489740D01*
X116463181Y-50584071D01*
X116463176Y-50584074D01*
X116458194Y-50586397D01*
X116453687Y-50589553D01*
X116453685Y-50589554D01*
X116270853Y-50717574D01*
X116270850Y-50717576D01*
X116266342Y-50720733D01*
X116100733Y-50886342D01*
X116097576Y-50890850D01*
X116097574Y-50890853D01*
X116089441Y-50902468D01*
X115966397Y-51078194D01*
X115965695Y-51077703D01*
X115917738Y-51123431D01*
X115848024Y-51136868D01*
X115782113Y-51110482D01*
X115753934Y-51077962D01*
X115753603Y-51078194D01*
X115751361Y-51074992D01*
X115630559Y-50902468D01*
X115622426Y-50890853D01*
X115622424Y-50890850D01*
X115619267Y-50886342D01*
X115453658Y-50720733D01*
X115449150Y-50717576D01*
X115449147Y-50717574D01*
X115324235Y-50630110D01*
X115261807Y-50586397D01*
X115256825Y-50584074D01*
X115256820Y-50584071D01*
X115054525Y-50489740D01*
X115054524Y-50489740D01*
X115049543Y-50487417D01*
X115044235Y-50485995D01*
X115044233Y-50485994D01*
X114828631Y-50428224D01*
X114828629Y-50428224D01*
X114823316Y-50426800D01*
X114590000Y-50406387D01*
X114356684Y-50426800D01*
X114351371Y-50428224D01*
X114351369Y-50428224D01*
X114135767Y-50485994D01*
X114135765Y-50485995D01*
X114130457Y-50487417D01*
X114125476Y-50489739D01*
X114125475Y-50489740D01*
X113923181Y-50584071D01*
X113923176Y-50584074D01*
X113918194Y-50586397D01*
X113913687Y-50589553D01*
X113913685Y-50589554D01*
X113730853Y-50717574D01*
X113730850Y-50717576D01*
X113726342Y-50720733D01*
X113560733Y-50886342D01*
X113557576Y-50890850D01*
X113557574Y-50890853D01*
X113549441Y-50902468D01*
X113426397Y-51078194D01*
X113425695Y-51077703D01*
X113377738Y-51123431D01*
X113308024Y-51136868D01*
X113242113Y-51110482D01*
X113213934Y-51077962D01*
X113213603Y-51078194D01*
X113211361Y-51074992D01*
X113090559Y-50902468D01*
X113082426Y-50890853D01*
X113082424Y-50890850D01*
X113079267Y-50886342D01*
X112913658Y-50720733D01*
X112909150Y-50717576D01*
X112909147Y-50717574D01*
X112784235Y-50630110D01*
X112721807Y-50586397D01*
X112716825Y-50584074D01*
X112716820Y-50584071D01*
X112514525Y-50489740D01*
X112514524Y-50489740D01*
X112509543Y-50487417D01*
X112504235Y-50485995D01*
X112504233Y-50485994D01*
X112288631Y-50428224D01*
X112288629Y-50428224D01*
X112283316Y-50426800D01*
X112050000Y-50406387D01*
X111816684Y-50426800D01*
X111811371Y-50428224D01*
X111811369Y-50428224D01*
X111595767Y-50485994D01*
X111595765Y-50485995D01*
X111590457Y-50487417D01*
X111585476Y-50489739D01*
X111585475Y-50489740D01*
X111383181Y-50584071D01*
X111383176Y-50584074D01*
X111378194Y-50586397D01*
X111373687Y-50589553D01*
X111373685Y-50589554D01*
X111190853Y-50717574D01*
X111190850Y-50717576D01*
X111186342Y-50720733D01*
X111020733Y-50886342D01*
X111017576Y-50890850D01*
X111017574Y-50890853D01*
X111009441Y-50902468D01*
X110886397Y-51078194D01*
X110885695Y-51077703D01*
X110837738Y-51123431D01*
X110768024Y-51136868D01*
X110702113Y-51110482D01*
X110673934Y-51077962D01*
X110673603Y-51078194D01*
X110671361Y-51074992D01*
X110550559Y-50902468D01*
X110542426Y-50890853D01*
X110542424Y-50890850D01*
X110539267Y-50886342D01*
X110373658Y-50720733D01*
X110369150Y-50717576D01*
X110369147Y-50717574D01*
X110244235Y-50630110D01*
X110181807Y-50586397D01*
X110176825Y-50584074D01*
X110176820Y-50584071D01*
X109974525Y-50489740D01*
X109974524Y-50489740D01*
X109969543Y-50487417D01*
X109964235Y-50485995D01*
X109964233Y-50485994D01*
X109748631Y-50428224D01*
X109748629Y-50428224D01*
X109743316Y-50426800D01*
X109510000Y-50406387D01*
X109276684Y-50426800D01*
X109271371Y-50428224D01*
X109271369Y-50428224D01*
X109055767Y-50485994D01*
X109055765Y-50485995D01*
X109050457Y-50487417D01*
X109045476Y-50489739D01*
X109045475Y-50489740D01*
X108843181Y-50584071D01*
X108843176Y-50584074D01*
X108838194Y-50586397D01*
X108833687Y-50589553D01*
X108833685Y-50589554D01*
X108650853Y-50717574D01*
X108650850Y-50717576D01*
X108646342Y-50720733D01*
X108480733Y-50886342D01*
X108477576Y-50890850D01*
X108477574Y-50890853D01*
X108469441Y-50902468D01*
X108346397Y-51078194D01*
X108345695Y-51077703D01*
X108297738Y-51123431D01*
X108228024Y-51136868D01*
X108162113Y-51110482D01*
X108133934Y-51077962D01*
X108133603Y-51078194D01*
X108131361Y-51074992D01*
X108010559Y-50902468D01*
X108002426Y-50890853D01*
X108002424Y-50890850D01*
X107999267Y-50886342D01*
X107833658Y-50720733D01*
X107829150Y-50717576D01*
X107829147Y-50717574D01*
X107704235Y-50630110D01*
X107641807Y-50586397D01*
X107636825Y-50584074D01*
X107636820Y-50584071D01*
X107434525Y-50489740D01*
X107434524Y-50489740D01*
X107429543Y-50487417D01*
X107424235Y-50485995D01*
X107424233Y-50485994D01*
X107208631Y-50428224D01*
X107208629Y-50428224D01*
X107203316Y-50426800D01*
X106970000Y-50406387D01*
X106736684Y-50426800D01*
X106731371Y-50428224D01*
X106731369Y-50428224D01*
X106515767Y-50485994D01*
X106515765Y-50485995D01*
X106510457Y-50487417D01*
X106505476Y-50489739D01*
X106505475Y-50489740D01*
X106303181Y-50584071D01*
X106303176Y-50584074D01*
X106298194Y-50586397D01*
X106293687Y-50589553D01*
X106293685Y-50589554D01*
X106110853Y-50717574D01*
X106110850Y-50717576D01*
X106106342Y-50720733D01*
X105940733Y-50886342D01*
X105937576Y-50890850D01*
X105937574Y-50890853D01*
X105929441Y-50902468D01*
X105806397Y-51078194D01*
X105805695Y-51077703D01*
X105757738Y-51123431D01*
X105688024Y-51136868D01*
X105622113Y-51110482D01*
X105593934Y-51077962D01*
X105593603Y-51078194D01*
X105591361Y-51074992D01*
X105470559Y-50902468D01*
X105462426Y-50890853D01*
X105462424Y-50890850D01*
X105459267Y-50886342D01*
X105293658Y-50720733D01*
X105289150Y-50717576D01*
X105289147Y-50717574D01*
X105164235Y-50630110D01*
X105101807Y-50586397D01*
X105096825Y-50584074D01*
X105096820Y-50584071D01*
X104894525Y-50489740D01*
X104894524Y-50489740D01*
X104889543Y-50487417D01*
X104884235Y-50485995D01*
X104884233Y-50485994D01*
X104668631Y-50428224D01*
X104668629Y-50428224D01*
X104663316Y-50426800D01*
X104430000Y-50406387D01*
X104196684Y-50426800D01*
X104191371Y-50428224D01*
X104191369Y-50428224D01*
X103975767Y-50485994D01*
X103975765Y-50485995D01*
X103970457Y-50487417D01*
X103965476Y-50489739D01*
X103965475Y-50489740D01*
X103763181Y-50584071D01*
X103763176Y-50584074D01*
X103758194Y-50586397D01*
X103753687Y-50589553D01*
X103753685Y-50589554D01*
X103570853Y-50717574D01*
X103570850Y-50717576D01*
X103566342Y-50720733D01*
X103400733Y-50886342D01*
X103397576Y-50890850D01*
X103397574Y-50890853D01*
X103389441Y-50902468D01*
X103266397Y-51078194D01*
X103265695Y-51077703D01*
X103217738Y-51123431D01*
X103148024Y-51136868D01*
X103082113Y-51110482D01*
X103053934Y-51077962D01*
X103053603Y-51078194D01*
X103051361Y-51074992D01*
X102930559Y-50902468D01*
X102922426Y-50890853D01*
X102922424Y-50890850D01*
X102919267Y-50886342D01*
X102753658Y-50720733D01*
X102749150Y-50717576D01*
X102749147Y-50717574D01*
X102624235Y-50630110D01*
X102561807Y-50586397D01*
X102556825Y-50584074D01*
X102556820Y-50584071D01*
X102354525Y-50489740D01*
X102354524Y-50489740D01*
X102349543Y-50487417D01*
X102344235Y-50485995D01*
X102344233Y-50485994D01*
X102128631Y-50428224D01*
X102128629Y-50428224D01*
X102123316Y-50426800D01*
X101890000Y-50406387D01*
X101656684Y-50426800D01*
X101651371Y-50428224D01*
X101651369Y-50428224D01*
X101435767Y-50485994D01*
X101435765Y-50485995D01*
X101430457Y-50487417D01*
X101425476Y-50489739D01*
X101425475Y-50489740D01*
X101223181Y-50584071D01*
X101223176Y-50584074D01*
X101218194Y-50586397D01*
X101213687Y-50589553D01*
X101213685Y-50589554D01*
X101030853Y-50717574D01*
X101030850Y-50717576D01*
X101026342Y-50720733D01*
X100860733Y-50886342D01*
X100857576Y-50890850D01*
X100857574Y-50890853D01*
X100849441Y-50902468D01*
X100726397Y-51078194D01*
X100725695Y-51077703D01*
X100677738Y-51123431D01*
X100608024Y-51136868D01*
X100542113Y-51110482D01*
X100513934Y-51077962D01*
X100513603Y-51078194D01*
X100511361Y-51074992D01*
X100390559Y-50902468D01*
X100382426Y-50890853D01*
X100382424Y-50890850D01*
X100379267Y-50886342D01*
X100213658Y-50720733D01*
X100209150Y-50717576D01*
X100209147Y-50717574D01*
X100084235Y-50630110D01*
X100021807Y-50586397D01*
X100016825Y-50584074D01*
X100016820Y-50584071D01*
X99814525Y-50489740D01*
X99814524Y-50489740D01*
X99809543Y-50487417D01*
X99804235Y-50485995D01*
X99804233Y-50485994D01*
X99588631Y-50428224D01*
X99588629Y-50428224D01*
X99583316Y-50426800D01*
X99350000Y-50406387D01*
X99116684Y-50426800D01*
X99111371Y-50428224D01*
X99111369Y-50428224D01*
X98895767Y-50485994D01*
X98895765Y-50485995D01*
X98890457Y-50487417D01*
X98885476Y-50489739D01*
X98885475Y-50489740D01*
X98683181Y-50584071D01*
X98683176Y-50584074D01*
X98678194Y-50586397D01*
X98673687Y-50589553D01*
X98673685Y-50589554D01*
X98490853Y-50717574D01*
X98490850Y-50717576D01*
X98486342Y-50720733D01*
X98320733Y-50886342D01*
X98317576Y-50890850D01*
X98317574Y-50890853D01*
X98309441Y-50902468D01*
X98186397Y-51078194D01*
X98185695Y-51077703D01*
X98137738Y-51123431D01*
X98068024Y-51136868D01*
X98002113Y-51110482D01*
X97973934Y-51077962D01*
X97973603Y-51078194D01*
X97971361Y-51074992D01*
X97850559Y-50902468D01*
X97842426Y-50890853D01*
X97842424Y-50890850D01*
X97839267Y-50886342D01*
X97673658Y-50720733D01*
X97669150Y-50717576D01*
X97669147Y-50717574D01*
X97544235Y-50630110D01*
X97481807Y-50586397D01*
X97476825Y-50584074D01*
X97476820Y-50584071D01*
X97274525Y-50489740D01*
X97274524Y-50489740D01*
X97269543Y-50487417D01*
X97264235Y-50485995D01*
X97264233Y-50485994D01*
X97048631Y-50428224D01*
X97048629Y-50428224D01*
X97043316Y-50426800D01*
X96810000Y-50406387D01*
X96576684Y-50426800D01*
X96571371Y-50428224D01*
X96571369Y-50428224D01*
X96355767Y-50485994D01*
X96355765Y-50485995D01*
X96350457Y-50487417D01*
X96345476Y-50489739D01*
X96345475Y-50489740D01*
X96143181Y-50584071D01*
X96143176Y-50584074D01*
X96138194Y-50586397D01*
X96133687Y-50589553D01*
X96133685Y-50589554D01*
X95950853Y-50717574D01*
X95950850Y-50717576D01*
X95946342Y-50720733D01*
X95780733Y-50886342D01*
X95777576Y-50890850D01*
X95777574Y-50890853D01*
X95769441Y-50902468D01*
X95646397Y-51078194D01*
X95645695Y-51077703D01*
X95597738Y-51123431D01*
X95528024Y-51136868D01*
X95462113Y-51110482D01*
X95433934Y-51077962D01*
X95433603Y-51078194D01*
X95431361Y-51074992D01*
X95310559Y-50902468D01*
X95302426Y-50890853D01*
X95302424Y-50890850D01*
X95299267Y-50886342D01*
X95133658Y-50720733D01*
X95129150Y-50717576D01*
X95129147Y-50717574D01*
X95004235Y-50630110D01*
X94941807Y-50586397D01*
X94936825Y-50584074D01*
X94936820Y-50584071D01*
X94734525Y-50489740D01*
X94734524Y-50489740D01*
X94729543Y-50487417D01*
X94724235Y-50485995D01*
X94724233Y-50485994D01*
X94508631Y-50428224D01*
X94508629Y-50428224D01*
X94503316Y-50426800D01*
X94270000Y-50406387D01*
X94036684Y-50426800D01*
X94031371Y-50428224D01*
X94031369Y-50428224D01*
X93815767Y-50485994D01*
X93815765Y-50485995D01*
X93810457Y-50487417D01*
X93805476Y-50489739D01*
X93805475Y-50489740D01*
X93603181Y-50584071D01*
X93603176Y-50584074D01*
X93598194Y-50586397D01*
X93593687Y-50589553D01*
X93593685Y-50589554D01*
X93410853Y-50717574D01*
X93410850Y-50717576D01*
X93406342Y-50720733D01*
X93240733Y-50886342D01*
X93237576Y-50890850D01*
X93237574Y-50890853D01*
X93229441Y-50902468D01*
X93106397Y-51078194D01*
X93105695Y-51077703D01*
X93057738Y-51123431D01*
X92988024Y-51136868D01*
X92922113Y-51110482D01*
X92893934Y-51077962D01*
X92893603Y-51078194D01*
X92891361Y-51074992D01*
X92770559Y-50902468D01*
X92762426Y-50890853D01*
X92762424Y-50890850D01*
X92759267Y-50886342D01*
X92593658Y-50720733D01*
X92589150Y-50717576D01*
X92589147Y-50717574D01*
X92464235Y-50630110D01*
X92401807Y-50586397D01*
X92396825Y-50584074D01*
X92396820Y-50584071D01*
X92194525Y-50489740D01*
X92194524Y-50489740D01*
X92189543Y-50487417D01*
X92184235Y-50485995D01*
X92184233Y-50485994D01*
X91968631Y-50428224D01*
X91968629Y-50428224D01*
X91963316Y-50426800D01*
X91730000Y-50406387D01*
X91496684Y-50426800D01*
X91491371Y-50428224D01*
X91491369Y-50428224D01*
X91275767Y-50485994D01*
X91275765Y-50485995D01*
X91270457Y-50487417D01*
X91265476Y-50489739D01*
X91265475Y-50489740D01*
X91063181Y-50584071D01*
X91063176Y-50584074D01*
X91058194Y-50586397D01*
X91053687Y-50589553D01*
X91053685Y-50589554D01*
X90870853Y-50717574D01*
X90870850Y-50717576D01*
X90866342Y-50720733D01*
X90700733Y-50886342D01*
X90697576Y-50890850D01*
X90697574Y-50890853D01*
X90569554Y-51073685D01*
X90569553Y-51073687D01*
X90566397Y-51078194D01*
X90564074Y-51083176D01*
X90564071Y-51083181D01*
X90516064Y-51186133D01*
X90467417Y-51290457D01*
X90465995Y-51295765D01*
X90465994Y-51295767D01*
X90408449Y-51510530D01*
X90406800Y-51516684D01*
X90386387Y-51750000D01*
X90406800Y-51983316D01*
X90408224Y-51988629D01*
X90408224Y-51988631D01*
X90461086Y-52185916D01*
X90459396Y-52256893D01*
X90419602Y-52315688D01*
X90350361Y-52344048D01*
X90235302Y-52354115D01*
X90224507Y-52356018D01*
X90011947Y-52412973D01*
X90001655Y-52416719D01*
X89802215Y-52509719D01*
X89792719Y-52515202D01*
X89612468Y-52641415D01*
X89604060Y-52648471D01*
X89448471Y-52804060D01*
X89441415Y-52812468D01*
X89315202Y-52992719D01*
X89309719Y-53002215D01*
X89216719Y-53201655D01*
X89212973Y-53211947D01*
X89165665Y-53388503D01*
X89166001Y-53402599D01*
X89173943Y-53406000D01*
X90588000Y-53406000D01*
X90656121Y-53426002D01*
X90702614Y-53479658D01*
X90714000Y-53532000D01*
X90714000Y-53788000D01*
X90693998Y-53856121D01*
X90640342Y-53902614D01*
X90588000Y-53914000D01*
X89179092Y-53914000D01*
X89165561Y-53917973D01*
X89164332Y-53926522D01*
X88126846Y-53926522D01*
X88126846Y-51830149D01*
X88127076Y-51822542D01*
X88132788Y-51728097D01*
X88132828Y-51727463D01*
X88146189Y-51523610D01*
X88147983Y-51509141D01*
X88171906Y-51378585D01*
X88172263Y-51376714D01*
X88204642Y-51213930D01*
X88207923Y-51201038D01*
X88249646Y-51067139D01*
X88250627Y-51064126D01*
X88301559Y-50914084D01*
X88305972Y-50902873D01*
X88306155Y-50902468D01*
X88326340Y-50857616D01*
X88364760Y-50772250D01*
X88366654Y-50768234D01*
X88404968Y-50690540D01*
X88435425Y-50628779D01*
X88440591Y-50619342D01*
X88515466Y-50495484D01*
X88518490Y-50490728D01*
X88604134Y-50362554D01*
X88609697Y-50354874D01*
X88699354Y-50240433D01*
X88703784Y-50235089D01*
X88805058Y-50119609D01*
X88810681Y-50113606D01*
X88913606Y-50010681D01*
X88919609Y-50005058D01*
X89035089Y-49903784D01*
X89040438Y-49899350D01*
X89097836Y-49854382D01*
X89154874Y-49809697D01*
X89162554Y-49804134D01*
X89290728Y-49718490D01*
X89295484Y-49715466D01*
X89419342Y-49640591D01*
X89428779Y-49635425D01*
X89522587Y-49589164D01*
X89568234Y-49566654D01*
X89572250Y-49564760D01*
X89672388Y-49519692D01*
X89702879Y-49505970D01*
X89714080Y-49501561D01*
X89792098Y-49475077D01*
X89864126Y-49450627D01*
X89867142Y-49449645D01*
X90001038Y-49407923D01*
X90013924Y-49404644D01*
X90176712Y-49372263D01*
X90178585Y-49371906D01*
X90309141Y-49347983D01*
X90323610Y-49346189D01*
X90527463Y-49332828D01*
X90528098Y-49332788D01*
X90622577Y-49327074D01*
X90630102Y-49326844D01*
X97272998Y-49322580D01*
X131669829Y-49300502D01*
X131677482Y-49300731D01*
G37*
%TD.AperFunction*%
%TD*%
M02*
