%TF.GenerationSoftware,KiCad,Pcbnew,(6.99.0-4502-gf1556ed801-dirty)*%
%TF.CreationDate,2022-12-17T22:04:56-05:00*%
%TF.ProjectId,siox,73696f78-2e6b-4696-9361-645f70636258,rev?*%
%TF.SameCoordinates,Original*%
%TF.FileFunction,Copper,L1,Top*%
%TF.FilePolarity,Positive*%
%FSLAX46Y46*%
G04 Gerber Fmt 4.6, Leading zero omitted, Abs format (unit mm)*
G04 Created by KiCad (PCBNEW (6.99.0-4502-gf1556ed801-dirty)) date 2022-12-17 22:04:56*
%MOMM*%
%LPD*%
G01*
G04 APERTURE LIST*
G04 Aperture macros list*
%AMRoundRect*
0 Rectangle with rounded corners*
0 $1 Rounding radius*
0 $2 $3 $4 $5 $6 $7 $8 $9 X,Y pos of 4 corners*
0 Add a 4 corners polygon primitive as box body*
4,1,4,$2,$3,$4,$5,$6,$7,$8,$9,$2,$3,0*
0 Add four circle primitives for the rounded corners*
1,1,$1+$1,$2,$3*
1,1,$1+$1,$4,$5*
1,1,$1+$1,$6,$7*
1,1,$1+$1,$8,$9*
0 Add four rect primitives between the rounded corners*
20,1,$1+$1,$2,$3,$4,$5,0*
20,1,$1+$1,$4,$5,$6,$7,0*
20,1,$1+$1,$6,$7,$8,$9,0*
20,1,$1+$1,$8,$9,$2,$3,0*%
G04 Aperture macros list end*
%TA.AperFunction,ComponentPad*%
%ADD10O,1.625000X1.625000*%
%TD*%
%TA.AperFunction,SMDPad,CuDef*%
%ADD11C,2.000000*%
%TD*%
%TA.AperFunction,SMDPad,CuDef*%
%ADD12RoundRect,0.150000X-0.650000X-0.150000X0.650000X-0.150000X0.650000X0.150000X-0.650000X0.150000X0*%
%TD*%
%TA.AperFunction,SMDPad,CuDef*%
%ADD13RoundRect,0.250000X0.450000X-0.262500X0.450000X0.262500X-0.450000X0.262500X-0.450000X-0.262500X0*%
%TD*%
%TA.AperFunction,SMDPad,CuDef*%
%ADD14RoundRect,0.250000X-0.450000X0.262500X-0.450000X-0.262500X0.450000X-0.262500X0.450000X0.262500X0*%
%TD*%
%TA.AperFunction,SMDPad,CuDef*%
%ADD15RoundRect,0.250000X0.262500X0.450000X-0.262500X0.450000X-0.262500X-0.450000X0.262500X-0.450000X0*%
%TD*%
%TA.AperFunction,SMDPad,CuDef*%
%ADD16RoundRect,0.250000X0.250000X0.475000X-0.250000X0.475000X-0.250000X-0.475000X0.250000X-0.475000X0*%
%TD*%
%TA.AperFunction,SMDPad,CuDef*%
%ADD17RoundRect,0.100000X-0.637500X-0.100000X0.637500X-0.100000X0.637500X0.100000X-0.637500X0.100000X0*%
%TD*%
%TA.AperFunction,ViaPad*%
%ADD18C,0.800000*%
%TD*%
%TA.AperFunction,ViaPad*%
%ADD19C,1.660000*%
%TD*%
%TA.AperFunction,Conductor*%
%ADD20C,0.250000*%
%TD*%
G04 APERTURE END LIST*
D10*
%TO.P,J19,1,Pin_1*%
%TO.N,EN*%
X95539999Y-57479999D03*
%TD*%
%TO.P,J18,1,Pin_1*%
%TO.N,MP1*%
X110779999Y-57479999D03*
%TD*%
%TO.P,J17,1,Pin_1*%
%TO.N,MP1*%
X110779999Y-53659999D03*
%TD*%
%TO.P,J16,1,Pin_1*%
%TO.N,PI*%
X128559999Y-57479999D03*
%TD*%
%TO.P,J15,1,Pin_1*%
%TO.N,CE*%
X128559999Y-53659999D03*
%TD*%
%TO.P,J14,1,Pin_1*%
%TO.N,GND1*%
X132369999Y-55569999D03*
%TD*%
%TO.P,J13,1,Pin_1*%
%TO.N,GND1*%
X90459999Y-57479999D03*
%TD*%
%TO.P,J12,1,Pin_1*%
%TO.N,GND1*%
X90459999Y-53659999D03*
%TD*%
%TO.P,J11,1,Pin_1*%
%TO.N,GND1*%
X132369999Y-51749999D03*
%TD*%
D11*
%TO.P,J10,1,Pin_1*%
%TO.N,MP7*%
X109450000Y-70925000D03*
%TD*%
%TO.P,J9,1,Pin_1*%
%TO.N,MP6*%
X105700000Y-70925000D03*
%TD*%
%TO.P,J8,1,Pin_1*%
%TO.N,MP5*%
X101950000Y-70925000D03*
%TD*%
%TO.P,J7,1,Pin_1*%
%TO.N,MP4*%
X98200000Y-70925000D03*
%TD*%
%TO.P,J6,1,Pin_1*%
%TO.N,MP3*%
X94450000Y-70925000D03*
%TD*%
%TO.P,J5,1,Pin_1*%
%TO.N,MP2*%
X90700000Y-70925000D03*
%TD*%
D12*
%TO.P,U2,8,VSS*%
%TO.N,GND1*%
X99400000Y-63545000D03*
%TO.P,U2,7,RA0*%
%TO.N,MP7*%
X99400000Y-64815000D03*
%TO.P,U2,6,RA1*%
%TO.N,MP6*%
X99400000Y-66085000D03*
%TO.P,U2,5,RA2*%
%TO.N,MP5*%
X99400000Y-67355000D03*
%TO.P,U2,4,RA3*%
%TO.N,MP4*%
X92200000Y-67355000D03*
%TO.P,U2,3,RA4*%
%TO.N,MP3*%
X92200000Y-66085000D03*
%TO.P,U2,2,RA5*%
%TO.N,MP2*%
X92200000Y-64815000D03*
%TO.P,U2,1,VDD*%
%TO.N,MP1*%
X92200000Y-63545000D03*
%TD*%
D11*
%TO.P,J4,1,Pin_1*%
%TO.N,XI*%
X121650000Y-69450000D03*
%TD*%
%TO.P,J3,1,Pin_1*%
%TO.N,XE*%
X118100000Y-70700000D03*
%TD*%
%TO.P,J2,1,Pin_1*%
%TO.N,CI*%
X121650000Y-65700000D03*
%TD*%
%TO.P,J1,1,Pin_1*%
%TO.N,CE*%
X121650000Y-61950000D03*
%TD*%
D13*
%TO.P,R4,1*%
%TO.N,CI*%
X116350000Y-63762500D03*
%TO.P,R4,2*%
%TO.N,MP1*%
X116350000Y-61937500D03*
%TD*%
D14*
%TO.P,R3,1*%
%TO.N,XE*%
X104050000Y-59737500D03*
%TO.P,R3,2*%
%TO.N,MP1*%
X104050000Y-61562500D03*
%TD*%
%TO.P,R2,1*%
%TO.N,MP1*%
X100400000Y-59687500D03*
%TO.P,R2,2*%
%TO.N,P3*%
X100400000Y-61512500D03*
%TD*%
D15*
%TO.P,R1,1*%
%TO.N,EN*%
X96862500Y-60250000D03*
%TO.P,R1,2*%
%TO.N,GND1*%
X95037500Y-60250000D03*
%TD*%
D16*
%TO.P,C2,1*%
%TO.N,MP1*%
X92550000Y-60500000D03*
%TO.P,C2,2*%
%TO.N,GND1*%
X90650000Y-60500000D03*
%TD*%
%TO.P,C1,1*%
%TO.N,GND1*%
X113250000Y-60250000D03*
%TO.P,C1,2*%
%TO.N,MP1*%
X111350000Y-60250000D03*
%TD*%
D17*
%TO.P,U1,1,DVCC*%
%TO.N,CE*%
X107137500Y-63400000D03*
%TO.P,U1,2,ACLK/TACLK/A0/P1.0*%
%TO.N,XE*%
X107137500Y-64050000D03*
%TO.P,U1,3,TA0.0/A1/P1.1*%
%TO.N,P3*%
X107137500Y-64700000D03*
%TO.P,U1,4,TA0.1/A2/P1.2*%
%TO.N,GND1*%
X107137500Y-65350000D03*
%TO.P,U1,5,ADC10CLK/VREF-/VeREF-/A3/P1.3*%
%TO.N,EN*%
X107137500Y-66000000D03*
%TO.P,U1,6,TCK/SMCLK/VREF+/VeREF+/A4/P1.4*%
X107137500Y-66650000D03*
%TO.P,U1,7,TMS/SCLK/TA0.0/A5/P1.5*%
%TO.N,GND1*%
X107137500Y-67300000D03*
%TO.P,U1,8,TDI/SDO/SCL/TCLK/TA0.1/P1.6*%
%TO.N,PI*%
X112862500Y-67300000D03*
%TO.P,U1,9,TDI/TDO/SDI/SDA/P1.7*%
%TO.N,CI*%
X112862500Y-66650000D03*
%TO.P,U1,10,~{RST}/NMI/SBWTDIO*%
X112862500Y-66000000D03*
%TO.P,U1,11,SBWTCK/TEST*%
%TO.N,XI*%
X112862500Y-65350000D03*
%TO.P,U1,12,P2.7/XOUT*%
%TO.N,EN*%
X112862500Y-64700000D03*
%TO.P,U1,13,P2.6/XIN/TA0.1*%
X112862500Y-64050000D03*
%TO.P,U1,14,DVSS*%
%TO.N,MP1*%
X112862500Y-63400000D03*
%TD*%
D18*
%TO.N,PI*%
X116475500Y-67274500D03*
%TO.N,GND1*%
X98600000Y-59300000D03*
X114600000Y-58700000D03*
X112350000Y-58825000D03*
X109550000Y-58925000D03*
X101975000Y-58775000D03*
X114600000Y-63175000D03*
X122125000Y-59975000D03*
X124150000Y-61300000D03*
X119475000Y-62625000D03*
X117125000Y-65150000D03*
X119375000Y-66275000D03*
X110400000Y-63625000D03*
X104750000Y-63100000D03*
X89500000Y-58875000D03*
X90100000Y-63550000D03*
X95925000Y-65350000D03*
X130825000Y-59625000D03*
X129250000Y-60500000D03*
X117825000Y-59325000D03*
X115825000Y-69975000D03*
X108825000Y-67300000D03*
D19*
%TO.N,*%
X113320000Y-57480000D03*
X127290000Y-55570000D03*
X99350000Y-55570000D03*
X105700000Y-57480000D03*
X120940000Y-57480000D03*
X112050000Y-55570000D03*
X114590000Y-55570000D03*
X109510000Y-55570000D03*
X118400000Y-57480000D03*
X129830000Y-55570000D03*
X108240000Y-57480000D03*
X98080000Y-57480000D03*
X103160000Y-57480000D03*
X117130000Y-55570000D03*
X101890000Y-55570000D03*
X106970000Y-55570000D03*
X104430000Y-55570000D03*
X122210000Y-55570000D03*
X131100000Y-57480000D03*
X93000000Y-57480000D03*
X91730000Y-55570000D03*
X115860000Y-57480000D03*
X119670000Y-55570000D03*
X96810000Y-55570000D03*
X126020000Y-57480000D03*
X124750000Y-55570000D03*
X94270000Y-55570000D03*
X123480000Y-57480000D03*
X100620000Y-57480000D03*
X100620000Y-53660000D03*
X113320000Y-53660000D03*
X115860000Y-53660000D03*
X131100000Y-53660000D03*
X118400000Y-53660000D03*
X103160000Y-53660000D03*
X108240000Y-53660000D03*
X105700000Y-53660000D03*
X123480000Y-53660000D03*
X93000000Y-53660000D03*
X120940000Y-53660000D03*
X98080000Y-53660000D03*
X126020000Y-53660000D03*
X95540000Y-53660000D03*
X119670000Y-51750000D03*
X129830000Y-51750000D03*
X122210000Y-51750000D03*
X127290000Y-51750000D03*
X124750000Y-51750000D03*
X112050000Y-51750000D03*
X117130000Y-51750000D03*
X114590000Y-51750000D03*
X109510000Y-51750000D03*
X101890000Y-51750000D03*
X106970000Y-51750000D03*
X104430000Y-51750000D03*
X96810000Y-51750000D03*
X99350000Y-51750000D03*
X94270000Y-51750000D03*
X91730000Y-51750000D03*
D18*
%TO.N,EN*%
X105800000Y-66000000D03*
X110475500Y-65324500D03*
%TO.N,GND1*%
X96000000Y-62800000D03*
X95800000Y-61225500D03*
%TO.N,EN*%
X98050000Y-60800000D03*
X101200000Y-63950000D03*
%TO.N,XE*%
X106000000Y-61150000D03*
X105950000Y-59625500D03*
%TO.N,CI*%
X114900000Y-65974500D03*
X114950000Y-64725500D03*
%TO.N,GND1*%
X115900000Y-59300000D03*
%TO.N,CE*%
X112250000Y-61750000D03*
X114750000Y-60250000D03*
%TD*%
D20*
%TO.N,MP7*%
X99400000Y-64815000D02*
X101165000Y-64815000D01*
X101165000Y-64815000D02*
X103300000Y-66950000D01*
X103300000Y-66950000D02*
X103950000Y-66950000D01*
X103950000Y-66950000D02*
X105025000Y-68025000D01*
X105025000Y-68025000D02*
X106550000Y-68025000D01*
X106550000Y-68025000D02*
X109450000Y-70925000D01*
%TO.N,CI*%
X116350000Y-63762500D02*
X119712500Y-63762500D01*
X119712500Y-63762500D02*
X121650000Y-65700000D01*
%TO.N,XI*%
X117807106Y-67392894D02*
X118850000Y-67392894D01*
X118850000Y-67392894D02*
X119592894Y-67392894D01*
X119592894Y-67392894D02*
X121650000Y-69450000D01*
%TO.N,XE*%
X111950000Y-68200000D02*
X114650000Y-68200000D01*
X114650000Y-68200000D02*
X115600000Y-68200000D01*
X115600000Y-68200000D02*
X118100000Y-70700000D01*
%TO.N,MP3*%
X91150000Y-68950000D02*
X92475000Y-68950000D01*
X92475000Y-68950000D02*
X94450000Y-70925000D01*
%TO.N,MP4*%
X92200000Y-67355000D02*
X92305000Y-67355000D01*
X92305000Y-67355000D02*
X93325000Y-68375000D01*
X93325000Y-68375000D02*
X95650000Y-68375000D01*
X95650000Y-68375000D02*
X98200000Y-70925000D01*
%TO.N,MP5*%
X99400000Y-67355000D02*
X99400000Y-68375000D01*
X99400000Y-68375000D02*
X101950000Y-70925000D01*
%TO.N,MP6*%
X99400000Y-66085000D02*
X100860000Y-66085000D01*
X100860000Y-66085000D02*
X105700000Y-70925000D01*
%TO.N,MP2*%
X92200000Y-64815000D02*
X91635000Y-64815000D01*
X91635000Y-64815000D02*
X89800000Y-66650000D01*
X89800000Y-66650000D02*
X89800000Y-70025000D01*
X89800000Y-70025000D02*
X90700000Y-70925000D01*
%TO.N,P3*%
X100400000Y-61512500D02*
X100400000Y-62425000D01*
X100400000Y-62425000D02*
X100558884Y-62425000D01*
X100558884Y-62425000D02*
X102833884Y-64700000D01*
X102833884Y-64700000D02*
X107137500Y-64700000D01*
%TO.N,PI*%
X112862500Y-67300000D02*
X116450000Y-67300000D01*
X116450000Y-67300000D02*
X116475500Y-67274500D01*
%TO.N,GND1*%
X90460000Y-53660000D02*
X90460000Y-57480000D01*
%TO.N,EN*%
X96862500Y-60250000D02*
X96862500Y-58802500D01*
X96862500Y-58802500D02*
X95540000Y-57480000D01*
%TO.N,GND1*%
X107137500Y-67300000D02*
X108825000Y-67300000D01*
%TO.N,XE*%
X106537500Y-64050000D02*
X107137500Y-64050000D01*
%TO.N,GND1*%
X95037500Y-60250000D02*
X95037500Y-60463000D01*
%TO.N,CI*%
X112888000Y-65974500D02*
X112862500Y-66000000D01*
%TO.N,MP1*%
X111633884Y-60250000D02*
X111350000Y-60250000D01*
%TO.N,XE*%
X106590381Y-64050000D02*
X107137500Y-64050000D01*
%TO.N,CE*%
X128560000Y-53660000D02*
X128560000Y-55791996D01*
X128560000Y-55791996D02*
X127200000Y-57151996D01*
%TO.N,MP1*%
X110780000Y-53660000D02*
X110780000Y-57480000D01*
%TO.N,CE*%
X127200000Y-57151996D02*
X127200000Y-59000000D01*
X126550000Y-59650000D02*
X127200000Y-59000000D01*
%TO.N,MP1*%
X111350000Y-58050000D02*
X110780000Y-57480000D01*
%TO.N,CE*%
X123950000Y-59650000D02*
X126550000Y-59650000D01*
X121650000Y-61950000D02*
X123950000Y-59650000D01*
%TO.N,MP1*%
X111350000Y-60250000D02*
X111350000Y-58050000D01*
%TO.N,EN*%
X98050000Y-60800000D02*
X97500000Y-60250000D01*
X97500000Y-60250000D02*
X96862500Y-60250000D01*
%TO.N,XE*%
X107137500Y-64050000D02*
X107800000Y-64050000D01*
X107800000Y-64050000D02*
X111950000Y-68200000D01*
%TO.N,XI*%
X115764212Y-65350000D02*
X117807106Y-67392894D01*
%TO.N,CI*%
X114950000Y-64725500D02*
X115387000Y-64725500D01*
X115387000Y-64725500D02*
X116350000Y-63762500D01*
%TO.N,CE*%
X114750000Y-60250000D02*
X119950000Y-60250000D01*
X119950000Y-60250000D02*
X121650000Y-61950000D01*
%TO.N,GND1*%
X107137500Y-65350000D02*
X108000000Y-65350000D01*
X108000000Y-65350000D02*
X108800000Y-66150000D01*
%TO.N,EN*%
X105800000Y-66000000D02*
X105750000Y-66000000D01*
X112862500Y-64700000D02*
X111100000Y-64700000D01*
X111100000Y-64700000D02*
X110475500Y-65324500D01*
X112862500Y-64050000D02*
X112862500Y-64700000D01*
%TO.N,CI*%
X112862500Y-66650000D02*
X112862500Y-66000000D01*
%TO.N,GND1*%
X96745000Y-63545000D02*
X99400000Y-63545000D01*
X95037500Y-60463000D02*
X95800000Y-61225500D01*
X96000000Y-62800000D02*
X96745000Y-63545000D01*
%TO.N,EN*%
X105750000Y-66000000D02*
X103250000Y-66000000D01*
X107137500Y-66000000D02*
X105800000Y-66000000D01*
X103250000Y-66000000D02*
X101200000Y-63950000D01*
X107137500Y-66000000D02*
X107137500Y-66650000D01*
%TO.N,XE*%
X104050000Y-59737500D02*
X105838000Y-59737500D01*
X105838000Y-59737500D02*
X105950000Y-59625500D01*
X106000000Y-61150000D02*
X106000000Y-63459619D01*
X106000000Y-63459619D02*
X106590381Y-64050000D01*
%TO.N,MP1*%
X104050000Y-61562500D02*
X105362500Y-60250000D01*
X105362500Y-60250000D02*
X111350000Y-60250000D01*
X100400000Y-59687500D02*
X102175000Y-59687500D01*
X102175000Y-59687500D02*
X104050000Y-61562500D01*
X99300000Y-60650000D02*
X99437500Y-60650000D01*
X99437500Y-60650000D02*
X100400000Y-59687500D01*
%TO.N,MP3*%
X90550000Y-66900000D02*
X90550000Y-68350000D01*
X90550000Y-68350000D02*
X91150000Y-68950000D01*
X91150000Y-68950000D02*
X91150000Y-69000000D01*
X92200000Y-66085000D02*
X91365000Y-66085000D01*
X91365000Y-66085000D02*
X90550000Y-66900000D01*
%TO.N,MP1*%
X93900000Y-61850000D02*
X94050000Y-61850000D01*
X94050000Y-61850000D02*
X98100000Y-61850000D01*
X92200000Y-63545000D02*
X93895000Y-61850000D01*
X93895000Y-61850000D02*
X94050000Y-61850000D01*
X92550000Y-60500000D02*
X93900000Y-61850000D01*
X98100000Y-61850000D02*
X99300000Y-60650000D01*
%TO.N,CI*%
X114900000Y-65974500D02*
X112888000Y-65974500D01*
%TO.N,MP1*%
X112862500Y-63400000D02*
X112862500Y-62396384D01*
X112862500Y-62396384D02*
X113321384Y-61937500D01*
X116350000Y-61937500D02*
X113321384Y-61937500D01*
X113321384Y-61937500D02*
X111633884Y-60250000D01*
%TO.N,CE*%
X109750000Y-61750000D02*
X112250000Y-61750000D01*
X107137500Y-63400000D02*
X108100000Y-63400000D01*
X108100000Y-63400000D02*
X109750000Y-61750000D01*
%TO.N,XI*%
X112862500Y-65350000D02*
X115764212Y-65350000D01*
%TO.N,GND1*%
X115900000Y-59300000D02*
X114200000Y-59300000D01*
X114200000Y-59300000D02*
X113497487Y-60002513D01*
%TD*%
%TA.AperFunction,Conductor*%
%TO.N,GND1*%
G36*
X131677482Y-49300731D02*
G01*
X131772031Y-49306449D01*
X131772369Y-49306470D01*
X131951244Y-49318194D01*
X131965706Y-49319987D01*
X132088142Y-49342421D01*
X132089913Y-49342760D01*
X132236216Y-49371861D01*
X132249095Y-49375139D01*
X132373407Y-49413875D01*
X132376371Y-49414839D01*
X132441387Y-49436909D01*
X132512138Y-49460926D01*
X132523346Y-49465339D01*
X132644119Y-49519692D01*
X132648137Y-49521586D01*
X132774691Y-49583995D01*
X132784117Y-49589156D01*
X132823785Y-49613135D01*
X132898403Y-49658243D01*
X132903220Y-49661306D01*
X132948457Y-49691532D01*
X133019702Y-49739136D01*
X133027385Y-49744701D01*
X133132874Y-49827346D01*
X133138245Y-49831799D01*
X133243277Y-49923909D01*
X133249295Y-49929546D01*
X133344098Y-50024349D01*
X133349734Y-50030365D01*
X133441957Y-50135525D01*
X133446370Y-50140847D01*
X133504534Y-50215087D01*
X133528887Y-50246171D01*
X133534467Y-50253876D01*
X133612520Y-50370690D01*
X133615583Y-50375507D01*
X133684400Y-50489342D01*
X133689572Y-50498788D01*
X133752382Y-50626153D01*
X133754217Y-50630047D01*
X133795032Y-50720733D01*
X133808229Y-50750055D01*
X133812642Y-50761264D01*
X133859181Y-50898362D01*
X133860163Y-50901378D01*
X133898452Y-51024250D01*
X133901736Y-51037154D01*
X133925261Y-51155420D01*
X133931370Y-51186133D01*
X133931727Y-51188003D01*
X133953643Y-51307593D01*
X133955437Y-51322063D01*
X133967770Y-51510229D01*
X133972565Y-51589492D01*
X133972924Y-51595436D01*
X133973154Y-51603042D01*
X133973154Y-59196194D01*
X133972924Y-59203802D01*
X133967188Y-59298625D01*
X133967148Y-59299258D01*
X133955463Y-59477538D01*
X133953669Y-59492008D01*
X133931493Y-59613020D01*
X133931131Y-59614993D01*
X133930778Y-59616839D01*
X133926340Y-59639154D01*
X133901821Y-59762418D01*
X133898537Y-59775322D01*
X133880377Y-59833601D01*
X133866694Y-59877512D01*
X133859576Y-59900354D01*
X133858613Y-59903314D01*
X133812794Y-60038290D01*
X133808389Y-60049477D01*
X133755588Y-60166796D01*
X133753664Y-60171071D01*
X133751776Y-60175075D01*
X133696888Y-60286379D01*
X133689813Y-60300725D01*
X133684645Y-60310165D01*
X133615011Y-60425351D01*
X133611964Y-60430142D01*
X133558831Y-60509662D01*
X133534799Y-60545628D01*
X133529231Y-60553316D01*
X133475768Y-60621556D01*
X133445850Y-60659743D01*
X133441398Y-60665112D01*
X133350192Y-60769113D01*
X133344555Y-60775132D01*
X133248775Y-60870910D01*
X133242758Y-60876545D01*
X133138853Y-60967668D01*
X133133495Y-60972110D01*
X133026883Y-61055634D01*
X133019182Y-61061211D01*
X132907484Y-61135846D01*
X132904076Y-61138123D01*
X132899256Y-61141188D01*
X132783640Y-61211077D01*
X132774186Y-61216253D01*
X132649312Y-61277834D01*
X132645294Y-61279728D01*
X132522891Y-61334815D01*
X132511683Y-61339228D01*
X132424218Y-61368919D01*
X132378125Y-61384566D01*
X132375159Y-61385531D01*
X132318639Y-61403143D01*
X132248672Y-61424944D01*
X132235771Y-61428227D01*
X132185821Y-61438163D01*
X132092804Y-61456665D01*
X132091171Y-61456977D01*
X131965309Y-61480040D01*
X131950857Y-61481831D01*
X131781518Y-61492930D01*
X131780882Y-61492970D01*
X131676697Y-61499270D01*
X131669092Y-61499500D01*
X126760845Y-61499500D01*
X126587283Y-61520574D01*
X126488344Y-61532587D01*
X126488342Y-61532587D01*
X126484565Y-61533046D01*
X126214343Y-61599650D01*
X125954120Y-61698340D01*
X125707689Y-61827677D01*
X125704560Y-61829837D01*
X125704553Y-61829841D01*
X125481787Y-61983605D01*
X125478645Y-61985774D01*
X125475790Y-61988303D01*
X125475784Y-61988308D01*
X125373640Y-62078800D01*
X125270327Y-62170327D01*
X125267803Y-62173176D01*
X125088308Y-62375784D01*
X125088303Y-62375790D01*
X125085774Y-62378645D01*
X125083607Y-62381784D01*
X125083605Y-62381787D01*
X124929841Y-62604553D01*
X124929837Y-62604560D01*
X124927677Y-62607689D01*
X124798340Y-62854120D01*
X124699650Y-63114343D01*
X124633046Y-63384565D01*
X124632587Y-63388342D01*
X124632587Y-63388344D01*
X124632057Y-63392712D01*
X124599500Y-63660845D01*
X124599500Y-71096194D01*
X124599270Y-71103801D01*
X124593535Y-71198615D01*
X124593495Y-71199249D01*
X124581809Y-71377543D01*
X124580016Y-71392005D01*
X124557495Y-71514901D01*
X124557138Y-71516771D01*
X124528162Y-71662442D01*
X124524878Y-71675344D01*
X124500605Y-71753242D01*
X124485946Y-71800284D01*
X124484995Y-71803207D01*
X124439128Y-71938326D01*
X124434724Y-71949512D01*
X124390290Y-72048240D01*
X124380062Y-72070965D01*
X124378169Y-72074981D01*
X124316128Y-72200787D01*
X124310951Y-72210242D01*
X124241450Y-72325211D01*
X124238404Y-72330002D01*
X124161067Y-72445744D01*
X124155514Y-72453411D01*
X124072684Y-72559137D01*
X124072311Y-72559613D01*
X124067879Y-72564959D01*
X123976389Y-72669283D01*
X123970766Y-72675285D01*
X123875285Y-72770766D01*
X123869283Y-72776389D01*
X123764959Y-72867879D01*
X123759621Y-72872305D01*
X123653411Y-72955514D01*
X123645744Y-72961067D01*
X123530009Y-73038399D01*
X123525211Y-73041450D01*
X123443000Y-73091148D01*
X123410242Y-73110951D01*
X123400787Y-73116128D01*
X123274959Y-73178179D01*
X123270965Y-73180062D01*
X123149512Y-73234724D01*
X123138326Y-73239128D01*
X123003207Y-73284995D01*
X123000284Y-73285946D01*
X122954060Y-73300350D01*
X122875344Y-73324878D01*
X122862442Y-73328162D01*
X122716771Y-73357138D01*
X122714935Y-73357489D01*
X122592005Y-73380016D01*
X122577548Y-73381808D01*
X122399172Y-73393500D01*
X122398671Y-73393532D01*
X122340110Y-73397074D01*
X122303801Y-73399270D01*
X122296194Y-73399500D01*
X117303806Y-73399500D01*
X117296199Y-73399270D01*
X117259890Y-73397074D01*
X117201329Y-73393532D01*
X117200828Y-73393500D01*
X117022452Y-73381808D01*
X117007995Y-73380016D01*
X116885065Y-73357489D01*
X116883229Y-73357138D01*
X116737558Y-73328162D01*
X116724656Y-73324878D01*
X116645940Y-73300350D01*
X116599716Y-73285946D01*
X116596793Y-73284995D01*
X116461674Y-73239128D01*
X116450488Y-73234724D01*
X116329035Y-73180062D01*
X116325041Y-73178179D01*
X116199213Y-73116128D01*
X116189758Y-73110951D01*
X116157000Y-73091148D01*
X116074789Y-73041450D01*
X116069991Y-73038399D01*
X115954256Y-72961067D01*
X115946589Y-72955514D01*
X115840379Y-72872305D01*
X115835041Y-72867879D01*
X115730717Y-72776389D01*
X115724715Y-72770766D01*
X115629234Y-72675285D01*
X115623611Y-72669283D01*
X115532121Y-72564959D01*
X115527689Y-72559613D01*
X115527316Y-72559137D01*
X115444486Y-72453411D01*
X115438933Y-72445744D01*
X115361596Y-72330002D01*
X115358550Y-72325211D01*
X115289049Y-72210242D01*
X115283872Y-72200787D01*
X115221831Y-72074981D01*
X115219938Y-72070965D01*
X115209710Y-72048240D01*
X115165276Y-71949512D01*
X115160872Y-71938326D01*
X115115005Y-71803207D01*
X115114054Y-71800284D01*
X115099395Y-71753242D01*
X115075122Y-71675344D01*
X115071838Y-71662442D01*
X115042862Y-71516771D01*
X115042505Y-71514901D01*
X115019984Y-71392005D01*
X115018191Y-71377543D01*
X115006505Y-71199249D01*
X115006465Y-71198615D01*
X115000730Y-71103801D01*
X115000500Y-71096194D01*
X115000500Y-70972565D01*
X114999084Y-70963165D01*
X114974224Y-70798240D01*
X114962513Y-70720542D01*
X114957698Y-70704930D01*
X114888779Y-70481503D01*
X114887389Y-70476996D01*
X114880271Y-70462214D01*
X114824565Y-70346540D01*
X114776805Y-70247366D01*
X114767568Y-70233817D01*
X114691019Y-70121541D01*
X114633232Y-70036783D01*
X114459877Y-69849950D01*
X114410514Y-69810584D01*
X114264293Y-69693976D01*
X114264289Y-69693973D01*
X114260612Y-69691041D01*
X114039888Y-69563607D01*
X113838940Y-69484740D01*
X113807030Y-69472216D01*
X113807028Y-69472215D01*
X113802637Y-69470492D01*
X113798037Y-69469442D01*
X113558758Y-69414828D01*
X113558756Y-69414828D01*
X113554157Y-69413778D01*
X113549457Y-69413426D01*
X113549452Y-69413425D01*
X113304697Y-69395084D01*
X113300000Y-69394732D01*
X113295303Y-69395084D01*
X113050548Y-69413425D01*
X113050543Y-69413426D01*
X113045843Y-69413778D01*
X113041244Y-69414828D01*
X113041242Y-69414828D01*
X112801963Y-69469442D01*
X112797363Y-69470492D01*
X112792972Y-69472215D01*
X112792970Y-69472216D01*
X112761060Y-69484740D01*
X112560112Y-69563607D01*
X112339388Y-69691041D01*
X112335711Y-69693973D01*
X112335707Y-69693976D01*
X112189486Y-69810584D01*
X112140123Y-69849950D01*
X111966768Y-70036783D01*
X111908981Y-70121541D01*
X111832433Y-70233817D01*
X111823195Y-70247366D01*
X111775435Y-70346540D01*
X111719730Y-70462214D01*
X111712611Y-70476996D01*
X111711221Y-70481503D01*
X111642303Y-70704930D01*
X111637487Y-70720542D01*
X111625776Y-70798240D01*
X111600917Y-70963165D01*
X111599500Y-70972565D01*
X111599500Y-71096194D01*
X111599270Y-71103801D01*
X111593535Y-71198615D01*
X111593495Y-71199249D01*
X111581809Y-71377543D01*
X111580016Y-71392005D01*
X111557495Y-71514901D01*
X111557138Y-71516771D01*
X111528162Y-71662442D01*
X111524878Y-71675344D01*
X111500605Y-71753242D01*
X111485946Y-71800284D01*
X111484995Y-71803207D01*
X111439128Y-71938326D01*
X111434724Y-71949512D01*
X111390290Y-72048240D01*
X111380062Y-72070965D01*
X111378169Y-72074981D01*
X111316128Y-72200787D01*
X111310951Y-72210242D01*
X111241450Y-72325211D01*
X111238404Y-72330002D01*
X111161067Y-72445744D01*
X111155514Y-72453411D01*
X111072684Y-72559137D01*
X111072311Y-72559613D01*
X111067879Y-72564959D01*
X110976389Y-72669283D01*
X110970766Y-72675285D01*
X110875285Y-72770766D01*
X110869283Y-72776389D01*
X110764959Y-72867879D01*
X110759621Y-72872305D01*
X110653411Y-72955514D01*
X110645744Y-72961067D01*
X110530009Y-73038399D01*
X110525211Y-73041450D01*
X110443000Y-73091148D01*
X110410242Y-73110951D01*
X110400787Y-73116128D01*
X110274959Y-73178179D01*
X110270965Y-73180062D01*
X110149512Y-73234724D01*
X110138326Y-73239128D01*
X110003207Y-73284995D01*
X110000284Y-73285946D01*
X109954060Y-73300350D01*
X109875344Y-73324878D01*
X109862442Y-73328162D01*
X109716771Y-73357138D01*
X109714935Y-73357489D01*
X109592005Y-73380016D01*
X109577548Y-73381808D01*
X109399172Y-73393500D01*
X109398671Y-73393532D01*
X109340110Y-73397074D01*
X109303801Y-73399270D01*
X109296194Y-73399500D01*
X90430148Y-73399500D01*
X90422542Y-73399270D01*
X90328134Y-73393561D01*
X90327499Y-73393521D01*
X90246903Y-73388239D01*
X90148756Y-73381806D01*
X90134294Y-73380013D01*
X90011858Y-73357579D01*
X90010087Y-73357240D01*
X89863784Y-73328139D01*
X89850905Y-73324861D01*
X89726593Y-73286125D01*
X89723629Y-73285161D01*
X89658613Y-73263091D01*
X89587862Y-73239074D01*
X89576654Y-73234661D01*
X89455881Y-73180308D01*
X89451863Y-73178414D01*
X89435796Y-73170491D01*
X89325309Y-73116005D01*
X89315883Y-73110844D01*
X89252186Y-73072339D01*
X89201597Y-73041757D01*
X89196780Y-73038694D01*
X89151543Y-73008468D01*
X89080298Y-72960864D01*
X89072615Y-72955299D01*
X88967126Y-72872654D01*
X88961755Y-72868201D01*
X88856723Y-72776091D01*
X88850705Y-72770454D01*
X88755902Y-72675651D01*
X88750266Y-72669635D01*
X88737614Y-72655208D01*
X88658043Y-72564475D01*
X88653630Y-72559153D01*
X88571113Y-72453829D01*
X88565533Y-72446124D01*
X88487480Y-72329310D01*
X88484417Y-72324493D01*
X88415600Y-72210658D01*
X88410428Y-72201212D01*
X88347618Y-72073847D01*
X88345783Y-72069953D01*
X88291771Y-71949945D01*
X88287358Y-71938736D01*
X88240819Y-71801638D01*
X88239837Y-71798622D01*
X88201548Y-71675750D01*
X88198264Y-71662846D01*
X88187233Y-71607389D01*
X88168619Y-71513811D01*
X88168273Y-71511997D01*
X88146357Y-71392407D01*
X88144563Y-71377936D01*
X88144537Y-71377543D01*
X88132230Y-71189771D01*
X88127076Y-71104564D01*
X88126846Y-71096958D01*
X88126846Y-66629943D01*
X89161780Y-66629943D01*
X89162526Y-66637835D01*
X89165941Y-66673961D01*
X89166500Y-66685819D01*
X89166500Y-69946233D01*
X89165973Y-69957416D01*
X89164298Y-69964909D01*
X89164547Y-69972835D01*
X89164547Y-69972836D01*
X89166438Y-70032986D01*
X89166500Y-70036945D01*
X89166500Y-70064856D01*
X89166997Y-70068790D01*
X89166997Y-70068791D01*
X89167005Y-70068856D01*
X89167938Y-70080693D01*
X89169327Y-70124889D01*
X89174978Y-70144339D01*
X89178987Y-70163700D01*
X89181526Y-70183797D01*
X89184445Y-70191168D01*
X89184445Y-70191170D01*
X89197804Y-70224912D01*
X89201649Y-70236142D01*
X89203778Y-70243470D01*
X89213982Y-70278593D01*
X89218015Y-70285412D01*
X89218017Y-70285417D01*
X89224293Y-70296028D01*
X89232988Y-70313776D01*
X89240448Y-70332617D01*
X89245111Y-70339035D01*
X89245113Y-70339039D01*
X89245145Y-70339083D01*
X89245159Y-70339124D01*
X89248928Y-70345979D01*
X89247822Y-70346587D01*
X89268998Y-70405952D01*
X89263036Y-70452072D01*
X89262789Y-70452833D01*
X89260895Y-70457406D01*
X89205465Y-70688289D01*
X89186835Y-70925000D01*
X89205465Y-71161711D01*
X89206619Y-71166518D01*
X89206620Y-71166524D01*
X89224058Y-71239156D01*
X89260895Y-71392594D01*
X89262788Y-71397165D01*
X89262789Y-71397167D01*
X89343978Y-71593175D01*
X89351760Y-71611963D01*
X89354346Y-71616183D01*
X89473241Y-71810202D01*
X89473245Y-71810208D01*
X89475824Y-71814416D01*
X89630031Y-71994969D01*
X89810584Y-72149176D01*
X89814792Y-72151755D01*
X89814798Y-72151759D01*
X90008817Y-72270654D01*
X90013037Y-72273240D01*
X90017607Y-72275133D01*
X90017611Y-72275135D01*
X90227833Y-72362211D01*
X90232406Y-72364105D01*
X90312609Y-72383360D01*
X90458476Y-72418380D01*
X90458482Y-72418381D01*
X90463289Y-72419535D01*
X90700000Y-72438165D01*
X90936711Y-72419535D01*
X90941518Y-72418381D01*
X90941524Y-72418380D01*
X91087391Y-72383360D01*
X91167594Y-72364105D01*
X91172167Y-72362211D01*
X91382389Y-72275135D01*
X91382393Y-72275133D01*
X91386963Y-72273240D01*
X91391183Y-72270654D01*
X91585202Y-72151759D01*
X91585208Y-72151755D01*
X91589416Y-72149176D01*
X91769969Y-71994969D01*
X91924176Y-71814416D01*
X91926755Y-71810208D01*
X91926759Y-71810202D01*
X92045654Y-71616183D01*
X92048240Y-71611963D01*
X92056023Y-71593175D01*
X92137211Y-71397167D01*
X92137212Y-71397165D01*
X92139105Y-71392594D01*
X92175942Y-71239156D01*
X92193380Y-71166524D01*
X92193381Y-71166518D01*
X92194535Y-71161711D01*
X92213165Y-70925000D01*
X92194535Y-70688289D01*
X92139105Y-70457406D01*
X92136896Y-70452072D01*
X92050135Y-70242611D01*
X92050133Y-70242607D01*
X92048240Y-70238037D01*
X91996657Y-70153861D01*
X91926759Y-70039798D01*
X91926755Y-70039792D01*
X91924176Y-70035584D01*
X91769969Y-69855031D01*
X91766213Y-69851823D01*
X91766208Y-69851818D01*
X91711755Y-69805311D01*
X91672946Y-69745861D01*
X91672438Y-69674866D01*
X91710394Y-69614867D01*
X91774763Y-69584914D01*
X91793585Y-69583500D01*
X92160406Y-69583500D01*
X92228527Y-69603502D01*
X92249501Y-69620405D01*
X92975636Y-70346540D01*
X93009662Y-70408852D01*
X93009060Y-70465049D01*
X92955465Y-70688289D01*
X92936835Y-70925000D01*
X92955465Y-71161711D01*
X92956619Y-71166518D01*
X92956620Y-71166524D01*
X92974058Y-71239156D01*
X93010895Y-71392594D01*
X93012788Y-71397165D01*
X93012789Y-71397167D01*
X93093978Y-71593175D01*
X93101760Y-71611963D01*
X93104346Y-71616183D01*
X93223241Y-71810202D01*
X93223245Y-71810208D01*
X93225824Y-71814416D01*
X93380031Y-71994969D01*
X93560584Y-72149176D01*
X93564792Y-72151755D01*
X93564798Y-72151759D01*
X93758817Y-72270654D01*
X93763037Y-72273240D01*
X93767607Y-72275133D01*
X93767611Y-72275135D01*
X93977833Y-72362211D01*
X93982406Y-72364105D01*
X94062609Y-72383360D01*
X94208476Y-72418380D01*
X94208482Y-72418381D01*
X94213289Y-72419535D01*
X94450000Y-72438165D01*
X94686711Y-72419535D01*
X94691518Y-72418381D01*
X94691524Y-72418380D01*
X94837391Y-72383360D01*
X94917594Y-72364105D01*
X94922167Y-72362211D01*
X95132389Y-72275135D01*
X95132393Y-72275133D01*
X95136963Y-72273240D01*
X95141183Y-72270654D01*
X95335202Y-72151759D01*
X95335208Y-72151755D01*
X95339416Y-72149176D01*
X95519969Y-71994969D01*
X95674176Y-71814416D01*
X95676755Y-71810208D01*
X95676759Y-71810202D01*
X95795654Y-71616183D01*
X95798240Y-71611963D01*
X95806023Y-71593175D01*
X95887211Y-71397167D01*
X95887212Y-71397165D01*
X95889105Y-71392594D01*
X95925942Y-71239156D01*
X95943380Y-71166524D01*
X95943381Y-71166518D01*
X95944535Y-71161711D01*
X95963165Y-70925000D01*
X95944535Y-70688289D01*
X95889105Y-70457406D01*
X95886896Y-70452072D01*
X95800135Y-70242611D01*
X95800133Y-70242607D01*
X95798240Y-70238037D01*
X95746657Y-70153861D01*
X95676759Y-70039798D01*
X95676755Y-70039792D01*
X95674176Y-70035584D01*
X95519969Y-69855031D01*
X95510584Y-69847015D01*
X95461754Y-69805311D01*
X95339416Y-69700824D01*
X95335208Y-69698245D01*
X95335202Y-69698241D01*
X95141183Y-69579346D01*
X95136963Y-69576760D01*
X95132393Y-69574867D01*
X95132389Y-69574865D01*
X94922167Y-69487789D01*
X94922165Y-69487788D01*
X94917594Y-69485895D01*
X94837391Y-69466640D01*
X94691524Y-69431620D01*
X94691518Y-69431619D01*
X94686711Y-69430465D01*
X94450000Y-69411835D01*
X94213289Y-69430465D01*
X94208482Y-69431619D01*
X94208476Y-69431620D01*
X94050938Y-69469442D01*
X93990049Y-69484060D01*
X93919142Y-69480513D01*
X93871540Y-69450636D01*
X93644500Y-69223595D01*
X93610475Y-69161283D01*
X93615540Y-69090467D01*
X93658087Y-69033632D01*
X93724608Y-69008821D01*
X93733596Y-69008500D01*
X95335406Y-69008500D01*
X95403527Y-69028502D01*
X95424501Y-69045405D01*
X96725636Y-70346540D01*
X96759662Y-70408852D01*
X96759060Y-70465049D01*
X96705465Y-70688289D01*
X96686835Y-70925000D01*
X96705465Y-71161711D01*
X96706619Y-71166518D01*
X96706620Y-71166524D01*
X96724058Y-71239156D01*
X96760895Y-71392594D01*
X96762788Y-71397165D01*
X96762789Y-71397167D01*
X96843978Y-71593175D01*
X96851760Y-71611963D01*
X96854346Y-71616183D01*
X96973241Y-71810202D01*
X96973245Y-71810208D01*
X96975824Y-71814416D01*
X97130031Y-71994969D01*
X97310584Y-72149176D01*
X97314792Y-72151755D01*
X97314798Y-72151759D01*
X97508817Y-72270654D01*
X97513037Y-72273240D01*
X97517607Y-72275133D01*
X97517611Y-72275135D01*
X97727833Y-72362211D01*
X97732406Y-72364105D01*
X97812609Y-72383360D01*
X97958476Y-72418380D01*
X97958482Y-72418381D01*
X97963289Y-72419535D01*
X98200000Y-72438165D01*
X98436711Y-72419535D01*
X98441518Y-72418381D01*
X98441524Y-72418380D01*
X98587391Y-72383360D01*
X98667594Y-72364105D01*
X98672167Y-72362211D01*
X98882389Y-72275135D01*
X98882393Y-72275133D01*
X98886963Y-72273240D01*
X98891183Y-72270654D01*
X99085202Y-72151759D01*
X99085208Y-72151755D01*
X99089416Y-72149176D01*
X99269969Y-71994969D01*
X99424176Y-71814416D01*
X99426755Y-71810208D01*
X99426759Y-71810202D01*
X99545654Y-71616183D01*
X99548240Y-71611963D01*
X99556023Y-71593175D01*
X99637211Y-71397167D01*
X99637212Y-71397165D01*
X99639105Y-71392594D01*
X99675942Y-71239156D01*
X99693380Y-71166524D01*
X99693381Y-71166518D01*
X99694535Y-71161711D01*
X99713165Y-70925000D01*
X99694535Y-70688289D01*
X99639105Y-70457406D01*
X99636896Y-70452072D01*
X99550135Y-70242611D01*
X99550133Y-70242607D01*
X99548240Y-70238037D01*
X99496657Y-70153861D01*
X99426759Y-70039798D01*
X99426755Y-70039792D01*
X99424176Y-70035584D01*
X99269969Y-69855031D01*
X99260584Y-69847015D01*
X99211754Y-69805311D01*
X99089416Y-69700824D01*
X99085208Y-69698245D01*
X99085202Y-69698241D01*
X98891183Y-69579346D01*
X98886963Y-69576760D01*
X98882393Y-69574867D01*
X98882389Y-69574865D01*
X98672167Y-69487789D01*
X98672165Y-69487788D01*
X98667594Y-69485895D01*
X98587391Y-69466640D01*
X98441524Y-69431620D01*
X98441518Y-69431619D01*
X98436711Y-69430465D01*
X98200000Y-69411835D01*
X97963289Y-69430465D01*
X97958482Y-69431619D01*
X97958476Y-69431620D01*
X97740049Y-69484060D01*
X97669141Y-69480513D01*
X97621540Y-69450636D01*
X96908104Y-68737199D01*
X96153652Y-67982747D01*
X96146112Y-67974461D01*
X96142000Y-67967982D01*
X96128258Y-67955077D01*
X96092349Y-67921357D01*
X96089507Y-67918602D01*
X96069770Y-67898865D01*
X96066573Y-67896385D01*
X96057551Y-67888680D01*
X96047469Y-67879212D01*
X96025321Y-67858414D01*
X96018375Y-67854595D01*
X96018372Y-67854593D01*
X96007566Y-67848652D01*
X95991047Y-67837801D01*
X95990583Y-67837441D01*
X95975041Y-67825386D01*
X95967772Y-67822241D01*
X95967768Y-67822238D01*
X95934463Y-67807826D01*
X95923813Y-67802609D01*
X95885060Y-67781305D01*
X95865437Y-67776267D01*
X95846734Y-67769863D01*
X95835420Y-67764967D01*
X95835419Y-67764967D01*
X95828145Y-67761819D01*
X95820322Y-67760580D01*
X95820312Y-67760577D01*
X95784476Y-67754901D01*
X95772856Y-67752495D01*
X95737711Y-67743472D01*
X95737710Y-67743472D01*
X95730030Y-67741500D01*
X95709776Y-67741500D01*
X95690065Y-67739949D01*
X95677886Y-67738020D01*
X95670057Y-67736780D01*
X95662165Y-67737526D01*
X95626039Y-67740941D01*
X95614181Y-67741500D01*
X93639594Y-67741500D01*
X93571473Y-67721498D01*
X93550499Y-67704595D01*
X93542928Y-67697024D01*
X93508902Y-67634712D01*
X93506411Y-67598042D01*
X93508307Y-67573956D01*
X93508307Y-67573952D01*
X93508500Y-67571502D01*
X93508500Y-67138498D01*
X93508307Y-67136042D01*
X93506067Y-67107579D01*
X93506066Y-67107574D01*
X93505562Y-67101169D01*
X93472067Y-66985876D01*
X93461357Y-66949012D01*
X93461356Y-66949010D01*
X93459145Y-66941399D01*
X93374453Y-66798193D01*
X93371771Y-66795511D01*
X93346498Y-66731139D01*
X93360400Y-66661516D01*
X93370572Y-66645688D01*
X93374453Y-66641807D01*
X93459145Y-66498601D01*
X93466916Y-66471855D01*
X93481220Y-66422616D01*
X93505562Y-66338831D01*
X93506082Y-66332232D01*
X93508307Y-66303958D01*
X93508307Y-66303950D01*
X93508500Y-66301502D01*
X93508500Y-65868498D01*
X93507945Y-65861444D01*
X93506067Y-65837579D01*
X93506066Y-65837574D01*
X93505562Y-65831169D01*
X93466690Y-65697370D01*
X93461357Y-65679012D01*
X93461356Y-65679010D01*
X93459145Y-65671399D01*
X93374453Y-65528193D01*
X93371771Y-65525511D01*
X93346498Y-65461139D01*
X93360400Y-65391516D01*
X93370572Y-65375688D01*
X93374453Y-65371807D01*
X93459145Y-65228601D01*
X93505562Y-65068831D01*
X93508500Y-65031502D01*
X93508500Y-64598498D01*
X93505562Y-64561169D01*
X93474965Y-64455853D01*
X93461357Y-64409012D01*
X93461356Y-64409010D01*
X93459145Y-64401399D01*
X93374453Y-64258193D01*
X93371771Y-64255511D01*
X93346498Y-64191139D01*
X93360400Y-64121516D01*
X93370572Y-64105688D01*
X93374453Y-64101807D01*
X93459145Y-63958601D01*
X93461415Y-63950790D01*
X93486201Y-63865472D01*
X93505562Y-63798831D01*
X93506580Y-63785905D01*
X93508307Y-63763958D01*
X93508307Y-63763950D01*
X93508500Y-63761502D01*
X93508500Y-63328498D01*
X93508307Y-63326042D01*
X93506067Y-63297579D01*
X93506066Y-63297574D01*
X93505562Y-63291169D01*
X93500459Y-63273605D01*
X98100061Y-63273605D01*
X98100101Y-63287706D01*
X98107370Y-63291000D01*
X99127885Y-63291000D01*
X99143124Y-63286525D01*
X99144329Y-63285135D01*
X99146000Y-63277452D01*
X99146000Y-62755116D01*
X99141525Y-62739877D01*
X99140135Y-62738672D01*
X99132452Y-62737001D01*
X98686017Y-62737001D01*
X98681080Y-62737195D01*
X98652664Y-62739430D01*
X98640069Y-62741730D01*
X98494210Y-62784107D01*
X98479779Y-62790352D01*
X98350322Y-62866911D01*
X98337896Y-62876551D01*
X98231551Y-62982896D01*
X98221911Y-62995322D01*
X98145353Y-63124777D01*
X98139107Y-63139210D01*
X98100061Y-63273605D01*
X93500459Y-63273605D01*
X93491271Y-63241979D01*
X93491474Y-63170984D01*
X93523173Y-63117731D01*
X93817688Y-62823217D01*
X94120501Y-62520404D01*
X94182813Y-62486379D01*
X94209596Y-62483500D01*
X98021233Y-62483500D01*
X98032416Y-62484027D01*
X98039909Y-62485702D01*
X98047835Y-62485453D01*
X98047836Y-62485453D01*
X98107986Y-62483562D01*
X98111945Y-62483500D01*
X98139856Y-62483500D01*
X98143791Y-62483003D01*
X98143856Y-62482995D01*
X98155693Y-62482062D01*
X98187951Y-62481048D01*
X98191970Y-62480922D01*
X98199889Y-62480673D01*
X98219343Y-62475021D01*
X98238700Y-62471013D01*
X98250930Y-62469468D01*
X98250931Y-62469468D01*
X98258797Y-62468474D01*
X98266168Y-62465555D01*
X98266170Y-62465555D01*
X98299912Y-62452196D01*
X98311142Y-62448351D01*
X98345983Y-62438229D01*
X98345984Y-62438229D01*
X98353593Y-62436018D01*
X98360412Y-62431985D01*
X98360417Y-62431983D01*
X98371028Y-62425707D01*
X98388776Y-62417012D01*
X98407617Y-62409552D01*
X98443387Y-62383564D01*
X98453307Y-62377048D01*
X98484535Y-62358580D01*
X98484538Y-62358578D01*
X98491362Y-62354542D01*
X98505683Y-62340221D01*
X98520717Y-62327380D01*
X98530694Y-62320131D01*
X98537107Y-62315472D01*
X98565298Y-62281395D01*
X98573288Y-62272616D01*
X98988569Y-61857335D01*
X99050881Y-61823309D01*
X99121696Y-61828374D01*
X99178532Y-61870921D01*
X99200873Y-61920055D01*
X99201414Y-61922581D01*
X99202113Y-61929426D01*
X99204277Y-61935956D01*
X99204277Y-61935957D01*
X99218681Y-61979426D01*
X99257885Y-62097738D01*
X99350970Y-62248652D01*
X99476348Y-62374030D01*
X99627262Y-62467115D01*
X99698947Y-62490868D01*
X99757318Y-62531282D01*
X99780802Y-62578069D01*
X99781401Y-62582807D01*
X99779036Y-62650686D01*
X99738596Y-62709040D01*
X99688852Y-62729695D01*
X99689498Y-62731896D01*
X99656876Y-62741475D01*
X99655671Y-62742865D01*
X99654000Y-62750548D01*
X99654000Y-63673000D01*
X99633998Y-63741121D01*
X99580342Y-63787614D01*
X99528000Y-63799000D01*
X98113122Y-63799000D01*
X98099591Y-63802973D01*
X98098456Y-63810871D01*
X98139107Y-63950790D01*
X98145352Y-63965221D01*
X98221911Y-64094677D01*
X98227871Y-64102360D01*
X98253820Y-64168444D01*
X98239922Y-64238067D01*
X98229579Y-64254161D01*
X98225547Y-64258193D01*
X98140855Y-64401399D01*
X98138644Y-64409010D01*
X98138643Y-64409012D01*
X98125035Y-64455853D01*
X98094438Y-64561169D01*
X98091500Y-64598498D01*
X98091500Y-65031502D01*
X98094438Y-65068831D01*
X98140855Y-65228601D01*
X98225547Y-65371807D01*
X98228229Y-65374489D01*
X98253502Y-65438861D01*
X98239600Y-65508484D01*
X98229428Y-65524312D01*
X98225547Y-65528193D01*
X98140855Y-65671399D01*
X98138644Y-65679010D01*
X98138643Y-65679012D01*
X98133310Y-65697370D01*
X98094438Y-65831169D01*
X98093934Y-65837574D01*
X98093933Y-65837579D01*
X98092055Y-65861444D01*
X98091500Y-65868498D01*
X98091500Y-66301502D01*
X98091693Y-66303950D01*
X98091693Y-66303958D01*
X98093919Y-66332232D01*
X98094438Y-66338831D01*
X98118780Y-66422616D01*
X98133085Y-66471855D01*
X98140855Y-66498601D01*
X98225547Y-66641807D01*
X98228229Y-66644489D01*
X98253502Y-66708861D01*
X98239600Y-66778484D01*
X98229428Y-66794312D01*
X98225547Y-66798193D01*
X98140855Y-66941399D01*
X98138644Y-66949010D01*
X98138643Y-66949012D01*
X98127933Y-66985876D01*
X98094438Y-67101169D01*
X98093934Y-67107574D01*
X98093933Y-67107579D01*
X98091693Y-67136042D01*
X98091500Y-67138498D01*
X98091500Y-67571502D01*
X98091693Y-67573950D01*
X98091693Y-67573958D01*
X98093589Y-67598042D01*
X98094438Y-67608831D01*
X98110892Y-67665467D01*
X98132982Y-67741500D01*
X98140855Y-67768601D01*
X98148368Y-67781305D01*
X98221509Y-67904980D01*
X98221511Y-67904983D01*
X98225547Y-67911807D01*
X98343193Y-68029453D01*
X98350017Y-68033489D01*
X98350020Y-68033491D01*
X98445516Y-68089967D01*
X98486399Y-68114145D01*
X98494010Y-68116356D01*
X98494012Y-68116357D01*
X98546231Y-68131528D01*
X98646169Y-68160562D01*
X98652581Y-68161067D01*
X98658922Y-68162225D01*
X98658594Y-68164022D01*
X98716730Y-68186182D01*
X98758868Y-68243321D01*
X98766500Y-68286506D01*
X98766500Y-68296233D01*
X98765973Y-68307416D01*
X98764298Y-68314909D01*
X98764547Y-68322835D01*
X98764547Y-68322836D01*
X98766438Y-68382986D01*
X98766500Y-68386945D01*
X98766500Y-68414856D01*
X98766997Y-68418790D01*
X98766997Y-68418791D01*
X98767005Y-68418856D01*
X98767938Y-68430693D01*
X98769327Y-68474889D01*
X98774978Y-68494339D01*
X98778987Y-68513700D01*
X98781526Y-68533797D01*
X98784445Y-68541168D01*
X98784445Y-68541170D01*
X98797804Y-68574912D01*
X98801649Y-68586142D01*
X98803423Y-68592247D01*
X98813982Y-68628593D01*
X98818015Y-68635412D01*
X98818017Y-68635417D01*
X98824293Y-68646028D01*
X98832988Y-68663776D01*
X98840448Y-68682617D01*
X98845110Y-68689033D01*
X98845110Y-68689034D01*
X98866436Y-68718387D01*
X98872952Y-68728307D01*
X98890996Y-68758817D01*
X98895458Y-68766362D01*
X98909779Y-68780683D01*
X98922619Y-68795716D01*
X98934528Y-68812107D01*
X98964594Y-68836980D01*
X98968605Y-68840298D01*
X98977384Y-68848288D01*
X100475636Y-70346540D01*
X100509662Y-70408852D01*
X100509060Y-70465049D01*
X100455465Y-70688289D01*
X100436835Y-70925000D01*
X100455465Y-71161711D01*
X100456619Y-71166518D01*
X100456620Y-71166524D01*
X100474058Y-71239156D01*
X100510895Y-71392594D01*
X100512788Y-71397165D01*
X100512789Y-71397167D01*
X100593978Y-71593175D01*
X100601760Y-71611963D01*
X100604346Y-71616183D01*
X100723241Y-71810202D01*
X100723245Y-71810208D01*
X100725824Y-71814416D01*
X100880031Y-71994969D01*
X101060584Y-72149176D01*
X101064792Y-72151755D01*
X101064798Y-72151759D01*
X101258817Y-72270654D01*
X101263037Y-72273240D01*
X101267607Y-72275133D01*
X101267611Y-72275135D01*
X101477833Y-72362211D01*
X101482406Y-72364105D01*
X101562609Y-72383360D01*
X101708476Y-72418380D01*
X101708482Y-72418381D01*
X101713289Y-72419535D01*
X101950000Y-72438165D01*
X102186711Y-72419535D01*
X102191518Y-72418381D01*
X102191524Y-72418380D01*
X102337391Y-72383360D01*
X102417594Y-72364105D01*
X102422167Y-72362211D01*
X102632389Y-72275135D01*
X102632393Y-72275133D01*
X102636963Y-72273240D01*
X102641183Y-72270654D01*
X102835202Y-72151759D01*
X102835208Y-72151755D01*
X102839416Y-72149176D01*
X103019969Y-71994969D01*
X103174176Y-71814416D01*
X103176755Y-71810208D01*
X103176759Y-71810202D01*
X103295654Y-71616183D01*
X103298240Y-71611963D01*
X103306023Y-71593175D01*
X103387211Y-71397167D01*
X103387212Y-71397165D01*
X103389105Y-71392594D01*
X103425942Y-71239156D01*
X103443380Y-71166524D01*
X103443381Y-71166518D01*
X103444535Y-71161711D01*
X103463165Y-70925000D01*
X103444535Y-70688289D01*
X103389105Y-70457406D01*
X103386896Y-70452072D01*
X103300135Y-70242611D01*
X103300133Y-70242607D01*
X103298240Y-70238037D01*
X103246657Y-70153861D01*
X103176759Y-70039798D01*
X103176755Y-70039792D01*
X103174176Y-70035584D01*
X103019969Y-69855031D01*
X103010584Y-69847015D01*
X102961754Y-69805311D01*
X102839416Y-69700824D01*
X102835208Y-69698245D01*
X102835202Y-69698241D01*
X102641183Y-69579346D01*
X102636963Y-69576760D01*
X102632393Y-69574867D01*
X102632389Y-69574865D01*
X102422167Y-69487789D01*
X102422165Y-69487788D01*
X102417594Y-69485895D01*
X102337391Y-69466640D01*
X102191524Y-69431620D01*
X102191518Y-69431619D01*
X102186711Y-69430465D01*
X101950000Y-69411835D01*
X101713289Y-69430465D01*
X101708482Y-69431619D01*
X101708476Y-69431620D01*
X101490049Y-69484060D01*
X101419141Y-69480513D01*
X101371540Y-69450636D01*
X100248410Y-68327505D01*
X100214384Y-68265193D01*
X100219449Y-68194377D01*
X100261996Y-68137542D01*
X100302353Y-68117413D01*
X100305987Y-68116357D01*
X100313601Y-68114145D01*
X100354484Y-68089967D01*
X100449980Y-68033491D01*
X100449983Y-68033489D01*
X100456807Y-68029453D01*
X100574453Y-67911807D01*
X100578489Y-67904983D01*
X100578491Y-67904980D01*
X100651632Y-67781305D01*
X100659145Y-67768601D01*
X100667019Y-67741500D01*
X100689108Y-67665467D01*
X100705562Y-67608831D01*
X100706412Y-67598042D01*
X100708307Y-67573958D01*
X100708307Y-67573950D01*
X100708500Y-67571502D01*
X100708500Y-67138498D01*
X100708465Y-67138057D01*
X100725716Y-67069476D01*
X100777510Y-67020918D01*
X100847335Y-67008070D01*
X100913021Y-67035012D01*
X100923395Y-67044299D01*
X104225636Y-70346540D01*
X104259662Y-70408852D01*
X104259060Y-70465049D01*
X104205465Y-70688289D01*
X104186835Y-70925000D01*
X104205465Y-71161711D01*
X104206619Y-71166518D01*
X104206620Y-71166524D01*
X104224058Y-71239156D01*
X104260895Y-71392594D01*
X104262788Y-71397165D01*
X104262789Y-71397167D01*
X104343978Y-71593175D01*
X104351760Y-71611963D01*
X104354346Y-71616183D01*
X104473241Y-71810202D01*
X104473245Y-71810208D01*
X104475824Y-71814416D01*
X104630031Y-71994969D01*
X104810584Y-72149176D01*
X104814792Y-72151755D01*
X104814798Y-72151759D01*
X105008817Y-72270654D01*
X105013037Y-72273240D01*
X105017607Y-72275133D01*
X105017611Y-72275135D01*
X105227833Y-72362211D01*
X105232406Y-72364105D01*
X105312609Y-72383360D01*
X105458476Y-72418380D01*
X105458482Y-72418381D01*
X105463289Y-72419535D01*
X105700000Y-72438165D01*
X105936711Y-72419535D01*
X105941518Y-72418381D01*
X105941524Y-72418380D01*
X106087391Y-72383360D01*
X106167594Y-72364105D01*
X106172167Y-72362211D01*
X106382389Y-72275135D01*
X106382393Y-72275133D01*
X106386963Y-72273240D01*
X106391183Y-72270654D01*
X106585202Y-72151759D01*
X106585208Y-72151755D01*
X106589416Y-72149176D01*
X106769969Y-71994969D01*
X106924176Y-71814416D01*
X106926755Y-71810208D01*
X106926759Y-71810202D01*
X107045654Y-71616183D01*
X107048240Y-71611963D01*
X107056023Y-71593175D01*
X107137211Y-71397167D01*
X107137212Y-71397165D01*
X107139105Y-71392594D01*
X107175942Y-71239156D01*
X107193380Y-71166524D01*
X107193381Y-71166518D01*
X107194535Y-71161711D01*
X107213165Y-70925000D01*
X107194535Y-70688289D01*
X107139105Y-70457406D01*
X107136896Y-70452072D01*
X107050135Y-70242611D01*
X107050133Y-70242607D01*
X107048240Y-70238037D01*
X106996657Y-70153861D01*
X106926759Y-70039798D01*
X106926755Y-70039792D01*
X106924176Y-70035584D01*
X106769969Y-69855031D01*
X106760584Y-69847015D01*
X106711754Y-69805311D01*
X106589416Y-69700824D01*
X106585208Y-69698245D01*
X106585202Y-69698241D01*
X106391183Y-69579346D01*
X106386963Y-69576760D01*
X106382393Y-69574867D01*
X106382389Y-69574865D01*
X106172167Y-69487789D01*
X106172165Y-69487788D01*
X106167594Y-69485895D01*
X106087391Y-69466640D01*
X105941524Y-69431620D01*
X105941518Y-69431619D01*
X105936711Y-69430465D01*
X105700000Y-69411835D01*
X105463289Y-69430465D01*
X105458482Y-69431619D01*
X105458476Y-69431620D01*
X105240049Y-69484060D01*
X105169141Y-69480513D01*
X105121540Y-69450636D01*
X103469500Y-67798595D01*
X103435474Y-67736283D01*
X103440539Y-67665467D01*
X103483086Y-67608632D01*
X103549606Y-67583821D01*
X103558595Y-67583500D01*
X103635406Y-67583500D01*
X103703527Y-67603502D01*
X103724501Y-67620405D01*
X104521343Y-68417247D01*
X104528887Y-68425537D01*
X104533000Y-68432018D01*
X104538777Y-68437443D01*
X104582667Y-68478658D01*
X104585509Y-68481413D01*
X104605231Y-68501135D01*
X104608355Y-68503558D01*
X104608359Y-68503562D01*
X104608424Y-68503612D01*
X104617445Y-68511317D01*
X104649679Y-68541586D01*
X104656627Y-68545405D01*
X104656629Y-68545407D01*
X104667432Y-68551346D01*
X104683959Y-68562202D01*
X104693698Y-68569757D01*
X104693700Y-68569758D01*
X104699960Y-68574614D01*
X104740540Y-68592174D01*
X104751188Y-68597391D01*
X104778568Y-68612443D01*
X104789940Y-68618695D01*
X104797616Y-68620666D01*
X104797619Y-68620667D01*
X104809562Y-68623733D01*
X104828267Y-68630137D01*
X104846855Y-68638181D01*
X104854678Y-68639420D01*
X104854688Y-68639423D01*
X104890524Y-68645099D01*
X104902144Y-68647505D01*
X104936841Y-68656413D01*
X104944970Y-68658500D01*
X104965224Y-68658500D01*
X104984934Y-68660051D01*
X105004943Y-68663220D01*
X105012835Y-68662474D01*
X105048961Y-68659059D01*
X105060819Y-68658500D01*
X106235406Y-68658500D01*
X106303527Y-68678502D01*
X106324501Y-68695405D01*
X107975636Y-70346540D01*
X108009662Y-70408852D01*
X108009060Y-70465049D01*
X107955465Y-70688289D01*
X107936835Y-70925000D01*
X107955465Y-71161711D01*
X107956619Y-71166518D01*
X107956620Y-71166524D01*
X107974058Y-71239156D01*
X108010895Y-71392594D01*
X108012788Y-71397165D01*
X108012789Y-71397167D01*
X108093978Y-71593175D01*
X108101760Y-71611963D01*
X108104346Y-71616183D01*
X108223241Y-71810202D01*
X108223245Y-71810208D01*
X108225824Y-71814416D01*
X108380031Y-71994969D01*
X108560584Y-72149176D01*
X108564792Y-72151755D01*
X108564798Y-72151759D01*
X108758817Y-72270654D01*
X108763037Y-72273240D01*
X108767607Y-72275133D01*
X108767611Y-72275135D01*
X108977833Y-72362211D01*
X108982406Y-72364105D01*
X109062609Y-72383360D01*
X109208476Y-72418380D01*
X109208482Y-72418381D01*
X109213289Y-72419535D01*
X109450000Y-72438165D01*
X109686711Y-72419535D01*
X109691518Y-72418381D01*
X109691524Y-72418380D01*
X109837391Y-72383360D01*
X109917594Y-72364105D01*
X109922167Y-72362211D01*
X110132389Y-72275135D01*
X110132393Y-72275133D01*
X110136963Y-72273240D01*
X110141183Y-72270654D01*
X110335202Y-72151759D01*
X110335208Y-72151755D01*
X110339416Y-72149176D01*
X110519969Y-71994969D01*
X110674176Y-71814416D01*
X110676755Y-71810208D01*
X110676759Y-71810202D01*
X110795654Y-71616183D01*
X110798240Y-71611963D01*
X110806023Y-71593175D01*
X110887211Y-71397167D01*
X110887212Y-71397165D01*
X110889105Y-71392594D01*
X110925942Y-71239156D01*
X110943380Y-71166524D01*
X110943381Y-71166518D01*
X110944535Y-71161711D01*
X110963165Y-70925000D01*
X110944535Y-70688289D01*
X110889105Y-70457406D01*
X110886896Y-70452072D01*
X110800135Y-70242611D01*
X110800133Y-70242607D01*
X110798240Y-70238037D01*
X110746657Y-70153861D01*
X110676759Y-70039798D01*
X110676755Y-70039792D01*
X110674176Y-70035584D01*
X110519969Y-69855031D01*
X110510584Y-69847015D01*
X110461754Y-69805311D01*
X110339416Y-69700824D01*
X110335208Y-69698245D01*
X110335202Y-69698241D01*
X110141183Y-69579346D01*
X110136963Y-69576760D01*
X110132393Y-69574867D01*
X110132389Y-69574865D01*
X109922167Y-69487789D01*
X109922165Y-69487788D01*
X109917594Y-69485895D01*
X109837391Y-69466640D01*
X109691524Y-69431620D01*
X109691518Y-69431619D01*
X109686711Y-69430465D01*
X109450000Y-69411835D01*
X109213289Y-69430465D01*
X109208482Y-69431619D01*
X109208476Y-69431620D01*
X109050938Y-69469442D01*
X108990049Y-69484060D01*
X108919142Y-69480513D01*
X108871541Y-69450636D01*
X107643999Y-68223094D01*
X107609973Y-68160782D01*
X107615038Y-68089967D01*
X107657585Y-68033131D01*
X107724105Y-68008320D01*
X107733094Y-68007999D01*
X107810723Y-68007999D01*
X107818935Y-68007461D01*
X107925533Y-67993428D01*
X107941348Y-67989190D01*
X108073993Y-67934247D01*
X108088176Y-67926059D01*
X108202080Y-67838656D01*
X108213656Y-67827080D01*
X108301059Y-67713176D01*
X108309247Y-67698993D01*
X108364189Y-67566351D01*
X108368428Y-67550531D01*
X108372716Y-67517960D01*
X108370505Y-67503778D01*
X108357348Y-67500000D01*
X108168337Y-67500000D01*
X108100216Y-67479998D01*
X108053723Y-67426342D01*
X108043619Y-67356068D01*
X108073113Y-67291488D01*
X108091632Y-67274038D01*
X108202436Y-67189014D01*
X108202437Y-67189013D01*
X108208987Y-67183987D01*
X108235608Y-67149294D01*
X108292946Y-67107428D01*
X108335569Y-67100000D01*
X108356965Y-67100000D01*
X108370736Y-67095956D01*
X108372765Y-67082417D01*
X108368428Y-67049467D01*
X108364190Y-67033652D01*
X108360140Y-67023874D01*
X108352550Y-66953285D01*
X108360140Y-66927434D01*
X108363401Y-66919563D01*
X108367838Y-66908850D01*
X108372931Y-66870166D01*
X108382962Y-66793972D01*
X108382962Y-66793971D01*
X108383500Y-66789885D01*
X108383499Y-66510116D01*
X108379494Y-66479688D01*
X108368916Y-66399337D01*
X108368916Y-66399335D01*
X108367838Y-66391150D01*
X108360411Y-66373219D01*
X108352821Y-66302630D01*
X108360411Y-66276780D01*
X108364678Y-66266480D01*
X108364679Y-66266477D01*
X108367838Y-66258850D01*
X108374204Y-66210493D01*
X108382962Y-66143972D01*
X108382962Y-66143971D01*
X108383500Y-66139885D01*
X108383499Y-65860116D01*
X108381808Y-65847267D01*
X108392749Y-65777119D01*
X108439878Y-65724021D01*
X108508233Y-65704833D01*
X108576110Y-65725646D01*
X108595825Y-65741729D01*
X111446343Y-68592247D01*
X111453887Y-68600537D01*
X111458000Y-68607018D01*
X111463777Y-68612443D01*
X111507667Y-68653658D01*
X111510509Y-68656413D01*
X111530230Y-68676134D01*
X111533425Y-68678612D01*
X111542447Y-68686318D01*
X111574679Y-68716586D01*
X111581628Y-68720406D01*
X111592432Y-68726346D01*
X111608956Y-68737199D01*
X111624959Y-68749613D01*
X111665543Y-68767176D01*
X111676173Y-68772383D01*
X111714940Y-68793695D01*
X111722617Y-68795666D01*
X111722622Y-68795668D01*
X111734558Y-68798732D01*
X111753266Y-68805137D01*
X111771855Y-68813181D01*
X111779683Y-68814421D01*
X111779690Y-68814423D01*
X111815524Y-68820099D01*
X111827144Y-68822505D01*
X111862289Y-68831528D01*
X111869970Y-68833500D01*
X111890224Y-68833500D01*
X111909934Y-68835051D01*
X111929943Y-68838220D01*
X111937835Y-68837474D01*
X111973961Y-68834059D01*
X111985819Y-68833500D01*
X115285406Y-68833500D01*
X115353527Y-68853502D01*
X115374501Y-68870405D01*
X116625636Y-70121541D01*
X116659662Y-70183853D01*
X116659060Y-70240049D01*
X116649807Y-70278593D01*
X116608158Y-70452072D01*
X116605465Y-70463289D01*
X116586835Y-70700000D01*
X116605465Y-70936711D01*
X116606619Y-70941518D01*
X116606620Y-70941524D01*
X116615205Y-70977281D01*
X116660895Y-71167594D01*
X116662788Y-71172165D01*
X116662789Y-71172167D01*
X116690537Y-71239156D01*
X116751760Y-71386963D01*
X116754346Y-71391183D01*
X116873241Y-71585202D01*
X116873245Y-71585208D01*
X116875824Y-71589416D01*
X117030031Y-71769969D01*
X117210584Y-71924176D01*
X117214792Y-71926755D01*
X117214798Y-71926759D01*
X117326107Y-71994969D01*
X117413037Y-72048240D01*
X117417607Y-72050133D01*
X117417611Y-72050135D01*
X117627833Y-72137211D01*
X117632406Y-72139105D01*
X117674355Y-72149176D01*
X117858476Y-72193380D01*
X117858482Y-72193381D01*
X117863289Y-72194535D01*
X118100000Y-72213165D01*
X118336711Y-72194535D01*
X118341518Y-72193381D01*
X118341524Y-72193380D01*
X118525645Y-72149176D01*
X118567594Y-72139105D01*
X118572167Y-72137211D01*
X118782389Y-72050135D01*
X118782393Y-72050133D01*
X118786963Y-72048240D01*
X118873893Y-71994969D01*
X118985202Y-71926759D01*
X118985208Y-71926755D01*
X118989416Y-71924176D01*
X119169969Y-71769969D01*
X119324176Y-71589416D01*
X119326755Y-71585208D01*
X119326759Y-71585202D01*
X119445654Y-71391183D01*
X119448240Y-71386963D01*
X119509464Y-71239156D01*
X119537211Y-71172167D01*
X119537212Y-71172165D01*
X119539105Y-71167594D01*
X119584795Y-70977281D01*
X119593380Y-70941524D01*
X119593381Y-70941518D01*
X119594535Y-70936711D01*
X119613165Y-70700000D01*
X119594535Y-70463289D01*
X119591843Y-70452072D01*
X119550193Y-70278593D01*
X119539105Y-70232406D01*
X119518971Y-70183797D01*
X119450135Y-70017611D01*
X119450133Y-70017607D01*
X119448240Y-70013037D01*
X119389752Y-69917594D01*
X119326759Y-69814798D01*
X119326755Y-69814792D01*
X119324176Y-69810584D01*
X119169969Y-69630031D01*
X118989416Y-69475824D01*
X118985208Y-69473245D01*
X118985202Y-69473241D01*
X118791183Y-69354346D01*
X118786963Y-69351760D01*
X118782393Y-69349867D01*
X118782389Y-69349865D01*
X118572167Y-69262789D01*
X118572165Y-69262788D01*
X118567594Y-69260895D01*
X118487391Y-69241640D01*
X118341524Y-69206620D01*
X118341518Y-69206619D01*
X118336711Y-69205465D01*
X118100000Y-69186835D01*
X117863289Y-69205465D01*
X117858482Y-69206619D01*
X117858476Y-69206620D01*
X117640049Y-69259060D01*
X117569141Y-69255513D01*
X117521542Y-69225638D01*
X116659138Y-68363233D01*
X116625114Y-68300923D01*
X116630179Y-68230107D01*
X116672726Y-68173272D01*
X116722038Y-68150893D01*
X116725284Y-68150203D01*
X116757788Y-68143294D01*
X116763819Y-68140609D01*
X116926222Y-68068303D01*
X116926224Y-68068302D01*
X116932252Y-68065618D01*
X117086753Y-67953366D01*
X117180147Y-67849641D01*
X117240592Y-67812403D01*
X117311576Y-67813755D01*
X117360032Y-67842100D01*
X117361927Y-67843879D01*
X117364770Y-67846549D01*
X117367615Y-67849307D01*
X117387336Y-67869028D01*
X117390531Y-67871506D01*
X117399553Y-67879212D01*
X117431785Y-67909480D01*
X117438734Y-67913300D01*
X117449538Y-67919240D01*
X117466062Y-67930093D01*
X117482065Y-67942507D01*
X117522649Y-67960070D01*
X117533279Y-67965277D01*
X117572046Y-67986589D01*
X117579723Y-67988560D01*
X117579728Y-67988562D01*
X117591664Y-67991626D01*
X117610372Y-67998031D01*
X117628961Y-68006075D01*
X117636786Y-68007314D01*
X117636788Y-68007315D01*
X117672625Y-68012991D01*
X117684246Y-68015398D01*
X117717144Y-68023844D01*
X117727076Y-68026394D01*
X117747337Y-68026394D01*
X117767046Y-68027945D01*
X117787049Y-68031113D01*
X117794941Y-68030367D01*
X117800168Y-68029873D01*
X117831060Y-68026953D01*
X117842917Y-68026394D01*
X119278300Y-68026394D01*
X119346421Y-68046396D01*
X119367395Y-68063299D01*
X120175636Y-68871540D01*
X120209662Y-68933852D01*
X120209060Y-68990049D01*
X120157437Y-69205077D01*
X120155465Y-69213289D01*
X120136835Y-69450000D01*
X120155465Y-69686711D01*
X120156619Y-69691518D01*
X120156620Y-69691524D01*
X120175767Y-69771277D01*
X120210895Y-69917594D01*
X120212788Y-69922165D01*
X120212789Y-69922167D01*
X120296759Y-70124889D01*
X120301760Y-70136963D01*
X120304346Y-70141183D01*
X120423241Y-70335202D01*
X120423245Y-70335208D01*
X120425824Y-70339416D01*
X120580031Y-70519969D01*
X120760584Y-70674176D01*
X120764792Y-70676755D01*
X120764798Y-70676759D01*
X120958817Y-70795654D01*
X120963037Y-70798240D01*
X120967607Y-70800133D01*
X120967611Y-70800135D01*
X121177833Y-70887211D01*
X121182406Y-70889105D01*
X121262609Y-70908360D01*
X121408476Y-70943380D01*
X121408482Y-70943381D01*
X121413289Y-70944535D01*
X121650000Y-70963165D01*
X121886711Y-70944535D01*
X121891518Y-70943381D01*
X121891524Y-70943380D01*
X122037391Y-70908360D01*
X122117594Y-70889105D01*
X122122167Y-70887211D01*
X122332389Y-70800135D01*
X122332393Y-70800133D01*
X122336963Y-70798240D01*
X122341183Y-70795654D01*
X122535202Y-70676759D01*
X122535208Y-70676755D01*
X122539416Y-70674176D01*
X122719969Y-70519969D01*
X122874176Y-70339416D01*
X122876755Y-70335208D01*
X122876759Y-70335202D01*
X122995654Y-70141183D01*
X122998240Y-70136963D01*
X123003242Y-70124889D01*
X123087211Y-69922167D01*
X123087212Y-69922165D01*
X123089105Y-69917594D01*
X123124233Y-69771277D01*
X123143380Y-69691524D01*
X123143381Y-69691518D01*
X123144535Y-69686711D01*
X123163165Y-69450000D01*
X123144535Y-69213289D01*
X123142564Y-69205077D01*
X123100172Y-69028502D01*
X123089105Y-68982406D01*
X123087211Y-68977833D01*
X123000135Y-68767611D01*
X123000133Y-68767607D01*
X122998240Y-68763037D01*
X122990014Y-68749613D01*
X122876759Y-68564798D01*
X122876755Y-68564792D01*
X122874176Y-68560584D01*
X122719969Y-68380031D01*
X122539416Y-68225824D01*
X122535208Y-68223245D01*
X122535202Y-68223241D01*
X122341183Y-68104346D01*
X122336963Y-68101760D01*
X122332393Y-68099867D01*
X122332389Y-68099865D01*
X122122167Y-68012789D01*
X122122165Y-68012788D01*
X122117594Y-68010895D01*
X121974337Y-67976502D01*
X121891524Y-67956620D01*
X121891518Y-67956619D01*
X121886711Y-67955465D01*
X121650000Y-67936835D01*
X121413289Y-67955465D01*
X121408482Y-67956619D01*
X121408476Y-67956620D01*
X121272814Y-67989190D01*
X121190049Y-68009060D01*
X121119142Y-68005513D01*
X121071541Y-67975636D01*
X120096546Y-67000641D01*
X120089006Y-66992355D01*
X120084894Y-66985876D01*
X120035242Y-66939250D01*
X120032401Y-66936496D01*
X120012664Y-66916759D01*
X120009467Y-66914279D01*
X120000445Y-66906574D01*
X119999935Y-66906095D01*
X119968215Y-66876308D01*
X119961269Y-66872489D01*
X119961266Y-66872487D01*
X119950460Y-66866546D01*
X119933941Y-66855695D01*
X119924787Y-66848595D01*
X119917935Y-66843280D01*
X119910666Y-66840135D01*
X119910662Y-66840132D01*
X119877357Y-66825720D01*
X119866707Y-66820503D01*
X119827954Y-66799199D01*
X119808331Y-66794161D01*
X119789628Y-66787757D01*
X119778314Y-66782861D01*
X119778313Y-66782861D01*
X119771039Y-66779713D01*
X119763216Y-66778474D01*
X119763206Y-66778471D01*
X119727370Y-66772795D01*
X119715750Y-66770389D01*
X119680605Y-66761366D01*
X119680604Y-66761366D01*
X119672924Y-66759394D01*
X119652670Y-66759394D01*
X119632959Y-66757843D01*
X119620780Y-66755914D01*
X119612951Y-66754674D01*
X119605059Y-66755420D01*
X119568933Y-66758835D01*
X119557075Y-66759394D01*
X118121701Y-66759394D01*
X118053580Y-66739392D01*
X118032606Y-66722489D01*
X116308712Y-64998595D01*
X116274686Y-64936283D01*
X116279751Y-64865468D01*
X116322298Y-64808632D01*
X116388818Y-64783821D01*
X116397807Y-64783500D01*
X116839154Y-64783499D01*
X116850544Y-64783499D01*
X116853721Y-64783174D01*
X116853730Y-64783174D01*
X116902467Y-64778195D01*
X116954426Y-64772887D01*
X117122738Y-64717115D01*
X117244922Y-64641751D01*
X117267404Y-64627884D01*
X117267405Y-64627883D01*
X117273652Y-64624030D01*
X117399030Y-64498652D01*
X117402883Y-64492405D01*
X117402888Y-64492399D01*
X117425430Y-64455853D01*
X117478216Y-64408375D01*
X117532670Y-64396000D01*
X119397906Y-64396000D01*
X119466027Y-64416002D01*
X119487001Y-64432905D01*
X120175636Y-65121540D01*
X120209662Y-65183852D01*
X120209060Y-65240049D01*
X120158488Y-65450698D01*
X120155465Y-65463289D01*
X120136835Y-65700000D01*
X120155465Y-65936711D01*
X120156619Y-65941518D01*
X120156620Y-65941524D01*
X120191640Y-66087391D01*
X120210895Y-66167594D01*
X120212788Y-66172165D01*
X120212789Y-66172167D01*
X120296068Y-66373220D01*
X120301760Y-66386963D01*
X120304346Y-66391183D01*
X120423241Y-66585202D01*
X120423245Y-66585208D01*
X120425824Y-66589416D01*
X120580031Y-66769969D01*
X120583787Y-66773177D01*
X120590001Y-66778484D01*
X120760584Y-66924176D01*
X120764792Y-66926755D01*
X120764798Y-66926759D01*
X120939232Y-67033652D01*
X120963037Y-67048240D01*
X120967607Y-67050133D01*
X120967611Y-67050135D01*
X121175011Y-67136042D01*
X121182406Y-67139105D01*
X121262609Y-67158360D01*
X121408476Y-67193380D01*
X121408482Y-67193381D01*
X121413289Y-67194535D01*
X121650000Y-67213165D01*
X121886711Y-67194535D01*
X121891518Y-67193381D01*
X121891524Y-67193380D01*
X122037391Y-67158360D01*
X122117594Y-67139105D01*
X122124989Y-67136042D01*
X122332389Y-67050135D01*
X122332393Y-67050133D01*
X122336963Y-67048240D01*
X122360768Y-67033652D01*
X122535202Y-66926759D01*
X122535208Y-66926755D01*
X122539416Y-66924176D01*
X122709999Y-66778484D01*
X122716213Y-66773177D01*
X122719969Y-66769969D01*
X122874176Y-66589416D01*
X122876755Y-66585208D01*
X122876759Y-66585202D01*
X122995654Y-66391183D01*
X122998240Y-66386963D01*
X123003933Y-66373220D01*
X123087211Y-66172167D01*
X123087212Y-66172165D01*
X123089105Y-66167594D01*
X123108360Y-66087391D01*
X123143380Y-65941524D01*
X123143381Y-65941518D01*
X123144535Y-65936711D01*
X123163165Y-65700000D01*
X123144535Y-65463289D01*
X123141513Y-65450698D01*
X123090260Y-65237218D01*
X123089105Y-65232406D01*
X123084376Y-65220988D01*
X123000135Y-65017611D01*
X123000133Y-65017607D01*
X122998240Y-65013037D01*
X122928892Y-64899872D01*
X122876759Y-64814798D01*
X122876755Y-64814792D01*
X122874176Y-64810584D01*
X122719969Y-64630031D01*
X122539416Y-64475824D01*
X122535208Y-64473245D01*
X122535202Y-64473241D01*
X122341183Y-64354346D01*
X122336963Y-64351760D01*
X122332393Y-64349867D01*
X122332389Y-64349865D01*
X122122167Y-64262789D01*
X122122165Y-64262788D01*
X122117594Y-64260895D01*
X122024245Y-64238484D01*
X121891524Y-64206620D01*
X121891518Y-64206619D01*
X121886711Y-64205465D01*
X121650000Y-64186835D01*
X121413289Y-64205465D01*
X121408482Y-64206619D01*
X121408476Y-64206620D01*
X121266787Y-64240637D01*
X121190049Y-64259060D01*
X121119142Y-64255513D01*
X121071540Y-64225636D01*
X120664277Y-63818372D01*
X120216147Y-63370242D01*
X120208613Y-63361963D01*
X120204500Y-63355482D01*
X120154848Y-63308856D01*
X120152007Y-63306102D01*
X120132270Y-63286365D01*
X120129073Y-63283885D01*
X120120051Y-63276180D01*
X120107333Y-63264237D01*
X120087821Y-63245914D01*
X120080875Y-63242095D01*
X120080872Y-63242093D01*
X120070066Y-63236152D01*
X120053547Y-63225301D01*
X120053083Y-63224941D01*
X120037541Y-63212886D01*
X120030272Y-63209741D01*
X120030268Y-63209738D01*
X119996963Y-63195326D01*
X119986313Y-63190109D01*
X119947560Y-63168805D01*
X119927937Y-63163767D01*
X119909234Y-63157363D01*
X119897920Y-63152467D01*
X119897919Y-63152467D01*
X119890645Y-63149319D01*
X119882822Y-63148080D01*
X119882812Y-63148077D01*
X119846976Y-63142401D01*
X119835356Y-63139995D01*
X119800211Y-63130972D01*
X119800210Y-63130972D01*
X119792530Y-63129000D01*
X119772276Y-63129000D01*
X119752565Y-63127449D01*
X119740386Y-63125520D01*
X119732557Y-63124280D01*
X119724665Y-63125026D01*
X119688539Y-63128441D01*
X119676681Y-63129000D01*
X117532670Y-63129000D01*
X117464549Y-63108998D01*
X117425430Y-63069147D01*
X117402888Y-63032601D01*
X117402883Y-63032595D01*
X117399030Y-63026348D01*
X117311777Y-62939095D01*
X117277751Y-62876783D01*
X117282816Y-62805968D01*
X117311777Y-62760905D01*
X117399030Y-62673652D01*
X117492115Y-62522738D01*
X117524823Y-62424030D01*
X117545725Y-62360952D01*
X117545726Y-62360948D01*
X117547887Y-62354426D01*
X117549339Y-62340221D01*
X117558175Y-62253729D01*
X117558175Y-62253723D01*
X117558500Y-62250545D01*
X117558499Y-61624456D01*
X117553742Y-61577884D01*
X117548585Y-61527411D01*
X117547887Y-61520574D01*
X117492115Y-61352262D01*
X117420453Y-61236080D01*
X117402884Y-61207596D01*
X117402883Y-61207595D01*
X117399030Y-61201348D01*
X117296277Y-61098595D01*
X117262251Y-61036283D01*
X117267316Y-60965468D01*
X117309863Y-60908632D01*
X117376383Y-60883821D01*
X117385372Y-60883500D01*
X119635406Y-60883500D01*
X119703527Y-60903502D01*
X119724501Y-60920405D01*
X120175636Y-61371540D01*
X120209662Y-61433852D01*
X120209060Y-61490049D01*
X120158629Y-61700112D01*
X120155465Y-61713289D01*
X120136835Y-61950000D01*
X120155465Y-62186711D01*
X120156619Y-62191518D01*
X120156620Y-62191524D01*
X120190813Y-62333947D01*
X120210895Y-62417594D01*
X120212788Y-62422165D01*
X120212789Y-62422167D01*
X120289287Y-62606850D01*
X120301760Y-62636963D01*
X120304346Y-62641183D01*
X120423241Y-62835202D01*
X120423245Y-62835208D01*
X120425824Y-62839416D01*
X120580031Y-63019969D01*
X120760584Y-63174176D01*
X120764792Y-63176755D01*
X120764798Y-63176759D01*
X120951222Y-63291000D01*
X120963037Y-63298240D01*
X120967607Y-63300133D01*
X120967611Y-63300135D01*
X121171445Y-63384565D01*
X121182406Y-63389105D01*
X121258839Y-63407455D01*
X121408476Y-63443380D01*
X121408482Y-63443381D01*
X121413289Y-63444535D01*
X121650000Y-63463165D01*
X121886711Y-63444535D01*
X121891518Y-63443381D01*
X121891524Y-63443380D01*
X122041161Y-63407455D01*
X122117594Y-63389105D01*
X122128555Y-63384565D01*
X122332389Y-63300135D01*
X122332393Y-63300133D01*
X122336963Y-63298240D01*
X122348778Y-63291000D01*
X122535202Y-63176759D01*
X122535208Y-63176755D01*
X122539416Y-63174176D01*
X122719969Y-63019969D01*
X122874176Y-62839416D01*
X122876755Y-62835208D01*
X122876759Y-62835202D01*
X122995654Y-62641183D01*
X122998240Y-62636963D01*
X123010714Y-62606850D01*
X123087211Y-62422167D01*
X123087212Y-62422165D01*
X123089105Y-62417594D01*
X123109187Y-62333947D01*
X123143380Y-62191524D01*
X123143381Y-62191518D01*
X123144535Y-62186711D01*
X123163165Y-61950000D01*
X123144535Y-61713289D01*
X123141372Y-61700112D01*
X123090940Y-61490049D01*
X123094487Y-61419141D01*
X123124364Y-61371540D01*
X124175499Y-60320405D01*
X124237811Y-60286379D01*
X124264594Y-60283500D01*
X126471233Y-60283500D01*
X126482416Y-60284027D01*
X126489909Y-60285702D01*
X126497835Y-60285453D01*
X126497836Y-60285453D01*
X126557986Y-60283562D01*
X126561945Y-60283500D01*
X126589856Y-60283500D01*
X126593791Y-60283003D01*
X126593856Y-60282995D01*
X126605693Y-60282062D01*
X126637951Y-60281048D01*
X126641970Y-60280922D01*
X126649889Y-60280673D01*
X126669343Y-60275021D01*
X126688700Y-60271013D01*
X126700930Y-60269468D01*
X126700931Y-60269468D01*
X126708797Y-60268474D01*
X126716168Y-60265555D01*
X126716170Y-60265555D01*
X126749912Y-60252196D01*
X126761142Y-60248351D01*
X126795983Y-60238229D01*
X126795984Y-60238229D01*
X126803593Y-60236018D01*
X126810412Y-60231985D01*
X126810417Y-60231983D01*
X126821028Y-60225707D01*
X126838776Y-60217012D01*
X126857617Y-60209552D01*
X126893387Y-60183564D01*
X126903307Y-60177048D01*
X126934535Y-60158580D01*
X126934538Y-60158578D01*
X126941362Y-60154542D01*
X126955683Y-60140221D01*
X126970717Y-60127380D01*
X126980693Y-60120132D01*
X126987107Y-60115472D01*
X127015288Y-60081407D01*
X127023278Y-60072626D01*
X127592258Y-59503647D01*
X127600537Y-59496113D01*
X127607018Y-59492000D01*
X127653644Y-59442348D01*
X127656398Y-59439507D01*
X127676135Y-59419770D01*
X127678615Y-59416573D01*
X127686320Y-59407551D01*
X127708538Y-59383891D01*
X127716586Y-59375321D01*
X127720405Y-59368375D01*
X127720407Y-59368372D01*
X127726348Y-59357566D01*
X127737199Y-59341047D01*
X127743512Y-59332908D01*
X127749614Y-59325041D01*
X127752759Y-59317772D01*
X127752762Y-59317768D01*
X127767174Y-59284463D01*
X127772391Y-59273813D01*
X127793695Y-59235060D01*
X127798733Y-59215437D01*
X127805137Y-59196734D01*
X127810033Y-59185420D01*
X127810033Y-59185419D01*
X127813181Y-59178145D01*
X127814420Y-59170322D01*
X127814423Y-59170312D01*
X127820099Y-59134476D01*
X127822505Y-59122856D01*
X127831528Y-59087711D01*
X127831528Y-59087710D01*
X127833500Y-59080030D01*
X127833500Y-59059776D01*
X127835051Y-59040065D01*
X127836980Y-59027886D01*
X127838220Y-59020057D01*
X127834059Y-58976038D01*
X127833500Y-58964181D01*
X127833500Y-58796571D01*
X127853502Y-58728450D01*
X127907158Y-58681957D01*
X127977432Y-58671853D01*
X128012749Y-58682376D01*
X128101479Y-58723751D01*
X128101484Y-58723753D01*
X128106466Y-58726076D01*
X128111774Y-58727498D01*
X128111776Y-58727499D01*
X128324420Y-58784476D01*
X128329735Y-58785900D01*
X128560000Y-58806046D01*
X128790265Y-58785900D01*
X128795580Y-58784476D01*
X129008224Y-58727499D01*
X129008226Y-58727498D01*
X129013534Y-58726076D01*
X129034070Y-58716500D01*
X129218036Y-58630716D01*
X129218041Y-58630713D01*
X129223023Y-58628390D01*
X129343728Y-58543871D01*
X129407855Y-58498969D01*
X129407858Y-58498967D01*
X129412366Y-58495810D01*
X129575810Y-58332366D01*
X129708390Y-58143023D01*
X129710715Y-58138036D01*
X129710988Y-58137564D01*
X129762372Y-58088571D01*
X129832085Y-58075136D01*
X129897996Y-58101523D01*
X129930507Y-58142526D01*
X129931321Y-58142056D01*
X129934071Y-58146819D01*
X129936397Y-58151807D01*
X129939554Y-58156315D01*
X130065329Y-58335940D01*
X130070733Y-58343658D01*
X130236342Y-58509267D01*
X130240850Y-58512424D01*
X130240856Y-58512428D01*
X130428193Y-58643603D01*
X130433175Y-58645926D01*
X130433180Y-58645929D01*
X130627918Y-58736736D01*
X130640457Y-58742583D01*
X130645765Y-58744005D01*
X130645767Y-58744006D01*
X130861369Y-58801776D01*
X130861371Y-58801776D01*
X130866684Y-58803200D01*
X131100000Y-58823613D01*
X131333316Y-58803200D01*
X131338629Y-58801776D01*
X131338631Y-58801776D01*
X131554233Y-58744006D01*
X131554235Y-58744005D01*
X131559543Y-58742583D01*
X131572082Y-58736736D01*
X131766820Y-58645929D01*
X131766825Y-58645926D01*
X131771807Y-58643603D01*
X131959144Y-58512428D01*
X131959150Y-58512424D01*
X131963658Y-58509267D01*
X132129267Y-58343658D01*
X132134672Y-58335940D01*
X132260446Y-58156315D01*
X132263603Y-58151807D01*
X132265926Y-58146825D01*
X132265929Y-58146820D01*
X132360260Y-57944525D01*
X132360260Y-57944524D01*
X132362583Y-57939543D01*
X132423200Y-57713316D01*
X132443613Y-57480000D01*
X132423200Y-57246684D01*
X132417658Y-57226000D01*
X132368914Y-57044084D01*
X132370604Y-56973107D01*
X132410398Y-56914312D01*
X132479639Y-56885952D01*
X132594698Y-56875885D01*
X132605493Y-56873982D01*
X132818053Y-56817027D01*
X132828345Y-56813281D01*
X133027785Y-56720281D01*
X133037281Y-56714798D01*
X133217532Y-56588585D01*
X133225940Y-56581529D01*
X133381529Y-56425940D01*
X133388585Y-56417532D01*
X133514798Y-56237281D01*
X133520281Y-56227785D01*
X133613281Y-56028345D01*
X133617027Y-56018053D01*
X133664335Y-55841497D01*
X133663999Y-55827401D01*
X133656057Y-55824000D01*
X132242000Y-55824000D01*
X132173879Y-55803998D01*
X132127386Y-55750342D01*
X132116000Y-55698000D01*
X132116000Y-55442000D01*
X132136002Y-55373879D01*
X132189658Y-55327386D01*
X132242000Y-55316000D01*
X133650908Y-55316000D01*
X133664439Y-55312027D01*
X133665668Y-55303478D01*
X133617027Y-55121947D01*
X133613281Y-55111655D01*
X133520281Y-54912215D01*
X133514798Y-54902719D01*
X133388585Y-54722468D01*
X133381529Y-54714060D01*
X133225940Y-54558471D01*
X133217532Y-54551415D01*
X133037281Y-54425202D01*
X133027785Y-54419719D01*
X132828345Y-54326719D01*
X132818053Y-54322973D01*
X132605493Y-54266018D01*
X132594698Y-54264115D01*
X132479639Y-54254048D01*
X132413521Y-54228184D01*
X132371882Y-54170681D01*
X132368914Y-54095916D01*
X132421776Y-53898631D01*
X132421776Y-53898629D01*
X132423200Y-53893316D01*
X132443613Y-53660000D01*
X132423200Y-53426684D01*
X132417658Y-53406000D01*
X132368914Y-53224084D01*
X132370604Y-53153107D01*
X132410398Y-53094312D01*
X132479639Y-53065952D01*
X132594698Y-53055885D01*
X132605493Y-53053982D01*
X132818053Y-52997027D01*
X132828345Y-52993281D01*
X133027785Y-52900281D01*
X133037281Y-52894798D01*
X133217532Y-52768585D01*
X133225940Y-52761529D01*
X133381529Y-52605940D01*
X133388585Y-52597532D01*
X133514798Y-52417281D01*
X133520281Y-52407785D01*
X133613281Y-52208345D01*
X133617027Y-52198053D01*
X133664335Y-52021497D01*
X133663999Y-52007401D01*
X133656057Y-52004000D01*
X132242000Y-52004000D01*
X132173879Y-51983998D01*
X132127386Y-51930342D01*
X132116000Y-51878000D01*
X132116000Y-51477885D01*
X132624000Y-51477885D01*
X132628475Y-51493124D01*
X132629865Y-51494329D01*
X132637548Y-51496000D01*
X133650908Y-51496000D01*
X133664439Y-51492027D01*
X133665668Y-51483478D01*
X133617027Y-51301947D01*
X133613281Y-51291655D01*
X133520281Y-51092215D01*
X133514798Y-51082719D01*
X133388585Y-50902468D01*
X133381529Y-50894060D01*
X133225940Y-50738471D01*
X133217532Y-50731415D01*
X133037281Y-50605202D01*
X133027785Y-50599719D01*
X132828345Y-50506719D01*
X132818053Y-50502973D01*
X132641497Y-50455665D01*
X132627401Y-50456001D01*
X132624000Y-50463943D01*
X132624000Y-51477885D01*
X132116000Y-51477885D01*
X132116000Y-50469092D01*
X132112027Y-50455561D01*
X132103478Y-50454332D01*
X131921947Y-50502973D01*
X131911655Y-50506719D01*
X131712215Y-50599719D01*
X131702719Y-50605202D01*
X131522468Y-50731415D01*
X131514060Y-50738471D01*
X131358471Y-50894060D01*
X131351415Y-50902468D01*
X131225202Y-51082719D01*
X131219271Y-51092992D01*
X131167888Y-51141985D01*
X131098174Y-51155420D01*
X131032263Y-51129033D01*
X130999368Y-51087547D01*
X130998679Y-51087945D01*
X130995987Y-51083283D01*
X130995962Y-51083251D01*
X130995933Y-51083189D01*
X130995928Y-51083181D01*
X130993603Y-51078194D01*
X130990447Y-51073687D01*
X130990446Y-51073685D01*
X130862426Y-50890853D01*
X130862424Y-50890850D01*
X130859267Y-50886342D01*
X130693658Y-50720733D01*
X130689150Y-50717576D01*
X130689147Y-50717574D01*
X130564235Y-50630110D01*
X130501807Y-50586397D01*
X130496825Y-50584074D01*
X130496820Y-50584071D01*
X130294525Y-50489740D01*
X130294524Y-50489740D01*
X130289543Y-50487417D01*
X130284235Y-50485995D01*
X130284233Y-50485994D01*
X130068631Y-50428224D01*
X130068629Y-50428224D01*
X130063316Y-50426800D01*
X129830000Y-50406387D01*
X129596684Y-50426800D01*
X129591371Y-50428224D01*
X129591369Y-50428224D01*
X129375767Y-50485994D01*
X129375765Y-50485995D01*
X129370457Y-50487417D01*
X129365476Y-50489739D01*
X129365475Y-50489740D01*
X129163181Y-50584071D01*
X129163176Y-50584074D01*
X129158194Y-50586397D01*
X129153687Y-50589553D01*
X129153685Y-50589554D01*
X128970853Y-50717574D01*
X128970850Y-50717576D01*
X128966342Y-50720733D01*
X128800733Y-50886342D01*
X128797576Y-50890850D01*
X128797574Y-50890853D01*
X128789441Y-50902468D01*
X128666397Y-51078194D01*
X128665695Y-51077703D01*
X128617738Y-51123431D01*
X128548024Y-51136868D01*
X128482113Y-51110482D01*
X128453934Y-51077962D01*
X128453603Y-51078194D01*
X128451361Y-51074992D01*
X128330559Y-50902468D01*
X128322426Y-50890853D01*
X128322424Y-50890850D01*
X128319267Y-50886342D01*
X128153658Y-50720733D01*
X128149150Y-50717576D01*
X128149147Y-50717574D01*
X128024235Y-50630110D01*
X127961807Y-50586397D01*
X127956825Y-50584074D01*
X127956820Y-50584071D01*
X127754525Y-50489740D01*
X127754524Y-50489740D01*
X127749543Y-50487417D01*
X127744235Y-50485995D01*
X127744233Y-50485994D01*
X127528631Y-50428224D01*
X127528629Y-50428224D01*
X127523316Y-50426800D01*
X127290000Y-50406387D01*
X127056684Y-50426800D01*
X127051371Y-50428224D01*
X127051369Y-50428224D01*
X126835767Y-50485994D01*
X126835765Y-50485995D01*
X126830457Y-50487417D01*
X126825476Y-50489739D01*
X126825475Y-50489740D01*
X126623181Y-50584071D01*
X126623176Y-50584074D01*
X126618194Y-50586397D01*
X126613687Y-50589553D01*
X126613685Y-50589554D01*
X126430853Y-50717574D01*
X126430850Y-50717576D01*
X126426342Y-50720733D01*
X126260733Y-50886342D01*
X126257576Y-50890850D01*
X126257574Y-50890853D01*
X126249441Y-50902468D01*
X126126397Y-51078194D01*
X126125695Y-51077703D01*
X126077738Y-51123431D01*
X126008024Y-51136868D01*
X125942113Y-51110482D01*
X125913934Y-51077962D01*
X125913603Y-51078194D01*
X125911361Y-51074992D01*
X125790559Y-50902468D01*
X125782426Y-50890853D01*
X125782424Y-50890850D01*
X125779267Y-50886342D01*
X125613658Y-50720733D01*
X125609150Y-50717576D01*
X125609147Y-50717574D01*
X125484235Y-50630110D01*
X125421807Y-50586397D01*
X125416825Y-50584074D01*
X125416820Y-50584071D01*
X125214525Y-50489740D01*
X125214524Y-50489740D01*
X125209543Y-50487417D01*
X125204235Y-50485995D01*
X125204233Y-50485994D01*
X124988631Y-50428224D01*
X124988629Y-50428224D01*
X124983316Y-50426800D01*
X124750000Y-50406387D01*
X124516684Y-50426800D01*
X124511371Y-50428224D01*
X124511369Y-50428224D01*
X124295767Y-50485994D01*
X124295765Y-50485995D01*
X124290457Y-50487417D01*
X124285476Y-50489739D01*
X124285475Y-50489740D01*
X124083181Y-50584071D01*
X124083176Y-50584074D01*
X124078194Y-50586397D01*
X124073687Y-50589553D01*
X124073685Y-50589554D01*
X123890853Y-50717574D01*
X123890850Y-50717576D01*
X123886342Y-50720733D01*
X123720733Y-50886342D01*
X123717576Y-50890850D01*
X123717574Y-50890853D01*
X123709441Y-50902468D01*
X123586397Y-51078194D01*
X123585695Y-51077703D01*
X123537738Y-51123431D01*
X123468024Y-51136868D01*
X123402113Y-51110482D01*
X123373934Y-51077962D01*
X123373603Y-51078194D01*
X123371361Y-51074992D01*
X123250559Y-50902468D01*
X123242426Y-50890853D01*
X123242424Y-50890850D01*
X123239267Y-50886342D01*
X123073658Y-50720733D01*
X123069150Y-50717576D01*
X123069147Y-50717574D01*
X122944235Y-50630110D01*
X122881807Y-50586397D01*
X122876825Y-50584074D01*
X122876820Y-50584071D01*
X122674525Y-50489740D01*
X122674524Y-50489740D01*
X122669543Y-50487417D01*
X122664235Y-50485995D01*
X122664233Y-50485994D01*
X122448631Y-50428224D01*
X122448629Y-50428224D01*
X122443316Y-50426800D01*
X122210000Y-50406387D01*
X121976684Y-50426800D01*
X121971371Y-50428224D01*
X121971369Y-50428224D01*
X121755767Y-50485994D01*
X121755765Y-50485995D01*
X121750457Y-50487417D01*
X121745476Y-50489739D01*
X121745475Y-50489740D01*
X121543181Y-50584071D01*
X121543176Y-50584074D01*
X121538194Y-50586397D01*
X121533687Y-50589553D01*
X121533685Y-50589554D01*
X121350853Y-50717574D01*
X121350850Y-50717576D01*
X121346342Y-50720733D01*
X121180733Y-50886342D01*
X121177576Y-50890850D01*
X121177574Y-50890853D01*
X121169441Y-50902468D01*
X121046397Y-51078194D01*
X121045695Y-51077703D01*
X120997738Y-51123431D01*
X120928024Y-51136868D01*
X120862113Y-51110482D01*
X120833934Y-51077962D01*
X120833603Y-51078194D01*
X120831361Y-51074992D01*
X120710559Y-50902468D01*
X120702426Y-50890853D01*
X120702424Y-50890850D01*
X120699267Y-50886342D01*
X120533658Y-50720733D01*
X120529150Y-50717576D01*
X120529147Y-50717574D01*
X120404235Y-50630110D01*
X120341807Y-50586397D01*
X120336825Y-50584074D01*
X120336820Y-50584071D01*
X120134525Y-50489740D01*
X120134524Y-50489740D01*
X120129543Y-50487417D01*
X120124235Y-50485995D01*
X120124233Y-50485994D01*
X119908631Y-50428224D01*
X119908629Y-50428224D01*
X119903316Y-50426800D01*
X119670000Y-50406387D01*
X119436684Y-50426800D01*
X119431371Y-50428224D01*
X119431369Y-50428224D01*
X119215767Y-50485994D01*
X119215765Y-50485995D01*
X119210457Y-50487417D01*
X119205476Y-50489739D01*
X119205475Y-50489740D01*
X119003181Y-50584071D01*
X119003176Y-50584074D01*
X118998194Y-50586397D01*
X118993687Y-50589553D01*
X118993685Y-50589554D01*
X118810853Y-50717574D01*
X118810850Y-50717576D01*
X118806342Y-50720733D01*
X118640733Y-50886342D01*
X118637576Y-50890850D01*
X118637574Y-50890853D01*
X118629441Y-50902468D01*
X118506397Y-51078194D01*
X118505695Y-51077703D01*
X118457738Y-51123431D01*
X118388024Y-51136868D01*
X118322113Y-51110482D01*
X118293934Y-51077962D01*
X118293603Y-51078194D01*
X118291361Y-51074992D01*
X118170559Y-50902468D01*
X118162426Y-50890853D01*
X118162424Y-50890850D01*
X118159267Y-50886342D01*
X117993658Y-50720733D01*
X117989150Y-50717576D01*
X117989147Y-50717574D01*
X117864235Y-50630110D01*
X117801807Y-50586397D01*
X117796825Y-50584074D01*
X117796820Y-50584071D01*
X117594525Y-50489740D01*
X117594524Y-50489740D01*
X117589543Y-50487417D01*
X117584235Y-50485995D01*
X117584233Y-50485994D01*
X117368631Y-50428224D01*
X117368629Y-50428224D01*
X117363316Y-50426800D01*
X117130000Y-50406387D01*
X116896684Y-50426800D01*
X116891371Y-50428224D01*
X116891369Y-50428224D01*
X116675767Y-50485994D01*
X116675765Y-50485995D01*
X116670457Y-50487417D01*
X116665476Y-50489739D01*
X116665475Y-50489740D01*
X116463181Y-50584071D01*
X116463176Y-50584074D01*
X116458194Y-50586397D01*
X116453687Y-50589553D01*
X116453685Y-50589554D01*
X116270853Y-50717574D01*
X116270850Y-50717576D01*
X116266342Y-50720733D01*
X116100733Y-50886342D01*
X116097576Y-50890850D01*
X116097574Y-50890853D01*
X116089441Y-50902468D01*
X115966397Y-51078194D01*
X115965695Y-51077703D01*
X115917738Y-51123431D01*
X115848024Y-51136868D01*
X115782113Y-51110482D01*
X115753934Y-51077962D01*
X115753603Y-51078194D01*
X115751361Y-51074992D01*
X115630559Y-50902468D01*
X115622426Y-50890853D01*
X115622424Y-50890850D01*
X115619267Y-50886342D01*
X115453658Y-50720733D01*
X115449150Y-50717576D01*
X115449147Y-50717574D01*
X115324235Y-50630110D01*
X115261807Y-50586397D01*
X115256825Y-50584074D01*
X115256820Y-50584071D01*
X115054525Y-50489740D01*
X115054524Y-50489740D01*
X115049543Y-50487417D01*
X115044235Y-50485995D01*
X115044233Y-50485994D01*
X114828631Y-50428224D01*
X114828629Y-50428224D01*
X114823316Y-50426800D01*
X114590000Y-50406387D01*
X114356684Y-50426800D01*
X114351371Y-50428224D01*
X114351369Y-50428224D01*
X114135767Y-50485994D01*
X114135765Y-50485995D01*
X114130457Y-50487417D01*
X114125476Y-50489739D01*
X114125475Y-50489740D01*
X113923181Y-50584071D01*
X113923176Y-50584074D01*
X113918194Y-50586397D01*
X113913687Y-50589553D01*
X113913685Y-50589554D01*
X113730853Y-50717574D01*
X113730850Y-50717576D01*
X113726342Y-50720733D01*
X113560733Y-50886342D01*
X113557576Y-50890850D01*
X113557574Y-50890853D01*
X113549441Y-50902468D01*
X113426397Y-51078194D01*
X113425695Y-51077703D01*
X113377738Y-51123431D01*
X113308024Y-51136868D01*
X113242113Y-51110482D01*
X113213934Y-51077962D01*
X113213603Y-51078194D01*
X113211361Y-51074992D01*
X113090559Y-50902468D01*
X113082426Y-50890853D01*
X113082424Y-50890850D01*
X113079267Y-50886342D01*
X112913658Y-50720733D01*
X112909150Y-50717576D01*
X112909147Y-50717574D01*
X112784235Y-50630110D01*
X112721807Y-50586397D01*
X112716825Y-50584074D01*
X112716820Y-50584071D01*
X112514525Y-50489740D01*
X112514524Y-50489740D01*
X112509543Y-50487417D01*
X112504235Y-50485995D01*
X112504233Y-50485994D01*
X112288631Y-50428224D01*
X112288629Y-50428224D01*
X112283316Y-50426800D01*
X112050000Y-50406387D01*
X111816684Y-50426800D01*
X111811371Y-50428224D01*
X111811369Y-50428224D01*
X111595767Y-50485994D01*
X111595765Y-50485995D01*
X111590457Y-50487417D01*
X111585476Y-50489739D01*
X111585475Y-50489740D01*
X111383181Y-50584071D01*
X111383176Y-50584074D01*
X111378194Y-50586397D01*
X111373687Y-50589553D01*
X111373685Y-50589554D01*
X111190853Y-50717574D01*
X111190850Y-50717576D01*
X111186342Y-50720733D01*
X111020733Y-50886342D01*
X111017576Y-50890850D01*
X111017574Y-50890853D01*
X111009441Y-50902468D01*
X110886397Y-51078194D01*
X110885695Y-51077703D01*
X110837738Y-51123431D01*
X110768024Y-51136868D01*
X110702113Y-51110482D01*
X110673934Y-51077962D01*
X110673603Y-51078194D01*
X110671361Y-51074992D01*
X110550559Y-50902468D01*
X110542426Y-50890853D01*
X110542424Y-50890850D01*
X110539267Y-50886342D01*
X110373658Y-50720733D01*
X110369150Y-50717576D01*
X110369147Y-50717574D01*
X110244235Y-50630110D01*
X110181807Y-50586397D01*
X110176825Y-50584074D01*
X110176820Y-50584071D01*
X109974525Y-50489740D01*
X109974524Y-50489740D01*
X109969543Y-50487417D01*
X109964235Y-50485995D01*
X109964233Y-50485994D01*
X109748631Y-50428224D01*
X109748629Y-50428224D01*
X109743316Y-50426800D01*
X109510000Y-50406387D01*
X109276684Y-50426800D01*
X109271371Y-50428224D01*
X109271369Y-50428224D01*
X109055767Y-50485994D01*
X109055765Y-50485995D01*
X109050457Y-50487417D01*
X109045476Y-50489739D01*
X109045475Y-50489740D01*
X108843181Y-50584071D01*
X108843176Y-50584074D01*
X108838194Y-50586397D01*
X108833687Y-50589553D01*
X108833685Y-50589554D01*
X108650853Y-50717574D01*
X108650850Y-50717576D01*
X108646342Y-50720733D01*
X108480733Y-50886342D01*
X108477576Y-50890850D01*
X108477574Y-50890853D01*
X108469441Y-50902468D01*
X108346397Y-51078194D01*
X108345695Y-51077703D01*
X108297738Y-51123431D01*
X108228024Y-51136868D01*
X108162113Y-51110482D01*
X108133934Y-51077962D01*
X108133603Y-51078194D01*
X108131361Y-51074992D01*
X108010559Y-50902468D01*
X108002426Y-50890853D01*
X108002424Y-50890850D01*
X107999267Y-50886342D01*
X107833658Y-50720733D01*
X107829150Y-50717576D01*
X107829147Y-50717574D01*
X107704235Y-50630110D01*
X107641807Y-50586397D01*
X107636825Y-50584074D01*
X107636820Y-50584071D01*
X107434525Y-50489740D01*
X107434524Y-50489740D01*
X107429543Y-50487417D01*
X107424235Y-50485995D01*
X107424233Y-50485994D01*
X107208631Y-50428224D01*
X107208629Y-50428224D01*
X107203316Y-50426800D01*
X106970000Y-50406387D01*
X106736684Y-50426800D01*
X106731371Y-50428224D01*
X106731369Y-50428224D01*
X106515767Y-50485994D01*
X106515765Y-50485995D01*
X106510457Y-50487417D01*
X106505476Y-50489739D01*
X106505475Y-50489740D01*
X106303181Y-50584071D01*
X106303176Y-50584074D01*
X106298194Y-50586397D01*
X106293687Y-50589553D01*
X106293685Y-50589554D01*
X106110853Y-50717574D01*
X106110850Y-50717576D01*
X106106342Y-50720733D01*
X105940733Y-50886342D01*
X105937576Y-50890850D01*
X105937574Y-50890853D01*
X105929441Y-50902468D01*
X105806397Y-51078194D01*
X105805695Y-51077703D01*
X105757738Y-51123431D01*
X105688024Y-51136868D01*
X105622113Y-51110482D01*
X105593934Y-51077962D01*
X105593603Y-51078194D01*
X105591361Y-51074992D01*
X105470559Y-50902468D01*
X105462426Y-50890853D01*
X105462424Y-50890850D01*
X105459267Y-50886342D01*
X105293658Y-50720733D01*
X105289150Y-50717576D01*
X105289147Y-50717574D01*
X105164235Y-50630110D01*
X105101807Y-50586397D01*
X105096825Y-50584074D01*
X105096820Y-50584071D01*
X104894525Y-50489740D01*
X104894524Y-50489740D01*
X104889543Y-50487417D01*
X104884235Y-50485995D01*
X104884233Y-50485994D01*
X104668631Y-50428224D01*
X104668629Y-50428224D01*
X104663316Y-50426800D01*
X104430000Y-50406387D01*
X104196684Y-50426800D01*
X104191371Y-50428224D01*
X104191369Y-50428224D01*
X103975767Y-50485994D01*
X103975765Y-50485995D01*
X103970457Y-50487417D01*
X103965476Y-50489739D01*
X103965475Y-50489740D01*
X103763181Y-50584071D01*
X103763176Y-50584074D01*
X103758194Y-50586397D01*
X103753687Y-50589553D01*
X103753685Y-50589554D01*
X103570853Y-50717574D01*
X103570850Y-50717576D01*
X103566342Y-50720733D01*
X103400733Y-50886342D01*
X103397576Y-50890850D01*
X103397574Y-50890853D01*
X103389441Y-50902468D01*
X103266397Y-51078194D01*
X103265695Y-51077703D01*
X103217738Y-51123431D01*
X103148024Y-51136868D01*
X103082113Y-51110482D01*
X103053934Y-51077962D01*
X103053603Y-51078194D01*
X103051361Y-51074992D01*
X102930559Y-50902468D01*
X102922426Y-50890853D01*
X102922424Y-50890850D01*
X102919267Y-50886342D01*
X102753658Y-50720733D01*
X102749150Y-50717576D01*
X102749147Y-50717574D01*
X102624235Y-50630110D01*
X102561807Y-50586397D01*
X102556825Y-50584074D01*
X102556820Y-50584071D01*
X102354525Y-50489740D01*
X102354524Y-50489740D01*
X102349543Y-50487417D01*
X102344235Y-50485995D01*
X102344233Y-50485994D01*
X102128631Y-50428224D01*
X102128629Y-50428224D01*
X102123316Y-50426800D01*
X101890000Y-50406387D01*
X101656684Y-50426800D01*
X101651371Y-50428224D01*
X101651369Y-50428224D01*
X101435767Y-50485994D01*
X101435765Y-50485995D01*
X101430457Y-50487417D01*
X101425476Y-50489739D01*
X101425475Y-50489740D01*
X101223181Y-50584071D01*
X101223176Y-50584074D01*
X101218194Y-50586397D01*
X101213687Y-50589553D01*
X101213685Y-50589554D01*
X101030853Y-50717574D01*
X101030850Y-50717576D01*
X101026342Y-50720733D01*
X100860733Y-50886342D01*
X100857576Y-50890850D01*
X100857574Y-50890853D01*
X100849441Y-50902468D01*
X100726397Y-51078194D01*
X100725695Y-51077703D01*
X100677738Y-51123431D01*
X100608024Y-51136868D01*
X100542113Y-51110482D01*
X100513934Y-51077962D01*
X100513603Y-51078194D01*
X100511361Y-51074992D01*
X100390559Y-50902468D01*
X100382426Y-50890853D01*
X100382424Y-50890850D01*
X100379267Y-50886342D01*
X100213658Y-50720733D01*
X100209150Y-50717576D01*
X100209147Y-50717574D01*
X100084235Y-50630110D01*
X100021807Y-50586397D01*
X100016825Y-50584074D01*
X100016820Y-50584071D01*
X99814525Y-50489740D01*
X99814524Y-50489740D01*
X99809543Y-50487417D01*
X99804235Y-50485995D01*
X99804233Y-50485994D01*
X99588631Y-50428224D01*
X99588629Y-50428224D01*
X99583316Y-50426800D01*
X99350000Y-50406387D01*
X99116684Y-50426800D01*
X99111371Y-50428224D01*
X99111369Y-50428224D01*
X98895767Y-50485994D01*
X98895765Y-50485995D01*
X98890457Y-50487417D01*
X98885476Y-50489739D01*
X98885475Y-50489740D01*
X98683181Y-50584071D01*
X98683176Y-50584074D01*
X98678194Y-50586397D01*
X98673687Y-50589553D01*
X98673685Y-50589554D01*
X98490853Y-50717574D01*
X98490850Y-50717576D01*
X98486342Y-50720733D01*
X98320733Y-50886342D01*
X98317576Y-50890850D01*
X98317574Y-50890853D01*
X98309441Y-50902468D01*
X98186397Y-51078194D01*
X98185695Y-51077703D01*
X98137738Y-51123431D01*
X98068024Y-51136868D01*
X98002113Y-51110482D01*
X97973934Y-51077962D01*
X97973603Y-51078194D01*
X97971361Y-51074992D01*
X97850559Y-50902468D01*
X97842426Y-50890853D01*
X97842424Y-50890850D01*
X97839267Y-50886342D01*
X97673658Y-50720733D01*
X97669150Y-50717576D01*
X97669147Y-50717574D01*
X97544235Y-50630110D01*
X97481807Y-50586397D01*
X97476825Y-50584074D01*
X97476820Y-50584071D01*
X97274525Y-50489740D01*
X97274524Y-50489740D01*
X97269543Y-50487417D01*
X97264235Y-50485995D01*
X97264233Y-50485994D01*
X97048631Y-50428224D01*
X97048629Y-50428224D01*
X97043316Y-50426800D01*
X96810000Y-50406387D01*
X96576684Y-50426800D01*
X96571371Y-50428224D01*
X96571369Y-50428224D01*
X96355767Y-50485994D01*
X96355765Y-50485995D01*
X96350457Y-50487417D01*
X96345476Y-50489739D01*
X96345475Y-50489740D01*
X96143181Y-50584071D01*
X96143176Y-50584074D01*
X96138194Y-50586397D01*
X96133687Y-50589553D01*
X96133685Y-50589554D01*
X95950853Y-50717574D01*
X95950850Y-50717576D01*
X95946342Y-50720733D01*
X95780733Y-50886342D01*
X95777576Y-50890850D01*
X95777574Y-50890853D01*
X95769441Y-50902468D01*
X95646397Y-51078194D01*
X95645695Y-51077703D01*
X95597738Y-51123431D01*
X95528024Y-51136868D01*
X95462113Y-51110482D01*
X95433934Y-51077962D01*
X95433603Y-51078194D01*
X95431361Y-51074992D01*
X95310559Y-50902468D01*
X95302426Y-50890853D01*
X95302424Y-50890850D01*
X95299267Y-50886342D01*
X95133658Y-50720733D01*
X95129150Y-50717576D01*
X95129147Y-50717574D01*
X95004235Y-50630110D01*
X94941807Y-50586397D01*
X94936825Y-50584074D01*
X94936820Y-50584071D01*
X94734525Y-50489740D01*
X94734524Y-50489740D01*
X94729543Y-50487417D01*
X94724235Y-50485995D01*
X94724233Y-50485994D01*
X94508631Y-50428224D01*
X94508629Y-50428224D01*
X94503316Y-50426800D01*
X94270000Y-50406387D01*
X94036684Y-50426800D01*
X94031371Y-50428224D01*
X94031369Y-50428224D01*
X93815767Y-50485994D01*
X93815765Y-50485995D01*
X93810457Y-50487417D01*
X93805476Y-50489739D01*
X93805475Y-50489740D01*
X93603181Y-50584071D01*
X93603176Y-50584074D01*
X93598194Y-50586397D01*
X93593687Y-50589553D01*
X93593685Y-50589554D01*
X93410853Y-50717574D01*
X93410850Y-50717576D01*
X93406342Y-50720733D01*
X93240733Y-50886342D01*
X93237576Y-50890850D01*
X93237574Y-50890853D01*
X93229441Y-50902468D01*
X93106397Y-51078194D01*
X93105695Y-51077703D01*
X93057738Y-51123431D01*
X92988024Y-51136868D01*
X92922113Y-51110482D01*
X92893934Y-51077962D01*
X92893603Y-51078194D01*
X92891361Y-51074992D01*
X92770559Y-50902468D01*
X92762426Y-50890853D01*
X92762424Y-50890850D01*
X92759267Y-50886342D01*
X92593658Y-50720733D01*
X92589150Y-50717576D01*
X92589147Y-50717574D01*
X92464235Y-50630110D01*
X92401807Y-50586397D01*
X92396825Y-50584074D01*
X92396820Y-50584071D01*
X92194525Y-50489740D01*
X92194524Y-50489740D01*
X92189543Y-50487417D01*
X92184235Y-50485995D01*
X92184233Y-50485994D01*
X91968631Y-50428224D01*
X91968629Y-50428224D01*
X91963316Y-50426800D01*
X91730000Y-50406387D01*
X91496684Y-50426800D01*
X91491371Y-50428224D01*
X91491369Y-50428224D01*
X91275767Y-50485994D01*
X91275765Y-50485995D01*
X91270457Y-50487417D01*
X91265476Y-50489739D01*
X91265475Y-50489740D01*
X91063181Y-50584071D01*
X91063176Y-50584074D01*
X91058194Y-50586397D01*
X91053687Y-50589553D01*
X91053685Y-50589554D01*
X90870853Y-50717574D01*
X90870850Y-50717576D01*
X90866342Y-50720733D01*
X90700733Y-50886342D01*
X90697576Y-50890850D01*
X90697574Y-50890853D01*
X90569554Y-51073685D01*
X90569553Y-51073687D01*
X90566397Y-51078194D01*
X90564074Y-51083176D01*
X90564071Y-51083181D01*
X90516064Y-51186133D01*
X90467417Y-51290457D01*
X90465995Y-51295765D01*
X90465994Y-51295767D01*
X90408449Y-51510530D01*
X90406800Y-51516684D01*
X90386387Y-51750000D01*
X90406800Y-51983316D01*
X90408224Y-51988629D01*
X90408224Y-51988631D01*
X90461086Y-52185916D01*
X90459396Y-52256893D01*
X90419602Y-52315688D01*
X90350361Y-52344048D01*
X90235302Y-52354115D01*
X90224507Y-52356018D01*
X90011947Y-52412973D01*
X90001655Y-52416719D01*
X89802215Y-52509719D01*
X89792719Y-52515202D01*
X89612468Y-52641415D01*
X89604060Y-52648471D01*
X89448471Y-52804060D01*
X89441415Y-52812468D01*
X89315202Y-52992719D01*
X89309719Y-53002215D01*
X89216719Y-53201655D01*
X89212973Y-53211947D01*
X89165665Y-53388503D01*
X89166001Y-53402599D01*
X89173943Y-53406000D01*
X90588000Y-53406000D01*
X90656121Y-53426002D01*
X90702614Y-53479658D01*
X90714000Y-53532000D01*
X90714000Y-53788000D01*
X90693998Y-53856121D01*
X90640342Y-53902614D01*
X90588000Y-53914000D01*
X89179092Y-53914000D01*
X89165561Y-53917973D01*
X89164332Y-53926522D01*
X89212973Y-54108053D01*
X89216719Y-54118345D01*
X89309719Y-54317785D01*
X89315202Y-54327281D01*
X89441415Y-54507532D01*
X89448471Y-54515940D01*
X89604060Y-54671529D01*
X89612468Y-54678585D01*
X89792719Y-54804798D01*
X89802215Y-54810281D01*
X90001655Y-54903281D01*
X90011947Y-54907027D01*
X90224507Y-54963982D01*
X90235302Y-54965885D01*
X90350361Y-54975952D01*
X90416479Y-55001816D01*
X90458118Y-55059319D01*
X90461086Y-55134084D01*
X90406800Y-55336684D01*
X90386387Y-55570000D01*
X90406800Y-55803316D01*
X90408224Y-55808629D01*
X90408224Y-55808631D01*
X90461086Y-56005916D01*
X90459396Y-56076893D01*
X90419602Y-56135688D01*
X90350361Y-56164048D01*
X90235302Y-56174115D01*
X90224507Y-56176018D01*
X90011947Y-56232973D01*
X90001655Y-56236719D01*
X89802215Y-56329719D01*
X89792719Y-56335202D01*
X89612468Y-56461415D01*
X89604060Y-56468471D01*
X89448471Y-56624060D01*
X89441415Y-56632468D01*
X89315202Y-56812719D01*
X89309719Y-56822215D01*
X89216719Y-57021655D01*
X89212973Y-57031947D01*
X89165665Y-57208503D01*
X89166001Y-57222599D01*
X89173943Y-57226000D01*
X90588000Y-57226000D01*
X90656121Y-57246002D01*
X90702614Y-57299658D01*
X90714000Y-57352000D01*
X90714000Y-58760908D01*
X90717973Y-58774439D01*
X90726522Y-58775668D01*
X90908053Y-58727027D01*
X90918345Y-58723281D01*
X91117785Y-58630281D01*
X91127281Y-58624798D01*
X91307532Y-58498585D01*
X91315940Y-58491529D01*
X91471529Y-58335940D01*
X91478585Y-58327532D01*
X91604798Y-58147281D01*
X91610729Y-58137008D01*
X91662112Y-58088015D01*
X91731826Y-58074580D01*
X91797737Y-58100967D01*
X91830630Y-58142455D01*
X91831321Y-58142056D01*
X91834019Y-58146729D01*
X91834042Y-58146758D01*
X91834068Y-58146814D01*
X91834072Y-58146821D01*
X91836397Y-58151807D01*
X91839554Y-58156315D01*
X91965329Y-58335940D01*
X91970733Y-58343658D01*
X92136342Y-58509267D01*
X92140850Y-58512424D01*
X92140856Y-58512428D01*
X92328193Y-58643603D01*
X92333175Y-58645926D01*
X92333180Y-58645929D01*
X92527918Y-58736736D01*
X92540457Y-58742583D01*
X92545765Y-58744005D01*
X92545767Y-58744006D01*
X92761369Y-58801776D01*
X92761371Y-58801776D01*
X92766684Y-58803200D01*
X93000000Y-58823613D01*
X93233316Y-58803200D01*
X93238629Y-58801776D01*
X93238631Y-58801776D01*
X93454233Y-58744006D01*
X93454235Y-58744005D01*
X93459543Y-58742583D01*
X93472082Y-58736736D01*
X93666820Y-58645929D01*
X93666825Y-58645926D01*
X93671807Y-58643603D01*
X93859144Y-58512428D01*
X93859150Y-58512424D01*
X93863658Y-58509267D01*
X94029267Y-58343658D01*
X94034672Y-58335940D01*
X94160446Y-58156315D01*
X94163603Y-58151807D01*
X94165929Y-58146819D01*
X94168679Y-58142056D01*
X94169771Y-58142687D01*
X94212622Y-58094026D01*
X94280901Y-58074569D01*
X94348859Y-58095115D01*
X94389012Y-58137564D01*
X94389285Y-58138036D01*
X94391610Y-58143023D01*
X94524190Y-58332366D01*
X94687634Y-58495810D01*
X94692142Y-58498967D01*
X94692145Y-58498969D01*
X94756272Y-58543871D01*
X94876977Y-58628390D01*
X94881959Y-58630713D01*
X94881964Y-58630716D01*
X95065930Y-58716500D01*
X95086466Y-58726076D01*
X95091774Y-58727498D01*
X95091776Y-58727499D01*
X95304420Y-58784476D01*
X95309735Y-58785900D01*
X95315221Y-58786380D01*
X95315227Y-58786381D01*
X95362882Y-58790551D01*
X95375199Y-58795369D01*
X95402751Y-58794038D01*
X95540000Y-58806046D01*
X95770265Y-58785900D01*
X95781518Y-58782885D01*
X95788750Y-58780947D01*
X95841750Y-58766746D01*
X95912724Y-58768436D01*
X95963454Y-58799358D01*
X96161316Y-58997220D01*
X96195342Y-59059532D01*
X96190277Y-59130347D01*
X96147730Y-59187183D01*
X96138369Y-59193555D01*
X96126348Y-59200970D01*
X96038741Y-59288577D01*
X95976429Y-59322603D01*
X95905614Y-59317538D01*
X95860551Y-59288577D01*
X95778532Y-59206558D01*
X95767092Y-59197512D01*
X95628767Y-59112192D01*
X95615565Y-59106036D01*
X95460846Y-59054767D01*
X95447488Y-59051908D01*
X95378964Y-59044907D01*
X95367609Y-59040274D01*
X95350508Y-59041536D01*
X95350508Y-59042000D01*
X95309615Y-59042000D01*
X95294376Y-59046475D01*
X95293171Y-59047865D01*
X95291500Y-59055548D01*
X95291500Y-60378000D01*
X95271498Y-60446121D01*
X95217842Y-60492614D01*
X95165500Y-60504000D01*
X94035115Y-60504000D01*
X94019876Y-60508475D01*
X94018671Y-60509865D01*
X94017000Y-60517548D01*
X94017000Y-60747303D01*
X94017326Y-60753700D01*
X94017482Y-60755229D01*
X94017420Y-60755560D01*
X94017489Y-60756907D01*
X94017167Y-60756923D01*
X94004510Y-60825031D01*
X93955859Y-60876738D01*
X93886976Y-60893934D01*
X93819732Y-60871160D01*
X93803040Y-60857135D01*
X93595405Y-60649500D01*
X93561379Y-60587188D01*
X93558500Y-60560405D01*
X93558499Y-59977885D01*
X94017000Y-59977885D01*
X94021475Y-59993124D01*
X94022865Y-59994329D01*
X94030548Y-59996000D01*
X94765385Y-59996000D01*
X94780624Y-59991525D01*
X94781829Y-59990135D01*
X94783500Y-59982452D01*
X94783500Y-59060115D01*
X94779025Y-59044876D01*
X94777635Y-59043671D01*
X94769952Y-59042000D01*
X94727698Y-59042000D01*
X94721307Y-59042325D01*
X94627512Y-59051908D01*
X94614154Y-59054767D01*
X94459435Y-59106036D01*
X94446233Y-59112192D01*
X94307908Y-59197512D01*
X94296468Y-59206558D01*
X94181558Y-59321468D01*
X94172512Y-59332908D01*
X94087192Y-59471233D01*
X94081036Y-59484435D01*
X94029767Y-59639154D01*
X94026908Y-59652512D01*
X94017325Y-59746307D01*
X94017000Y-59752698D01*
X94017000Y-59977885D01*
X93558499Y-59977885D01*
X93558499Y-59977662D01*
X93558499Y-59974456D01*
X93547887Y-59870574D01*
X93492115Y-59702262D01*
X93399030Y-59551348D01*
X93273652Y-59425970D01*
X93263601Y-59419770D01*
X93201078Y-59381206D01*
X93122738Y-59332885D01*
X93047364Y-59307909D01*
X92960952Y-59279275D01*
X92960948Y-59279274D01*
X92954426Y-59277113D01*
X92947592Y-59276415D01*
X92947588Y-59276414D01*
X92853729Y-59266825D01*
X92853723Y-59266825D01*
X92850545Y-59266500D01*
X92550047Y-59266500D01*
X92249456Y-59266501D01*
X92246279Y-59266826D01*
X92246270Y-59266826D01*
X92200765Y-59271475D01*
X92145574Y-59277113D01*
X91977262Y-59332885D01*
X91898922Y-59381206D01*
X91836400Y-59419770D01*
X91826348Y-59425970D01*
X91700970Y-59551348D01*
X91697968Y-59556214D01*
X91640573Y-59596856D01*
X91569648Y-59600046D01*
X91508258Y-59564384D01*
X91500845Y-59555830D01*
X91493442Y-59546468D01*
X91378532Y-59431558D01*
X91367092Y-59422512D01*
X91228767Y-59337192D01*
X91215565Y-59331036D01*
X91060846Y-59279767D01*
X91047488Y-59276908D01*
X90953693Y-59267325D01*
X90947302Y-59267000D01*
X90922115Y-59267000D01*
X90906876Y-59271475D01*
X90905671Y-59272865D01*
X90904000Y-59280548D01*
X90904000Y-61714885D01*
X90908475Y-61730124D01*
X90909865Y-61731329D01*
X90917548Y-61733000D01*
X90947303Y-61733000D01*
X90953693Y-61732675D01*
X91047488Y-61723092D01*
X91060846Y-61720233D01*
X91215565Y-61668964D01*
X91228767Y-61662808D01*
X91367092Y-61577488D01*
X91378532Y-61568442D01*
X91493442Y-61453532D01*
X91500845Y-61444170D01*
X91558787Y-61403143D01*
X91629712Y-61399955D01*
X91691102Y-61435617D01*
X91697447Y-61442941D01*
X91700970Y-61448652D01*
X91826348Y-61574030D01*
X91977262Y-61667115D01*
X92019847Y-61681226D01*
X92139048Y-61720725D01*
X92139052Y-61720726D01*
X92145574Y-61722887D01*
X92152408Y-61723585D01*
X92152412Y-61723586D01*
X92246271Y-61733175D01*
X92246277Y-61733175D01*
X92249455Y-61733500D01*
X92294952Y-61733500D01*
X92811406Y-61733499D01*
X92879527Y-61753501D01*
X92926020Y-61807157D01*
X92936124Y-61877430D01*
X92906631Y-61942011D01*
X92900503Y-61948593D01*
X92521715Y-62327380D01*
X92149499Y-62699596D01*
X92087187Y-62733621D01*
X92060404Y-62736500D01*
X91483498Y-62736500D01*
X91481050Y-62736693D01*
X91481042Y-62736693D01*
X91452579Y-62738933D01*
X91452574Y-62738934D01*
X91446169Y-62739438D01*
X91346231Y-62768472D01*
X91294012Y-62783643D01*
X91294010Y-62783644D01*
X91286399Y-62785855D01*
X91279572Y-62789892D01*
X91279573Y-62789892D01*
X91150020Y-62866509D01*
X91150017Y-62866511D01*
X91143193Y-62870547D01*
X91025547Y-62988193D01*
X91021511Y-62995017D01*
X91021509Y-62995020D01*
X90977671Y-63069147D01*
X90940855Y-63131399D01*
X90938644Y-63139010D01*
X90938643Y-63139012D01*
X90935643Y-63149338D01*
X90894438Y-63291169D01*
X90893934Y-63297574D01*
X90893933Y-63297579D01*
X90891693Y-63326042D01*
X90891500Y-63328498D01*
X90891500Y-63761502D01*
X90891693Y-63763950D01*
X90891693Y-63763958D01*
X90893421Y-63785905D01*
X90894438Y-63798831D01*
X90913799Y-63865472D01*
X90938586Y-63950790D01*
X90940855Y-63958601D01*
X91025547Y-64101807D01*
X91028229Y-64104489D01*
X91053502Y-64168861D01*
X91039600Y-64238484D01*
X91029428Y-64254312D01*
X91025547Y-64258193D01*
X90940855Y-64401399D01*
X90938644Y-64409010D01*
X90938643Y-64409012D01*
X90925035Y-64455853D01*
X90894438Y-64561169D01*
X90891500Y-64598498D01*
X90891500Y-64610406D01*
X90871498Y-64678527D01*
X90854595Y-64699501D01*
X90115234Y-65438861D01*
X89407747Y-66146348D01*
X89399461Y-66153888D01*
X89392982Y-66158000D01*
X89387557Y-66163777D01*
X89346357Y-66207651D01*
X89343602Y-66210493D01*
X89323865Y-66230230D01*
X89321385Y-66233427D01*
X89313682Y-66242447D01*
X89283414Y-66274679D01*
X89279595Y-66281625D01*
X89279593Y-66281628D01*
X89273652Y-66292434D01*
X89262801Y-66308953D01*
X89250386Y-66324959D01*
X89247241Y-66332228D01*
X89247238Y-66332232D01*
X89232826Y-66365537D01*
X89227609Y-66376187D01*
X89206305Y-66414940D01*
X89204334Y-66422615D01*
X89204334Y-66422616D01*
X89201267Y-66434562D01*
X89194863Y-66453266D01*
X89186819Y-66471855D01*
X89185580Y-66479678D01*
X89185577Y-66479688D01*
X89179901Y-66515524D01*
X89177495Y-66527144D01*
X89166500Y-66569970D01*
X89166500Y-66590224D01*
X89164949Y-66609934D01*
X89161780Y-66629943D01*
X88126846Y-66629943D01*
X88126846Y-61022303D01*
X89642000Y-61022303D01*
X89642325Y-61028693D01*
X89651908Y-61122488D01*
X89654767Y-61135846D01*
X89706036Y-61290565D01*
X89712192Y-61303767D01*
X89797512Y-61442092D01*
X89806558Y-61453532D01*
X89921468Y-61568442D01*
X89932908Y-61577488D01*
X90071233Y-61662808D01*
X90084435Y-61668964D01*
X90239154Y-61720233D01*
X90252512Y-61723092D01*
X90346307Y-61732675D01*
X90352697Y-61733000D01*
X90377885Y-61733000D01*
X90393124Y-61728525D01*
X90394329Y-61727135D01*
X90396000Y-61719452D01*
X90396000Y-60772115D01*
X90391525Y-60756876D01*
X90390135Y-60755671D01*
X90382452Y-60754000D01*
X89660115Y-60754000D01*
X89644876Y-60758475D01*
X89643671Y-60759865D01*
X89642000Y-60767548D01*
X89642000Y-61022303D01*
X88126846Y-61022303D01*
X88126846Y-60227885D01*
X89642000Y-60227885D01*
X89646475Y-60243124D01*
X89647865Y-60244329D01*
X89655548Y-60246000D01*
X90377885Y-60246000D01*
X90393124Y-60241525D01*
X90394329Y-60240135D01*
X90396000Y-60232452D01*
X90396000Y-59285115D01*
X90391525Y-59269876D01*
X90390135Y-59268671D01*
X90382452Y-59267000D01*
X90352698Y-59267000D01*
X90346307Y-59267325D01*
X90252512Y-59276908D01*
X90239154Y-59279767D01*
X90084435Y-59331036D01*
X90071233Y-59337192D01*
X89932908Y-59422512D01*
X89921468Y-59431558D01*
X89806558Y-59546468D01*
X89797512Y-59557908D01*
X89712192Y-59696233D01*
X89706036Y-59709435D01*
X89654767Y-59864154D01*
X89651908Y-59877512D01*
X89642325Y-59971307D01*
X89642000Y-59977698D01*
X89642000Y-60227885D01*
X88126846Y-60227885D01*
X88126846Y-57746522D01*
X89164332Y-57746522D01*
X89212973Y-57928053D01*
X89216719Y-57938345D01*
X89309719Y-58137785D01*
X89315202Y-58147281D01*
X89441415Y-58327532D01*
X89448471Y-58335940D01*
X89604060Y-58491529D01*
X89612468Y-58498585D01*
X89792719Y-58624798D01*
X89802215Y-58630281D01*
X90001655Y-58723281D01*
X90011947Y-58727027D01*
X90188503Y-58774335D01*
X90202599Y-58773999D01*
X90206000Y-58766057D01*
X90206000Y-57752115D01*
X90201525Y-57736876D01*
X90200135Y-57735671D01*
X90192452Y-57734000D01*
X89179092Y-57734000D01*
X89165561Y-57737973D01*
X89164332Y-57746522D01*
X88126846Y-57746522D01*
X88126846Y-51830149D01*
X88127076Y-51822542D01*
X88132788Y-51728097D01*
X88132828Y-51727463D01*
X88146189Y-51523610D01*
X88147983Y-51509141D01*
X88171906Y-51378585D01*
X88172263Y-51376714D01*
X88204642Y-51213930D01*
X88207923Y-51201038D01*
X88249646Y-51067139D01*
X88250627Y-51064126D01*
X88301559Y-50914084D01*
X88305972Y-50902873D01*
X88306155Y-50902468D01*
X88326340Y-50857616D01*
X88364760Y-50772250D01*
X88366654Y-50768234D01*
X88404968Y-50690540D01*
X88435425Y-50628779D01*
X88440591Y-50619342D01*
X88515466Y-50495484D01*
X88518490Y-50490728D01*
X88604134Y-50362554D01*
X88609697Y-50354874D01*
X88699354Y-50240433D01*
X88703784Y-50235089D01*
X88805058Y-50119609D01*
X88810681Y-50113606D01*
X88913606Y-50010681D01*
X88919609Y-50005058D01*
X89035089Y-49903784D01*
X89040438Y-49899350D01*
X89097836Y-49854382D01*
X89154874Y-49809697D01*
X89162554Y-49804134D01*
X89290728Y-49718490D01*
X89295484Y-49715466D01*
X89419342Y-49640591D01*
X89428779Y-49635425D01*
X89522587Y-49589164D01*
X89568234Y-49566654D01*
X89572250Y-49564760D01*
X89672388Y-49519692D01*
X89702879Y-49505970D01*
X89714080Y-49501561D01*
X89792098Y-49475077D01*
X89864126Y-49450627D01*
X89867142Y-49449645D01*
X90001038Y-49407923D01*
X90013924Y-49404644D01*
X90176712Y-49372263D01*
X90178585Y-49371906D01*
X90309141Y-49347983D01*
X90323610Y-49346189D01*
X90527463Y-49332828D01*
X90528098Y-49332788D01*
X90622577Y-49327074D01*
X90630102Y-49326844D01*
X97272998Y-49322580D01*
X131669829Y-49300502D01*
X131677482Y-49300731D01*
G37*
%TD.AperFunction*%
%TA.AperFunction,Conductor*%
G36*
X111609921Y-62403502D02*
G01*
X111629147Y-62419843D01*
X111629420Y-62419540D01*
X111634332Y-62423963D01*
X111638747Y-62428866D01*
X111644086Y-62432745D01*
X111717907Y-62486379D01*
X111793248Y-62541118D01*
X111799276Y-62543802D01*
X111799278Y-62543803D01*
X111866298Y-62573642D01*
X111920394Y-62619622D01*
X111941043Y-62687550D01*
X111921691Y-62755858D01*
X111891753Y-62788711D01*
X111797562Y-62860987D01*
X111797559Y-62860990D01*
X111791013Y-62866013D01*
X111785990Y-62872559D01*
X111700028Y-62984586D01*
X111693476Y-62993124D01*
X111690317Y-63000750D01*
X111690316Y-63000752D01*
X111635322Y-63133520D01*
X111635321Y-63133523D01*
X111632162Y-63141150D01*
X111631084Y-63149337D01*
X111631084Y-63149338D01*
X111630028Y-63157363D01*
X111616500Y-63260115D01*
X111616501Y-63539884D01*
X111617039Y-63543969D01*
X111617039Y-63543973D01*
X111626839Y-63618416D01*
X111632162Y-63658850D01*
X111637096Y-63670761D01*
X111639589Y-63676780D01*
X111647179Y-63747370D01*
X111639590Y-63773218D01*
X111638163Y-63776661D01*
X111635322Y-63783520D01*
X111635321Y-63783523D01*
X111632162Y-63791150D01*
X111616500Y-63910115D01*
X111616500Y-63940500D01*
X111596498Y-64008621D01*
X111542842Y-64055114D01*
X111490500Y-64066500D01*
X111178763Y-64066500D01*
X111167579Y-64065973D01*
X111160091Y-64064299D01*
X111152168Y-64064548D01*
X111092033Y-64066438D01*
X111088075Y-64066500D01*
X111060144Y-64066500D01*
X111056229Y-64066995D01*
X111056225Y-64066995D01*
X111056167Y-64067003D01*
X111056138Y-64067006D01*
X111044296Y-64067939D01*
X111000110Y-64069327D01*
X110982744Y-64074372D01*
X110980658Y-64074978D01*
X110961306Y-64078986D01*
X110949068Y-64080532D01*
X110949066Y-64080533D01*
X110941203Y-64081526D01*
X110900086Y-64097806D01*
X110888885Y-64101641D01*
X110846406Y-64113982D01*
X110839587Y-64118015D01*
X110839582Y-64118017D01*
X110828971Y-64124293D01*
X110811221Y-64132990D01*
X110792383Y-64140448D01*
X110785967Y-64145109D01*
X110785966Y-64145110D01*
X110756625Y-64166428D01*
X110746701Y-64172947D01*
X110715460Y-64191422D01*
X110715455Y-64191426D01*
X110708637Y-64195458D01*
X110694313Y-64209782D01*
X110679281Y-64222621D01*
X110662893Y-64234528D01*
X110637670Y-64265017D01*
X110634712Y-64268593D01*
X110626722Y-64277373D01*
X110525000Y-64379095D01*
X110462688Y-64413121D01*
X110435905Y-64416000D01*
X110380013Y-64416000D01*
X110373561Y-64417372D01*
X110373556Y-64417372D01*
X110297974Y-64433438D01*
X110193212Y-64455706D01*
X110187182Y-64458391D01*
X110187181Y-64458391D01*
X110024778Y-64530697D01*
X110024776Y-64530698D01*
X110018748Y-64533382D01*
X110013407Y-64537262D01*
X110013406Y-64537263D01*
X109980503Y-64561169D01*
X109864247Y-64645634D01*
X109859826Y-64650544D01*
X109859825Y-64650545D01*
X109749040Y-64773585D01*
X109736460Y-64787556D01*
X109725335Y-64806825D01*
X109707657Y-64837444D01*
X109656273Y-64886437D01*
X109586560Y-64899872D01*
X109520649Y-64873485D01*
X109509443Y-64863538D01*
X108610000Y-63964095D01*
X108575974Y-63901783D01*
X108581039Y-63830968D01*
X108610000Y-63785905D01*
X109975499Y-62420405D01*
X110037811Y-62386380D01*
X110064594Y-62383500D01*
X111541800Y-62383500D01*
X111609921Y-62403502D01*
G37*
%TD.AperFunction*%
%TA.AperFunction,Conductor*%
G36*
X115235451Y-62591002D02*
G01*
X115274570Y-62630853D01*
X115297112Y-62667399D01*
X115297116Y-62667404D01*
X115300970Y-62673652D01*
X115388223Y-62760905D01*
X115422249Y-62823217D01*
X115417184Y-62894032D01*
X115388223Y-62939095D01*
X115300970Y-63026348D01*
X115207885Y-63177262D01*
X115197124Y-63209738D01*
X115156953Y-63330968D01*
X115152113Y-63345574D01*
X115151415Y-63352408D01*
X115151414Y-63352412D01*
X115141963Y-63444923D01*
X115141500Y-63449455D01*
X115141501Y-63625789D01*
X115141501Y-63690999D01*
X115121499Y-63759120D01*
X115067844Y-63805613D01*
X115015501Y-63817000D01*
X114854513Y-63817000D01*
X114848061Y-63818372D01*
X114848056Y-63818372D01*
X114761112Y-63836853D01*
X114667712Y-63856706D01*
X114661682Y-63859391D01*
X114661681Y-63859391D01*
X114499278Y-63931697D01*
X114499276Y-63931698D01*
X114493248Y-63934382D01*
X114487907Y-63938262D01*
X114487906Y-63938263D01*
X114452352Y-63964095D01*
X114338747Y-64046634D01*
X114328133Y-64058422D01*
X114267690Y-64095660D01*
X114196706Y-64094309D01*
X114137721Y-64054795D01*
X114109463Y-63989665D01*
X114108499Y-63974110D01*
X114108499Y-63910116D01*
X114106737Y-63896726D01*
X114093916Y-63799337D01*
X114093916Y-63799335D01*
X114092838Y-63791150D01*
X114085411Y-63773219D01*
X114077821Y-63702630D01*
X114085411Y-63676780D01*
X114089678Y-63666480D01*
X114089679Y-63666477D01*
X114092838Y-63658850D01*
X114108500Y-63539885D01*
X114108499Y-63260116D01*
X114106630Y-63245914D01*
X114093916Y-63149337D01*
X114093916Y-63149335D01*
X114092838Y-63141150D01*
X114044191Y-63023705D01*
X114034684Y-63000752D01*
X114034683Y-63000750D01*
X114031524Y-62993124D01*
X114024973Y-62984586D01*
X113939010Y-62872559D01*
X113933987Y-62866013D01*
X113927441Y-62860990D01*
X113927438Y-62860987D01*
X113844000Y-62796962D01*
X113802132Y-62739624D01*
X113797911Y-62668753D01*
X113832676Y-62606850D01*
X113895388Y-62573569D01*
X113920704Y-62571000D01*
X115167330Y-62571000D01*
X115235451Y-62591002D01*
G37*
%TD.AperFunction*%
%TA.AperFunction,Conductor*%
G36*
X101928527Y-60341002D02*
G01*
X101949501Y-60357905D01*
X102804595Y-61212999D01*
X102838621Y-61275311D01*
X102841500Y-61302094D01*
X102841501Y-61598739D01*
X102841501Y-61875544D01*
X102852113Y-61979426D01*
X102907885Y-62147738D01*
X103000970Y-62298652D01*
X103126348Y-62424030D01*
X103132595Y-62427883D01*
X103132596Y-62427884D01*
X103149368Y-62438229D01*
X103277262Y-62517115D01*
X103313072Y-62528981D01*
X103439048Y-62570725D01*
X103439052Y-62570726D01*
X103445574Y-62572887D01*
X103452408Y-62573585D01*
X103452412Y-62573586D01*
X103546271Y-62583175D01*
X103546277Y-62583175D01*
X103549455Y-62583500D01*
X104049921Y-62583500D01*
X104550544Y-62583499D01*
X104553721Y-62583174D01*
X104553730Y-62583174D01*
X104602467Y-62578195D01*
X104654426Y-62572887D01*
X104822738Y-62517115D01*
X104950632Y-62438229D01*
X104967404Y-62427884D01*
X104967405Y-62427883D01*
X104973652Y-62424030D01*
X105099030Y-62298652D01*
X105133259Y-62243158D01*
X105186045Y-62195680D01*
X105256120Y-62184277D01*
X105321235Y-62212569D01*
X105360718Y-62271575D01*
X105366500Y-62309305D01*
X105366500Y-63380852D01*
X105365973Y-63392035D01*
X105364298Y-63399528D01*
X105364547Y-63407454D01*
X105364547Y-63407455D01*
X105366438Y-63467605D01*
X105366500Y-63471564D01*
X105366500Y-63499475D01*
X105366997Y-63503409D01*
X105366997Y-63503410D01*
X105367005Y-63503475D01*
X105367938Y-63515312D01*
X105369327Y-63559508D01*
X105374978Y-63578958D01*
X105378987Y-63598319D01*
X105381526Y-63618416D01*
X105384445Y-63625787D01*
X105384445Y-63625789D01*
X105397804Y-63659531D01*
X105401649Y-63670761D01*
X105403398Y-63676780D01*
X105413982Y-63713212D01*
X105418015Y-63720031D01*
X105418017Y-63720036D01*
X105424293Y-63730647D01*
X105432988Y-63748395D01*
X105440448Y-63767236D01*
X105445110Y-63773652D01*
X105445110Y-63773653D01*
X105466436Y-63803006D01*
X105472952Y-63812926D01*
X105487431Y-63837408D01*
X105495458Y-63850981D01*
X105501068Y-63856591D01*
X105505921Y-63862847D01*
X105503258Y-63864913D01*
X105529908Y-63913717D01*
X105524843Y-63984532D01*
X105482296Y-64041368D01*
X105415776Y-64066179D01*
X105406787Y-64066500D01*
X103148478Y-64066500D01*
X103080357Y-64046498D01*
X103059383Y-64029595D01*
X101452386Y-62422598D01*
X101418360Y-62360286D01*
X101423425Y-62289471D01*
X101442647Y-62255351D01*
X101443841Y-62253841D01*
X101449030Y-62248652D01*
X101542115Y-62097738D01*
X101579157Y-61985950D01*
X101595725Y-61935952D01*
X101595726Y-61935948D01*
X101597887Y-61929426D01*
X101598845Y-61920055D01*
X101608175Y-61828729D01*
X101608175Y-61828723D01*
X101608500Y-61825545D01*
X101608499Y-61199456D01*
X101606818Y-61182994D01*
X101602547Y-61141188D01*
X101597887Y-61095574D01*
X101542115Y-60927262D01*
X101449030Y-60776348D01*
X101361777Y-60689095D01*
X101327751Y-60626783D01*
X101332816Y-60555968D01*
X101361777Y-60510905D01*
X101449030Y-60423652D01*
X101452883Y-60417405D01*
X101452888Y-60417399D01*
X101475430Y-60380853D01*
X101528216Y-60333375D01*
X101582670Y-60321000D01*
X101860406Y-60321000D01*
X101928527Y-60341002D01*
G37*
%TD.AperFunction*%
%TA.AperFunction,Conductor*%
G36*
X124827887Y-58119519D02*
G01*
X124856066Y-58152039D01*
X124856397Y-58151807D01*
X124859554Y-58156315D01*
X124985329Y-58335940D01*
X124990733Y-58343658D01*
X125156342Y-58509267D01*
X125160850Y-58512424D01*
X125160856Y-58512428D01*
X125348193Y-58643603D01*
X125353175Y-58645926D01*
X125353180Y-58645929D01*
X125547918Y-58736736D01*
X125560457Y-58742583D01*
X125565765Y-58744005D01*
X125565767Y-58744006D01*
X125565771Y-58744007D01*
X125656943Y-58768436D01*
X125658275Y-58768793D01*
X125718898Y-58805745D01*
X125749919Y-58869605D01*
X125741491Y-58940100D01*
X125696288Y-58994847D01*
X125625664Y-59016500D01*
X124028767Y-59016500D01*
X124017584Y-59015973D01*
X124010091Y-59014298D01*
X124002165Y-59014547D01*
X124002164Y-59014547D01*
X123942014Y-59016438D01*
X123938055Y-59016500D01*
X123910144Y-59016500D01*
X123906210Y-59016997D01*
X123906209Y-59016997D01*
X123906144Y-59017005D01*
X123894305Y-59017938D01*
X123880381Y-59018375D01*
X123869825Y-59018707D01*
X123806899Y-59002358D01*
X123806179Y-59004385D01*
X123750427Y-59047670D01*
X123750017Y-59047832D01*
X123738869Y-59051645D01*
X123696407Y-59063982D01*
X123689585Y-59068016D01*
X123689579Y-59068019D01*
X123678968Y-59074294D01*
X123661218Y-59082990D01*
X123649756Y-59087528D01*
X123649751Y-59087531D01*
X123642383Y-59090448D01*
X123635968Y-59095109D01*
X123606625Y-59116427D01*
X123596707Y-59122943D01*
X123584188Y-59130347D01*
X123558637Y-59145458D01*
X123544313Y-59159782D01*
X123529281Y-59172621D01*
X123512893Y-59184528D01*
X123488372Y-59214169D01*
X123484712Y-59218593D01*
X123476722Y-59227373D01*
X122228459Y-60475636D01*
X122166147Y-60509662D01*
X122109951Y-60509060D01*
X122041448Y-60492614D01*
X121891524Y-60456620D01*
X121891518Y-60456619D01*
X121886711Y-60455465D01*
X121650000Y-60436835D01*
X121413289Y-60455465D01*
X121408482Y-60456619D01*
X121408476Y-60456620D01*
X121258552Y-60492614D01*
X121190049Y-60509060D01*
X121119142Y-60505513D01*
X121071540Y-60475636D01*
X120785018Y-60189113D01*
X120453647Y-59857742D01*
X120446113Y-59849463D01*
X120442000Y-59842982D01*
X120392348Y-59796356D01*
X120389507Y-59793602D01*
X120369770Y-59773865D01*
X120366573Y-59771385D01*
X120357551Y-59763680D01*
X120331100Y-59738841D01*
X120325321Y-59733414D01*
X120318375Y-59729595D01*
X120318372Y-59729593D01*
X120307566Y-59723652D01*
X120291047Y-59712801D01*
X120286707Y-59709435D01*
X120275041Y-59700386D01*
X120267772Y-59697241D01*
X120267768Y-59697238D01*
X120234463Y-59682826D01*
X120223813Y-59677609D01*
X120185060Y-59656305D01*
X120165437Y-59651267D01*
X120146734Y-59644863D01*
X120135420Y-59639967D01*
X120135419Y-59639967D01*
X120128145Y-59636819D01*
X120120322Y-59635580D01*
X120120312Y-59635577D01*
X120084476Y-59629901D01*
X120072856Y-59627495D01*
X120037711Y-59618472D01*
X120037710Y-59618472D01*
X120030030Y-59616500D01*
X120009776Y-59616500D01*
X119990065Y-59614949D01*
X119977886Y-59613020D01*
X119970057Y-59611780D01*
X119927954Y-59615760D01*
X119926039Y-59615941D01*
X119914181Y-59616500D01*
X115458200Y-59616500D01*
X115390079Y-59596498D01*
X115370853Y-59580157D01*
X115370580Y-59580460D01*
X115365668Y-59576037D01*
X115361253Y-59571134D01*
X115326875Y-59546157D01*
X115212094Y-59462763D01*
X115212093Y-59462762D01*
X115206752Y-59458882D01*
X115200724Y-59456198D01*
X115200722Y-59456197D01*
X115038319Y-59383891D01*
X115038318Y-59383891D01*
X115032288Y-59381206D01*
X114938888Y-59361353D01*
X114851944Y-59342872D01*
X114851939Y-59342872D01*
X114845487Y-59341500D01*
X114654513Y-59341500D01*
X114648061Y-59342872D01*
X114648056Y-59342872D01*
X114561112Y-59361353D01*
X114467712Y-59381206D01*
X114317296Y-59448175D01*
X114246930Y-59457609D01*
X114182633Y-59427503D01*
X114158807Y-59399215D01*
X114102489Y-59307909D01*
X114093442Y-59296468D01*
X113978532Y-59181558D01*
X113967092Y-59172512D01*
X113828767Y-59087192D01*
X113815565Y-59081036D01*
X113660852Y-59029769D01*
X113642604Y-59025863D01*
X113580179Y-58992045D01*
X113545947Y-58929846D01*
X113550777Y-58859014D01*
X113593134Y-58802037D01*
X113636367Y-58780947D01*
X113774233Y-58744006D01*
X113774235Y-58744005D01*
X113779543Y-58742583D01*
X113792082Y-58736736D01*
X113986820Y-58645929D01*
X113986825Y-58645926D01*
X113991807Y-58643603D01*
X114179144Y-58512428D01*
X114179150Y-58512424D01*
X114183658Y-58509267D01*
X114349267Y-58343658D01*
X114354672Y-58335940D01*
X114480446Y-58156315D01*
X114483603Y-58151807D01*
X114484305Y-58152298D01*
X114532262Y-58106570D01*
X114601976Y-58093133D01*
X114667887Y-58119519D01*
X114696066Y-58152039D01*
X114696397Y-58151807D01*
X114699554Y-58156315D01*
X114825329Y-58335940D01*
X114830733Y-58343658D01*
X114996342Y-58509267D01*
X115000850Y-58512424D01*
X115000856Y-58512428D01*
X115188193Y-58643603D01*
X115193175Y-58645926D01*
X115193180Y-58645929D01*
X115387918Y-58736736D01*
X115400457Y-58742583D01*
X115405765Y-58744005D01*
X115405767Y-58744006D01*
X115621369Y-58801776D01*
X115621371Y-58801776D01*
X115626684Y-58803200D01*
X115860000Y-58823613D01*
X116093316Y-58803200D01*
X116098629Y-58801776D01*
X116098631Y-58801776D01*
X116314233Y-58744006D01*
X116314235Y-58744005D01*
X116319543Y-58742583D01*
X116332082Y-58736736D01*
X116526820Y-58645929D01*
X116526825Y-58645926D01*
X116531807Y-58643603D01*
X116719144Y-58512428D01*
X116719150Y-58512424D01*
X116723658Y-58509267D01*
X116889267Y-58343658D01*
X116894672Y-58335940D01*
X117020446Y-58156315D01*
X117023603Y-58151807D01*
X117024305Y-58152298D01*
X117072262Y-58106570D01*
X117141976Y-58093133D01*
X117207887Y-58119519D01*
X117236066Y-58152039D01*
X117236397Y-58151807D01*
X117239554Y-58156315D01*
X117365329Y-58335940D01*
X117370733Y-58343658D01*
X117536342Y-58509267D01*
X117540850Y-58512424D01*
X117540856Y-58512428D01*
X117728193Y-58643603D01*
X117733175Y-58645926D01*
X117733180Y-58645929D01*
X117927918Y-58736736D01*
X117940457Y-58742583D01*
X117945765Y-58744005D01*
X117945767Y-58744006D01*
X118161369Y-58801776D01*
X118161371Y-58801776D01*
X118166684Y-58803200D01*
X118400000Y-58823613D01*
X118633316Y-58803200D01*
X118638629Y-58801776D01*
X118638631Y-58801776D01*
X118854233Y-58744006D01*
X118854235Y-58744005D01*
X118859543Y-58742583D01*
X118872082Y-58736736D01*
X119066820Y-58645929D01*
X119066825Y-58645926D01*
X119071807Y-58643603D01*
X119259144Y-58512428D01*
X119259150Y-58512424D01*
X119263658Y-58509267D01*
X119429267Y-58343658D01*
X119434672Y-58335940D01*
X119560446Y-58156315D01*
X119563603Y-58151807D01*
X119564305Y-58152298D01*
X119612262Y-58106570D01*
X119681976Y-58093133D01*
X119747887Y-58119519D01*
X119776066Y-58152039D01*
X119776397Y-58151807D01*
X119779554Y-58156315D01*
X119905329Y-58335940D01*
X119910733Y-58343658D01*
X120076342Y-58509267D01*
X120080850Y-58512424D01*
X120080856Y-58512428D01*
X120268193Y-58643603D01*
X120273175Y-58645926D01*
X120273180Y-58645929D01*
X120467918Y-58736736D01*
X120480457Y-58742583D01*
X120485765Y-58744005D01*
X120485767Y-58744006D01*
X120701369Y-58801776D01*
X120701371Y-58801776D01*
X120706684Y-58803200D01*
X120940000Y-58823613D01*
X121173316Y-58803200D01*
X121178629Y-58801776D01*
X121178631Y-58801776D01*
X121394233Y-58744006D01*
X121394235Y-58744005D01*
X121399543Y-58742583D01*
X121412082Y-58736736D01*
X121606820Y-58645929D01*
X121606825Y-58645926D01*
X121611807Y-58643603D01*
X121799144Y-58512428D01*
X121799150Y-58512424D01*
X121803658Y-58509267D01*
X121969267Y-58343658D01*
X121974672Y-58335940D01*
X122100446Y-58156315D01*
X122103603Y-58151807D01*
X122104305Y-58152298D01*
X122152262Y-58106570D01*
X122221976Y-58093133D01*
X122287887Y-58119519D01*
X122316066Y-58152039D01*
X122316397Y-58151807D01*
X122319554Y-58156315D01*
X122445329Y-58335940D01*
X122450733Y-58343658D01*
X122616342Y-58509267D01*
X122620850Y-58512424D01*
X122620856Y-58512428D01*
X122808193Y-58643603D01*
X122813175Y-58645926D01*
X122813180Y-58645929D01*
X123007918Y-58736736D01*
X123020457Y-58742583D01*
X123025765Y-58744005D01*
X123025767Y-58744006D01*
X123241369Y-58801776D01*
X123241371Y-58801776D01*
X123246684Y-58803200D01*
X123480000Y-58823613D01*
X123485475Y-58823134D01*
X123693143Y-58804965D01*
X123762748Y-58818954D01*
X123764864Y-58821004D01*
X123768099Y-58813288D01*
X123833257Y-58771062D01*
X123934233Y-58744006D01*
X123934235Y-58744005D01*
X123939543Y-58742583D01*
X123952082Y-58736736D01*
X124146820Y-58645929D01*
X124146825Y-58645926D01*
X124151807Y-58643603D01*
X124339144Y-58512428D01*
X124339150Y-58512424D01*
X124343658Y-58509267D01*
X124509267Y-58343658D01*
X124514672Y-58335940D01*
X124640446Y-58156315D01*
X124643603Y-58151807D01*
X124644305Y-58152298D01*
X124692262Y-58106570D01*
X124761976Y-58093133D01*
X124827887Y-58119519D01*
G37*
%TD.AperFunction*%
%TA.AperFunction,Conductor*%
G36*
X99427887Y-58119519D02*
G01*
X99456066Y-58152039D01*
X99456397Y-58151807D01*
X99459554Y-58156315D01*
X99585329Y-58335940D01*
X99590733Y-58343658D01*
X99747731Y-58500656D01*
X99781757Y-58562968D01*
X99776692Y-58633783D01*
X99734145Y-58690619D01*
X99698269Y-58709355D01*
X99634231Y-58730575D01*
X99634225Y-58730578D01*
X99627262Y-58732885D01*
X99602888Y-58747919D01*
X99487723Y-58818954D01*
X99476348Y-58825970D01*
X99350970Y-58951348D01*
X99257885Y-59102262D01*
X99251887Y-59120364D01*
X99205541Y-59260229D01*
X99202113Y-59270574D01*
X99201415Y-59277408D01*
X99201414Y-59277412D01*
X99193994Y-59350045D01*
X99191500Y-59374455D01*
X99191501Y-59682826D01*
X99191501Y-59925982D01*
X99171499Y-59994103D01*
X99111881Y-60043135D01*
X99100095Y-60047801D01*
X99088869Y-60051645D01*
X99046407Y-60063982D01*
X99039585Y-60068016D01*
X99039579Y-60068019D01*
X99028968Y-60074294D01*
X99011218Y-60082990D01*
X98999756Y-60087528D01*
X98999751Y-60087531D01*
X98992383Y-60090448D01*
X98985968Y-60095109D01*
X98956625Y-60116427D01*
X98946707Y-60122943D01*
X98941469Y-60126041D01*
X98908637Y-60145458D01*
X98894313Y-60159782D01*
X98879282Y-60172620D01*
X98869025Y-60180073D01*
X98867284Y-60181338D01*
X98800415Y-60205195D01*
X98731264Y-60189113D01*
X98699589Y-60163711D01*
X98661253Y-60121134D01*
X98553897Y-60043135D01*
X98512094Y-60012763D01*
X98512093Y-60012762D01*
X98506752Y-60008882D01*
X98500724Y-60006198D01*
X98500722Y-60006197D01*
X98338319Y-59933891D01*
X98338318Y-59933891D01*
X98332288Y-59931206D01*
X98238888Y-59911353D01*
X98151944Y-59892872D01*
X98151939Y-59892872D01*
X98145487Y-59891500D01*
X98090139Y-59891500D01*
X98022018Y-59871498D01*
X97994754Y-59847321D01*
X97992000Y-59842982D01*
X97942348Y-59796356D01*
X97939507Y-59793602D01*
X97919770Y-59773865D01*
X97919296Y-59773498D01*
X97881826Y-59714081D01*
X97877673Y-59692423D01*
X97873983Y-59656305D01*
X97872887Y-59645574D01*
X97817115Y-59477262D01*
X97757867Y-59381206D01*
X97727884Y-59332596D01*
X97727883Y-59332595D01*
X97724030Y-59326348D01*
X97598652Y-59200970D01*
X97592405Y-59197117D01*
X97592399Y-59197112D01*
X97555853Y-59174570D01*
X97508375Y-59121784D01*
X97496000Y-59067330D01*
X97496000Y-58881263D01*
X97496527Y-58870079D01*
X97498201Y-58862591D01*
X97498110Y-58859699D01*
X97523604Y-58795842D01*
X97581396Y-58754604D01*
X97655332Y-58751928D01*
X97841369Y-58801776D01*
X97841371Y-58801776D01*
X97846684Y-58803200D01*
X98080000Y-58823613D01*
X98313316Y-58803200D01*
X98318629Y-58801776D01*
X98318631Y-58801776D01*
X98534233Y-58744006D01*
X98534235Y-58744005D01*
X98539543Y-58742583D01*
X98552082Y-58736736D01*
X98746820Y-58645929D01*
X98746825Y-58645926D01*
X98751807Y-58643603D01*
X98939144Y-58512428D01*
X98939150Y-58512424D01*
X98943658Y-58509267D01*
X99109267Y-58343658D01*
X99114672Y-58335940D01*
X99240446Y-58156315D01*
X99243603Y-58151807D01*
X99244305Y-58152298D01*
X99292262Y-58106570D01*
X99361976Y-58093133D01*
X99427887Y-58119519D01*
G37*
%TD.AperFunction*%
%TA.AperFunction,Conductor*%
G36*
X109588859Y-58095115D02*
G01*
X109629012Y-58137564D01*
X109629285Y-58138036D01*
X109631610Y-58143023D01*
X109764190Y-58332366D01*
X109927634Y-58495810D01*
X109932142Y-58498967D01*
X109932145Y-58498969D01*
X109996272Y-58543871D01*
X110116977Y-58628390D01*
X110121959Y-58630713D01*
X110121964Y-58630716D01*
X110305930Y-58716500D01*
X110326466Y-58726076D01*
X110331774Y-58727498D01*
X110331776Y-58727499D01*
X110544420Y-58784476D01*
X110549735Y-58785900D01*
X110555211Y-58786379D01*
X110555216Y-58786380D01*
X110589110Y-58789345D01*
X110601482Y-58790427D01*
X110667599Y-58816290D01*
X110709239Y-58873793D01*
X110716500Y-58915948D01*
X110716500Y-59050040D01*
X110696498Y-59118161D01*
X110656648Y-59157280D01*
X110632598Y-59172114D01*
X110632592Y-59172118D01*
X110626348Y-59175970D01*
X110500970Y-59301348D01*
X110497117Y-59307595D01*
X110497116Y-59307596D01*
X110479142Y-59336736D01*
X110407885Y-59452262D01*
X110382082Y-59530132D01*
X110341668Y-59588504D01*
X110276112Y-59615760D01*
X110262477Y-59616500D01*
X106976009Y-59616500D01*
X106907888Y-59596498D01*
X106861395Y-59542842D01*
X106850699Y-59503670D01*
X106849474Y-59492009D01*
X106843542Y-59435572D01*
X106784527Y-59253944D01*
X106758545Y-59208941D01*
X106737282Y-59172114D01*
X106689040Y-59088556D01*
X106684029Y-59082990D01*
X106565675Y-58951545D01*
X106565674Y-58951544D01*
X106561253Y-58946634D01*
X106463993Y-58875970D01*
X106412097Y-58838265D01*
X106412094Y-58838264D01*
X106406752Y-58834382D01*
X106406846Y-58834252D01*
X106359935Y-58785056D01*
X106346497Y-58715342D01*
X106372882Y-58649431D01*
X106399656Y-58624103D01*
X106559147Y-58512426D01*
X106559150Y-58512424D01*
X106563658Y-58509267D01*
X106729267Y-58343658D01*
X106734672Y-58335940D01*
X106860446Y-58156315D01*
X106863603Y-58151807D01*
X106864305Y-58152298D01*
X106912262Y-58106570D01*
X106981976Y-58093133D01*
X107047887Y-58119519D01*
X107076066Y-58152039D01*
X107076397Y-58151807D01*
X107079554Y-58156315D01*
X107205329Y-58335940D01*
X107210733Y-58343658D01*
X107376342Y-58509267D01*
X107380850Y-58512424D01*
X107380856Y-58512428D01*
X107568193Y-58643603D01*
X107573175Y-58645926D01*
X107573180Y-58645929D01*
X107767918Y-58736736D01*
X107780457Y-58742583D01*
X107785765Y-58744005D01*
X107785767Y-58744006D01*
X108001369Y-58801776D01*
X108001371Y-58801776D01*
X108006684Y-58803200D01*
X108240000Y-58823613D01*
X108473316Y-58803200D01*
X108478629Y-58801776D01*
X108478631Y-58801776D01*
X108694233Y-58744006D01*
X108694235Y-58744005D01*
X108699543Y-58742583D01*
X108712082Y-58736736D01*
X108906820Y-58645929D01*
X108906825Y-58645926D01*
X108911807Y-58643603D01*
X109099144Y-58512428D01*
X109099150Y-58512424D01*
X109103658Y-58509267D01*
X109269267Y-58343658D01*
X109274672Y-58335940D01*
X109400446Y-58156315D01*
X109403603Y-58151807D01*
X109405929Y-58146819D01*
X109408679Y-58142056D01*
X109409771Y-58142687D01*
X109452622Y-58094026D01*
X109520901Y-58074569D01*
X109588859Y-58095115D01*
G37*
%TD.AperFunction*%
%TA.AperFunction,Conductor*%
G36*
X112192012Y-58209281D02*
G01*
X112212713Y-58232234D01*
X112285329Y-58335940D01*
X112290733Y-58343658D01*
X112456342Y-58509267D01*
X112460850Y-58512424D01*
X112460856Y-58512428D01*
X112648193Y-58643603D01*
X112653175Y-58645926D01*
X112653180Y-58645929D01*
X112847918Y-58736736D01*
X112860457Y-58742583D01*
X112865765Y-58744005D01*
X112865767Y-58744006D01*
X112865771Y-58744007D01*
X112964431Y-58770443D01*
X113025053Y-58807393D01*
X113056074Y-58871254D01*
X113047646Y-58941748D01*
X113002443Y-58996496D01*
X112944625Y-59017497D01*
X112852512Y-59026908D01*
X112839154Y-59029767D01*
X112684435Y-59081036D01*
X112671233Y-59087192D01*
X112532908Y-59172512D01*
X112521468Y-59181558D01*
X112406558Y-59296468D01*
X112399155Y-59305830D01*
X112341213Y-59346857D01*
X112270288Y-59350045D01*
X112208898Y-59314383D01*
X112202553Y-59307059D01*
X112199030Y-59301348D01*
X112073652Y-59175970D01*
X112067408Y-59172118D01*
X112067402Y-59172114D01*
X112043352Y-59157280D01*
X111995874Y-59104494D01*
X111983500Y-59050040D01*
X111983500Y-58304505D01*
X112003502Y-58236384D01*
X112057158Y-58189891D01*
X112127432Y-58179787D01*
X112192012Y-58209281D01*
G37*
%TD.AperFunction*%
%TA.AperFunction,Conductor*%
G36*
X101967887Y-58119519D02*
G01*
X101996066Y-58152039D01*
X101996397Y-58151807D01*
X101999554Y-58156315D01*
X102125329Y-58335940D01*
X102130733Y-58343658D01*
X102296342Y-58509267D01*
X102300850Y-58512424D01*
X102300856Y-58512428D01*
X102488193Y-58643603D01*
X102493175Y-58645926D01*
X102493180Y-58645929D01*
X102687918Y-58736736D01*
X102700457Y-58742583D01*
X102705765Y-58744005D01*
X102705767Y-58744006D01*
X102705771Y-58744007D01*
X102923355Y-58802308D01*
X102923357Y-58802309D01*
X102926684Y-58803200D01*
X102926505Y-58803868D01*
X102986402Y-58833549D01*
X103022875Y-58894461D01*
X103020626Y-58965422D01*
X103001723Y-59000595D01*
X103000970Y-59001348D01*
X102907885Y-59152262D01*
X102886951Y-59215438D01*
X102879886Y-59236759D01*
X102839472Y-59295131D01*
X102773916Y-59322387D01*
X102704031Y-59309874D01*
X102667009Y-59280472D01*
X102667000Y-59280482D01*
X102659887Y-59273802D01*
X102617349Y-59233857D01*
X102614507Y-59231102D01*
X102594770Y-59211365D01*
X102591573Y-59208885D01*
X102582551Y-59201180D01*
X102550321Y-59170914D01*
X102543375Y-59167095D01*
X102543372Y-59167093D01*
X102532566Y-59161152D01*
X102516047Y-59150301D01*
X102509803Y-59145458D01*
X102500041Y-59137886D01*
X102492772Y-59134741D01*
X102492768Y-59134738D01*
X102459463Y-59120326D01*
X102448813Y-59115109D01*
X102410060Y-59093805D01*
X102396986Y-59090448D01*
X102390438Y-59088767D01*
X102371734Y-59082363D01*
X102360420Y-59077467D01*
X102360419Y-59077467D01*
X102353145Y-59074319D01*
X102345322Y-59073080D01*
X102345312Y-59073077D01*
X102309476Y-59067401D01*
X102297856Y-59064995D01*
X102262711Y-59055972D01*
X102262710Y-59055972D01*
X102255030Y-59054000D01*
X102234776Y-59054000D01*
X102215065Y-59052449D01*
X102211650Y-59051908D01*
X102195057Y-59049280D01*
X102187165Y-59050026D01*
X102151039Y-59053441D01*
X102139181Y-59054000D01*
X101582670Y-59054000D01*
X101514549Y-59033998D01*
X101475430Y-58994147D01*
X101452888Y-58957601D01*
X101452883Y-58957595D01*
X101449030Y-58951348D01*
X101323652Y-58825970D01*
X101318186Y-58822599D01*
X101277377Y-58764962D01*
X101274190Y-58694037D01*
X101309854Y-58632648D01*
X101324287Y-58620860D01*
X101479147Y-58512426D01*
X101479150Y-58512424D01*
X101483658Y-58509267D01*
X101649267Y-58343658D01*
X101654672Y-58335940D01*
X101780446Y-58156315D01*
X101783603Y-58151807D01*
X101784305Y-58152298D01*
X101832262Y-58106570D01*
X101901976Y-58093133D01*
X101967887Y-58119519D01*
G37*
%TD.AperFunction*%
%TD*%
%TA.AperFunction,NonConductor*%
G36*
X104507887Y-58119519D02*
G01*
X104536066Y-58152039D01*
X104536397Y-58151807D01*
X104539554Y-58156315D01*
X104665329Y-58335940D01*
X104670733Y-58343658D01*
X104836342Y-58509267D01*
X104840854Y-58512426D01*
X104840856Y-58512428D01*
X104885760Y-58543871D01*
X104930088Y-58599328D01*
X104937396Y-58669948D01*
X104905364Y-58733308D01*
X104844163Y-58769292D01*
X104773858Y-58766688D01*
X104654426Y-58727113D01*
X104647592Y-58726415D01*
X104647588Y-58726414D01*
X104553729Y-58716825D01*
X104553723Y-58716825D01*
X104550545Y-58716500D01*
X104120615Y-58716500D01*
X104052494Y-58696498D01*
X104006001Y-58642842D01*
X103995897Y-58572568D01*
X104025391Y-58507988D01*
X104031520Y-58501405D01*
X104189267Y-58343658D01*
X104194672Y-58335940D01*
X104320446Y-58156315D01*
X104323603Y-58151807D01*
X104324305Y-58152298D01*
X104372262Y-58106570D01*
X104441976Y-58093133D01*
X104507887Y-58119519D01*
G37*
%TD.AperFunction*%
%TA.AperFunction,NonConductor*%
G36*
X109631925Y-60903502D02*
G01*
X109678418Y-60957158D01*
X109688522Y-61027432D01*
X109659028Y-61092012D01*
X109596181Y-61130897D01*
X109591203Y-61131526D01*
X109550086Y-61147806D01*
X109538885Y-61151641D01*
X109496406Y-61163982D01*
X109489587Y-61168015D01*
X109489582Y-61168017D01*
X109478971Y-61174293D01*
X109461221Y-61182990D01*
X109442383Y-61190448D01*
X109435967Y-61195109D01*
X109435966Y-61195110D01*
X109406625Y-61216428D01*
X109396701Y-61222947D01*
X109365460Y-61241422D01*
X109365455Y-61241426D01*
X109358637Y-61245458D01*
X109344313Y-61259782D01*
X109329281Y-61272621D01*
X109312893Y-61284528D01*
X109284712Y-61318593D01*
X109276722Y-61327373D01*
X107945165Y-62658930D01*
X107882853Y-62692956D01*
X107839624Y-62694757D01*
X107814885Y-62691500D01*
X107777461Y-62691500D01*
X106759500Y-62691501D01*
X106691379Y-62671499D01*
X106644886Y-62617843D01*
X106633500Y-62565501D01*
X106633500Y-61852524D01*
X106653502Y-61784403D01*
X106665858Y-61768221D01*
X106739040Y-61686944D01*
X106834527Y-61521556D01*
X106893542Y-61339928D01*
X106895785Y-61318593D01*
X106912814Y-61156565D01*
X106913504Y-61150000D01*
X106900121Y-61022670D01*
X106912893Y-60952832D01*
X106961395Y-60900986D01*
X107025431Y-60883500D01*
X109563804Y-60883500D01*
X109631925Y-60903502D01*
G37*
%TD.AperFunction*%
%TA.AperFunction,NonConductor*%
G36*
X111586392Y-65441421D02*
G01*
X111619286Y-65511039D01*
X111632162Y-65608850D01*
X111635322Y-65616478D01*
X111639589Y-65626780D01*
X111647179Y-65697370D01*
X111639590Y-65723218D01*
X111632162Y-65741150D01*
X111616500Y-65860115D01*
X111616501Y-66139884D01*
X111617039Y-66143969D01*
X111617039Y-66143973D01*
X111631084Y-66250662D01*
X111632162Y-66258850D01*
X111636325Y-66268900D01*
X111639589Y-66276780D01*
X111647179Y-66347370D01*
X111639589Y-66373220D01*
X111635322Y-66383520D01*
X111635321Y-66383523D01*
X111632162Y-66391150D01*
X111616500Y-66510115D01*
X111616501Y-66642775D01*
X111616501Y-66666405D01*
X111596499Y-66734526D01*
X111542844Y-66781019D01*
X111472570Y-66791124D01*
X111407989Y-66761631D01*
X111401406Y-66755501D01*
X110937684Y-66291779D01*
X110903658Y-66229467D01*
X110908723Y-66158652D01*
X110952717Y-66100749D01*
X111086753Y-66003366D01*
X111142436Y-65941524D01*
X111210121Y-65866352D01*
X111210122Y-65866351D01*
X111214540Y-65861444D01*
X111310027Y-65696056D01*
X111369042Y-65514428D01*
X111369732Y-65507864D01*
X111371106Y-65501400D01*
X111374101Y-65502037D01*
X111396080Y-65448641D01*
X111454308Y-65408021D01*
X111525253Y-65405329D01*
X111586392Y-65441421D01*
G37*
%TD.AperFunction*%
%TA.AperFunction,NonConductor*%
G36*
X105159921Y-66653502D02*
G01*
X105179147Y-66669843D01*
X105179420Y-66669540D01*
X105184330Y-66673961D01*
X105188747Y-66678866D01*
X105194086Y-66682745D01*
X105335878Y-66785763D01*
X105343248Y-66791118D01*
X105349276Y-66793802D01*
X105349278Y-66793803D01*
X105460406Y-66843280D01*
X105517712Y-66868794D01*
X105611113Y-66888647D01*
X105698056Y-66907128D01*
X105698061Y-66907128D01*
X105704513Y-66908500D01*
X105781455Y-66908500D01*
X105849576Y-66928502D01*
X105896069Y-66982158D01*
X105906377Y-67050946D01*
X105902283Y-67082040D01*
X105904495Y-67096222D01*
X105917652Y-67100000D01*
X105939431Y-67100000D01*
X106007552Y-67120002D01*
X106039391Y-67149294D01*
X106066013Y-67183986D01*
X106064661Y-67185023D01*
X106093981Y-67238717D01*
X106088916Y-67309532D01*
X106046369Y-67366368D01*
X105979849Y-67391179D01*
X105970860Y-67391500D01*
X105339595Y-67391500D01*
X105271474Y-67371498D01*
X105250499Y-67354595D01*
X104744500Y-66848595D01*
X104710475Y-66786283D01*
X104715540Y-66715467D01*
X104758087Y-66658632D01*
X104824607Y-66633821D01*
X104833596Y-66633500D01*
X105091800Y-66633500D01*
X105159921Y-66653502D01*
G37*
%TD.AperFunction*%
M02*
