M48
; DRILL file {KiCad (6.99.0-4502-gf1556ed801-dirty)} date Sat 17 Dec 2022 08:31:08 PM EST
; FORMAT={-:-/ absolute / inch / decimal}
; #@! TF.CreationDate,2022-12-17T20:31:08-05:00
; #@! TF.GenerationSoftware,Kicad,Pcbnew,(6.99.0-4502-gf1556ed801-dirty)
; #@! TF.FileFunction,Plated,1,2,PTH
FMAT,2
INCH
; #@! TA.AperFunction,Plated,PTH,ViaDrill
T1C0.0157
; #@! TA.AperFunction,Plated,PTH,ViaDrill
T2C0.0402
%
G90
G05
T1
X3.5236Y-2.3179
X3.5472Y-2.502
X3.7717Y-2.4105
X3.7766Y-2.5728
X3.7795Y-2.4724
X3.8041Y-2.8425
X3.8602Y-2.3937
X3.8681Y-2.7126
X3.8819Y-2.3346
X3.9331Y-2.8435
X3.9843Y-2.5177
X4.001Y-2.7126
X4.0148Y-2.314
X4.06Y-2.8415
X4.124Y-2.4843
X4.1535Y-2.6486
X4.1654Y-2.5984
X4.1713Y-2.3475
X4.1732Y-2.4075
X4.188Y-2.7461
X4.189Y-2.8435
X4.2844Y-2.6496
X4.313Y-2.3199
X4.3465Y-2.5049
X4.3465Y-2.7283
X4.3494Y-2.5718
X4.4193Y-2.4311
X4.4232Y-2.3159
X4.5079Y-2.6486
X4.5118Y-2.311
X4.5118Y-2.4872
X4.5177Y-2.372
X4.5236Y-2.5974
X4.5256Y-2.5482
X4.56Y-2.7549
X4.563Y-2.3346
X4.6112Y-2.565
X4.6388Y-2.3356
X4.6998Y-2.6093
X4.7037Y-2.4656
X4.8081Y-2.3612
X4.8435Y-2.5039
X4.8878Y-2.4134
X5.0886Y-2.3819
X5.1506Y-2.3474
T2
X3.5614Y-2.1126
X3.5614Y-2.263
X3.6114Y-2.0374
X3.6114Y-2.1878
X3.6614Y-2.1126
X3.6614Y-2.263
X3.7114Y-2.0374
X3.7114Y-2.1878
X3.7614Y-2.1126
X3.7614Y-2.263
X3.8114Y-2.0374
X3.8114Y-2.1878
X3.8614Y-2.1126
X3.8614Y-2.263
X3.9114Y-2.0374
X3.9114Y-2.1878
X3.9614Y-2.1126
X3.9614Y-2.263
X4.0114Y-2.0374
X4.0114Y-2.1878
X4.0614Y-2.1126
X4.0614Y-2.263
X4.1114Y-2.0374
X4.1114Y-2.1878
X4.1614Y-2.1126
X4.1614Y-2.263
X4.2114Y-2.0374
X4.2114Y-2.1878
X4.2614Y-2.1126
X4.2614Y-2.263
X4.3114Y-2.0374
X4.3114Y-2.1878
X4.3614Y-2.1126
X4.3614Y-2.263
X4.4114Y-2.0374
X4.4114Y-2.1878
X4.4614Y-2.1126
X4.4614Y-2.263
X4.5114Y-2.0374
X4.5114Y-2.1878
X4.5614Y-2.1126
X4.5614Y-2.263
X4.6114Y-2.0374
X4.6114Y-2.1878
X4.6614Y-2.1126
X4.6614Y-2.263
X4.7114Y-2.0374
X4.7114Y-2.1878
X4.7614Y-2.1126
X4.7614Y-2.263
X4.8114Y-2.0374
X4.8114Y-2.1878
X4.8614Y-2.1126
X4.8614Y-2.263
X4.9114Y-2.0374
X4.9114Y-2.1878
X4.9614Y-2.1126
X4.9614Y-2.263
X5.0114Y-2.0374
X5.0114Y-2.1878
X5.0614Y-2.1126
X5.0614Y-2.263
X5.1114Y-2.0374
X5.1114Y-2.1878
X5.1614Y-2.1126
X5.1614Y-2.263
X5.2114Y-2.0374
X5.2114Y-2.1878
T0
M30
