  0
SECTION
  2
HEADER
  9
$ANGBASE
  50
0.0
  9
$ANGDIR
  70
1
  9
$MEASUREMENT
  70
0
  0
ENDSEC
  0
SECTION
  2
TABLES
  0
TABLE
  2
LTYPE
  70
4
  0
LTYPE
  5
40F
  2
CONTINUOUS
  70
0
  3
Solid line
  72
65
  73
0
  40
0.0
  0
LTYPE
  5
410
  2
DASHDOT
 70
0
  3
Dash Dot ____ _ ____ _
 72
65
 73
4
 40
2.0
 49
1.25
 49
-0.25
 49
0.25
 49
-0.25
  0
LTYPE
  5
411
  2
DASHED
 70
0
  3
Dashed __ __ __ __ __
 72
65
 73
2
 40
0.75
 49
0.5
 49
-0.25
  0
LTYPE
  5
43B
  2
DOTTED
 70
0
  3
Dotted .  .  .  .
 72
65
 73
2
 40
0.2
 49
0.0
 49
-0.2
  0
ENDTAB
  0
TABLE
  2
STYLE
  70
4
  0
STYLE
  2
KICAD
  70
0
  40
0
  41
1
  42
1
  50
0
  71
0
  3
isocp.shx
  0
STYLE
  2
KICADB
  70
0
  40
0
  41
1
  42
1
  50
0
  71
0
  3
isocp.shx
  0
STYLE
  2
KICADI
  70
0
  40
0
  41
1
  42
1
  50
15
  71
0
  3
isocp.shx
  0
STYLE
  2
KICADBI
  70
0
  40
0
  41
1
  42
1
  50
15
  71
0
  3
isocp.shx
  0
ENDTAB
  0
TABLE
  2
LAYER
  70
1
  0
LAYER
  2
BLACK
  70
0
  62
7
  6
CONTINUOUS
  0
ENDTAB
  0
ENDSEC
  0
SECTION
  2
ENTITIES
0
ARC
8
BLACK
10
4.99606
20
-2.51181
40
0.0905512
50
90
51
180
0
LINE
8
BLACK
6
CONTINUOUS
10
5.27455
20
-2.0315
11
5.27455
21
-2.33071
0
ARC
8
BLACK
10
5.184
20
-2.33071
40
0.0905494
50
-90.0011
51
-0
0
LINE
8
BLACK
6
CONTINUOUS
10
5.184
20
-2.42126
11
4.99606
21
-2.42126
0
LINE
8
BLACK
6
CONTINUOUS
10
4.90551
20
-2.51181
11
4.90551
21
-2.79921
0
ARC
8
BLACK
10
5.184
20
-2.0315
40
0.0905512
50
-0
51
90.0011
0
LINE
8
BLACK
6
CONTINUOUS
10
3.56797
20
-1.94198
11
5.184
21
-1.94094
0
ARC
8
BLACK
10
4.81496
20
-2.79921
40
0.0905512
50
-90
51
-0
0
LINE
8
BLACK
6
CONTINUOUS
10
3.46954
20
-2.04041
11
3.46954
21
-2.79921
0
ARC
8
BLACK
10
4.46063
20
-2.79921
40
0.0669291
50
-0
51
180
0
ARC
8
BLACK
10
4.30315
20
-2.79921
40
0.0905512
50
-90
51
-0
0
ARC
8
BLACK
10
4.61811
20
-2.79921
40
0.0905512
50
-180
51
-90
0
LINE
8
BLACK
6
CONTINUOUS
10
4.81496
20
-2.88976
11
4.61811
21
-2.88976
0
ARC
8
BLACK
10
3.56796
20
-2.04041
40
0.0984234
50
-270.001
51
-179.999
0
ARC
8
BLACK
10
3.56009
20
-2.79921
40
0.0905512
50
-180
51
-89.9989
0
LINE
8
BLACK
6
CONTINUOUS
10
4.30315
20
-2.88976
11
3.56009
21
-2.88976
0
LINE
8
BLACK
6
CONTINUOUS
10
3.56506
20
-3.00727
11
3.56506
21
-2.92853
0
LINE
8
BLACK
6
CONTINUOUS
10
3.56506
20
-2.92853
11
3.58381
21
-2.92853
0
LINE
8
BLACK
6
CONTINUOUS
10
3.58381
20
-2.92853
11
3.59506
21
-2.93228
0
LINE
8
BLACK
6
CONTINUOUS
10
3.59506
20
-2.93228
11
3.60256
21
-2.93978
0
LINE
8
BLACK
6
CONTINUOUS
10
3.60256
20
-2.93978
11
3.60631
21
-2.94728
0
LINE
8
BLACK
6
CONTINUOUS
10
3.60631
20
-2.94728
11
3.61005
21
-2.96228
0
LINE
8
BLACK
6
CONTINUOUS
10
3.61005
20
-2.96228
11
3.61005
21
-2.97353
0
LINE
8
BLACK
6
CONTINUOUS
10
3.61005
20
-2.97353
11
3.60631
21
-2.98853
0
LINE
8
BLACK
6
CONTINUOUS
10
3.60631
20
-2.98853
11
3.60256
21
-2.99603
0
LINE
8
BLACK
6
CONTINUOUS
10
3.60256
20
-2.99603
11
3.59506
21
-3.00352
0
LINE
8
BLACK
6
CONTINUOUS
10
3.59506
20
-3.00352
11
3.58381
21
-3.00727
0
LINE
8
BLACK
6
CONTINUOUS
10
3.58381
20
-3.00727
11
3.56506
21
-3.00727
0
LINE
8
BLACK
6
CONTINUOUS
10
3.6438
20
-3.00727
11
3.6438
21
-2.95478
0
LINE
8
BLACK
6
CONTINUOUS
10
3.6438
20
-2.96978
11
3.64755
21
-2.96228
0
LINE
8
BLACK
6
CONTINUOUS
10
3.64755
20
-2.96228
11
3.6513
21
-2.95853
0
LINE
8
BLACK
6
CONTINUOUS
10
3.6513
20
-2.95853
11
3.6588
21
-2.95478
0
LINE
8
BLACK
6
CONTINUOUS
10
3.6588
20
-2.95478
11
3.6663
21
-2.95478
0
LINE
8
BLACK
6
CONTINUOUS
10
3.69254
20
-3.00727
11
3.69254
21
-2.95478
0
LINE
8
BLACK
6
CONTINUOUS
10
3.69254
20
-2.92853
11
3.68879
21
-2.93228
0
LINE
8
BLACK
6
CONTINUOUS
10
3.68879
20
-2.93228
11
3.69254
21
-2.93603
0
LINE
8
BLACK
6
CONTINUOUS
10
3.69254
20
-2.93603
11
3.69629
21
-2.93228
0
LINE
8
BLACK
6
CONTINUOUS
10
3.69629
20
-2.93228
11
3.69254
21
-2.92853
0
LINE
8
BLACK
6
CONTINUOUS
10
3.69254
20
-2.92853
11
3.69254
21
-2.93603
0
LINE
8
BLACK
6
CONTINUOUS
10
3.74129
20
-3.00727
11
3.73379
21
-3.00352
0
LINE
8
BLACK
6
CONTINUOUS
10
3.73379
20
-3.00352
11
3.73004
21
-2.99603
0
LINE
8
BLACK
6
CONTINUOUS
10
3.73004
20
-2.99603
11
3.73004
21
-2.92853
0
LINE
8
BLACK
6
CONTINUOUS
10
3.78253
20
-3.00727
11
3.77503
21
-3.00352
0
LINE
8
BLACK
6
CONTINUOUS
10
3.77503
20
-3.00352
11
3.77128
21
-2.99603
0
LINE
8
BLACK
6
CONTINUOUS
10
3.77128
20
-2.99603
11
3.77128
21
-2.92853
0
LINE
8
BLACK
6
CONTINUOUS
10
3.85977
20
-3.00727
11
3.85977
21
-2.92853
0
LINE
8
BLACK
6
CONTINUOUS
10
3.85977
20
-2.92853
11
3.88602
21
-2.98478
0
LINE
8
BLACK
6
CONTINUOUS
10
3.88602
20
-2.98478
11
3.91227
21
-2.92853
0
LINE
8
BLACK
6
CONTINUOUS
10
3.91227
20
-2.92853
11
3.91227
21
-3.00727
0
LINE
8
BLACK
6
CONTINUOUS
10
3.98351
20
-3.00727
11
3.98351
21
-2.96603
0
LINE
8
BLACK
6
CONTINUOUS
10
3.98351
20
-2.96603
11
3.97976
21
-2.95853
0
LINE
8
BLACK
6
CONTINUOUS
10
3.97976
20
-2.95853
11
3.97226
21
-2.95478
0
LINE
8
BLACK
6
CONTINUOUS
10
3.97226
20
-2.95478
11
3.95726
21
-2.95478
0
LINE
8
BLACK
6
CONTINUOUS
10
3.95726
20
-2.95478
11
3.94976
21
-2.95853
0
LINE
8
BLACK
6
CONTINUOUS
10
3.98351
20
-3.00352
11
3.97601
21
-3.00727
0
LINE
8
BLACK
6
CONTINUOUS
10
3.97601
20
-3.00727
11
3.95726
21
-3.00727
0
LINE
8
BLACK
6
CONTINUOUS
10
3.95726
20
-3.00727
11
3.94976
21
-3.00352
0
LINE
8
BLACK
6
CONTINUOUS
10
3.94976
20
-3.00352
11
3.94601
21
-2.99603
0
LINE
8
BLACK
6
CONTINUOUS
10
3.94601
20
-2.99603
11
3.94601
21
-2.98853
0
LINE
8
BLACK
6
CONTINUOUS
10
3.94601
20
-2.98853
11
3.94976
21
-2.98103
0
LINE
8
BLACK
6
CONTINUOUS
10
3.94976
20
-2.98103
11
3.95726
21
-2.97728
0
LINE
8
BLACK
6
CONTINUOUS
10
3.95726
20
-2.97728
11
3.97601
21
-2.97728
0
LINE
8
BLACK
6
CONTINUOUS
10
3.97601
20
-2.97728
11
3.98351
21
-2.97353
0
LINE
8
BLACK
6
CONTINUOUS
10
4.021
20
-2.95478
11
4.021
21
-3.03352
0
LINE
8
BLACK
6
CONTINUOUS
10
4.021
20
-2.95853
11
4.0285
21
-2.95478
0
LINE
8
BLACK
6
CONTINUOUS
10
4.0285
20
-2.95478
11
4.0435
21
-2.95478
0
LINE
8
BLACK
6
CONTINUOUS
10
4.0435
20
-2.95478
11
4.051
21
-2.95853
0
LINE
8
BLACK
6
CONTINUOUS
10
4.051
20
-2.95853
11
4.05475
21
-2.96228
0
LINE
8
BLACK
6
CONTINUOUS
10
4.05475
20
-2.96228
11
4.0585
21
-2.96978
0
LINE
8
BLACK
6
CONTINUOUS
10
4.0585
20
-2.96978
11
4.0585
21
-2.99228
0
LINE
8
BLACK
6
CONTINUOUS
10
4.0585
20
-2.99228
11
4.05475
21
-2.99978
0
LINE
8
BLACK
6
CONTINUOUS
10
4.05475
20
-2.99978
11
4.051
21
-3.00352
0
LINE
8
BLACK
6
CONTINUOUS
10
4.051
20
-3.00352
11
4.0435
21
-3.00727
0
LINE
8
BLACK
6
CONTINUOUS
10
4.0435
20
-3.00727
11
4.0285
21
-3.00727
0
LINE
8
BLACK
6
CONTINUOUS
10
4.0285
20
-3.00727
11
4.021
21
-3.00352
0
LINE
8
BLACK
6
CONTINUOUS
10
4.09224
20
-2.99978
11
4.09599
21
-3.00352
0
LINE
8
BLACK
6
CONTINUOUS
10
4.09599
20
-3.00352
11
4.09224
21
-3.00727
0
LINE
8
BLACK
6
CONTINUOUS
10
4.09224
20
-3.00727
11
4.0885
21
-3.00352
0
LINE
8
BLACK
6
CONTINUOUS
10
4.0885
20
-3.00352
11
4.09224
21
-2.99978
0
LINE
8
BLACK
6
CONTINUOUS
10
4.09224
20
-2.99978
11
4.09224
21
-3.00727
0
LINE
8
BLACK
6
CONTINUOUS
10
4.09224
20
-2.95853
11
4.09599
21
-2.96228
0
LINE
8
BLACK
6
CONTINUOUS
10
4.09599
20
-2.96228
11
4.09224
21
-2.96603
0
LINE
8
BLACK
6
CONTINUOUS
10
4.09224
20
-2.96603
11
4.0885
21
-2.96228
0
LINE
8
BLACK
6
CONTINUOUS
10
4.0885
20
-2.96228
11
4.09224
21
-2.95853
0
LINE
8
BLACK
6
CONTINUOUS
10
4.09224
20
-2.95853
11
4.09224
21
-2.96603
  0
ENDSEC
  0
EOF
