  0
SECTION
  2
HEADER
  9
$ANGBASE
  50
0.0
  9
$ANGDIR
  70
1
  9
$MEASUREMENT
  70
0
  0
ENDSEC
  0
SECTION
  2
TABLES
  0
TABLE
  2
LTYPE
  70
4
  0
LTYPE
  5
40F
  2
CONTINUOUS
  70
0
  3
Solid line
  72
65
  73
0
  40
0.0
  0
LTYPE
  5
410
  2
DASHDOT
 70
0
  3
Dash Dot ____ _ ____ _
 72
65
 73
4
 40
2.0
 49
1.25
 49
-0.25
 49
0.25
 49
-0.25
  0
LTYPE
  5
411
  2
DASHED
 70
0
  3
Dashed __ __ __ __ __
 72
65
 73
2
 40
0.75
 49
0.5
 49
-0.25
  0
LTYPE
  5
43B
  2
DOTTED
 70
0
  3
Dotted .  .  .  .
 72
65
 73
2
 40
0.2
 49
0.0
 49
-0.2
  0
ENDTAB
  0
TABLE
  2
STYLE
  70
4
  0
STYLE
  2
KICAD
  70
0
  40
0
  41
1
  42
1
  50
0
  71
0
  3
isocp.shx
  0
STYLE
  2
KICADB
  70
0
  40
0
  41
1
  42
1
  50
0
  71
0
  3
isocp.shx
  0
STYLE
  2
KICADI
  70
0
  40
0
  41
1
  42
1
  50
15
  71
0
  3
isocp.shx
  0
STYLE
  2
KICADBI
  70
0
  40
0
  41
1
  42
1
  50
15
  71
0
  3
isocp.shx
  0
ENDTAB
  0
TABLE
  2
LAYER
  70
1
  0
LAYER
  2
BLACK
  70
0
  62
7
  6
CONTINUOUS
  0
ENDTAB
  0
ENDSEC
  0
SECTION
  2
ENTITIES
0
LINE
8
BLACK
6
CONTINUOUS
10
3.46954
20
-2.04041
11
3.46954
21
-2.79921
0
ARC
8
BLACK
10
3.56797
20
-2.04041
40
0.0984252
50
90
51
180
0
LINE
8
BLACK
6
CONTINUOUS
10
4.30315
20
-2.88976
11
3.56009
21
-2.88976
0
ARC
8
BLACK
10
4.46063
20
-2.79921
40
0.0669291
50
-0
51
180
0
LINE
8
BLACK
6
CONTINUOUS
10
4.81496
20
-2.88976
11
4.61811
21
-2.88976
0
LINE
8
BLACK
6
CONTINUOUS
10
4.90551
20
-2.51181
11
4.90551
21
-2.79921
0
LINE
8
BLACK
6
CONTINUOUS
10
5.184
20
-2.42126
11
4.99606
21
-2.42126
0
LINE
8
BLACK
6
CONTINUOUS
10
5.27455
20
-2.0315
11
5.27455
21
-2.33071
0
LINE
8
BLACK
6
CONTINUOUS
10
3.56797
20
-1.94198
11
5.184
21
-1.94094
0
ARC
8
BLACK
10
3.56009
20
-2.79921
40
0.0905511
50
-180
51
-90
0
ARC
8
BLACK
10
4.30315
20
-2.79921
40
0.0905511
50
-90
51
2.49112e-05
0
ARC
8
BLACK
10
4.61811
20
-2.79921
40
0.0905511
50
-180
51
-90
0
ARC
8
BLACK
10
4.81496
20
-2.79921
40
0.0905511
50
-90
51
2.49112e-05
0
ARC
8
BLACK
10
4.99606
20
-2.51181
40
0.0905511
50
-270
51
-180
0
ARC
8
BLACK
10
5.184
20
-2.33071
40
0.0905511
50
-90
51
2.49112e-05
0
ARC
8
BLACK
10
5.184
20
-2.0315
40
0.0905511
50
-2.49112e-05
51
90
0
LINE
8
BLACK
6
CONTINUOUS
10
3.51575
20
-2.31004
11
3.5315
21
-2.32579
0
LINE
8
BLACK
6
CONTINUOUS
10
3.5315
20
-2.31004
11
3.51575
21
-2.32579
0
LINE
8
BLACK
6
CONTINUOUS
10
3.53937
20
-2.49409
11
3.55512
21
-2.50984
0
LINE
8
BLACK
6
CONTINUOUS
10
3.55512
20
-2.49409
11
3.53937
21
-2.50984
0
LINE
8
BLACK
6
CONTINUOUS
10
3.76378
20
-2.40258
11
3.77953
21
-2.41833
0
LINE
8
BLACK
6
CONTINUOUS
10
3.77953
20
-2.40258
11
3.76378
21
-2.41833
0
LINE
8
BLACK
6
CONTINUOUS
10
3.7687
20
-2.56496
11
3.78445
21
-2.58071
0
LINE
8
BLACK
6
CONTINUOUS
10
3.78445
20
-2.56496
11
3.7687
21
-2.58071
0
LINE
8
BLACK
6
CONTINUOUS
10
3.77165
20
-2.46457
11
3.7874
21
-2.48031
0
LINE
8
BLACK
6
CONTINUOUS
10
3.7874
20
-2.46457
11
3.77165
21
-2.48031
0
LINE
8
BLACK
6
CONTINUOUS
10
3.79626
20
-2.83465
11
3.81201
21
-2.85039
0
LINE
8
BLACK
6
CONTINUOUS
10
3.81201
20
-2.83465
11
3.79626
21
-2.85039
0
LINE
8
BLACK
6
CONTINUOUS
10
3.85236
20
-2.38583
11
3.86811
21
-2.40157
0
LINE
8
BLACK
6
CONTINUOUS
10
3.86811
20
-2.38583
11
3.85236
21
-2.40157
0
LINE
8
BLACK
6
CONTINUOUS
10
3.86024
20
-2.70472
11
3.87598
21
-2.72047
0
LINE
8
BLACK
6
CONTINUOUS
10
3.87598
20
-2.70472
11
3.86024
21
-2.72047
0
LINE
8
BLACK
6
CONTINUOUS
10
3.87402
20
-2.32677
11
3.88976
21
-2.34252
0
LINE
8
BLACK
6
CONTINUOUS
10
3.88976
20
-2.32677
11
3.87402
21
-2.34252
0
LINE
8
BLACK
6
CONTINUOUS
10
3.9252
20
-2.83563
11
3.94094
21
-2.85138
0
LINE
8
BLACK
6
CONTINUOUS
10
3.94094
20
-2.83563
11
3.9252
21
-2.85138
0
LINE
8
BLACK
6
CONTINUOUS
10
3.97638
20
-2.50984
11
3.99213
21
-2.52559
0
LINE
8
BLACK
6
CONTINUOUS
10
3.99213
20
-2.50984
11
3.97638
21
-2.52559
0
LINE
8
BLACK
6
CONTINUOUS
10
3.99311
20
-2.70472
11
4.00886
21
-2.72047
0
LINE
8
BLACK
6
CONTINUOUS
10
4.00886
20
-2.70472
11
3.99311
21
-2.72047
0
LINE
8
BLACK
6
CONTINUOUS
10
4.00689
20
-2.3061
11
4.02264
21
-2.32185
0
LINE
8
BLACK
6
CONTINUOUS
10
4.02264
20
-2.3061
11
4.00689
21
-2.32185
0
LINE
8
BLACK
6
CONTINUOUS
10
4.05217
20
-2.83366
11
4.06791
21
-2.84941
0
LINE
8
BLACK
6
CONTINUOUS
10
4.06791
20
-2.83366
11
4.05217
21
-2.84941
0
LINE
8
BLACK
6
CONTINUOUS
10
4.11614
20
-2.47638
11
4.13189
21
-2.49213
0
LINE
8
BLACK
6
CONTINUOUS
10
4.13189
20
-2.47638
11
4.11614
21
-2.49213
0
LINE
8
BLACK
6
CONTINUOUS
10
4.14567
20
-2.64075
11
4.16142
21
-2.6565
0
LINE
8
BLACK
6
CONTINUOUS
10
4.16142
20
-2.64075
11
4.14567
21
-2.6565
0
LINE
8
BLACK
6
CONTINUOUS
10
4.15748
20
-2.59055
11
4.17323
21
-2.6063
0
LINE
8
BLACK
6
CONTINUOUS
10
4.17323
20
-2.59055
11
4.15748
21
-2.6063
0
LINE
8
BLACK
6
CONTINUOUS
10
4.16339
20
-2.33959
11
4.17913
21
-2.35533
0
LINE
8
BLACK
6
CONTINUOUS
10
4.17913
20
-2.33959
11
4.16339
21
-2.35533
0
LINE
8
BLACK
6
CONTINUOUS
10
4.16535
20
-2.39961
11
4.1811
21
-2.41535
0
LINE
8
BLACK
6
CONTINUOUS
10
4.1811
20
-2.39961
11
4.16535
21
-2.41535
0
LINE
8
BLACK
6
CONTINUOUS
10
4.18012
20
-2.73819
11
4.19587
21
-2.75394
0
LINE
8
BLACK
6
CONTINUOUS
10
4.19587
20
-2.73819
11
4.18012
21
-2.75394
0
LINE
8
BLACK
6
CONTINUOUS
10
4.1811
20
-2.83563
11
4.19685
21
-2.85138
0
LINE
8
BLACK
6
CONTINUOUS
10
4.19685
20
-2.83563
11
4.1811
21
-2.85138
0
LINE
8
BLACK
6
CONTINUOUS
10
4.27657
20
-2.64173
11
4.29232
21
-2.65748
0
LINE
8
BLACK
6
CONTINUOUS
10
4.29232
20
-2.64173
11
4.27657
21
-2.65748
0
LINE
8
BLACK
6
CONTINUOUS
10
4.30512
20
-2.31201
11
4.32087
21
-2.32776
0
LINE
8
BLACK
6
CONTINUOUS
10
4.32087
20
-2.31201
11
4.30512
21
-2.32776
0
LINE
8
BLACK
6
CONTINUOUS
10
4.33858
20
-2.49705
11
4.35433
21
-2.5128
0
LINE
8
BLACK
6
CONTINUOUS
10
4.35433
20
-2.49705
11
4.33858
21
-2.5128
0
LINE
8
BLACK
6
CONTINUOUS
10
4.33858
20
-2.72047
11
4.35433
21
-2.73622
0
LINE
8
BLACK
6
CONTINUOUS
10
4.35433
20
-2.72047
11
4.33858
21
-2.73622
0
LINE
8
BLACK
6
CONTINUOUS
10
4.34156
20
-2.56396
11
4.3573
21
-2.5797
0
LINE
8
BLACK
6
CONTINUOUS
10
4.3573
20
-2.56396
11
4.34156
21
-2.5797
0
LINE
8
BLACK
6
CONTINUOUS
10
4.41142
20
-2.42323
11
4.42717
21
-2.43898
0
LINE
8
BLACK
6
CONTINUOUS
10
4.42717
20
-2.42323
11
4.41142
21
-2.43898
0
LINE
8
BLACK
6
CONTINUOUS
10
4.41535
20
-2.30807
11
4.4311
21
-2.32382
0
LINE
8
BLACK
6
CONTINUOUS
10
4.4311
20
-2.30807
11
4.41535
21
-2.32382
0
LINE
8
BLACK
6
CONTINUOUS
10
4.5
20
-2.64073
11
4.51575
21
-2.65648
0
LINE
8
BLACK
6
CONTINUOUS
10
4.51575
20
-2.64073
11
4.5
21
-2.65648
0
LINE
8
BLACK
6
CONTINUOUS
10
4.50394
20
-2.30315
11
4.51969
21
-2.3189
0
LINE
8
BLACK
6
CONTINUOUS
10
4.51969
20
-2.30315
11
4.50394
21
-2.3189
0
LINE
8
BLACK
6
CONTINUOUS
10
4.50394
20
-2.47933
11
4.51969
21
-2.49508
0
LINE
8
BLACK
6
CONTINUOUS
10
4.51969
20
-2.47933
11
4.50394
21
-2.49508
0
LINE
8
BLACK
6
CONTINUOUS
10
4.50984
20
-2.36417
11
4.52559
21
-2.37992
0
LINE
8
BLACK
6
CONTINUOUS
10
4.52559
20
-2.36417
11
4.50984
21
-2.37992
0
LINE
8
BLACK
6
CONTINUOUS
10
4.51575
20
-2.58955
11
4.5315
21
-2.6053
0
LINE
8
BLACK
6
CONTINUOUS
10
4.5315
20
-2.58955
11
4.51575
21
-2.6053
0
LINE
8
BLACK
6
CONTINUOUS
10
4.51772
20
-2.54037
11
4.53346
21
-2.55612
0
LINE
8
BLACK
6
CONTINUOUS
10
4.53346
20
-2.54037
11
4.51772
21
-2.55612
0
LINE
8
BLACK
6
CONTINUOUS
10
4.55217
20
-2.74705
11
4.56791
21
-2.7628
0
LINE
8
BLACK
6
CONTINUOUS
10
4.56791
20
-2.74705
11
4.55217
21
-2.7628
0
LINE
8
BLACK
6
CONTINUOUS
10
4.55512
20
-2.32677
11
4.57087
21
-2.34252
0
LINE
8
BLACK
6
CONTINUOUS
10
4.57087
20
-2.32677
11
4.55512
21
-2.34252
0
LINE
8
BLACK
6
CONTINUOUS
10
4.60335
20
-2.55709
11
4.61909
21
-2.57283
0
LINE
8
BLACK
6
CONTINUOUS
10
4.61909
20
-2.55709
11
4.60335
21
-2.57283
0
LINE
8
BLACK
6
CONTINUOUS
10
4.63091
20
-2.32776
11
4.64665
21
-2.3435
0
LINE
8
BLACK
6
CONTINUOUS
10
4.64665
20
-2.32776
11
4.63091
21
-2.3435
0
LINE
8
BLACK
6
CONTINUOUS
10
4.69193
20
-2.60138
11
4.70768
21
-2.61713
0
LINE
8
BLACK
6
CONTINUOUS
10
4.70768
20
-2.60138
11
4.69193
21
-2.61713
0
LINE
8
BLACK
6
CONTINUOUS
10
4.69587
20
-2.45768
11
4.71161
21
-2.47343
0
LINE
8
BLACK
6
CONTINUOUS
10
4.71161
20
-2.45768
11
4.69587
21
-2.47343
0
LINE
8
BLACK
6
CONTINUOUS
10
4.8002
20
-2.35335
11
4.81594
21
-2.36909
0
LINE
8
BLACK
6
CONTINUOUS
10
4.81594
20
-2.35335
11
4.8002
21
-2.36909
0
LINE
8
BLACK
6
CONTINUOUS
10
4.83563
20
-2.49606
11
4.85138
21
-2.51181
0
LINE
8
BLACK
6
CONTINUOUS
10
4.85138
20
-2.49606
11
4.83563
21
-2.51181
0
LINE
8
BLACK
6
CONTINUOUS
10
4.87992
20
-2.40551
11
4.89567
21
-2.42126
0
LINE
8
BLACK
6
CONTINUOUS
10
4.89567
20
-2.40551
11
4.87992
21
-2.42126
0
LINE
8
BLACK
6
CONTINUOUS
10
5.08071
20
-2.37402
11
5.09646
21
-2.38976
0
LINE
8
BLACK
6
CONTINUOUS
10
5.09646
20
-2.37402
11
5.08071
21
-2.38976
0
LINE
8
BLACK
6
CONTINUOUS
10
5.14272
20
-2.33957
11
5.15846
21
-2.35531
0
LINE
8
BLACK
6
CONTINUOUS
10
5.15846
20
-2.33957
11
5.14272
21
-2.35531
0
CIRCLE
8
BLACK
10
3.56142
20
-2.1126
40
0.0200787
0
CIRCLE
8
BLACK
10
3.56142
20
-2.26299
40
0.0200787
0
CIRCLE
8
BLACK
10
3.61142
20
-2.0374
40
0.0200787
0
CIRCLE
8
BLACK
10
3.61142
20
-2.1878
40
0.0200787
0
CIRCLE
8
BLACK
10
3.66142
20
-2.1126
40
0.0200787
0
CIRCLE
8
BLACK
10
3.66142
20
-2.26299
40
0.0200787
0
CIRCLE
8
BLACK
10
3.71142
20
-2.0374
40
0.0200787
0
CIRCLE
8
BLACK
10
3.71142
20
-2.1878
40
0.0200787
0
CIRCLE
8
BLACK
10
3.76142
20
-2.1126
40
0.0200787
0
CIRCLE
8
BLACK
10
3.76142
20
-2.26299
40
0.0200787
0
CIRCLE
8
BLACK
10
3.81142
20
-2.0374
40
0.0200787
0
CIRCLE
8
BLACK
10
3.81142
20
-2.1878
40
0.0200787
0
CIRCLE
8
BLACK
10
3.86142
20
-2.1126
40
0.0200787
0
CIRCLE
8
BLACK
10
3.86142
20
-2.26299
40
0.0200787
0
CIRCLE
8
BLACK
10
3.91142
20
-2.0374
40
0.0200787
0
CIRCLE
8
BLACK
10
3.91142
20
-2.1878
40
0.0200787
0
CIRCLE
8
BLACK
10
3.96142
20
-2.1126
40
0.0200787
0
CIRCLE
8
BLACK
10
3.96142
20
-2.26299
40
0.0200787
0
CIRCLE
8
BLACK
10
4.01142
20
-2.0374
40
0.0200787
0
CIRCLE
8
BLACK
10
4.01142
20
-2.1878
40
0.0200787
0
CIRCLE
8
BLACK
10
4.06142
20
-2.1126
40
0.0200787
0
CIRCLE
8
BLACK
10
4.06142
20
-2.26299
40
0.0200787
0
CIRCLE
8
BLACK
10
4.11142
20
-2.0374
40
0.0200787
0
CIRCLE
8
BLACK
10
4.11142
20
-2.1878
40
0.0200787
0
CIRCLE
8
BLACK
10
4.16142
20
-2.1126
40
0.0200787
0
CIRCLE
8
BLACK
10
4.16142
20
-2.26299
40
0.0200787
0
CIRCLE
8
BLACK
10
4.21142
20
-2.0374
40
0.0200787
0
CIRCLE
8
BLACK
10
4.21142
20
-2.1878
40
0.0200787
0
CIRCLE
8
BLACK
10
4.26142
20
-2.1126
40
0.0200787
0
CIRCLE
8
BLACK
10
4.26142
20
-2.26299
40
0.0200787
0
CIRCLE
8
BLACK
10
4.31142
20
-2.0374
40
0.0200787
0
CIRCLE
8
BLACK
10
4.31142
20
-2.1878
40
0.0200787
0
CIRCLE
8
BLACK
10
4.36142
20
-2.1126
40
0.0200787
0
CIRCLE
8
BLACK
10
4.36142
20
-2.26299
40
0.0200787
0
CIRCLE
8
BLACK
10
4.41142
20
-2.0374
40
0.0200787
0
CIRCLE
8
BLACK
10
4.41142
20
-2.1878
40
0.0200787
0
CIRCLE
8
BLACK
10
4.46142
20
-2.1126
40
0.0200787
0
CIRCLE
8
BLACK
10
4.46142
20
-2.26299
40
0.0200787
0
CIRCLE
8
BLACK
10
4.51142
20
-2.0374
40
0.0200787
0
CIRCLE
8
BLACK
10
4.51142
20
-2.1878
40
0.0200787
0
CIRCLE
8
BLACK
10
4.56142
20
-2.1126
40
0.0200787
0
CIRCLE
8
BLACK
10
4.56142
20
-2.26299
40
0.0200787
0
CIRCLE
8
BLACK
10
4.61142
20
-2.0374
40
0.0200787
0
CIRCLE
8
BLACK
10
4.61142
20
-2.1878
40
0.0200787
0
CIRCLE
8
BLACK
10
4.66142
20
-2.1126
40
0.0200787
0
CIRCLE
8
BLACK
10
4.66142
20
-2.26299
40
0.0200787
0
CIRCLE
8
BLACK
10
4.71142
20
-2.0374
40
0.0200787
0
CIRCLE
8
BLACK
10
4.71142
20
-2.1878
40
0.0200787
0
CIRCLE
8
BLACK
10
4.76142
20
-2.1126
40
0.0200787
0
CIRCLE
8
BLACK
10
4.76142
20
-2.26299
40
0.0200787
0
CIRCLE
8
BLACK
10
4.81142
20
-2.0374
40
0.0200787
0
CIRCLE
8
BLACK
10
4.81142
20
-2.1878
40
0.0200787
0
CIRCLE
8
BLACK
10
4.86142
20
-2.1126
40
0.0200787
0
CIRCLE
8
BLACK
10
4.86142
20
-2.26299
40
0.0200787
0
CIRCLE
8
BLACK
10
4.91142
20
-2.0374
40
0.0200787
0
CIRCLE
8
BLACK
10
4.91142
20
-2.1878
40
0.0200787
0
CIRCLE
8
BLACK
10
4.96142
20
-2.1126
40
0.0200787
0
CIRCLE
8
BLACK
10
4.96142
20
-2.26299
40
0.0200787
0
CIRCLE
8
BLACK
10
5.01142
20
-2.0374
40
0.0200787
0
CIRCLE
8
BLACK
10
5.01142
20
-2.1878
40
0.0200787
0
CIRCLE
8
BLACK
10
5.06142
20
-2.1126
40
0.0200787
0
CIRCLE
8
BLACK
10
5.06142
20
-2.26299
40
0.0200787
0
CIRCLE
8
BLACK
10
5.11142
20
-2.0374
40
0.0200787
0
CIRCLE
8
BLACK
10
5.11142
20
-2.1878
40
0.0200787
0
CIRCLE
8
BLACK
10
5.16142
20
-2.1126
40
0.0200787
0
CIRCLE
8
BLACK
10
5.16142
20
-2.26299
40
0.0200787
0
CIRCLE
8
BLACK
10
5.21142
20
-2.0374
40
0.0200787
0
CIRCLE
8
BLACK
10
5.21142
20
-2.1878
40
0.0200787
0
LINE
8
BLACK
6
CONTINUOUS
10
3.56506
20
-3.00727
11
3.56506
21
-2.92853
0
LINE
8
BLACK
6
CONTINUOUS
10
3.56506
20
-2.92853
11
3.58381
21
-2.92853
0
LINE
8
BLACK
6
CONTINUOUS
10
3.58381
20
-2.92853
11
3.59506
21
-2.93228
0
LINE
8
BLACK
6
CONTINUOUS
10
3.59506
20
-2.93228
11
3.60256
21
-2.93978
0
LINE
8
BLACK
6
CONTINUOUS
10
3.60256
20
-2.93978
11
3.60631
21
-2.94728
0
LINE
8
BLACK
6
CONTINUOUS
10
3.60631
20
-2.94728
11
3.61005
21
-2.96228
0
LINE
8
BLACK
6
CONTINUOUS
10
3.61005
20
-2.96228
11
3.61005
21
-2.97353
0
LINE
8
BLACK
6
CONTINUOUS
10
3.61005
20
-2.97353
11
3.60631
21
-2.98853
0
LINE
8
BLACK
6
CONTINUOUS
10
3.60631
20
-2.98853
11
3.60256
21
-2.99603
0
LINE
8
BLACK
6
CONTINUOUS
10
3.60256
20
-2.99603
11
3.59506
21
-3.00352
0
LINE
8
BLACK
6
CONTINUOUS
10
3.59506
20
-3.00352
11
3.58381
21
-3.00727
0
LINE
8
BLACK
6
CONTINUOUS
10
3.58381
20
-3.00727
11
3.56506
21
-3.00727
0
LINE
8
BLACK
6
CONTINUOUS
10
3.6438
20
-3.00727
11
3.6438
21
-2.95478
0
LINE
8
BLACK
6
CONTINUOUS
10
3.6438
20
-2.96978
11
3.64755
21
-2.96228
0
LINE
8
BLACK
6
CONTINUOUS
10
3.64755
20
-2.96228
11
3.6513
21
-2.95853
0
LINE
8
BLACK
6
CONTINUOUS
10
3.6513
20
-2.95853
11
3.6588
21
-2.95478
0
LINE
8
BLACK
6
CONTINUOUS
10
3.6588
20
-2.95478
11
3.6663
21
-2.95478
0
LINE
8
BLACK
6
CONTINUOUS
10
3.69254
20
-3.00727
11
3.69254
21
-2.95478
0
LINE
8
BLACK
6
CONTINUOUS
10
3.69254
20
-2.92853
11
3.68879
21
-2.93228
0
LINE
8
BLACK
6
CONTINUOUS
10
3.68879
20
-2.93228
11
3.69254
21
-2.93603
0
LINE
8
BLACK
6
CONTINUOUS
10
3.69254
20
-2.93603
11
3.69629
21
-2.93228
0
LINE
8
BLACK
6
CONTINUOUS
10
3.69629
20
-2.93228
11
3.69254
21
-2.92853
0
LINE
8
BLACK
6
CONTINUOUS
10
3.69254
20
-2.92853
11
3.69254
21
-2.93603
0
LINE
8
BLACK
6
CONTINUOUS
10
3.74129
20
-3.00727
11
3.73379
21
-3.00352
0
LINE
8
BLACK
6
CONTINUOUS
10
3.73379
20
-3.00352
11
3.73004
21
-2.99603
0
LINE
8
BLACK
6
CONTINUOUS
10
3.73004
20
-2.99603
11
3.73004
21
-2.92853
0
LINE
8
BLACK
6
CONTINUOUS
10
3.78253
20
-3.00727
11
3.77503
21
-3.00352
0
LINE
8
BLACK
6
CONTINUOUS
10
3.77503
20
-3.00352
11
3.77128
21
-2.99603
0
LINE
8
BLACK
6
CONTINUOUS
10
3.77128
20
-2.99603
11
3.77128
21
-2.92853
0
LINE
8
BLACK
6
CONTINUOUS
10
3.85977
20
-3.00727
11
3.85977
21
-2.92853
0
LINE
8
BLACK
6
CONTINUOUS
10
3.85977
20
-2.92853
11
3.88602
21
-2.98478
0
LINE
8
BLACK
6
CONTINUOUS
10
3.88602
20
-2.98478
11
3.91227
21
-2.92853
0
LINE
8
BLACK
6
CONTINUOUS
10
3.91227
20
-2.92853
11
3.91227
21
-3.00727
0
LINE
8
BLACK
6
CONTINUOUS
10
3.98351
20
-3.00727
11
3.98351
21
-2.96603
0
LINE
8
BLACK
6
CONTINUOUS
10
3.98351
20
-2.96603
11
3.97976
21
-2.95853
0
LINE
8
BLACK
6
CONTINUOUS
10
3.97976
20
-2.95853
11
3.97226
21
-2.95478
0
LINE
8
BLACK
6
CONTINUOUS
10
3.97226
20
-2.95478
11
3.95726
21
-2.95478
0
LINE
8
BLACK
6
CONTINUOUS
10
3.95726
20
-2.95478
11
3.94976
21
-2.95853
0
LINE
8
BLACK
6
CONTINUOUS
10
3.98351
20
-3.00352
11
3.97601
21
-3.00727
0
LINE
8
BLACK
6
CONTINUOUS
10
3.97601
20
-3.00727
11
3.95726
21
-3.00727
0
LINE
8
BLACK
6
CONTINUOUS
10
3.95726
20
-3.00727
11
3.94976
21
-3.00352
0
LINE
8
BLACK
6
CONTINUOUS
10
3.94976
20
-3.00352
11
3.94601
21
-2.99603
0
LINE
8
BLACK
6
CONTINUOUS
10
3.94601
20
-2.99603
11
3.94601
21
-2.98853
0
LINE
8
BLACK
6
CONTINUOUS
10
3.94601
20
-2.98853
11
3.94976
21
-2.98103
0
LINE
8
BLACK
6
CONTINUOUS
10
3.94976
20
-2.98103
11
3.95726
21
-2.97728
0
LINE
8
BLACK
6
CONTINUOUS
10
3.95726
20
-2.97728
11
3.97601
21
-2.97728
0
LINE
8
BLACK
6
CONTINUOUS
10
3.97601
20
-2.97728
11
3.98351
21
-2.97353
0
LINE
8
BLACK
6
CONTINUOUS
10
4.021
20
-2.95478
11
4.021
21
-3.03352
0
LINE
8
BLACK
6
CONTINUOUS
10
4.021
20
-2.95853
11
4.0285
21
-2.95478
0
LINE
8
BLACK
6
CONTINUOUS
10
4.0285
20
-2.95478
11
4.0435
21
-2.95478
0
LINE
8
BLACK
6
CONTINUOUS
10
4.0435
20
-2.95478
11
4.051
21
-2.95853
0
LINE
8
BLACK
6
CONTINUOUS
10
4.051
20
-2.95853
11
4.05475
21
-2.96228
0
LINE
8
BLACK
6
CONTINUOUS
10
4.05475
20
-2.96228
11
4.0585
21
-2.96978
0
LINE
8
BLACK
6
CONTINUOUS
10
4.0585
20
-2.96978
11
4.0585
21
-2.99228
0
LINE
8
BLACK
6
CONTINUOUS
10
4.0585
20
-2.99228
11
4.05475
21
-2.99978
0
LINE
8
BLACK
6
CONTINUOUS
10
4.05475
20
-2.99978
11
4.051
21
-3.00352
0
LINE
8
BLACK
6
CONTINUOUS
10
4.051
20
-3.00352
11
4.0435
21
-3.00727
0
LINE
8
BLACK
6
CONTINUOUS
10
4.0435
20
-3.00727
11
4.0285
21
-3.00727
0
LINE
8
BLACK
6
CONTINUOUS
10
4.0285
20
-3.00727
11
4.021
21
-3.00352
0
LINE
8
BLACK
6
CONTINUOUS
10
4.09224
20
-2.99978
11
4.09599
21
-3.00352
0
LINE
8
BLACK
6
CONTINUOUS
10
4.09599
20
-3.00352
11
4.09224
21
-3.00727
0
LINE
8
BLACK
6
CONTINUOUS
10
4.09224
20
-3.00727
11
4.0885
21
-3.00352
0
LINE
8
BLACK
6
CONTINUOUS
10
4.0885
20
-3.00352
11
4.09224
21
-2.99978
0
LINE
8
BLACK
6
CONTINUOUS
10
4.09224
20
-2.99978
11
4.09224
21
-3.00727
0
LINE
8
BLACK
6
CONTINUOUS
10
4.09224
20
-2.95853
11
4.09599
21
-2.96228
0
LINE
8
BLACK
6
CONTINUOUS
10
4.09599
20
-2.96228
11
4.09224
21
-2.96603
0
LINE
8
BLACK
6
CONTINUOUS
10
4.09224
20
-2.96603
11
4.0885
21
-2.96228
0
LINE
8
BLACK
6
CONTINUOUS
10
4.0885
20
-2.96228
11
4.09224
21
-2.95853
0
LINE
8
BLACK
6
CONTINUOUS
10
4.09224
20
-2.95853
11
4.09224
21
-2.96603
0
LINE
8
BLACK
6
CONTINUOUS
10
3.45182
20
-3.13583
11
3.46757
21
-3.15157
0
LINE
8
BLACK
6
CONTINUOUS
10
3.46757
20
-3.13583
11
3.45182
21
-3.15157
0
LINE
8
BLACK
6
CONTINUOUS
10
3.58006
20
-3.09389
11
3.58756
21
-3.09389
0
LINE
8
BLACK
6
CONTINUOUS
10
3.58756
20
-3.09389
11
3.59506
21
-3.09764
0
LINE
8
BLACK
6
CONTINUOUS
10
3.59506
20
-3.09764
11
3.59881
21
-3.10139
0
LINE
8
BLACK
6
CONTINUOUS
10
3.59881
20
-3.10139
11
3.60256
21
-3.10889
0
LINE
8
BLACK
6
CONTINUOUS
10
3.60256
20
-3.10889
11
3.60631
21
-3.12388
0
LINE
8
BLACK
6
CONTINUOUS
10
3.60631
20
-3.12388
11
3.60631
21
-3.14263
0
LINE
8
BLACK
6
CONTINUOUS
10
3.60631
20
-3.14263
11
3.60256
21
-3.15763
0
LINE
8
BLACK
6
CONTINUOUS
10
3.60256
20
-3.15763
11
3.59881
21
-3.16513
0
LINE
8
BLACK
6
CONTINUOUS
10
3.59881
20
-3.16513
11
3.59506
21
-3.16888
0
LINE
8
BLACK
6
CONTINUOUS
10
3.59506
20
-3.16888
11
3.58756
21
-3.17263
0
LINE
8
BLACK
6
CONTINUOUS
10
3.58756
20
-3.17263
11
3.58006
21
-3.17263
0
LINE
8
BLACK
6
CONTINUOUS
10
3.58006
20
-3.17263
11
3.57256
21
-3.16888
0
LINE
8
BLACK
6
CONTINUOUS
10
3.57256
20
-3.16888
11
3.56881
21
-3.16513
0
LINE
8
BLACK
6
CONTINUOUS
10
3.56881
20
-3.16513
11
3.56506
21
-3.15763
0
LINE
8
BLACK
6
CONTINUOUS
10
3.56506
20
-3.15763
11
3.56131
21
-3.14263
0
LINE
8
BLACK
6
CONTINUOUS
10
3.56131
20
-3.14263
11
3.56131
21
-3.12388
0
LINE
8
BLACK
6
CONTINUOUS
10
3.56131
20
-3.12388
11
3.56506
21
-3.10889
0
LINE
8
BLACK
6
CONTINUOUS
10
3.56506
20
-3.10889
11
3.56881
21
-3.10139
0
LINE
8
BLACK
6
CONTINUOUS
10
3.56881
20
-3.10139
11
3.57256
21
-3.09764
0
LINE
8
BLACK
6
CONTINUOUS
10
3.57256
20
-3.09764
11
3.58006
21
-3.09389
0
LINE
8
BLACK
6
CONTINUOUS
10
3.64005
20
-3.16513
11
3.6438
21
-3.16888
0
LINE
8
BLACK
6
CONTINUOUS
10
3.6438
20
-3.16888
11
3.64005
21
-3.17263
0
LINE
8
BLACK
6
CONTINUOUS
10
3.64005
20
-3.17263
11
3.6363
21
-3.16888
0
LINE
8
BLACK
6
CONTINUOUS
10
3.6363
20
-3.16888
11
3.64005
21
-3.16513
0
LINE
8
BLACK
6
CONTINUOUS
10
3.64005
20
-3.16513
11
3.64005
21
-3.17263
0
LINE
8
BLACK
6
CONTINUOUS
10
3.71129
20
-3.12013
11
3.71129
21
-3.17263
0
LINE
8
BLACK
6
CONTINUOUS
10
3.69254
20
-3.09014
11
3.6738
21
-3.14638
0
LINE
8
BLACK
6
CONTINUOUS
10
3.6738
20
-3.14638
11
3.72254
21
-3.14638
0
LINE
8
BLACK
6
CONTINUOUS
10
3.76754
20
-3.09389
11
3.77503
21
-3.09389
0
LINE
8
BLACK
6
CONTINUOUS
10
3.77503
20
-3.09389
11
3.78253
21
-3.09764
0
LINE
8
BLACK
6
CONTINUOUS
10
3.78253
20
-3.09764
11
3.78628
21
-3.10139
0
LINE
8
BLACK
6
CONTINUOUS
10
3.78628
20
-3.10139
11
3.79003
21
-3.10889
0
LINE
8
BLACK
6
CONTINUOUS
10
3.79003
20
-3.10889
11
3.79378
21
-3.12388
0
LINE
8
BLACK
6
CONTINUOUS
10
3.79378
20
-3.12388
11
3.79378
21
-3.14263
0
LINE
8
BLACK
6
CONTINUOUS
10
3.79378
20
-3.14263
11
3.79003
21
-3.15763
0
LINE
8
BLACK
6
CONTINUOUS
10
3.79003
20
-3.15763
11
3.78628
21
-3.16513
0
LINE
8
BLACK
6
CONTINUOUS
10
3.78628
20
-3.16513
11
3.78253
21
-3.16888
0
LINE
8
BLACK
6
CONTINUOUS
10
3.78253
20
-3.16888
11
3.77503
21
-3.17263
0
LINE
8
BLACK
6
CONTINUOUS
10
3.77503
20
-3.17263
11
3.76754
21
-3.17263
0
LINE
8
BLACK
6
CONTINUOUS
10
3.76754
20
-3.17263
11
3.76004
21
-3.16888
0
LINE
8
BLACK
6
CONTINUOUS
10
3.76004
20
-3.16888
11
3.75629
21
-3.16513
0
LINE
8
BLACK
6
CONTINUOUS
10
3.75629
20
-3.16513
11
3.75254
21
-3.15763
0
LINE
8
BLACK
6
CONTINUOUS
10
3.75254
20
-3.15763
11
3.74879
21
-3.14263
0
LINE
8
BLACK
6
CONTINUOUS
10
3.74879
20
-3.14263
11
3.74879
21
-3.12388
0
LINE
8
BLACK
6
CONTINUOUS
10
3.74879
20
-3.12388
11
3.75254
21
-3.10889
0
LINE
8
BLACK
6
CONTINUOUS
10
3.75254
20
-3.10889
11
3.75629
21
-3.10139
0
LINE
8
BLACK
6
CONTINUOUS
10
3.75629
20
-3.10139
11
3.76004
21
-3.09764
0
LINE
8
BLACK
6
CONTINUOUS
10
3.76004
20
-3.09764
11
3.76754
21
-3.09389
0
LINE
8
BLACK
6
CONTINUOUS
10
3.84253
20
-3.09389
11
3.85002
21
-3.09389
0
LINE
8
BLACK
6
CONTINUOUS
10
3.85002
20
-3.09389
11
3.85752
21
-3.09764
0
LINE
8
BLACK
6
CONTINUOUS
10
3.85752
20
-3.09764
11
3.86127
21
-3.10139
0
LINE
8
BLACK
6
CONTINUOUS
10
3.86127
20
-3.10139
11
3.86502
21
-3.10889
0
LINE
8
BLACK
6
CONTINUOUS
10
3.86502
20
-3.10889
11
3.86877
21
-3.12388
0
LINE
8
BLACK
6
CONTINUOUS
10
3.86877
20
-3.12388
11
3.86877
21
-3.14263
0
LINE
8
BLACK
6
CONTINUOUS
10
3.86877
20
-3.14263
11
3.86502
21
-3.15763
0
LINE
8
BLACK
6
CONTINUOUS
10
3.86502
20
-3.15763
11
3.86127
21
-3.16513
0
LINE
8
BLACK
6
CONTINUOUS
10
3.86127
20
-3.16513
11
3.85752
21
-3.16888
0
LINE
8
BLACK
6
CONTINUOUS
10
3.85752
20
-3.16888
11
3.85002
21
-3.17263
0
LINE
8
BLACK
6
CONTINUOUS
10
3.85002
20
-3.17263
11
3.84253
21
-3.17263
0
LINE
8
BLACK
6
CONTINUOUS
10
3.84253
20
-3.17263
11
3.83503
21
-3.16888
0
LINE
8
BLACK
6
CONTINUOUS
10
3.83503
20
-3.16888
11
3.83128
21
-3.16513
0
LINE
8
BLACK
6
CONTINUOUS
10
3.83128
20
-3.16513
11
3.82753
21
-3.15763
0
LINE
8
BLACK
6
CONTINUOUS
10
3.82753
20
-3.15763
11
3.82378
21
-3.14263
0
LINE
8
BLACK
6
CONTINUOUS
10
3.82378
20
-3.14263
11
3.82378
21
-3.12388
0
LINE
8
BLACK
6
CONTINUOUS
10
3.82378
20
-3.12388
11
3.82753
21
-3.10889
0
LINE
8
BLACK
6
CONTINUOUS
10
3.82753
20
-3.10889
11
3.83128
21
-3.10139
0
LINE
8
BLACK
6
CONTINUOUS
10
3.83128
20
-3.10139
11
3.83503
21
-3.09764
0
LINE
8
BLACK
6
CONTINUOUS
10
3.83503
20
-3.09764
11
3.84253
21
-3.09389
0
LINE
8
BLACK
6
CONTINUOUS
10
3.90252
20
-3.17263
11
3.90252
21
-3.12013
0
LINE
8
BLACK
6
CONTINUOUS
10
3.90252
20
-3.12763
11
3.90627
21
-3.12388
0
LINE
8
BLACK
6
CONTINUOUS
10
3.90627
20
-3.12388
11
3.91377
21
-3.12013
0
LINE
8
BLACK
6
CONTINUOUS
10
3.91377
20
-3.12013
11
3.92502
21
-3.12013
0
LINE
8
BLACK
6
CONTINUOUS
10
3.92502
20
-3.12013
11
3.93251
21
-3.12388
0
LINE
8
BLACK
6
CONTINUOUS
10
3.93251
20
-3.12388
11
3.93626
21
-3.13138
0
LINE
8
BLACK
6
CONTINUOUS
10
3.93626
20
-3.13138
11
3.93626
21
-3.17263
0
LINE
8
BLACK
6
CONTINUOUS
10
3.93626
20
-3.13138
11
3.94001
21
-3.12388
0
LINE
8
BLACK
6
CONTINUOUS
10
3.94001
20
-3.12388
11
3.94751
21
-3.12013
0
LINE
8
BLACK
6
CONTINUOUS
10
3.94751
20
-3.12013
11
3.95876
21
-3.12013
0
LINE
8
BLACK
6
CONTINUOUS
10
3.95876
20
-3.12013
11
3.96626
21
-3.12388
0
LINE
8
BLACK
6
CONTINUOUS
10
3.96626
20
-3.12388
11
3.97001
21
-3.13138
0
LINE
8
BLACK
6
CONTINUOUS
10
3.97001
20
-3.13138
11
3.97001
21
-3.17263
0
LINE
8
BLACK
6
CONTINUOUS
10
4.00751
20
-3.17263
11
4.00751
21
-3.12013
0
LINE
8
BLACK
6
CONTINUOUS
10
4.00751
20
-3.12763
11
4.01125
21
-3.12388
0
LINE
8
BLACK
6
CONTINUOUS
10
4.01125
20
-3.12388
11
4.01875
21
-3.12013
0
LINE
8
BLACK
6
CONTINUOUS
10
4.01875
20
-3.12013
11
4.03
21
-3.12013
0
LINE
8
BLACK
6
CONTINUOUS
10
4.03
20
-3.12013
11
4.0375
21
-3.12388
0
LINE
8
BLACK
6
CONTINUOUS
10
4.0375
20
-3.12388
11
4.04125
21
-3.13138
0
LINE
8
BLACK
6
CONTINUOUS
10
4.04125
20
-3.13138
11
4.04125
21
-3.17263
0
LINE
8
BLACK
6
CONTINUOUS
10
4.04125
20
-3.13138
11
4.045
21
-3.12388
0
LINE
8
BLACK
6
CONTINUOUS
10
4.045
20
-3.12388
11
4.0525
21
-3.12013
0
LINE
8
BLACK
6
CONTINUOUS
10
4.0525
20
-3.12013
11
4.06375
21
-3.12013
0
LINE
8
BLACK
6
CONTINUOUS
10
4.06375
20
-3.12013
11
4.07125
21
-3.12388
0
LINE
8
BLACK
6
CONTINUOUS
10
4.07125
20
-3.12388
11
4.075
21
-3.13138
0
LINE
8
BLACK
6
CONTINUOUS
10
4.075
20
-3.13138
11
4.075
21
-3.17263
0
LINE
8
BLACK
6
CONTINUOUS
10
4.21598
20
-3.09014
11
4.14849
21
-3.19138
0
LINE
8
BLACK
6
CONTINUOUS
10
4.30447
20
-3.09389
11
4.31197
21
-3.09389
0
LINE
8
BLACK
6
CONTINUOUS
10
4.31197
20
-3.09389
11
4.31947
21
-3.09764
0
LINE
8
BLACK
6
CONTINUOUS
10
4.31947
20
-3.09764
11
4.32322
21
-3.10139
0
LINE
8
BLACK
6
CONTINUOUS
10
4.32322
20
-3.10139
11
4.32697
21
-3.10889
0
LINE
8
BLACK
6
CONTINUOUS
10
4.32697
20
-3.10889
11
4.33071
21
-3.12388
0
LINE
8
BLACK
6
CONTINUOUS
10
4.33071
20
-3.12388
11
4.33071
21
-3.14263
0
LINE
8
BLACK
6
CONTINUOUS
10
4.33071
20
-3.14263
11
4.32697
21
-3.15763
0
LINE
8
BLACK
6
CONTINUOUS
10
4.32697
20
-3.15763
11
4.32322
21
-3.16513
0
LINE
8
BLACK
6
CONTINUOUS
10
4.32322
20
-3.16513
11
4.31947
21
-3.16888
0
LINE
8
BLACK
6
CONTINUOUS
10
4.31947
20
-3.16888
11
4.31197
21
-3.17263
0
LINE
8
BLACK
6
CONTINUOUS
10
4.31197
20
-3.17263
11
4.30447
21
-3.17263
0
LINE
8
BLACK
6
CONTINUOUS
10
4.30447
20
-3.17263
11
4.29697
21
-3.16888
0
LINE
8
BLACK
6
CONTINUOUS
10
4.29697
20
-3.16888
11
4.29322
21
-3.16513
0
LINE
8
BLACK
6
CONTINUOUS
10
4.29322
20
-3.16513
11
4.28947
21
-3.15763
0
LINE
8
BLACK
6
CONTINUOUS
10
4.28947
20
-3.15763
11
4.28572
21
-3.14263
0
LINE
8
BLACK
6
CONTINUOUS
10
4.28572
20
-3.14263
11
4.28572
21
-3.12388
0
LINE
8
BLACK
6
CONTINUOUS
10
4.28572
20
-3.12388
11
4.28947
21
-3.10889
0
LINE
8
BLACK
6
CONTINUOUS
10
4.28947
20
-3.10889
11
4.29322
21
-3.10139
0
LINE
8
BLACK
6
CONTINUOUS
10
4.29322
20
-3.10139
11
4.29697
21
-3.09764
0
LINE
8
BLACK
6
CONTINUOUS
10
4.29697
20
-3.09764
11
4.30447
21
-3.09389
0
LINE
8
BLACK
6
CONTINUOUS
10
4.36446
20
-3.16513
11
4.36821
21
-3.16888
0
LINE
8
BLACK
6
CONTINUOUS
10
4.36821
20
-3.16888
11
4.36446
21
-3.17263
0
LINE
8
BLACK
6
CONTINUOUS
10
4.36446
20
-3.17263
11
4.36071
21
-3.16888
0
LINE
8
BLACK
6
CONTINUOUS
10
4.36071
20
-3.16888
11
4.36446
21
-3.16513
0
LINE
8
BLACK
6
CONTINUOUS
10
4.36446
20
-3.16513
11
4.36446
21
-3.17263
0
LINE
8
BLACK
6
CONTINUOUS
10
4.41695
20
-3.09389
11
4.42445
21
-3.09389
0
LINE
8
BLACK
6
CONTINUOUS
10
4.42445
20
-3.09389
11
4.43195
21
-3.09764
0
LINE
8
BLACK
6
CONTINUOUS
10
4.43195
20
-3.09764
11
4.4357
21
-3.10139
0
LINE
8
BLACK
6
CONTINUOUS
10
4.4357
20
-3.10139
11
4.43945
21
-3.10889
0
LINE
8
BLACK
6
CONTINUOUS
10
4.43945
20
-3.10889
11
4.4432
21
-3.12388
0
LINE
8
BLACK
6
CONTINUOUS
10
4.4432
20
-3.12388
11
4.4432
21
-3.14263
0
LINE
8
BLACK
6
CONTINUOUS
10
4.4432
20
-3.14263
11
4.43945
21
-3.15763
0
LINE
8
BLACK
6
CONTINUOUS
10
4.43945
20
-3.15763
11
4.4357
21
-3.16513
0
LINE
8
BLACK
6
CONTINUOUS
10
4.4357
20
-3.16513
11
4.43195
21
-3.16888
0
LINE
8
BLACK
6
CONTINUOUS
10
4.43195
20
-3.16888
11
4.42445
21
-3.17263
0
LINE
8
BLACK
6
CONTINUOUS
10
4.42445
20
-3.17263
11
4.41695
21
-3.17263
0
LINE
8
BLACK
6
CONTINUOUS
10
4.41695
20
-3.17263
11
4.40945
21
-3.16888
0
LINE
8
BLACK
6
CONTINUOUS
10
4.40945
20
-3.16888
11
4.40571
21
-3.16513
0
LINE
8
BLACK
6
CONTINUOUS
10
4.40571
20
-3.16513
11
4.40196
21
-3.15763
0
LINE
8
BLACK
6
CONTINUOUS
10
4.40196
20
-3.15763
11
4.39821
21
-3.14263
0
LINE
8
BLACK
6
CONTINUOUS
10
4.39821
20
-3.14263
11
4.39821
21
-3.12388
0
LINE
8
BLACK
6
CONTINUOUS
10
4.39821
20
-3.12388
11
4.40196
21
-3.10889
0
LINE
8
BLACK
6
CONTINUOUS
10
4.40196
20
-3.10889
11
4.40571
21
-3.10139
0
LINE
8
BLACK
6
CONTINUOUS
10
4.40571
20
-3.10139
11
4.40945
21
-3.09764
0
LINE
8
BLACK
6
CONTINUOUS
10
4.40945
20
-3.09764
11
4.41695
21
-3.09389
0
LINE
8
BLACK
6
CONTINUOUS
10
4.51819
20
-3.17263
11
4.4732
21
-3.17263
0
LINE
8
BLACK
6
CONTINUOUS
10
4.49569
20
-3.17263
11
4.49569
21
-3.09389
0
LINE
8
BLACK
6
CONTINUOUS
10
4.49569
20
-3.09389
11
4.4882
21
-3.10514
0
LINE
8
BLACK
6
CONTINUOUS
10
4.4882
20
-3.10514
11
4.4807
21
-3.11264
0
LINE
8
BLACK
6
CONTINUOUS
10
4.4807
20
-3.11264
11
4.4732
21
-3.11639
0
LINE
8
BLACK
6
CONTINUOUS
10
4.58943
20
-3.09389
11
4.55194
21
-3.09389
0
LINE
8
BLACK
6
CONTINUOUS
10
4.55194
20
-3.09389
11
4.54819
21
-3.13138
0
LINE
8
BLACK
6
CONTINUOUS
10
4.54819
20
-3.13138
11
4.55194
21
-3.12763
0
LINE
8
BLACK
6
CONTINUOUS
10
4.55194
20
-3.12763
11
4.55944
21
-3.12388
0
LINE
8
BLACK
6
CONTINUOUS
10
4.55944
20
-3.12388
11
4.57818
21
-3.12388
0
LINE
8
BLACK
6
CONTINUOUS
10
4.57818
20
-3.12388
11
4.58568
21
-3.12763
0
LINE
8
BLACK
6
CONTINUOUS
10
4.58568
20
-3.12763
11
4.58943
21
-3.13138
0
LINE
8
BLACK
6
CONTINUOUS
10
4.58943
20
-3.13138
11
4.59318
21
-3.13888
0
LINE
8
BLACK
6
CONTINUOUS
10
4.59318
20
-3.13888
11
4.59318
21
-3.15763
0
LINE
8
BLACK
6
CONTINUOUS
10
4.59318
20
-3.15763
11
4.58943
21
-3.16513
0
LINE
8
BLACK
6
CONTINUOUS
10
4.58943
20
-3.16513
11
4.58568
21
-3.16888
0
LINE
8
BLACK
6
CONTINUOUS
10
4.58568
20
-3.16888
11
4.57818
21
-3.17263
0
LINE
8
BLACK
6
CONTINUOUS
10
4.57818
20
-3.17263
11
4.55944
21
-3.17263
0
LINE
8
BLACK
6
CONTINUOUS
10
4.55944
20
-3.17263
11
4.55194
21
-3.16888
0
LINE
8
BLACK
6
CONTINUOUS
10
4.55194
20
-3.16888
11
4.54819
21
-3.16513
0
LINE
8
BLACK
6
CONTINUOUS
10
4.61943
20
-3.09389
11
4.67192
21
-3.09389
0
LINE
8
BLACK
6
CONTINUOUS
10
4.67192
20
-3.09389
11
4.63818
21
-3.17263
0
LINE
8
BLACK
6
CONTINUOUS
10
4.69817
20
-3.09389
11
4.69817
21
-3.10889
0
LINE
8
BLACK
6
CONTINUOUS
10
4.72817
20
-3.09389
11
4.72817
21
-3.10889
0
LINE
8
BLACK
6
CONTINUOUS
10
4.83165
20
-3.20262
11
4.8279
21
-3.19888
0
LINE
8
BLACK
6
CONTINUOUS
10
4.8279
20
-3.19888
11
4.8204
21
-3.18763
0
LINE
8
BLACK
6
CONTINUOUS
10
4.8204
20
-3.18763
11
4.81665
21
-3.18013
0
LINE
8
BLACK
6
CONTINUOUS
10
4.81665
20
-3.18013
11
4.8129
21
-3.16888
0
LINE
8
BLACK
6
CONTINUOUS
10
4.8129
20
-3.16888
11
4.80916
21
-3.15013
0
LINE
8
BLACK
6
CONTINUOUS
10
4.80916
20
-3.15013
11
4.80916
21
-3.13513
0
LINE
8
BLACK
6
CONTINUOUS
10
4.80916
20
-3.13513
11
4.8129
21
-3.11639
0
LINE
8
BLACK
6
CONTINUOUS
10
4.8129
20
-3.11639
11
4.81665
21
-3.10514
0
LINE
8
BLACK
6
CONTINUOUS
10
4.81665
20
-3.10514
11
4.8204
21
-3.09764
0
LINE
8
BLACK
6
CONTINUOUS
10
4.8204
20
-3.09764
11
4.8279
21
-3.08639
0
LINE
8
BLACK
6
CONTINUOUS
10
4.8279
20
-3.08639
11
4.83165
21
-3.08264
0
LINE
8
BLACK
6
CONTINUOUS
10
4.89539
20
-3.12013
11
4.89539
21
-3.17263
0
LINE
8
BLACK
6
CONTINUOUS
10
4.87665
20
-3.09014
11
4.8579
21
-3.14638
0
LINE
8
BLACK
6
CONTINUOUS
10
4.8579
20
-3.14638
11
4.90664
21
-3.14638
0
LINE
8
BLACK
6
CONTINUOUS
10
4.97413
20
-3.09389
11
4.93664
21
-3.09389
0
LINE
8
BLACK
6
CONTINUOUS
10
4.93664
20
-3.09389
11
4.93289
21
-3.13138
0
LINE
8
BLACK
6
CONTINUOUS
10
4.93289
20
-3.13138
11
4.93664
21
-3.12763
0
LINE
8
BLACK
6
CONTINUOUS
10
4.93664
20
-3.12763
11
4.94414
21
-3.12388
0
LINE
8
BLACK
6
CONTINUOUS
10
4.94414
20
-3.12388
11
4.96289
21
-3.12388
0
LINE
8
BLACK
6
CONTINUOUS
10
4.96289
20
-3.12388
11
4.97038
21
-3.12763
0
LINE
8
BLACK
6
CONTINUOUS
10
4.97038
20
-3.12763
11
4.97413
21
-3.13138
0
LINE
8
BLACK
6
CONTINUOUS
10
4.97413
20
-3.13138
11
4.97788
21
-3.13888
0
LINE
8
BLACK
6
CONTINUOUS
10
4.97788
20
-3.13888
11
4.97788
21
-3.15763
0
LINE
8
BLACK
6
CONTINUOUS
10
4.97788
20
-3.15763
11
4.97413
21
-3.16513
0
LINE
8
BLACK
6
CONTINUOUS
10
4.97413
20
-3.16513
11
4.97038
21
-3.16888
0
LINE
8
BLACK
6
CONTINUOUS
10
4.97038
20
-3.16888
11
4.96289
21
-3.17263
0
LINE
8
BLACK
6
CONTINUOUS
10
4.96289
20
-3.17263
11
4.94414
21
-3.17263
0
LINE
8
BLACK
6
CONTINUOUS
10
4.94414
20
-3.17263
11
4.93664
21
-3.16888
0
LINE
8
BLACK
6
CONTINUOUS
10
4.93664
20
-3.16888
11
4.93289
21
-3.16513
0
LINE
8
BLACK
6
CONTINUOUS
10
5.05887
20
-3.17263
11
5.05887
21
-3.09389
0
LINE
8
BLACK
6
CONTINUOUS
10
5.09262
20
-3.17263
11
5.09262
21
-3.13138
0
LINE
8
BLACK
6
CONTINUOUS
10
5.09262
20
-3.13138
11
5.08887
21
-3.12388
0
LINE
8
BLACK
6
CONTINUOUS
10
5.08887
20
-3.12388
11
5.08137
21
-3.12013
0
LINE
8
BLACK
6
CONTINUOUS
10
5.08137
20
-3.12013
11
5.07012
21
-3.12013
0
LINE
8
BLACK
6
CONTINUOUS
10
5.07012
20
-3.12013
11
5.06262
21
-3.12388
0
LINE
8
BLACK
6
CONTINUOUS
10
5.06262
20
-3.12388
11
5.05887
21
-3.12763
0
LINE
8
BLACK
6
CONTINUOUS
10
5.14136
20
-3.17263
11
5.13386
21
-3.16888
0
LINE
8
BLACK
6
CONTINUOUS
10
5.13386
20
-3.16888
11
5.13011
21
-3.16513
0
LINE
8
BLACK
6
CONTINUOUS
10
5.13011
20
-3.16513
11
5.12637
21
-3.15763
0
LINE
8
BLACK
6
CONTINUOUS
10
5.12637
20
-3.15763
11
5.12637
21
-3.13513
0
LINE
8
BLACK
6
CONTINUOUS
10
5.12637
20
-3.13513
11
5.13011
21
-3.12763
0
LINE
8
BLACK
6
CONTINUOUS
10
5.13011
20
-3.12763
11
5.13386
21
-3.12388
0
LINE
8
BLACK
6
CONTINUOUS
10
5.13386
20
-3.12388
11
5.14136
21
-3.12013
0
LINE
8
BLACK
6
CONTINUOUS
10
5.14136
20
-3.12013
11
5.15261
21
-3.12013
0
LINE
8
BLACK
6
CONTINUOUS
10
5.15261
20
-3.12013
11
5.16011
21
-3.12388
0
LINE
8
BLACK
6
CONTINUOUS
10
5.16011
20
-3.12388
11
5.16386
21
-3.12763
0
LINE
8
BLACK
6
CONTINUOUS
10
5.16386
20
-3.12763
11
5.16761
21
-3.13513
0
LINE
8
BLACK
6
CONTINUOUS
10
5.16761
20
-3.13513
11
5.16761
21
-3.15763
0
LINE
8
BLACK
6
CONTINUOUS
10
5.16761
20
-3.15763
11
5.16386
21
-3.16513
0
LINE
8
BLACK
6
CONTINUOUS
10
5.16386
20
-3.16513
11
5.16011
21
-3.16888
0
LINE
8
BLACK
6
CONTINUOUS
10
5.16011
20
-3.16888
11
5.15261
21
-3.17263
0
LINE
8
BLACK
6
CONTINUOUS
10
5.15261
20
-3.17263
11
5.14136
21
-3.17263
0
LINE
8
BLACK
6
CONTINUOUS
10
5.2126
20
-3.17263
11
5.20511
21
-3.16888
0
LINE
8
BLACK
6
CONTINUOUS
10
5.20511
20
-3.16888
11
5.20136
21
-3.16138
0
LINE
8
BLACK
6
CONTINUOUS
10
5.20136
20
-3.16138
11
5.20136
21
-3.09389
0
LINE
8
BLACK
6
CONTINUOUS
10
5.2726
20
-3.16888
11
5.2651
21
-3.17263
0
LINE
8
BLACK
6
CONTINUOUS
10
5.2651
20
-3.17263
11
5.2501
21
-3.17263
0
LINE
8
BLACK
6
CONTINUOUS
10
5.2501
20
-3.17263
11
5.2426
21
-3.16888
0
LINE
8
BLACK
6
CONTINUOUS
10
5.2426
20
-3.16888
11
5.23885
21
-3.16138
0
LINE
8
BLACK
6
CONTINUOUS
10
5.23885
20
-3.16138
11
5.23885
21
-3.13138
0
LINE
8
BLACK
6
CONTINUOUS
10
5.23885
20
-3.13138
11
5.2426
21
-3.12388
0
LINE
8
BLACK
6
CONTINUOUS
10
5.2426
20
-3.12388
11
5.2501
21
-3.12013
0
LINE
8
BLACK
6
CONTINUOUS
10
5.2501
20
-3.12013
11
5.2651
21
-3.12013
0
LINE
8
BLACK
6
CONTINUOUS
10
5.2651
20
-3.12013
11
5.2726
21
-3.12388
0
LINE
8
BLACK
6
CONTINUOUS
10
5.2726
20
-3.12388
11
5.27635
21
-3.13138
0
LINE
8
BLACK
6
CONTINUOUS
10
5.27635
20
-3.13138
11
5.27635
21
-3.13888
0
LINE
8
BLACK
6
CONTINUOUS
10
5.27635
20
-3.13888
11
5.23885
21
-3.14638
0
LINE
8
BLACK
6
CONTINUOUS
10
5.30634
20
-3.16888
11
5.31384
21
-3.17263
0
LINE
8
BLACK
6
CONTINUOUS
10
5.31384
20
-3.17263
11
5.32884
21
-3.17263
0
LINE
8
BLACK
6
CONTINUOUS
10
5.32884
20
-3.17263
11
5.33634
21
-3.16888
0
LINE
8
BLACK
6
CONTINUOUS
10
5.33634
20
-3.16888
11
5.34009
21
-3.16138
0
LINE
8
BLACK
6
CONTINUOUS
10
5.34009
20
-3.16138
11
5.34009
21
-3.15763
0
LINE
8
BLACK
6
CONTINUOUS
10
5.34009
20
-3.15763
11
5.33634
21
-3.15013
0
LINE
8
BLACK
6
CONTINUOUS
10
5.33634
20
-3.15013
11
5.32884
21
-3.14638
0
LINE
8
BLACK
6
CONTINUOUS
10
5.32884
20
-3.14638
11
5.31759
21
-3.14638
0
LINE
8
BLACK
6
CONTINUOUS
10
5.31759
20
-3.14638
11
5.31009
21
-3.14263
0
LINE
8
BLACK
6
CONTINUOUS
10
5.31009
20
-3.14263
11
5.30634
21
-3.13513
0
LINE
8
BLACK
6
CONTINUOUS
10
5.30634
20
-3.13513
11
5.30634
21
-3.13138
0
LINE
8
BLACK
6
CONTINUOUS
10
5.30634
20
-3.13138
11
5.31009
21
-3.12388
0
LINE
8
BLACK
6
CONTINUOUS
10
5.31009
20
-3.12388
11
5.31759
21
-3.12013
0
LINE
8
BLACK
6
CONTINUOUS
10
5.31759
20
-3.12013
11
5.32884
21
-3.12013
0
LINE
8
BLACK
6
CONTINUOUS
10
5.32884
20
-3.12013
11
5.33634
21
-3.12388
0
LINE
8
BLACK
6
CONTINUOUS
10
5.36634
20
-3.20262
11
5.37008
21
-3.19888
0
LINE
8
BLACK
6
CONTINUOUS
10
5.37008
20
-3.19888
11
5.37758
21
-3.18763
0
LINE
8
BLACK
6
CONTINUOUS
10
5.37758
20
-3.18763
11
5.38133
21
-3.18013
0
LINE
8
BLACK
6
CONTINUOUS
10
5.38133
20
-3.18013
11
5.38508
21
-3.16888
0
LINE
8
BLACK
6
CONTINUOUS
10
5.38508
20
-3.16888
11
5.38883
21
-3.15013
0
LINE
8
BLACK
6
CONTINUOUS
10
5.38883
20
-3.15013
11
5.38883
21
-3.13513
0
LINE
8
BLACK
6
CONTINUOUS
10
5.38883
20
-3.13513
11
5.38508
21
-3.11639
0
LINE
8
BLACK
6
CONTINUOUS
10
5.38508
20
-3.11639
11
5.38133
21
-3.10514
0
LINE
8
BLACK
6
CONTINUOUS
10
5.38133
20
-3.10514
11
5.37758
21
-3.09764
0
LINE
8
BLACK
6
CONTINUOUS
10
5.37758
20
-3.09764
11
5.37008
21
-3.08639
0
LINE
8
BLACK
6
CONTINUOUS
10
5.37008
20
-3.08639
11
5.36634
21
-3.08264
0
CIRCLE
8
BLACK
10
3.44749
20
-3.24764
40
0.0200787
0
LINE
8
BLACK
6
CONTINUOUS
10
3.60631
20
-3.27657
11
3.56131
21
-3.27657
0
LINE
8
BLACK
6
CONTINUOUS
10
3.58381
20
-3.27657
11
3.58381
21
-3.19783
0
LINE
8
BLACK
6
CONTINUOUS
10
3.58381
20
-3.19783
11
3.57631
21
-3.20907
0
LINE
8
BLACK
6
CONTINUOUS
10
3.57631
20
-3.20907
11
3.56881
21
-3.21657
0
LINE
8
BLACK
6
CONTINUOUS
10
3.56881
20
-3.21657
11
3.56131
21
-3.22032
0
LINE
8
BLACK
6
CONTINUOUS
10
3.64005
20
-3.26907
11
3.6438
21
-3.27282
0
LINE
8
BLACK
6
CONTINUOUS
10
3.6438
20
-3.27282
11
3.64005
21
-3.27657
0
LINE
8
BLACK
6
CONTINUOUS
10
3.64005
20
-3.27657
11
3.6363
21
-3.27282
0
LINE
8
BLACK
6
CONTINUOUS
10
3.6363
20
-3.27282
11
3.64005
21
-3.26907
0
LINE
8
BLACK
6
CONTINUOUS
10
3.64005
20
-3.26907
11
3.64005
21
-3.27657
0
LINE
8
BLACK
6
CONTINUOUS
10
3.69254
20
-3.19783
11
3.70004
21
-3.19783
0
LINE
8
BLACK
6
CONTINUOUS
10
3.70004
20
-3.19783
11
3.70754
21
-3.20157
0
LINE
8
BLACK
6
CONTINUOUS
10
3.70754
20
-3.20157
11
3.71129
21
-3.20532
0
LINE
8
BLACK
6
CONTINUOUS
10
3.71129
20
-3.20532
11
3.71504
21
-3.21282
0
LINE
8
BLACK
6
CONTINUOUS
10
3.71504
20
-3.21282
11
3.71879
21
-3.22782
0
LINE
8
BLACK
6
CONTINUOUS
10
3.71879
20
-3.22782
11
3.71879
21
-3.24657
0
LINE
8
BLACK
6
CONTINUOUS
10
3.71879
20
-3.24657
11
3.71504
21
-3.26157
0
LINE
8
BLACK
6
CONTINUOUS
10
3.71504
20
-3.26157
11
3.71129
21
-3.26907
0
LINE
8
BLACK
6
CONTINUOUS
10
3.71129
20
-3.26907
11
3.70754
21
-3.27282
0
LINE
8
BLACK
6
CONTINUOUS
10
3.70754
20
-3.27282
11
3.70004
21
-3.27657
0
LINE
8
BLACK
6
CONTINUOUS
10
3.70004
20
-3.27657
11
3.69254
21
-3.27657
0
LINE
8
BLACK
6
CONTINUOUS
10
3.69254
20
-3.27657
11
3.68505
21
-3.27282
0
LINE
8
BLACK
6
CONTINUOUS
10
3.68505
20
-3.27282
11
3.6813
21
-3.26907
0
LINE
8
BLACK
6
CONTINUOUS
10
3.6813
20
-3.26907
11
3.67755
21
-3.26157
0
LINE
8
BLACK
6
CONTINUOUS
10
3.67755
20
-3.26157
11
3.6738
21
-3.24657
0
LINE
8
BLACK
6
CONTINUOUS
10
3.6738
20
-3.24657
11
3.6738
21
-3.22782
0
LINE
8
BLACK
6
CONTINUOUS
10
3.6738
20
-3.22782
11
3.67755
21
-3.21282
0
LINE
8
BLACK
6
CONTINUOUS
10
3.67755
20
-3.21282
11
3.6813
21
-3.20532
0
LINE
8
BLACK
6
CONTINUOUS
10
3.6813
20
-3.20532
11
3.68505
21
-3.20157
0
LINE
8
BLACK
6
CONTINUOUS
10
3.68505
20
-3.20157
11
3.69254
21
-3.19783
0
LINE
8
BLACK
6
CONTINUOUS
10
3.74879
20
-3.20532
11
3.75254
21
-3.20157
0
LINE
8
BLACK
6
CONTINUOUS
10
3.75254
20
-3.20157
11
3.76004
21
-3.19783
0
LINE
8
BLACK
6
CONTINUOUS
10
3.76004
20
-3.19783
11
3.77878
21
-3.19783
0
LINE
8
BLACK
6
CONTINUOUS
10
3.77878
20
-3.19783
11
3.78628
21
-3.20157
0
LINE
8
BLACK
6
CONTINUOUS
10
3.78628
20
-3.20157
11
3.79003
21
-3.20532
0
LINE
8
BLACK
6
CONTINUOUS
10
3.79003
20
-3.20532
11
3.79378
21
-3.21282
0
LINE
8
BLACK
6
CONTINUOUS
10
3.79378
20
-3.21282
11
3.79378
21
-3.22032
0
LINE
8
BLACK
6
CONTINUOUS
10
3.79378
20
-3.22032
11
3.79003
21
-3.23157
0
LINE
8
BLACK
6
CONTINUOUS
10
3.79003
20
-3.23157
11
3.74504
21
-3.27657
0
LINE
8
BLACK
6
CONTINUOUS
10
3.74504
20
-3.27657
11
3.79378
21
-3.27657
0
LINE
8
BLACK
6
CONTINUOUS
10
3.84253
20
-3.19783
11
3.85002
21
-3.19783
0
LINE
8
BLACK
6
CONTINUOUS
10
3.85002
20
-3.19783
11
3.85752
21
-3.20157
0
LINE
8
BLACK
6
CONTINUOUS
10
3.85752
20
-3.20157
11
3.86127
21
-3.20532
0
LINE
8
BLACK
6
CONTINUOUS
10
3.86127
20
-3.20532
11
3.86502
21
-3.21282
0
LINE
8
BLACK
6
CONTINUOUS
10
3.86502
20
-3.21282
11
3.86877
21
-3.22782
0
LINE
8
BLACK
6
CONTINUOUS
10
3.86877
20
-3.22782
11
3.86877
21
-3.24657
0
LINE
8
BLACK
6
CONTINUOUS
10
3.86877
20
-3.24657
11
3.86502
21
-3.26157
0
LINE
8
BLACK
6
CONTINUOUS
10
3.86502
20
-3.26157
11
3.86127
21
-3.26907
0
LINE
8
BLACK
6
CONTINUOUS
10
3.86127
20
-3.26907
11
3.85752
21
-3.27282
0
LINE
8
BLACK
6
CONTINUOUS
10
3.85752
20
-3.27282
11
3.85002
21
-3.27657
0
LINE
8
BLACK
6
CONTINUOUS
10
3.85002
20
-3.27657
11
3.84253
21
-3.27657
0
LINE
8
BLACK
6
CONTINUOUS
10
3.84253
20
-3.27657
11
3.83503
21
-3.27282
0
LINE
8
BLACK
6
CONTINUOUS
10
3.83503
20
-3.27282
11
3.83128
21
-3.26907
0
LINE
8
BLACK
6
CONTINUOUS
10
3.83128
20
-3.26907
11
3.82753
21
-3.26157
0
LINE
8
BLACK
6
CONTINUOUS
10
3.82753
20
-3.26157
11
3.82378
21
-3.24657
0
LINE
8
BLACK
6
CONTINUOUS
10
3.82378
20
-3.24657
11
3.82378
21
-3.22782
0
LINE
8
BLACK
6
CONTINUOUS
10
3.82378
20
-3.22782
11
3.82753
21
-3.21282
0
LINE
8
BLACK
6
CONTINUOUS
10
3.82753
20
-3.21282
11
3.83128
21
-3.20532
0
LINE
8
BLACK
6
CONTINUOUS
10
3.83128
20
-3.20532
11
3.83503
21
-3.20157
0
LINE
8
BLACK
6
CONTINUOUS
10
3.83503
20
-3.20157
11
3.84253
21
-3.19783
0
LINE
8
BLACK
6
CONTINUOUS
10
3.90252
20
-3.27657
11
3.90252
21
-3.22407
0
LINE
8
BLACK
6
CONTINUOUS
10
3.90252
20
-3.23157
11
3.90627
21
-3.22782
0
LINE
8
BLACK
6
CONTINUOUS
10
3.90627
20
-3.22782
11
3.91377
21
-3.22407
0
LINE
8
BLACK
6
CONTINUOUS
10
3.91377
20
-3.22407
11
3.92502
21
-3.22407
0
LINE
8
BLACK
6
CONTINUOUS
10
3.92502
20
-3.22407
11
3.93251
21
-3.22782
0
LINE
8
BLACK
6
CONTINUOUS
10
3.93251
20
-3.22782
11
3.93626
21
-3.23532
0
LINE
8
BLACK
6
CONTINUOUS
10
3.93626
20
-3.23532
11
3.93626
21
-3.27657
0
LINE
8
BLACK
6
CONTINUOUS
10
3.93626
20
-3.23532
11
3.94001
21
-3.22782
0
LINE
8
BLACK
6
CONTINUOUS
10
3.94001
20
-3.22782
11
3.94751
21
-3.22407
0
LINE
8
BLACK
6
CONTINUOUS
10
3.94751
20
-3.22407
11
3.95876
21
-3.22407
0
LINE
8
BLACK
6
CONTINUOUS
10
3.95876
20
-3.22407
11
3.96626
21
-3.22782
0
LINE
8
BLACK
6
CONTINUOUS
10
3.96626
20
-3.22782
11
3.97001
21
-3.23532
0
LINE
8
BLACK
6
CONTINUOUS
10
3.97001
20
-3.23532
11
3.97001
21
-3.27657
0
LINE
8
BLACK
6
CONTINUOUS
10
4.00751
20
-3.27657
11
4.00751
21
-3.22407
0
LINE
8
BLACK
6
CONTINUOUS
10
4.00751
20
-3.23157
11
4.01125
21
-3.22782
0
LINE
8
BLACK
6
CONTINUOUS
10
4.01125
20
-3.22782
11
4.01875
21
-3.22407
0
LINE
8
BLACK
6
CONTINUOUS
10
4.01875
20
-3.22407
11
4.03
21
-3.22407
0
LINE
8
BLACK
6
CONTINUOUS
10
4.03
20
-3.22407
11
4.0375
21
-3.22782
0
LINE
8
BLACK
6
CONTINUOUS
10
4.0375
20
-3.22782
11
4.04125
21
-3.23532
0
LINE
8
BLACK
6
CONTINUOUS
10
4.04125
20
-3.23532
11
4.04125
21
-3.27657
0
LINE
8
BLACK
6
CONTINUOUS
10
4.04125
20
-3.23532
11
4.045
21
-3.22782
0
LINE
8
BLACK
6
CONTINUOUS
10
4.045
20
-3.22782
11
4.0525
21
-3.22407
0
LINE
8
BLACK
6
CONTINUOUS
10
4.0525
20
-3.22407
11
4.06375
21
-3.22407
0
LINE
8
BLACK
6
CONTINUOUS
10
4.06375
20
-3.22407
11
4.07125
21
-3.22782
0
LINE
8
BLACK
6
CONTINUOUS
10
4.07125
20
-3.22782
11
4.075
21
-3.23532
0
LINE
8
BLACK
6
CONTINUOUS
10
4.075
20
-3.23532
11
4.075
21
-3.27657
0
LINE
8
BLACK
6
CONTINUOUS
10
4.21598
20
-3.19408
11
4.14849
21
-3.29531
0
LINE
8
BLACK
6
CONTINUOUS
10
4.30447
20
-3.19783
11
4.31197
21
-3.19783
0
LINE
8
BLACK
6
CONTINUOUS
10
4.31197
20
-3.19783
11
4.31947
21
-3.20157
0
LINE
8
BLACK
6
CONTINUOUS
10
4.31947
20
-3.20157
11
4.32322
21
-3.20532
0
LINE
8
BLACK
6
CONTINUOUS
10
4.32322
20
-3.20532
11
4.32697
21
-3.21282
0
LINE
8
BLACK
6
CONTINUOUS
10
4.32697
20
-3.21282
11
4.33071
21
-3.22782
0
LINE
8
BLACK
6
CONTINUOUS
10
4.33071
20
-3.22782
11
4.33071
21
-3.24657
0
LINE
8
BLACK
6
CONTINUOUS
10
4.33071
20
-3.24657
11
4.32697
21
-3.26157
0
LINE
8
BLACK
6
CONTINUOUS
10
4.32697
20
-3.26157
11
4.32322
21
-3.26907
0
LINE
8
BLACK
6
CONTINUOUS
10
4.32322
20
-3.26907
11
4.31947
21
-3.27282
0
LINE
8
BLACK
6
CONTINUOUS
10
4.31947
20
-3.27282
11
4.31197
21
-3.27657
0
LINE
8
BLACK
6
CONTINUOUS
10
4.31197
20
-3.27657
11
4.30447
21
-3.27657
0
LINE
8
BLACK
6
CONTINUOUS
10
4.30447
20
-3.27657
11
4.29697
21
-3.27282
0
LINE
8
BLACK
6
CONTINUOUS
10
4.29697
20
-3.27282
11
4.29322
21
-3.26907
0
LINE
8
BLACK
6
CONTINUOUS
10
4.29322
20
-3.26907
11
4.28947
21
-3.26157
0
LINE
8
BLACK
6
CONTINUOUS
10
4.28947
20
-3.26157
11
4.28572
21
-3.24657
0
LINE
8
BLACK
6
CONTINUOUS
10
4.28572
20
-3.24657
11
4.28572
21
-3.22782
0
LINE
8
BLACK
6
CONTINUOUS
10
4.28572
20
-3.22782
11
4.28947
21
-3.21282
0
LINE
8
BLACK
6
CONTINUOUS
10
4.28947
20
-3.21282
11
4.29322
21
-3.20532
0
LINE
8
BLACK
6
CONTINUOUS
10
4.29322
20
-3.20532
11
4.29697
21
-3.20157
0
LINE
8
BLACK
6
CONTINUOUS
10
4.29697
20
-3.20157
11
4.30447
21
-3.19783
0
LINE
8
BLACK
6
CONTINUOUS
10
4.36446
20
-3.26907
11
4.36821
21
-3.27282
0
LINE
8
BLACK
6
CONTINUOUS
10
4.36821
20
-3.27282
11
4.36446
21
-3.27657
0
LINE
8
BLACK
6
CONTINUOUS
10
4.36446
20
-3.27657
11
4.36071
21
-3.27282
0
LINE
8
BLACK
6
CONTINUOUS
10
4.36071
20
-3.27282
11
4.36446
21
-3.26907
0
LINE
8
BLACK
6
CONTINUOUS
10
4.36446
20
-3.26907
11
4.36446
21
-3.27657
0
LINE
8
BLACK
6
CONTINUOUS
10
4.41695
20
-3.19783
11
4.42445
21
-3.19783
0
LINE
8
BLACK
6
CONTINUOUS
10
4.42445
20
-3.19783
11
4.43195
21
-3.20157
0
LINE
8
BLACK
6
CONTINUOUS
10
4.43195
20
-3.20157
11
4.4357
21
-3.20532
0
LINE
8
BLACK
6
CONTINUOUS
10
4.4357
20
-3.20532
11
4.43945
21
-3.21282
0
LINE
8
BLACK
6
CONTINUOUS
10
4.43945
20
-3.21282
11
4.4432
21
-3.22782
0
LINE
8
BLACK
6
CONTINUOUS
10
4.4432
20
-3.22782
11
4.4432
21
-3.24657
0
LINE
8
BLACK
6
CONTINUOUS
10
4.4432
20
-3.24657
11
4.43945
21
-3.26157
0
LINE
8
BLACK
6
CONTINUOUS
10
4.43945
20
-3.26157
11
4.4357
21
-3.26907
0
LINE
8
BLACK
6
CONTINUOUS
10
4.4357
20
-3.26907
11
4.43195
21
-3.27282
0
LINE
8
BLACK
6
CONTINUOUS
10
4.43195
20
-3.27282
11
4.42445
21
-3.27657
0
LINE
8
BLACK
6
CONTINUOUS
10
4.42445
20
-3.27657
11
4.41695
21
-3.27657
0
LINE
8
BLACK
6
CONTINUOUS
10
4.41695
20
-3.27657
11
4.40945
21
-3.27282
0
LINE
8
BLACK
6
CONTINUOUS
10
4.40945
20
-3.27282
11
4.40571
21
-3.26907
0
LINE
8
BLACK
6
CONTINUOUS
10
4.40571
20
-3.26907
11
4.40196
21
-3.26157
0
LINE
8
BLACK
6
CONTINUOUS
10
4.40196
20
-3.26157
11
4.39821
21
-3.24657
0
LINE
8
BLACK
6
CONTINUOUS
10
4.39821
20
-3.24657
11
4.39821
21
-3.22782
0
LINE
8
BLACK
6
CONTINUOUS
10
4.39821
20
-3.22782
11
4.40196
21
-3.21282
0
LINE
8
BLACK
6
CONTINUOUS
10
4.40196
20
-3.21282
11
4.40571
21
-3.20532
0
LINE
8
BLACK
6
CONTINUOUS
10
4.40571
20
-3.20532
11
4.40945
21
-3.20157
0
LINE
8
BLACK
6
CONTINUOUS
10
4.40945
20
-3.20157
11
4.41695
21
-3.19783
0
LINE
8
BLACK
6
CONTINUOUS
10
4.51069
20
-3.22407
11
4.51069
21
-3.27657
0
LINE
8
BLACK
6
CONTINUOUS
10
4.49194
20
-3.19408
11
4.4732
21
-3.25032
0
LINE
8
BLACK
6
CONTINUOUS
10
4.4732
20
-3.25032
11
4.52194
21
-3.25032
0
LINE
8
BLACK
6
CONTINUOUS
10
4.56694
20
-3.19783
11
4.57443
21
-3.19783
0
LINE
8
BLACK
6
CONTINUOUS
10
4.57443
20
-3.19783
11
4.58193
21
-3.20157
0
LINE
8
BLACK
6
CONTINUOUS
10
4.58193
20
-3.20157
11
4.58568
21
-3.20532
0
LINE
8
BLACK
6
CONTINUOUS
10
4.58568
20
-3.20532
11
4.58943
21
-3.21282
0
LINE
8
BLACK
6
CONTINUOUS
10
4.58943
20
-3.21282
11
4.59318
21
-3.22782
0
LINE
8
BLACK
6
CONTINUOUS
10
4.59318
20
-3.22782
11
4.59318
21
-3.24657
0
LINE
8
BLACK
6
CONTINUOUS
10
4.59318
20
-3.24657
11
4.58943
21
-3.26157
0
LINE
8
BLACK
6
CONTINUOUS
10
4.58943
20
-3.26157
11
4.58568
21
-3.26907
0
LINE
8
BLACK
6
CONTINUOUS
10
4.58568
20
-3.26907
11
4.58193
21
-3.27282
0
LINE
8
BLACK
6
CONTINUOUS
10
4.58193
20
-3.27282
11
4.57443
21
-3.27657
0
LINE
8
BLACK
6
CONTINUOUS
10
4.57443
20
-3.27657
11
4.56694
21
-3.27657
0
LINE
8
BLACK
6
CONTINUOUS
10
4.56694
20
-3.27657
11
4.55944
21
-3.27282
0
LINE
8
BLACK
6
CONTINUOUS
10
4.55944
20
-3.27282
11
4.55569
21
-3.26907
0
LINE
8
BLACK
6
CONTINUOUS
10
4.55569
20
-3.26907
11
4.55194
21
-3.26157
0
LINE
8
BLACK
6
CONTINUOUS
10
4.55194
20
-3.26157
11
4.54819
21
-3.24657
0
LINE
8
BLACK
6
CONTINUOUS
10
4.54819
20
-3.24657
11
4.54819
21
-3.22782
0
LINE
8
BLACK
6
CONTINUOUS
10
4.54819
20
-3.22782
11
4.55194
21
-3.21282
0
LINE
8
BLACK
6
CONTINUOUS
10
4.55194
20
-3.21282
11
4.55569
21
-3.20532
0
LINE
8
BLACK
6
CONTINUOUS
10
4.55569
20
-3.20532
11
4.55944
21
-3.20157
0
LINE
8
BLACK
6
CONTINUOUS
10
4.55944
20
-3.20157
11
4.56694
21
-3.19783
0
LINE
8
BLACK
6
CONTINUOUS
10
4.62318
20
-3.20532
11
4.62693
21
-3.20157
0
LINE
8
BLACK
6
CONTINUOUS
10
4.62693
20
-3.20157
11
4.63443
21
-3.19783
0
LINE
8
BLACK
6
CONTINUOUS
10
4.63443
20
-3.19783
11
4.65317
21
-3.19783
0
LINE
8
BLACK
6
CONTINUOUS
10
4.65317
20
-3.19783
11
4.66067
21
-3.20157
0
LINE
8
BLACK
6
CONTINUOUS
10
4.66067
20
-3.20157
11
4.66442
21
-3.20532
0
LINE
8
BLACK
6
CONTINUOUS
10
4.66442
20
-3.20532
11
4.66817
21
-3.21282
0
LINE
8
BLACK
6
CONTINUOUS
10
4.66817
20
-3.21282
11
4.66817
21
-3.22032
0
LINE
8
BLACK
6
CONTINUOUS
10
4.66817
20
-3.22032
11
4.66442
21
-3.23157
0
LINE
8
BLACK
6
CONTINUOUS
10
4.66442
20
-3.23157
11
4.61943
21
-3.27657
0
LINE
8
BLACK
6
CONTINUOUS
10
4.61943
20
-3.27657
11
4.66817
21
-3.27657
0
LINE
8
BLACK
6
CONTINUOUS
10
4.69817
20
-3.19783
11
4.69817
21
-3.21282
0
LINE
8
BLACK
6
CONTINUOUS
10
4.72817
20
-3.19783
11
4.72817
21
-3.21282
0
LINE
8
BLACK
6
CONTINUOUS
10
4.83165
20
-3.30656
11
4.8279
21
-3.30281
0
LINE
8
BLACK
6
CONTINUOUS
10
4.8279
20
-3.30281
11
4.8204
21
-3.29156
0
LINE
8
BLACK
6
CONTINUOUS
10
4.8204
20
-3.29156
11
4.81665
21
-3.28406
0
LINE
8
BLACK
6
CONTINUOUS
10
4.81665
20
-3.28406
11
4.8129
21
-3.27282
0
LINE
8
BLACK
6
CONTINUOUS
10
4.8129
20
-3.27282
11
4.80916
21
-3.25407
0
LINE
8
BLACK
6
CONTINUOUS
10
4.80916
20
-3.25407
11
4.80916
21
-3.23907
0
LINE
8
BLACK
6
CONTINUOUS
10
4.80916
20
-3.23907
11
4.8129
21
-3.22032
0
LINE
8
BLACK
6
CONTINUOUS
10
4.8129
20
-3.22032
11
4.81665
21
-3.20907
0
LINE
8
BLACK
6
CONTINUOUS
10
4.81665
20
-3.20907
11
4.8204
21
-3.20157
0
LINE
8
BLACK
6
CONTINUOUS
10
4.8204
20
-3.20157
11
4.8279
21
-3.19033
0
LINE
8
BLACK
6
CONTINUOUS
10
4.8279
20
-3.19033
11
4.83165
21
-3.18658
0
LINE
8
BLACK
6
CONTINUOUS
10
4.89539
20
-3.19783
11
4.8804
21
-3.19783
0
LINE
8
BLACK
6
CONTINUOUS
10
4.8804
20
-3.19783
11
4.8729
21
-3.20157
0
LINE
8
BLACK
6
CONTINUOUS
10
4.8729
20
-3.20157
11
4.86915
21
-3.20532
0
LINE
8
BLACK
6
CONTINUOUS
10
4.86915
20
-3.20532
11
4.86165
21
-3.21657
0
LINE
8
BLACK
6
CONTINUOUS
10
4.86165
20
-3.21657
11
4.8579
21
-3.23157
0
LINE
8
BLACK
6
CONTINUOUS
10
4.8579
20
-3.23157
11
4.8579
21
-3.26157
0
LINE
8
BLACK
6
CONTINUOUS
10
4.8579
20
-3.26157
11
4.86165
21
-3.26907
0
LINE
8
BLACK
6
CONTINUOUS
10
4.86165
20
-3.26907
11
4.8654
21
-3.27282
0
LINE
8
BLACK
6
CONTINUOUS
10
4.8654
20
-3.27282
11
4.8729
21
-3.27657
0
LINE
8
BLACK
6
CONTINUOUS
10
4.8729
20
-3.27657
11
4.8879
21
-3.27657
0
LINE
8
BLACK
6
CONTINUOUS
10
4.8879
20
-3.27657
11
4.89539
21
-3.27282
0
LINE
8
BLACK
6
CONTINUOUS
10
4.89539
20
-3.27282
11
4.89914
21
-3.26907
0
LINE
8
BLACK
6
CONTINUOUS
10
4.89914
20
-3.26907
11
4.90289
21
-3.26157
0
LINE
8
BLACK
6
CONTINUOUS
10
4.90289
20
-3.26157
11
4.90289
21
-3.24282
0
LINE
8
BLACK
6
CONTINUOUS
10
4.90289
20
-3.24282
11
4.89914
21
-3.23532
0
LINE
8
BLACK
6
CONTINUOUS
10
4.89914
20
-3.23532
11
4.89539
21
-3.23157
0
LINE
8
BLACK
6
CONTINUOUS
10
4.89539
20
-3.23157
11
4.8879
21
-3.22782
0
LINE
8
BLACK
6
CONTINUOUS
10
4.8879
20
-3.22782
11
4.8729
21
-3.22782
0
LINE
8
BLACK
6
CONTINUOUS
10
4.8729
20
-3.22782
11
4.8654
21
-3.23157
0
LINE
8
BLACK
6
CONTINUOUS
10
4.8654
20
-3.23157
11
4.86165
21
-3.23532
0
LINE
8
BLACK
6
CONTINUOUS
10
4.86165
20
-3.23532
11
4.8579
21
-3.24282
0
LINE
8
BLACK
6
CONTINUOUS
10
4.94789
20
-3.23157
11
4.94039
21
-3.22782
0
LINE
8
BLACK
6
CONTINUOUS
10
4.94039
20
-3.22782
11
4.93664
21
-3.22407
0
LINE
8
BLACK
6
CONTINUOUS
10
4.93664
20
-3.22407
11
4.93289
21
-3.21657
0
LINE
8
BLACK
6
CONTINUOUS
10
4.93289
20
-3.21657
11
4.93289
21
-3.21282
0
LINE
8
BLACK
6
CONTINUOUS
10
4.93289
20
-3.21282
11
4.93664
21
-3.20532
0
LINE
8
BLACK
6
CONTINUOUS
10
4.93664
20
-3.20532
11
4.94039
21
-3.20157
0
LINE
8
BLACK
6
CONTINUOUS
10
4.94039
20
-3.20157
11
4.94789
21
-3.19783
0
LINE
8
BLACK
6
CONTINUOUS
10
4.94789
20
-3.19783
11
4.96289
21
-3.19783
0
LINE
8
BLACK
6
CONTINUOUS
10
4.96289
20
-3.19783
11
4.97038
21
-3.20157
0
LINE
8
BLACK
6
CONTINUOUS
10
4.97038
20
-3.20157
11
4.97413
21
-3.20532
0
LINE
8
BLACK
6
CONTINUOUS
10
4.97413
20
-3.20532
11
4.97788
21
-3.21282
0
LINE
8
BLACK
6
CONTINUOUS
10
4.97788
20
-3.21282
11
4.97788
21
-3.21657
0
LINE
8
BLACK
6
CONTINUOUS
10
4.97788
20
-3.21657
11
4.97413
21
-3.22407
0
LINE
8
BLACK
6
CONTINUOUS
10
4.97413
20
-3.22407
11
4.97038
21
-3.22782
0
LINE
8
BLACK
6
CONTINUOUS
10
4.97038
20
-3.22782
11
4.96289
21
-3.23157
0
LINE
8
BLACK
6
CONTINUOUS
10
4.96289
20
-3.23157
11
4.94789
21
-3.23157
0
LINE
8
BLACK
6
CONTINUOUS
10
4.94789
20
-3.23157
11
4.94039
21
-3.23532
0
LINE
8
BLACK
6
CONTINUOUS
10
4.94039
20
-3.23532
11
4.93664
21
-3.23907
0
LINE
8
BLACK
6
CONTINUOUS
10
4.93664
20
-3.23907
11
4.93289
21
-3.24657
0
LINE
8
BLACK
6
CONTINUOUS
10
4.93289
20
-3.24657
11
4.93289
21
-3.26157
0
LINE
8
BLACK
6
CONTINUOUS
10
4.93289
20
-3.26157
11
4.93664
21
-3.26907
0
LINE
8
BLACK
6
CONTINUOUS
10
4.93664
20
-3.26907
11
4.94039
21
-3.27282
0
LINE
8
BLACK
6
CONTINUOUS
10
4.94039
20
-3.27282
11
4.94789
21
-3.27657
0
LINE
8
BLACK
6
CONTINUOUS
10
4.94789
20
-3.27657
11
4.96289
21
-3.27657
0
LINE
8
BLACK
6
CONTINUOUS
10
4.96289
20
-3.27657
11
4.97038
21
-3.27282
0
LINE
8
BLACK
6
CONTINUOUS
10
4.97038
20
-3.27282
11
4.97413
21
-3.26907
0
LINE
8
BLACK
6
CONTINUOUS
10
4.97413
20
-3.26907
11
4.97788
21
-3.26157
0
LINE
8
BLACK
6
CONTINUOUS
10
4.97788
20
-3.26157
11
4.97788
21
-3.24657
0
LINE
8
BLACK
6
CONTINUOUS
10
4.97788
20
-3.24657
11
4.97413
21
-3.23907
0
LINE
8
BLACK
6
CONTINUOUS
10
4.97413
20
-3.23907
11
4.97038
21
-3.23532
0
LINE
8
BLACK
6
CONTINUOUS
10
4.97038
20
-3.23532
11
4.96289
21
-3.23157
0
LINE
8
BLACK
6
CONTINUOUS
10
5.05887
20
-3.27657
11
5.05887
21
-3.19783
0
LINE
8
BLACK
6
CONTINUOUS
10
5.09262
20
-3.27657
11
5.09262
21
-3.23532
0
LINE
8
BLACK
6
CONTINUOUS
10
5.09262
20
-3.23532
11
5.08887
21
-3.22782
0
LINE
8
BLACK
6
CONTINUOUS
10
5.08887
20
-3.22782
11
5.08137
21
-3.22407
0
LINE
8
BLACK
6
CONTINUOUS
10
5.08137
20
-3.22407
11
5.07012
21
-3.22407
0
LINE
8
BLACK
6
CONTINUOUS
10
5.07012
20
-3.22407
11
5.06262
21
-3.22782
0
LINE
8
BLACK
6
CONTINUOUS
10
5.06262
20
-3.22782
11
5.05887
21
-3.23157
0
LINE
8
BLACK
6
CONTINUOUS
10
5.14136
20
-3.27657
11
5.13386
21
-3.27282
0
LINE
8
BLACK
6
CONTINUOUS
10
5.13386
20
-3.27282
11
5.13011
21
-3.26907
0
LINE
8
BLACK
6
CONTINUOUS
10
5.13011
20
-3.26907
11
5.12637
21
-3.26157
0
LINE
8
BLACK
6
CONTINUOUS
10
5.12637
20
-3.26157
11
5.12637
21
-3.23907
0
LINE
8
BLACK
6
CONTINUOUS
10
5.12637
20
-3.23907
11
5.13011
21
-3.23157
0
LINE
8
BLACK
6
CONTINUOUS
10
5.13011
20
-3.23157
11
5.13386
21
-3.22782
0
LINE
8
BLACK
6
CONTINUOUS
10
5.13386
20
-3.22782
11
5.14136
21
-3.22407
0
LINE
8
BLACK
6
CONTINUOUS
10
5.14136
20
-3.22407
11
5.15261
21
-3.22407
0
LINE
8
BLACK
6
CONTINUOUS
10
5.15261
20
-3.22407
11
5.16011
21
-3.22782
0
LINE
8
BLACK
6
CONTINUOUS
10
5.16011
20
-3.22782
11
5.16386
21
-3.23157
0
LINE
8
BLACK
6
CONTINUOUS
10
5.16386
20
-3.23157
11
5.16761
21
-3.23907
0
LINE
8
BLACK
6
CONTINUOUS
10
5.16761
20
-3.23907
11
5.16761
21
-3.26157
0
LINE
8
BLACK
6
CONTINUOUS
10
5.16761
20
-3.26157
11
5.16386
21
-3.26907
0
LINE
8
BLACK
6
CONTINUOUS
10
5.16386
20
-3.26907
11
5.16011
21
-3.27282
0
LINE
8
BLACK
6
CONTINUOUS
10
5.16011
20
-3.27282
11
5.15261
21
-3.27657
0
LINE
8
BLACK
6
CONTINUOUS
10
5.15261
20
-3.27657
11
5.14136
21
-3.27657
0
LINE
8
BLACK
6
CONTINUOUS
10
5.2126
20
-3.27657
11
5.20511
21
-3.27282
0
LINE
8
BLACK
6
CONTINUOUS
10
5.20511
20
-3.27282
11
5.20136
21
-3.26532
0
LINE
8
BLACK
6
CONTINUOUS
10
5.20136
20
-3.26532
11
5.20136
21
-3.19783
0
LINE
8
BLACK
6
CONTINUOUS
10
5.2726
20
-3.27282
11
5.2651
21
-3.27657
0
LINE
8
BLACK
6
CONTINUOUS
10
5.2651
20
-3.27657
11
5.2501
21
-3.27657
0
LINE
8
BLACK
6
CONTINUOUS
10
5.2501
20
-3.27657
11
5.2426
21
-3.27282
0
LINE
8
BLACK
6
CONTINUOUS
10
5.2426
20
-3.27282
11
5.23885
21
-3.26532
0
LINE
8
BLACK
6
CONTINUOUS
10
5.23885
20
-3.26532
11
5.23885
21
-3.23532
0
LINE
8
BLACK
6
CONTINUOUS
10
5.23885
20
-3.23532
11
5.2426
21
-3.22782
0
LINE
8
BLACK
6
CONTINUOUS
10
5.2426
20
-3.22782
11
5.2501
21
-3.22407
0
LINE
8
BLACK
6
CONTINUOUS
10
5.2501
20
-3.22407
11
5.2651
21
-3.22407
0
LINE
8
BLACK
6
CONTINUOUS
10
5.2651
20
-3.22407
11
5.2726
21
-3.22782
0
LINE
8
BLACK
6
CONTINUOUS
10
5.2726
20
-3.22782
11
5.27635
21
-3.23532
0
LINE
8
BLACK
6
CONTINUOUS
10
5.27635
20
-3.23532
11
5.27635
21
-3.24282
0
LINE
8
BLACK
6
CONTINUOUS
10
5.27635
20
-3.24282
11
5.23885
21
-3.25032
0
LINE
8
BLACK
6
CONTINUOUS
10
5.30634
20
-3.27282
11
5.31384
21
-3.27657
0
LINE
8
BLACK
6
CONTINUOUS
10
5.31384
20
-3.27657
11
5.32884
21
-3.27657
0
LINE
8
BLACK
6
CONTINUOUS
10
5.32884
20
-3.27657
11
5.33634
21
-3.27282
0
LINE
8
BLACK
6
CONTINUOUS
10
5.33634
20
-3.27282
11
5.34009
21
-3.26532
0
LINE
8
BLACK
6
CONTINUOUS
10
5.34009
20
-3.26532
11
5.34009
21
-3.26157
0
LINE
8
BLACK
6
CONTINUOUS
10
5.34009
20
-3.26157
11
5.33634
21
-3.25407
0
LINE
8
BLACK
6
CONTINUOUS
10
5.33634
20
-3.25407
11
5.32884
21
-3.25032
0
LINE
8
BLACK
6
CONTINUOUS
10
5.32884
20
-3.25032
11
5.31759
21
-3.25032
0
LINE
8
BLACK
6
CONTINUOUS
10
5.31759
20
-3.25032
11
5.31009
21
-3.24657
0
LINE
8
BLACK
6
CONTINUOUS
10
5.31009
20
-3.24657
11
5.30634
21
-3.23907
0
LINE
8
BLACK
6
CONTINUOUS
10
5.30634
20
-3.23907
11
5.30634
21
-3.23532
0
LINE
8
BLACK
6
CONTINUOUS
10
5.30634
20
-3.23532
11
5.31009
21
-3.22782
0
LINE
8
BLACK
6
CONTINUOUS
10
5.31009
20
-3.22782
11
5.31759
21
-3.22407
0
LINE
8
BLACK
6
CONTINUOUS
10
5.31759
20
-3.22407
11
5.32884
21
-3.22407
0
LINE
8
BLACK
6
CONTINUOUS
10
5.32884
20
-3.22407
11
5.33634
21
-3.22782
0
LINE
8
BLACK
6
CONTINUOUS
10
5.36634
20
-3.30656
11
5.37008
21
-3.30281
0
LINE
8
BLACK
6
CONTINUOUS
10
5.37008
20
-3.30281
11
5.37758
21
-3.29156
0
LINE
8
BLACK
6
CONTINUOUS
10
5.37758
20
-3.29156
11
5.38133
21
-3.28406
0
LINE
8
BLACK
6
CONTINUOUS
10
5.38133
20
-3.28406
11
5.38508
21
-3.27282
0
LINE
8
BLACK
6
CONTINUOUS
10
5.38508
20
-3.27282
11
5.38883
21
-3.25407
0
LINE
8
BLACK
6
CONTINUOUS
10
5.38883
20
-3.25407
11
5.38883
21
-3.23907
0
LINE
8
BLACK
6
CONTINUOUS
10
5.38883
20
-3.23907
11
5.38508
21
-3.22032
0
LINE
8
BLACK
6
CONTINUOUS
10
5.38508
20
-3.22032
11
5.38133
21
-3.20907
0
LINE
8
BLACK
6
CONTINUOUS
10
5.38133
20
-3.20907
11
5.37758
21
-3.20157
0
LINE
8
BLACK
6
CONTINUOUS
10
5.37758
20
-3.20157
11
5.37008
21
-3.19033
0
LINE
8
BLACK
6
CONTINUOUS
10
5.37008
20
-3.19033
11
5.36634
21
-3.18658
  0
ENDSEC
  0
EOF
